<svg xmlns="http://www.w3.org/2000/svg" width="29" height="27" viewBox="0 0 29 27">
    <g fill="none" fill-rule="evenodd">
        <g fill="#22397C" fill-rule="nonzero">
            <g>
                <g>
                    <g>
                        <g transform="translate(-310 -1363) translate(8 1354) translate(288) translate(14 9) translate(0 3)">
                            <path d="M22.713 4.077C22.143 3.394 21.3 2.999 20.41 3H4.242L4.2 2.649C4.022 1.139 2.743.001 1.222 0H1C.448 0 0 .448 0 1s.448 1 1 1h.222c.507 0 .934.38.993.883l1.376 11.7C3.887 17.102 6.021 19 8.557 19H19c.552 0 1-.448 1-1s-.448-1-1-1H8.557c-1.268-.004-2.397-.804-2.82-2h11.92c2.42 0 4.492-1.732 4.921-4.113l.785-4.354c.159-.875-.08-1.774-.65-2.456zM21.4 6.178l-.786 4.354c-.258 1.43-1.504 2.47-2.957 2.468H5.419l-.941-8H20.41c.297-.002.58.129.772.357.19.227.27.528.218.821z"/>
                            <circle cx="7" cy="22" r="2"/>
                            <circle cx="17" cy="22" r="2"/>
                        </g>
                        <path d="M28.286 3.286h-2.429c-.079 0-.143-.064-.143-.143V.714C25.714.32 25.394 0 25 0c-.394 0-.714.32-.714.714v2.429c0 .079-.064.143-.143.143h-2.429c-.394 0-.714.32-.714.714 0 .394.32.714.714.714h2.429c.079 0 .143.064.143.143v2.429c0 .394.32.714.714.714.394 0 .714-.32.714-.714V4.857c0-.079.064-.143.143-.143h2.429c.394 0 .714-.32.714-.714 0-.394-.32-.714-.714-.714z" transform="translate(-310 -1363) translate(8 1354) translate(288) translate(14 9)"/>
                    </g>
                </g>
            </g>
        </g>
    </g>
</svg>
