<svg width="72" height="36" viewBox="0 0 72 36" fill="none" xmlns="http://www.w3.org/2000/svg">
<path d="M44.1818 7.5H40.7045V7.14C40.7045 4.854 38.5977 3 36 3C33.4023 3 31.2955 4.854 31.2955 7.14V7.5H27.8182C27.3656 7.5 27 7.82175 27 8.22V20.28C27 20.6782 27.3656 21 27.8182 21H44.1818C44.6344 21 45 20.6782 45 20.28V8.22C45 7.82175 44.6344 7.5 44.1818 7.5ZM33.1364 7.14C33.1364 5.74725 34.4173 4.62 36 4.62C37.5827 4.62 38.8636 5.74725 38.8636 7.14V7.5H33.1364V7.14ZM43.1591 19.38H28.8409V9.12H31.2955V11.1C31.2955 11.199 31.3875 11.28 31.5 11.28H32.9318C33.0443 11.28 33.1364 11.199 33.1364 11.1V9.12H38.8636V11.1C38.8636 11.199 38.9557 11.28 39.0682 11.28H40.5C40.6125 11.28 40.7045 11.199 40.7045 11.1V9.12H43.1591V19.38Z" fill="black" fill-opacity="0.54"/>
<path d="M22.3833 25.492V34H25.5273C27.1113 34 28.1673 33.016 28.1673 31.648C28.1673 30.64 27.5433 29.86 26.6433 29.62C27.3753 29.356 27.9033 28.684 27.9033 27.784C27.9033 26.452 26.9433 25.492 25.3113 25.492H22.3833ZM23.8113 29.092V26.716H25.0833C25.9593 26.716 26.4633 27.184 26.4633 27.904C26.4633 28.612 25.9593 29.092 25.1193 29.092H23.8113ZM23.8113 32.776V30.304H25.3233C26.2113 30.304 26.7033 30.82 26.7033 31.552C26.7033 32.308 26.1393 32.776 25.2753 32.776H23.8113ZM32.1789 32.932C31.3269 32.932 30.5469 32.284 30.5469 31.072C30.5469 29.86 31.3269 29.236 32.1789 29.236C33.0429 29.236 33.8109 29.86 33.8109 31.072C33.8109 32.296 33.0429 32.932 32.1789 32.932ZM32.1789 27.976C30.4389 27.976 29.1549 29.284 29.1549 31.072C29.1549 32.872 30.4389 34.18 32.1789 34.18C33.9309 34.18 35.2149 32.872 35.2149 31.072C35.2149 29.284 33.9309 27.976 32.1789 27.976ZM37.9522 34V25.312H36.5602V34H37.9522ZM39.2317 32.416C39.3037 33.076 39.9517 34.18 41.6437 34.18C43.1317 34.18 43.8517 33.196 43.8517 32.308C43.8517 31.444 43.2757 30.772 42.1717 30.532L41.2837 30.352C40.9237 30.28 40.6957 30.052 40.6957 29.74C40.6957 29.38 41.0437 29.068 41.5357 29.068C42.3157 29.068 42.5677 29.608 42.6157 29.944L43.7917 29.608C43.6957 29.032 43.1677 27.976 41.5357 27.976C40.3237 27.976 39.3877 28.84 39.3877 29.86C39.3877 30.664 39.9277 31.336 40.9597 31.564L41.8237 31.756C42.2917 31.852 42.5077 32.092 42.5077 32.404C42.5077 32.764 42.2077 33.076 41.6317 33.076C40.8877 33.076 40.4917 32.608 40.4437 32.08L39.2317 32.416ZM44.79 32.416C44.79 33.34 45.546 34.18 46.77 34.18C47.718 34.18 48.294 33.7 48.57 33.256C48.57 33.724 48.618 33.964 48.63 34H49.926C49.914 33.94 49.854 33.592 49.854 33.064V30.16C49.854 28.996 49.17 27.976 47.37 27.976C45.93 27.976 45.018 28.876 44.91 29.884L46.182 30.172C46.242 29.584 46.65 29.116 47.382 29.116C48.15 29.116 48.486 29.512 48.486 30.004C48.486 30.208 48.39 30.376 48.054 30.424L46.554 30.652C45.558 30.796 44.79 31.372 44.79 32.416ZM47.034 33.088C46.482 33.088 46.182 32.728 46.182 32.332C46.182 31.852 46.53 31.612 46.962 31.54L48.486 31.312V31.576C48.486 32.716 47.814 33.088 47.034 33.088Z" fill="black" fill-opacity="0.54"/>
</svg>
