<?xml version="1.0" encoding="utf-8"?>
<!-- Generator: Adobe Illustrator 24.0.3, SVG Export Plug-In . SVG Version: 6.00 Build 0)  -->
<svg version="1.1" id="Layer_1" xmlns="http://www.w3.org/2000/svg" xmlns:xlink="http://www.w3.org/1999/xlink" x="0px" y="0px"
	 viewBox="0 0 800 800" style="enable-background:new 0 0 800 800;" xml:space="preserve">
<style type="text/css">
	.st0{fill:#E30613;}
	.st1{fill:#FFFFFF;}
	.st2{fill:#95CBEF;}
	.st3{fill:#12100B;}
</style>
<g>
	<path d="M90.01,40.78l652.16,105c0,0,5.74,0.69,6.02,8.09c0.41,11.31,22.3,502.53,22.3,502.53c0.12,5.39-5.71,10.6-7.37,11.72
		c0,0,0.94,1.64,0.97,4.14c0.16,12.3-1.84,62.65-1.71,68.5c0.29,13.29-7.3,27.85-23.87,27.85c-11.83,0-672.54,0-677.53,0
		c-9.39,0-31.23-5.43-31.23-38.87c0.7-14.77,5.81-654.9,5.81-654.9s0-4.67,0-11.77c0-6.97,6.81-10.22,24.81-18
		c8.27-3.58,17.02-6.75,22.49-7.29C88.01,37.3,87.17,38.58,90.01,40.78z"/>
	<path class="st0" d="M94.88,599.05l665.46,16.6l1.87,39.56l-72.64,3.75c0,0-2.98,0.11-4.44,1.83c-1.46,1.73-1.21,4.18-1.21,4.18
		l-0.15,61.06L94.88,721.8V599.05z"/>
	<polygon class="st1" points="694.08,721.11 693.94,669.45 750.39,666.21 	"/>
	<polygon class="st1" points="95.54,46.61 94.88,599.05 760.34,615.65 738.88,153.99 	"/>
	<path d="M538.5,166.63c-4.97,6.97-14.44,6.86-22.26,2.89c-9.07-4.6-12.7-14.53-9.3-21.36c3.4-6.83,13.54-8.7,22.64-4.17
		C538.69,148.52,542.93,160.41,538.5,166.63z"/>
	<path d="M316.47,112.06c5.27,8.31,4.57,17.52-2.7,22.14c-7.27,4.62-19.87,1.74-25.15-6.57c-5.27-8.31-4.15-18.28,3.12-22.9
		C299.02,100.12,311.2,103.76,316.47,112.06z"/>
	<polygon points="200.74,308.8 309.13,319.86 309.13,354.05 241.98,347.12 242.71,378.5 305.48,383.61 306.29,415.39 242.79,411.37 
		243.26,473.13 202.34,472.65 	"/>
	<polygon points="320.57,320.72 361.59,324.79 365.12,478.12 323.55,476.39 	"/>
	<polygon points="381.96,326.7 427.88,331.04 495.52,431.02 492.26,337.29 529.48,341.37 535.19,485.08 487.64,483.72 
		421.46,385.05 424.14,480.58 385.77,479.37 	"/>
	<path class="st0" d="M590.53,391.09c-1.4,8.57-9.75,14.31-20.13,12.62c-10.38-1.69-18.06-11.01-16.66-19.58
		c1.4-8.57,9.93-12.93,20.3-11.23C584.42,374.59,591.93,382.52,590.53,391.09z"/>
	<path class="st0" d="M593.68,455.03c-1.4,8.59-9.75,14.34-20.13,12.65c-10.38-1.69-18.06-11.02-16.66-19.61
		c1.4-8.59,9.93-12.96,20.31-11.26C587.57,438.5,595.08,446.44,593.68,455.03z"/>
	<path d="M290.55,253.5c-2.55-4.23-11.01-10.35-17.17-12.14c-1.84-0.53-2.58-0.61-3.36-1.49c4.01-0.52,12.54-4.48,15.11-8.14
		c3.84-5.49,4.86-9.46,4.86-17.23c0-20.98-15.4-30.54-29.48-33.1c-13.62-2.48-62.11-9.26-62.11-9.26l0.41,127.62
		c0,0,40.05,5,60.36,5c27.64,0,36.22-17.65,36.22-30.35C295.38,266.05,293.91,259.08,290.55,253.5z M229.75,201.47l12.97,1.63
		c9.59,1.67,12.4,7.6,12.33,11.42c-0.07,4.12,0.05,6.46-1.78,9.21c-1.61,2.42-4.13,4.32-8.97,4.04c-4.23-0.24-14.24-1.43-14.24-1.43
		L229.75,201.47z M258.16,275.94c-2.27,2.44-7.34,3.69-11.67,3.14c-5.46-0.69-15.83-2-15.83-2l0.03-26.55l15.76,1.47
		c5.95,0.76,8.89,2.87,11.09,5.22C263.69,263.77,260.43,273.51,258.16,275.94z"/>
	<path d="M382.03,198.76l31.4,4.34l2.37,62.28c0,7.55,0.5,15.08-0.65,22c-1.16,6.97-4.21,14.15-9.01,19.18
		c-4.8,5.02-11.86,12.4-39.96,12.4c-17.54,0-36.24-6.08-47.33-15.75c-13.41-11.68-14.72-32.77-14.72-39.04l-0.72-76.9l30.39,4.56
		l2.23,76.48c0,17.27,15.12,23.98,25.32,23.98c8.39,0,14.47-0.97,18.16-4.83c3.69-3.86,4.56-8.26,4.56-15.33L382.03,198.76z"/>
	<path d="M429.54,205.47l85.94,12.63l0.79,24.25l-54.39-7.21L462,255.8l51.84,6.52l0.57,23.56l-51.04-6.08l0.18,21.86l56.14,5.7
		l0.5,24.86l-86.75-8.76L429.54,205.47z"/>
	<path d="M528.85,220.27l35.53,5.02l53.22,77.74l-2.96-70.27l28.92,4.4l5.41,107.78l-36.61-3.54l-52.82-76.74l2.5,71.75l-28.65-2.91
		L528.85,220.27z"/>
	<path class="st0" d="M607.34,360.32c0,0,8.06-1.98,14.54,6.09c6.48,8.06,25.56,30.93,25.56,65.02c0,22.82-16.76,50.46-25.23,53.41
		c0,0-12.88,1.88-9.92-2.56c1.81-2.71,6.33-11.63,7.76-15.93c2.42-7.27,7.07-12.51,7.07-45.26c0-14.51-9.08-39.59-18.81-54.42
		C608.31,366.67,604.06,361.53,607.34,360.32z"/>
	<g>
		<path d="M166.19,532.56l0.56-23.47l4.69,0.12c2.25,0.06,4.02,0.34,5.31,0.83c1.39,0.49,2.64,1.3,3.75,2.42
			c2.25,2.27,3.34,5.2,3.25,8.8c-0.09,3.61-1.36,6.5-3.81,8.67c-1.23,1.08-2.52,1.83-3.85,2.23c-1.25,0.41-3,0.58-5.27,0.52
			L166.19,532.56z M169.65,529.32l1.52,0.04c1.51,0.04,2.78-0.1,3.79-0.41c1.01-0.33,1.93-0.87,2.76-1.62
			c1.7-1.55,2.58-3.6,2.64-6.15c0.06-2.57-0.71-4.68-2.31-6.33c-1.44-1.46-3.6-2.24-6.47-2.31l-1.52-0.04L169.65,529.32z"/>
		<path d="M191.65,509.72l-0.56,23.47l-3.37-0.08l0.56-23.47L191.65,509.72z"/>
		<path d="M209.57,513.67l-2.78,1.63c-0.49-0.95-0.96-1.57-1.42-1.86c-0.47-0.34-1.09-0.51-1.85-0.53
			c-0.94-0.02-1.72,0.24-2.35,0.78c-0.63,0.53-0.96,1.21-0.98,2.04c-0.03,1.14,0.76,2.09,2.36,2.83l2.2,1.01
			c1.8,0.82,3.1,1.79,3.91,2.92c0.81,1.13,1.2,2.5,1.16,4.11c-0.05,2.16-0.78,3.93-2.18,5.3c-1.41,1.38-3.14,2.05-5.19,2
			c-1.94-0.05-3.53-0.69-4.76-1.93c-1.21-1.24-1.95-2.95-2.21-5.15l3.43-0.71c0.12,1.38,0.37,2.34,0.74,2.88
			c0.67,1.03,1.67,1.56,3,1.6c1.05,0.03,1.93-0.32,2.65-1.04c0.71-0.72,1.08-1.65,1.11-2.79c0.01-0.46-0.04-0.88-0.15-1.26
			c-0.11-0.38-0.29-0.74-0.54-1.06c-0.25-0.33-0.57-0.63-0.97-0.92c-0.4-0.29-0.87-0.57-1.43-0.84l-2.13-1
			c-3.02-1.44-4.51-3.46-4.44-6.08c0.04-1.76,0.72-3.22,2.03-4.38c1.31-1.16,2.92-1.72,4.83-1.67
			C206.2,509.63,208.18,511,209.57,513.67z"/>
		<path d="M225.37,513.9l-7.79-0.2l-0.14,5.64l7.51,0.19l-0.08,3.33l-7.51-0.19l-0.27,11.17l-3.37-0.09l0.56-23.47l11.16,0.28
			L225.37,513.9z"/>
		<path d="M236.6,524.33l6.68,10.18l-4.12-0.11l-6.15-9.77l-0.61-0.02l-0.23,9.61l-3.37-0.09l0.56-23.47l3.95,0.1
			c2.95,0.08,5.07,0.71,6.35,1.91c1.42,1.33,2.1,3.07,2.05,5.19c-0.04,1.66-0.53,3.08-1.46,4.25
			C239.31,523.3,238.1,524.03,236.6,524.33z M232.47,521.53l1.07,0.03c3.19,0.08,4.82-1.16,4.88-3.73c0.06-2.4-1.47-3.64-4.57-3.72
			l-1.2-0.03L232.47,521.53z"/>
		<path d="M250.24,511.2l-0.34,14.14c-0.05,2.02,0.23,3.5,0.83,4.45c0.9,1.37,2.21,2.08,3.9,2.12c1.71,0.04,3.05-0.6,4.01-1.92
			c0.65-0.89,1-2.35,1.05-4.4l0.34-14.14l3.37,0.09l-0.36,15.11c-0.06,2.47-0.84,4.49-2.35,6.05c-1.69,1.74-3.74,2.58-6.14,2.52
			c-2.4-0.06-4.4-1-6-2.83c-1.43-1.64-2.11-3.69-2.05-6.17l0.36-15.11L250.24,511.2z"/>
		<path d="M274.85,515.15l-0.48,20.14l-3.37-0.09l0.48-20.14l-5.14-0.13l0.08-3.33l13.63,0.34l-0.08,3.33L274.85,515.15z"/>
		<path d="M294.54,530.1l-9.57-0.24l-2.63,5.64l-3.63-0.09l11.66-24.67l10.06,25.22l-3.69-0.09L294.54,530.1z M293.25,526.74
			l-3.12-8.06l-3.67,7.89L293.25,526.74z"/>
		<path d="M316.31,512.87l-0.48,20.14l6.57,0.17l-0.08,3.33l-9.94-0.25l0.56-23.47L316.31,512.87z"/>
		<path d="M323.78,524.69c0.08-3.3,1.3-6.11,3.66-8.43c2.35-2.31,5.14-3.43,8.36-3.35c3.18,0.08,5.89,1.35,8.1,3.79
			c2.23,2.45,3.3,5.35,3.22,8.71c-0.08,3.38-1.3,6.21-3.65,8.5c-2.36,2.3-5.17,3.41-8.43,3.33c-2.88-0.07-5.45-1.19-7.7-3.34
			C324.88,531.53,323.69,528.45,323.78,524.69z M327.18,524.82c-0.06,2.6,0.72,4.75,2.34,6.46c1.61,1.71,3.49,2.6,5.66,2.65
			c2.34,0.06,4.34-0.74,5.99-2.4c1.65-1.68,2.51-3.76,2.57-6.23c0.06-2.5-0.69-4.62-2.24-6.36c-1.54-1.74-3.48-2.64-5.81-2.7
			c-2.33-0.06-4.31,0.74-5.95,2.4C328.09,520.29,327.24,522.35,327.18,524.82z"/>
		<path d="M359.45,537.44l5.31-25.12l7.23,18.44l8.38-18.04l3.62,25.34l-3.46-0.09l-1.82-14.22l-6.98,15.08l-6.06-15.43l-2.74,14.12
			L359.45,537.44z"/>
		<path d="M401.99,532.81l-9.57-0.24l-2.63,5.64l-3.63-0.09l11.65-24.67l10.07,25.22l-3.69-0.09L401.99,532.81z M400.69,529.45
			l-3.12-8.06l-3.67,7.89L400.69,529.45z M403.06,508.75l-6,4.04l-1.57-1.45l4.76-4.78L403.06,508.75z"/>
		<path d="M423.79,519.08l-2.78,1.63c-0.49-0.95-0.96-1.57-1.42-1.86c-0.47-0.34-1.09-0.52-1.85-0.54
			c-0.94-0.02-1.72,0.24-2.35,0.78c-0.63,0.53-0.96,1.21-0.97,2.04c-0.03,1.14,0.76,2.09,2.36,2.83l2.21,1.01
			c1.79,0.82,3.1,1.79,3.91,2.92c0.81,1.13,1.2,2.5,1.16,4.11c-0.05,2.16-0.78,3.92-2.18,5.3c-1.41,1.38-3.14,2.05-5.19,2
			c-1.94-0.05-3.53-0.69-4.76-1.93c-1.21-1.24-1.95-2.96-2.21-5.15l3.43-0.71c0.12,1.38,0.37,2.34,0.74,2.88
			c0.67,1.03,1.67,1.56,3,1.6c1.05,0.03,1.93-0.32,2.65-1.04c0.71-0.72,1.08-1.65,1.11-2.79c0.01-0.46-0.04-0.88-0.15-1.26
			c-0.11-0.38-0.29-0.74-0.54-1.06c-0.25-0.32-0.57-0.63-0.97-0.92s-0.87-0.57-1.43-0.83l-2.13-1c-3.03-1.44-4.51-3.46-4.44-6.07
			c0.04-1.76,0.72-3.22,2.03-4.38c1.31-1.16,2.92-1.72,4.83-1.67C420.43,515.04,422.41,516.41,423.79,519.08z"/>
		<path d="M437.1,539.41l0.57-23.47l3.36,0.09c1.5,0.04,2.68,0.19,3.57,0.46c0.89,0.27,1.64,0.7,2.24,1.29
			c0.61,0.61,1.09,1.37,1.44,2.27c0.36,0.91,0.52,1.83,0.5,2.75c-0.04,1.68-0.69,3.09-1.94,4.23c1.18,0.46,2.09,1.22,2.75,2.3
			c0.67,1.07,0.99,2.31,0.95,3.71c-0.04,1.84-0.7,3.37-1.97,4.61c-0.76,0.76-1.61,1.28-2.54,1.56c-1.02,0.27-2.29,0.38-3.82,0.34
			L437.1,539.41z M440.55,536.16l2.08,0.05c1.53,0.04,2.65-0.25,3.38-0.86c0.77-0.66,1.17-1.51,1.19-2.56
			c0.02-1.01-0.32-1.87-1.02-2.58c-0.69-0.7-1.94-1.07-3.75-1.12l-1.71-0.04L440.55,536.16z M440.79,526.1l1.06,0.03
			c1.25,0.03,2.18-0.24,2.78-0.8c0.6-0.57,0.91-1.42,0.94-2.55c0.03-1.1-0.25-1.95-0.84-2.54c-0.58-0.59-1.45-0.89-2.58-0.92
			l-1.19-0.03L440.79,526.1z"/>
		<path d="M467.55,534.47l-9.57-0.24l-2.63,5.64l-3.63-0.09l11.66-24.67l10.06,25.21l-3.69-0.09L467.55,534.47z M466.26,531.11
			l-3.12-8.06l-3.67,7.89L466.26,531.11z"/>
		<path d="M484.05,530.58l6.68,10.18l-4.12-0.11l-6.15-9.77l-0.61-0.02l-0.23,9.61l-3.37-0.09l0.57-23.47l3.95,0.1
			c2.95,0.07,5.07,0.71,6.35,1.91c1.42,1.33,2.1,3.06,2.05,5.19c-0.04,1.66-0.53,3.08-1.46,4.25
			C486.76,529.55,485.55,530.29,484.05,530.58z M479.92,527.79l1.07,0.03c3.19,0.08,4.82-1.16,4.88-3.73
			c0.06-2.4-1.47-3.64-4.57-3.72l-1.2-0.03L479.92,527.79z"/>
		<path d="M507.35,535.48l-9.57-0.24l-2.63,5.64l-3.63-0.09l11.66-24.67l10.06,25.22l-3.69-0.09L507.35,535.48z M506.05,532.11
			l-3.12-8.06l-3.67,7.89L506.05,532.11z"/>
		<path d="M521.44,521.38l-0.49,20.14l-3.37-0.09l0.49-20.14l-5.14-0.13l0.08-3.33l13.63,0.34l-0.08,3.33L521.44,521.38z"/>
		<path d="M527.55,529.84c0.08-3.3,1.3-6.11,3.66-8.43c2.35-2.31,5.14-3.43,8.36-3.35c3.18,0.08,5.89,1.35,8.1,3.79
			c2.23,2.45,3.3,5.35,3.22,8.71c-0.08,3.38-1.3,6.21-3.65,8.5c-2.36,2.3-5.17,3.41-8.43,3.33c-2.88-0.07-5.45-1.19-7.7-3.34
			C528.65,536.67,527.46,533.6,527.55,529.84z M530.95,529.97c-0.06,2.59,0.71,4.75,2.33,6.46c1.61,1.71,3.5,2.6,5.66,2.65
			c2.34,0.06,4.34-0.74,5.99-2.4c1.65-1.68,2.51-3.76,2.57-6.23c0.06-2.5-0.69-4.62-2.24-6.35c-1.54-1.74-3.48-2.64-5.81-2.7
			c-2.33-0.06-4.31,0.74-5.95,2.4C531.86,525.44,531.01,527.5,530.95,529.97z"/>
		<path d="M564.01,542.61l0.57-23.47l4.69,0.12c2.25,0.06,4.02,0.33,5.31,0.83c1.39,0.49,2.64,1.3,3.75,2.42
			c2.25,2.27,3.34,5.2,3.25,8.8c-0.09,3.61-1.36,6.5-3.81,8.66c-1.23,1.08-2.52,1.83-3.85,2.23c-1.24,0.4-3,0.58-5.27,0.52
			L564.01,542.61z M567.46,539.37l1.52,0.04c1.52,0.04,2.78-0.1,3.79-0.41c1.01-0.33,1.93-0.87,2.76-1.62
			c1.7-1.55,2.58-3.6,2.64-6.15c0.06-2.57-0.71-4.68-2.31-6.33c-1.44-1.47-3.6-2.24-6.47-2.31l-1.52-0.04L567.46,539.37z"/>
		<path d="M598.34,523.33l-8.96-0.23l-0.14,5.64l8.7,0.22l-0.08,3.33l-8.7-0.22l-0.19,7.84l8.96,0.23l-0.08,3.33l-12.33-0.31
			l0.57-23.47l12.33,0.31L598.34,523.33z"/>
		<path d="M606.22,520.19l-0.49,20.14l6.57,0.17l-0.08,3.33l-9.94-0.25l0.57-23.47L606.22,520.19z"/>
		<path d="M637.83,538.77l-9.56-0.24l-2.63,5.64l-3.63-0.09l11.66-24.67l10.06,25.21l-3.69-0.09L637.83,538.77z M636.54,535.41
			l-3.12-8.06l-3.67,7.89L636.54,535.41z"/>
		<path d="M646.52,544.7l0.6-25.07l15.86,18.32l0.39-16.31l3.37,0.09l-0.6,24.9l-15.87-18.27l-0.4,16.43L646.52,544.7z
			 M652.86,519.01l-1.86-1.73l0.44-0.61c0.28-0.4,0.55-0.73,0.81-1.01c0.26-0.27,0.52-0.49,0.78-0.66c0.26-0.17,0.54-0.29,0.82-0.36
			c0.28-0.07,0.59-0.1,0.92-0.09c0.75,0.02,1.62,0.3,2.6,0.86c0.99,0.56,1.63,0.85,1.92,0.86c0.54,0.01,1.15-0.52,1.83-1.6l1.8,1.66
			c-0.97,1.92-2.25,2.87-3.83,2.82c-0.54-0.01-1.42-0.32-2.63-0.92c-0.87-0.49-1.52-0.74-1.95-0.75
			C653.97,517.46,653.43,517.97,652.86,519.01z"/>
		<path d="M670.92,533.46c0.08-3.3,1.3-6.11,3.66-8.43c2.35-2.31,5.14-3.43,8.36-3.35c3.18,0.08,5.89,1.35,8.1,3.79
			c2.23,2.45,3.3,5.35,3.22,8.71c-0.08,3.38-1.3,6.21-3.65,8.5c-2.36,2.3-5.17,3.41-8.43,3.33c-2.88-0.07-5.45-1.19-7.7-3.34
			C672.02,540.3,670.83,537.22,670.92,533.46z M674.32,533.6c-0.06,2.6,0.71,4.75,2.33,6.46c1.61,1.71,3.5,2.6,5.66,2.65
			c2.34,0.06,4.34-0.74,5.99-2.4c1.65-1.68,2.51-3.76,2.57-6.23c0.06-2.5-0.69-4.62-2.24-6.36c-1.54-1.74-3.48-2.64-5.81-2.7
			c-2.33-0.06-4.31,0.74-5.95,2.4C675.23,529.07,674.38,531.12,674.32,533.6z"/>
		<path d="M223.31,551.23l-8.96-0.23l-0.14,5.64l8.7,0.22l-0.08,3.33l-8.7-0.22l-0.19,7.84l8.96,0.23l-0.08,3.33l-12.33-0.31
			l0.56-23.47l12.33,0.31L223.31,551.23z"/>
		<path d="M227.25,571.49l0.6-25.07l15.86,18.32l0.39-16.31l3.37,0.08l-0.6,24.9l-15.86-18.27l-0.4,16.43L227.25,571.49z"/>
		<path d="M268.07,552.36l-0.48,20.14l-3.37-0.08l0.48-20.14l-5.14-0.13l0.08-3.33l13.63,0.35l-0.08,3.33L268.07,552.36z"/>
		<path d="M279.65,549.32l-0.56,23.47l-3.37-0.08l0.56-23.47L279.65,549.32z"/>
		<path d="M297.27,553.1l-8.96-0.23l-0.14,5.64l8.7,0.22l-0.08,3.33l-8.7-0.22l-0.19,7.85l8.96,0.23l-0.08,3.33l-12.33-0.31
			l0.56-23.47l12.33,0.31L297.27,553.1z"/>
		<path d="M301.21,573.36l0.6-25.07l15.86,18.32l0.39-16.31l3.37,0.09l-0.6,24.9l-15.87-18.27l-0.4,16.43L301.21,573.36z"/>
		<path d="M326.23,573.99l0.56-23.47l4.69,0.12c2.25,0.06,4.02,0.34,5.31,0.83c1.39,0.49,2.64,1.3,3.75,2.42
			c2.25,2.27,3.34,5.2,3.25,8.8c-0.09,3.61-1.36,6.5-3.81,8.67c-1.23,1.08-2.52,1.83-3.85,2.23c-1.25,0.4-3,0.58-5.27,0.52
			L326.23,573.99z M329.68,570.74l1.52,0.04c1.51,0.04,2.78-0.1,3.79-0.41c1.01-0.33,1.93-0.87,2.76-1.62
			c1.7-1.55,2.58-3.6,2.64-6.15c0.06-2.57-0.71-4.68-2.31-6.33c-1.44-1.47-3.6-2.24-6.48-2.31l-1.52-0.04L329.68,570.74z"/>
		<path d="M359.91,569.13l-9.57-0.24l-2.63,5.64l-3.63-0.09l11.66-24.67l10.06,25.22l-3.69-0.09L359.91,569.13z M358.62,565.77
			l-3.12-8.06l-3.67,7.89L358.62,565.77z"/>
		<path d="M389.39,555.43l-7.79-0.2l-0.14,5.64l7.51,0.19l-0.08,3.33l-7.51-0.19l-0.27,11.17l-3.37-0.08l0.56-23.47l11.16,0.28
			L389.39,555.43z"/>
		<path d="M396.75,552.28l-0.56,23.47l-3.37-0.09l0.56-23.47L396.75,552.28z M400.65,546.07l-5.66,4.05l-1.57-1.46l4.53-4.78
			L400.65,546.07z"/>
		<path d="M414.67,556.23l-2.78,1.63c-0.49-0.95-0.96-1.57-1.42-1.86c-0.47-0.34-1.09-0.52-1.86-0.53
			c-0.94-0.03-1.72,0.23-2.35,0.78c-0.63,0.53-0.96,1.21-0.97,2.04c-0.03,1.15,0.76,2.09,2.36,2.83l2.21,1.01
			c1.79,0.82,3.1,1.79,3.91,2.92s1.2,2.5,1.16,4.11c-0.05,2.16-0.78,3.93-2.18,5.3c-1.42,1.38-3.14,2.05-5.19,2
			c-1.94-0.05-3.53-0.69-4.76-1.93c-1.21-1.24-1.95-2.96-2.21-5.15l3.43-0.7c0.12,1.38,0.37,2.34,0.74,2.88
			c0.67,1.03,1.67,1.56,3,1.6c1.05,0.03,1.93-0.32,2.65-1.04c0.71-0.72,1.08-1.65,1.11-2.79c0.01-0.46-0.04-0.88-0.15-1.26
			c-0.11-0.38-0.29-0.74-0.54-1.06c-0.25-0.33-0.57-0.63-0.97-0.92c-0.4-0.29-0.88-0.57-1.43-0.83l-2.13-1
			c-3.02-1.44-4.5-3.46-4.44-6.08c0.04-1.76,0.72-3.22,2.03-4.38c1.31-1.16,2.92-1.72,4.83-1.67
			C411.3,552.2,413.28,553.56,414.67,556.23z"/>
		<path d="M422.77,552.94l-0.56,23.47l-3.37-0.09l0.56-23.47L422.77,552.94z"/>
		<path d="M444.62,554.76l-0.1,4.2c-1.91-1.76-3.9-2.67-5.99-2.72c-2.3-0.06-4.25,0.76-5.87,2.46c-1.62,1.68-2.47,3.77-2.53,6.26
			c-0.06,2.46,0.68,4.56,2.22,6.29c1.54,1.73,3.46,2.63,5.76,2.69c1.19,0.03,2.2-0.15,3.04-0.53c0.47-0.19,0.95-0.45,1.46-0.79
			c0.51-0.33,1.04-0.73,1.6-1.21l-0.1,4.27c-1.96,1.1-4,1.62-6.12,1.56c-3.19-0.08-5.89-1.32-8.09-3.72
			c-2.19-2.42-3.25-5.29-3.17-8.63c0.07-2.99,1.08-5.63,3.01-7.92c2.39-2.81,5.42-4.17,9.09-4.08
			C440.85,552.94,442.77,553.56,444.62,554.76z"/>
		<path d="M462.14,571.72l-9.57-0.24l-2.63,5.64l-3.63-0.09l11.66-24.67l10.07,25.22l-3.69-0.09L462.14,571.72z M460.84,568.35
			l-3.12-8.06l-3.67,7.89L460.84,568.35z"/>
		<path d="M479.14,566c0.08-3.3,1.3-6.11,3.66-8.43c2.35-2.31,5.14-3.43,8.36-3.35c3.18,0.08,5.89,1.35,8.11,3.79
			c2.23,2.45,3.3,5.35,3.22,8.71c-0.08,3.38-1.3,6.21-3.65,8.5c-2.36,2.3-5.17,3.41-8.44,3.33c-2.88-0.07-5.45-1.19-7.69-3.34
			C480.24,572.83,479.05,569.76,479.14,566z M482.54,566.13c-0.06,2.59,0.72,4.75,2.33,6.46c1.61,1.71,3.49,2.6,5.66,2.65
			c2.34,0.06,4.34-0.74,5.99-2.4c1.65-1.68,2.51-3.76,2.57-6.23c0.06-2.5-0.69-4.62-2.24-6.35c-1.54-1.74-3.48-2.64-5.81-2.7
			c-2.33-0.06-4.31,0.74-5.95,2.4C483.45,561.6,482.6,563.66,482.54,566.13z"/>
		<path d="M528.41,558.94l-8.96-0.23l-0.14,5.64l8.7,0.22l-0.08,3.33l-8.7-0.22l-0.19,7.84l8.96,0.23l-0.08,3.33l-12.33-0.31
			l0.56-23.47l12.33,0.31L528.41,558.94z"/>
		<path d="M532.36,579.2l0.6-25.07l15.86,18.32l0.39-16.31l3.37,0.08l-0.6,24.9l-15.86-18.28l-0.4,16.43L532.36,579.2z"/>
		<path d="M570.46,556.67l-0.48,20.14l6.57,0.17l-0.08,3.33l-9.94-0.25l0.56-23.47L570.46,556.67z"/>
		<path d="M583.6,557.01l-0.56,23.47l-3.37-0.08l0.56-23.47L583.6,557.01z M587.5,550.79l-5.66,4.05l-1.57-1.45l4.53-4.78
			L587.5,550.79z"/>
		<path d="M588.4,580.61l0.6-25.07l15.86,18.32l0.39-16.31l3.37,0.09l-0.6,24.9l-15.87-18.28l-0.4,16.43L588.4,580.61z"/>
		<path d="M626.24,561.41l-8.96-0.23l-0.14,5.64l8.7,0.22l-0.08,3.33l-8.7-0.22l-0.19,7.85l8.96,0.23l-0.08,3.33l-12.33-0.31
			l0.56-23.47l12.33,0.31L626.24,561.41z"/>
		<path d="M643.44,576.3l-9.57-0.24l-2.63,5.64l-3.63-0.09l11.66-24.67l10.06,25.22l-3.69-0.09L643.44,576.3z M642.15,572.94
			l-3.12-8.06l-3.67,7.89L642.15,572.94z"/>
	</g>
	<g>
		<path class="st1" d="M151.32,676.06l8.98-12.31l-0.1-0.11c-1.01,0.29-2.11,0.47-3.26,0.44c-6.89-0.17-12.03-6.18-11.86-13.36
			c0.18-7.5,6.21-13.33,13.3-13.15c7.09,0.18,12.83,6.3,12.65,13.8c-0.09,3.57-1.71,6.62-3.72,9.4l-12.91,17.61L151.32,676.06z
			 M149.28,650.66c-0.12,5.14,3.67,9.22,8.56,9.35c4.84,0.12,8.88-3.76,9-8.9c0.12-5.09-3.72-9.33-8.56-9.45
			C153.4,641.54,149.4,645.58,149.28,650.66z"/>
		<path class="st1" d="M198.98,664.25l-0.09,3.88l-10.23-0.26l0.09-3.88L198.98,664.25z"/>
		<path class="st1" d="M240.55,675.79l-0.1,4.09l-24.35-0.62l18.14-21.42c1.54-1.85,2.64-3.97,2.7-6.54c0.11-4.4-3.21-7.74-7.3-7.84
			c-4.54-0.12-7.57,3.32-7.78,7.94l-4.19-0.11c0.32-6.92,5.28-12.09,11.92-11.92c6.29,0.16,11.71,5.12,11.54,11.99
			c-0.08,3.2-1.04,5.95-3.04,8.26l-13.41,15.77L240.55,675.79z"/>
		<path class="st1" d="M274.11,661.01c-0.23,9.75-5.38,20.27-13.96,20.05c-8.58-0.22-13.22-10.98-12.98-20.74
			c0.2-8.13,4.44-20.4,13.97-20.16C270.66,640.41,274.3,652.88,274.11,661.01z M251.35,660.64c-0.03,5.56,1.96,16.16,8.89,16.33
			c6.93,0.17,9.43-10.31,9.67-15.86c0.23-5.61-1.8-16.67-8.88-16.85C253.94,644.08,251.38,655.03,251.35,660.64z"/>
		<path class="st1" d="M295.64,641.72l7.09,0.18c5.64,0.14,10.21,1.04,14.55,5.14c4.2,3.99,6.02,9.33,5.88,15.21
			c-0.14,5.77-2.26,10.8-6.49,14.58c-4.59,4.08-9.1,4.75-14.99,4.61l-6.99-0.18L295.64,641.72z M302.03,677.35
			c4.59,0.12,8.45-0.47,11.97-3.79c3.17-2.96,4.86-7.06,4.97-11.47c0.11-4.51-1.43-8.9-4.6-11.97c-3.37-3.29-7.14-4.01-11.58-4.12
			l-3.04-0.08l-0.75,31.35L302.03,677.35z"/>
		<path class="st1" d="M329.48,642.58l19.51,0.49l-0.1,4.09l-15.32-0.39l-0.28,11.74l14.87,0.38l-0.1,4.09l-14.87-0.38l-0.37,15.52
			l15.32,0.39l-0.1,4.09l-19.51-0.49L329.48,642.58z"/>
		<path class="st1" d="M371.78,641.96L400.34,675l0.74-30.62l4.19,0.11l-0.99,41.31l-28.56-32.99l-0.73,30.46l-4.19-0.11
			L371.78,641.96z"/>
		<path class="st1" d="M449.95,665.45c-0.27,11.38-9.37,20.17-20.1,19.9c-10.73-0.27-19.39-9.51-19.12-20.89
			c0.27-11.32,9.38-20.27,20.1-20C441.56,644.73,450.22,654.13,449.95,665.45z M414.93,664.51c-0.21,8.91,6.49,16.53,15.02,16.75
			s15.6-7.06,15.81-15.97c0.22-8.97-6.39-16.53-15.02-16.75S415.14,655.55,414.93,664.51z"/>
		<path class="st1" d="M467.17,676.22l11.45-29.88l4.54,0.12l-16.28,41.5l-14.26-42.28l4.54,0.12L467.17,676.22z"/>
		<path class="st1" d="M490.6,686.2l-4.19-0.11l0.95-39.53l4.19,0.11L490.6,686.2z"/>
		<path class="st1" d="M499.18,646.86l19.51,0.49l-0.1,4.09l-15.32-0.39L503,662.8l14.87,0.38l-0.1,4.09l-14.87-0.38l-0.37,15.52
			l15.32,0.39l-0.1,4.09l-19.51-0.49L499.18,646.86z"/>
		<path class="st1" d="M530.78,645.41l12.87,33.53l14.52-32.84l6.63,41.98l-4.29-0.11l-4.2-26.86l-0.1,0l-12.81,28.06l-11.39-28.67
			l-0.1,0l-5.48,26.62l-4.29-0.11L530.78,645.41z"/>
		<path class="st1" d="M570.54,648.67l6.19,0.16c6.84,0.17,12.51,2.94,12.32,11.01c-0.08,3.2-1.29,5.9-3.88,7.61
			c4.46,1.27,7.01,5.58,6.89,10.3c-0.19,7.87-6.3,10.86-13.74,10.67l-8.73-0.22L570.54,648.67z M573.88,684.21l4.19,0.11
			c4.69,0.12,9.66-0.96,9.8-6.99c0.15-6.13-5.42-7.17-10.01-7.28l-3.64-0.09L573.88,684.21z M574.32,666.18l1.6,0.04
			c4.74,0.12,8.79-0.35,8.94-6.49c0.14-5.98-3.43-6.7-8.57-6.83l-1.65-0.04L574.32,666.18z"/>
		<path class="st1" d="M602.13,689.02l-4.19-0.11l0.95-39.53l5.44,0.14c7.14,0.18,13.72,2.34,13.51,11.25
			c-0.15,6.08-3.89,10.29-9.69,10.67l11.55,18.02l-5.14-0.13l-10.96-17.64l-1.05-0.03L602.13,689.02z M602.64,667.79l1.3,0.03
			c4.74,0.12,9.55-0.7,9.7-6.84c0.16-6.5-4.37-7.24-9.41-7.37l-1.25-0.03L602.64,667.79z"/>
		<path class="st1" d="M625.93,650.07l19.51,0.49l-0.1,4.09l-15.32-0.39l-0.28,11.74l14.87,0.38l-0.1,4.09l-14.87-0.38l-0.37,15.52
			l15.32,0.39l-0.1,4.09l-19.51-0.49L625.93,650.07z"/>
	</g>
	<g>
		<path class="st2" d="M645.84,481.7c-3.13,0-5.99-1.44-7.85-3.96l-35.03-47.47c-2.56-3.47-2.56-8.12,0-11.59l35.03-47.46
			c1.86-2.52,4.72-3.96,7.85-3.96s5.99,1.44,7.85,3.96l26.24,35.56c7.81,10.59,7.81,24.82,0,35.41l-26.24,35.56
			C651.83,480.25,648.97,481.7,645.84,481.7z"/>
		<path class="st3" d="M645.84,370.75c1.89,0,3.78,0.85,5.03,2.54l26.24,35.56c6.86,9.29,6.86,21.96,0,31.25l-26.24,35.56
			c-1.25,1.69-3.14,2.54-5.03,2.54c-1.89,0-3.78-0.85-5.03-2.54l-35.03-47.47c-1.63-2.21-1.63-5.22,0-7.43l35.03-47.47
			C642.05,371.6,643.95,370.75,645.84,370.75 M645.84,363.75c-4.25,0-8.14,1.96-10.67,5.38l-35.03,47.47
			c-3.48,4.71-3.48,11.04,0,15.75l35.03,47.47c2.53,3.42,6.41,5.38,10.67,5.38c4.25,0,8.14-1.96,10.67-5.38l26.24-35.56
			c8.73-11.83,8.73-27.73,0-39.56l-26.24-35.56C653.98,365.71,650.09,363.75,645.84,363.75L645.84,363.75z"/>
	</g>
</g>
</svg>
