<svg width="72" height="37" viewBox="0 0 72 37" fill="none" xmlns="http://www.w3.org/2000/svg">
<path d="M26.9998 12.9001H27.9998V19.2C27.9998 20.1927 28.8968 21 29.9999 21H42.0001C43.1032 21 44.0002 20.1927 44.0002 19.2V12.9001H45.0002C45.1979 12.9 45.3912 12.8472 45.5557 12.7483C45.7201 12.6495 45.8482 12.5089 45.9239 12.3445C45.9996 12.18 46.0194 11.9991 45.9808 11.8246C45.9422 11.65 45.847 11.4897 45.7072 11.3638L36.707 3.26388C36.6142 3.18023 36.504 3.11386 36.3827 3.06859C36.2614 3.02331 36.1313 3 36 3C35.8687 3 35.7386 3.02331 35.6173 3.06859C35.496 3.11386 35.3858 3.18023 35.293 3.26388L26.2928 11.3638C26.153 11.4897 26.0578 11.65 26.0192 11.8246C25.9806 11.9991 26.0004 12.18 26.0761 12.3445C26.1518 12.5089 26.2799 12.6495 26.4443 12.7483C26.6088 12.8472 26.8021 12.9 26.9998 12.9001ZM36 5.17276L42.0001 10.5727V14.7001L42.0011 19.2H29.9999V10.5727L36 5.17276Z" fill="black" fill-opacity="0.54"/>
<path d="M36 18C38.551 18 39.9131 16.3205 40.5298 15.2264C40.8034 14.741 40.5207 14.1707 39.9911 13.9976C39.4685 13.8268 38.9034 14.1113 38.5918 14.5642C38.1418 15.2182 37.3266 16 36 16C34.6776 16 33.8636 15.2246 33.4125 14.5705C33.0982 14.1149 32.5219 13.825 31.9963 13.9985C31.4732 14.1713 31.1944 14.735 31.464 15.2155C32.0778 16.3092 33.4405 18 36 18Z" fill="black" fill-opacity="0.54"/>
<path d="M16.2551 34.18C18.4271 34.18 19.7231 32.8 20.1071 31.36L18.7871 30.928C18.4991 31.888 17.6831 32.8 16.2551 32.8C14.8031 32.8 13.4351 31.744 13.4351 29.752C13.4351 27.688 14.8391 26.668 16.2431 26.668C17.6711 26.668 18.4631 27.496 18.7151 28.528L20.0711 28.072C19.6871 26.584 18.4031 25.312 16.2431 25.312C14.0351 25.312 11.9591 26.98 11.9591 29.752C11.9591 32.524 13.9631 34.18 16.2551 34.18ZM23.8059 32.932C22.9539 32.932 22.1739 32.284 22.1739 31.072C22.1739 29.86 22.9539 29.236 23.8059 29.236C24.6699 29.236 25.4379 29.86 25.4379 31.072C25.4379 32.296 24.6699 32.932 23.8059 32.932ZM23.8059 27.976C22.0659 27.976 20.7819 29.284 20.7819 31.072C20.7819 32.872 22.0659 34.18 23.8059 34.18C25.5579 34.18 26.8419 32.872 26.8419 31.072C26.8419 29.284 25.5579 27.976 23.8059 27.976ZM29.5671 34V30.532C29.5671 29.788 30.0351 29.236 30.7791 29.236C31.5711 29.236 31.9071 29.764 31.9071 30.436V34H33.2751V30.532C33.2751 29.812 33.7551 29.236 34.4871 29.236C35.2671 29.236 35.6151 29.752 35.6151 30.436V34H36.9591V30.208C36.9591 28.66 35.9511 27.988 34.8951 27.988C34.1391 27.988 33.4551 28.252 32.9991 29.02C32.6871 28.336 32.0151 27.988 31.2471 27.988C30.5871 27.988 29.8551 28.3 29.5191 28.9V28.156H28.1871V34H29.5671ZM40.0437 36.28V33.34C40.3437 33.784 40.9797 34.144 41.8197 34.144C43.4997 34.144 44.5677 32.824 44.5677 31.072C44.5677 29.344 43.5957 28.024 41.8677 28.024C40.9677 28.024 40.2957 28.444 40.0077 28.948V28.156H38.6637V36.28H40.0437ZM43.1757 31.072C43.1757 32.188 42.5277 32.908 41.6037 32.908C40.6917 32.908 40.0317 32.188 40.0317 31.072C40.0317 29.98 40.6917 29.26 41.6037 29.26C42.5397 29.26 43.1757 29.98 43.1757 31.072ZM49.3259 28.12C49.2659 28.108 49.1219 28.084 48.9539 28.084C48.1859 28.084 47.5379 28.456 47.2619 29.092V28.156H45.9059V34H47.2979V31.216C47.2979 30.124 47.7899 29.5 48.8699 29.5C49.0139 29.5 49.1699 29.512 49.3259 29.536V28.12ZM50.1396 32.416C50.1396 33.34 50.8956 34.18 52.1196 34.18C53.0676 34.18 53.6436 33.7 53.9196 33.256C53.9196 33.724 53.9676 33.964 53.9796 34H55.2756C55.2636 33.94 55.2036 33.592 55.2036 33.064V30.16C55.2036 28.996 54.5196 27.976 52.7196 27.976C51.2796 27.976 50.3676 28.876 50.2596 29.884L51.5316 30.172C51.5916 29.584 51.9996 29.116 52.7316 29.116C53.4996 29.116 53.8356 29.512 53.8356 30.004C53.8356 30.208 53.7396 30.376 53.4036 30.424L51.9036 30.652C50.9076 30.796 50.1396 31.372 50.1396 32.416ZM52.3836 33.088C51.8316 33.088 51.5316 32.728 51.5316 32.332C51.5316 31.852 51.8796 31.612 52.3116 31.54L53.8356 31.312V31.576C53.8356 32.716 53.1636 33.088 52.3836 33.088ZM60.3063 28.12C60.2463 28.108 60.1023 28.084 59.9343 28.084C59.1663 28.084 58.5183 28.456 58.2423 29.092V28.156H56.8863V34H58.2783V31.216C58.2783 30.124 58.7703 29.5 59.8503 29.5C59.9943 29.5 60.1503 29.512 60.3063 29.536V28.12Z" fill="black" fill-opacity="0.54"/>
</svg>
