<svg xmlns="http://www.w3.org/2000/svg" width="96" height="96" fill="none" viewBox="0 0 96 96">
    <path fill="#fff" d="M48 96c26.51 0 48-21.49 48-48S74.51 0 48 0 0 21.49 0 48s21.49 48 48 48z"/>
    <path fill="#DA123F" d="M91.153 66.696c-.559-.078-.929-.37-1.81.268-1.11.818-8.215 12.023-10.34 14.778-2.132 2.746-4.98 1.62-6.523 1.51-1.519-.102-10.143.512-11.882.41-1.723-.103-6.492-1.645-8.829-1.842-2.337-.18-4.052-1.62-3.438-2.644.59-1.007 3.65-.897 5.988-.102 2.337.826 8.034.307 10.064.102 2.022-.18 6.696-1.92 8.01-2.533 1.33-.614.512-2.337-.314-1.621-.795.692-2.023 1.518-4.257 2.234-2.235.716-3.651-.716-3.95-1.927-.307-1.228 5.594-4.793 7.719-5.902 2.132-1.125 2.959-3.36 5.193-5.005 2.235-1.62 4.847-2.848 6.901-4.052 1.55-.96 5.72-5.752 7.483-7.861l4.816-5.587C95.394 20.908 74.148 0 48 0c-8.758 0-16.965 2.36-24.04 6.46.213 1.29.457 3.124.725 4.32 1.125 5.272 2.156 11.135 2.848 13.613.693 2.48 1.723 3.683 2.99 5.013 1.275 1.33 3.785 5.083 6.209 9.222 2.416 4.131 4.202 8.577 7.68 13.48 3.486 4.894 8.498 6.72 11.394 7.436 2.88.716 2.872 2.746.04 3.682-2.826.937-8.192.677-12.229.126-4.037-.535-8.467-6.72-11.142-9.403-2.707-2.707-10.899-3.502-16.407-4.588-5.516-1.086-4.957-5.516-3.627-9.01 1.353-3.501.818-9.159.141-15.084-.299-2.55-1.448-4.776-2.644-6.5C3.706 26.864 0 37 0 48c0 26.51 21.49 48 48 48 19.578 0 36.401-11.725 43.877-28.532l-.724-.772zM45.797 77.351c-2.44-.41-12.496-4.485-14.117-4.588-1.621-.102-1.731 2.353-1.235 3.974.511 1.645 1.023 6.106 1.023 6.106l-2.534.402s-4.777-6.099-7.114-9.262c-2.337-3.148-5.57-5.186-7.318-9.876-1.723-4.666.512-9.363.512-9.363s19.609 10.284 23.15 12.417c3.564 2.156 9.033 5.697 11.37 5.492 2.345-.189 7.216-5.28 7.216-5.28l14.117 1.141s-9.545 7.5-13.503 8.735c-3.95 1.211-9.136.519-11.567.102z"/>
</svg>
