<?xml version="1.0" encoding="UTF-8"?>
<svg width="649px" height="108px" viewBox="0 0 649 108" version="1.1" xmlns="http://www.w3.org/2000/svg" xmlns:xlink="http://www.w3.org/1999/xlink">
    <!-- Generator: Sketch 64 (93537) - https://sketch.com -->
    <title>calzzasportv</title>
    <desc>Created with Sketch.</desc>
    <g id="Page-1" stroke="none" stroke-width="1" fill="none" fill-rule="evenodd">
        <g id="calzzasportv" fill="#1D1D1B">
            <path d="M72.8725803,42.6709831 L47.0148176,42.6709831 L52.7406481,26.4233898 C54.4064108,21.6997627 55.1688176,18.7508136 55.0287837,17.5792881 C54.8887498,16.4077627 53.8773938,15.822 51.9938006,15.822 C49.8649192,15.822 48.2613938,16.5340678 47.1878006,17.9582034 C46.1114616,19.382339 44.7404108,22.4612542 43.070987,27.1967797 L27.7670209,70.6173559 C26.1662413,75.160678 25.4074955,78.1242712 25.4926142,79.5099661 C25.5777328,80.895661 26.6229531,81.5885085 28.6301057,81.5885085 C30.5539701,81.5885085 32.0577328,80.8947458 33.1413938,79.5053898 C34.2241396,78.1160339 35.6711565,74.8558983 37.4806142,69.7231525 L41.6212243,57.9722034 L67.478987,57.9722034 L66.1958006,61.6158305 C62.7855633,71.2918983 59.6389192,78.1544746 56.7595294,82.2008136 C53.8792243,86.2498983 49.4146142,89.7955932 43.3666142,92.8415593 C37.3176989,95.8866102 30.6491565,97.4095932 23.360987,97.4095932 C15.7845125,97.4095932 9.99644467,96.1190847 5.99129213,93.5408136 C1.98613959,90.9625424 -0.0100299046,87.3912203 3.83693077e-13,82.8295932 C0.0110209428,78.2688814 1.63102094,71.4063051 4.86003789,62.2455254 L14.486682,34.9334237 C16.8599362,28.1980678 18.8872243,23.1458644 20.5658006,19.7768136 C22.2434616,16.408678 24.8501057,13.1659322 28.3857328,10.047661 C31.9204447,6.92938983 36.1635633,4.47559322 41.1150887,2.68535593 C46.0656989,0.895118644 51.3458006,2.21111265e-13 56.9553938,2.21111265e-13 C64.5721396,2.21111265e-13 70.3693599,1.38477966 74.3488853,4.15250847 C78.3265803,6.92023729 80.366682,10.371661 80.4664447,14.5031186 C80.5652921,18.6354915 79.078004,25.0642373 76.0027498,33.7902712 L72.8725803,42.6709831 Z" id="Fill-51"></path>
            <path d="M105.68536,59.0119322 C100.749394,61.7457966 97.6393599,64.0357627 96.3534277,65.8827458 C95.0665803,67.7306441 93.8145125,70.3867119 92.5926481,73.8509492 C91.1950548,77.8167458 90.5699362,80.3757966 90.7154616,81.5308475 C90.860987,82.6858983 91.7533599,83.2634237 93.3907498,83.2634237 C94.946682,83.2634237 96.1191226,82.8103729 96.9099023,81.9061017 C97.6979362,81.0018305 98.7724447,78.6249153 100.129767,74.7753559 L105.68536,59.0119322 Z M101.52736,48.5029831 L78.2487837,48.5029831 L80.0600718,43.3638305 C82.1495972,37.4366441 84.4871565,32.8649492 87.0745803,29.6505763 C89.6592582,26.4371186 93.5774616,23.598 98.8282752,21.1332203 C104.077258,18.6711864 110.20397,17.438339 117.205665,17.438339 C125.599462,17.438339 131.433292,18.8341017 134.708987,21.6247119 C137.983767,24.4162373 139.335597,27.8411186 138.764479,31.9021017 C138.192445,35.964 135.67458,44.326678 131.211801,56.9910508 L117.657801,95.4463729 L93.5198006,95.4463729 L95.926004,88.6185763 C93.445665,91.3570169 90.7667159,93.4099322 87.8891565,94.7782373 C85.0115972,96.1474576 81.9134616,96.8320678 78.5965803,96.8320678 C74.2564447,96.8320678 70.6787159,95.6861695 67.8615633,93.3962034 C65.045326,91.1062373 65.0004786,86.0924746 67.7270209,78.3549153 L69.9455972,72.0616271 C71.9673938,66.3257288 74.3058684,62.4185085 76.9637667,60.3399661 C79.6207498,58.2614237 85.2459023,55.836 93.8392243,53.0646102 C103.044851,50.0625763 108.118106,48.0407797 109.058987,47.0010508 C109.997123,45.9622373 111.030445,43.8461695 112.157123,40.6501017 C113.567529,36.6467797 114.169767,34.0392203 113.962004,32.8265085 C113.754241,31.6137966 112.914038,31.0069831 111.440479,31.0069831 C109.760987,31.0069831 108.537292,31.5176949 107.768479,32.5372881 C106.999665,33.5577966 105.862004,36.2037966 104.355496,40.4771186 L101.52736,48.5029831 Z" id="Fill-53"></path>
            <polygon id="Fill-55" points="184.694407 1.96358644 151.74617 95.446739 126.195018 95.446739 159.143255 1.96358644"></polygon>
            <polygon id="Fill-57" points="226.291614 18.8243085 220.307682 35.7995288 186.395682 80.0877661 204.698936 80.0877661 199.286123 95.4466475 156.966597 95.4466475 162.624699 79.3940034 197.246936 34.1831898 180.463004 34.1831898 185.876733 18.8243085"></polygon>
            <polygon id="Fill-59" points="272.923085 18.8243085 266.939153 35.7995288 233.027153 80.0877661 251.330407 80.0877661 245.917594 95.4466475 203.598068 95.4466475 209.25617 79.3940034 243.878407 34.1831898 227.09539 34.1831898 232.508204 18.8243085"></polygon>
            <path d="M294.32118,59.0119322 C289.385214,61.7457966 286.27518,64.0357627 284.990163,65.8827458 C283.702401,67.7306441 282.450333,70.3867119 281.229384,73.8509492 C279.830875,77.8167458 279.205757,80.3757966 279.352197,81.5308475 C279.497723,82.6858983 280.38918,83.2634237 282.027485,83.2634237 C283.583418,83.2634237 284.755858,82.8103729 285.545723,81.9061017 C286.334672,81.0018305 287.408265,78.6249153 288.765587,74.7753559 L294.32118,59.0119322 Z M290.16318,48.5029831 L266.884604,48.5029831 L268.695892,43.3638305 C270.785418,37.4366441 273.122977,32.8649492 275.710401,29.6505763 C278.295994,26.4371186 282.213282,23.598 287.464096,21.1332203 C292.713079,18.6711864 298.83979,17.438339 305.841485,17.438339 C314.235282,17.438339 320.069112,18.8341017 323.344807,21.6247119 C326.619587,24.4162373 327.971418,27.8411186 327.400299,31.9021017 C326.828265,35.964 324.311316,44.326678 319.847621,56.9910508 L306.293621,95.4463729 L282.155621,95.4463729 L284.561824,88.6185763 C282.081485,91.3570169 279.402536,93.4099322 276.524977,94.7782373 C273.647418,96.1474576 270.549282,96.8320678 267.233316,96.8320678 C262.892265,96.8320678 259.314536,95.6861695 256.497384,93.3962034 C253.681146,91.1062373 253.636299,86.0924746 256.362841,78.3549153 L258.581418,72.0616271 C260.603214,66.3257288 262.941689,62.4185085 265.599587,60.3399661 C268.25657,58.2614237 273.881723,55.836 282.475045,53.0646102 C291.680672,50.0625763 296.753926,48.0407797 297.694807,47.0010508 C298.633858,45.9622373 299.666265,43.8461695 300.792943,40.6501017 C302.20335,36.6467797 302.805587,34.0392203 302.597824,32.8265085 C302.390062,31.6137966 301.549858,31.0069831 300.076299,31.0069831 C298.396807,31.0069831 297.173112,31.5176949 296.404299,32.5372881 C295.635485,33.5577966 294.497824,36.2037966 292.991316,40.4771186 L290.16318,48.5029831 Z" id="Fill-61"></path>
            <path d="M588.302855,90.0371288 L585.954312,96.6974339 L575.928618,96.6974339 C570.277838,96.6974339 566.315702,96.4814339 564.046787,96.0274678 C561.792516,95.5936373 560.018753,94.5703831 558.739228,92.9732644 C558.013431,92.0671627 557.533838,91.0915017 557.30594,90.0371288 L588.302855,90.0371288 Z" id="Fill-63"></path>
            <path d="M585.076218,76.7718 C583.730794,80.764139 583.219167,83.0266475 583.542251,83.5309525 C583.903777,84.1039017 586.144319,84.3986136 590.289506,84.3986136 L589.244285,87.3658678 L557.236014,87.3658678 C557.501438,85.6259695 558.53476,82.0940034 560.346963,76.7718 L585.076218,76.7718 Z" id="Fill-65"></path>
            <polygon id="Fill-67" points="589.741818 63.5023525 586.00758 74.0964203 561.269173 74.0964203 561.65175 73.0081831 565.00158 63.5023525"></polygon>
            <polygon id="Fill-69" points="594.417302 50.2374814 590.683065 60.8288034 565.944658 60.8288034 569.67615 50.2374814"></polygon>
            <polygon id="Fill-71" points="599.092329 36.9684915 595.358092 47.5625593 570.619685 47.5625593 574.352092 36.9684915"></polygon>
            <polygon id="Fill-73" points="610.675604 23.7013322 606.995367 34.140722 600.088858 34.140722 600.033943 34.2963153 575.294621 34.2963153 575.348621 34.140722 570.075841 34.140722 573.753333 23.7013322"></polygon>
            <polygon id="Fill-75" points="608.448241 10.4194373 604.709428 21.0281492 579.970106 21.0281492 583.708004 10.4194373"></polygon>
            <path d="M563.097577,21.0279661 C565.913814,19.6248814 568.803272,18.8331864 571.766865,18.6483051 L570.928492,21.0279661 L563.097577,21.0279661 Z" id="Fill-77"></path>
            <polygon id="Fill-79" points="531.915048 90.0371288 529.568336 96.6974339 504.828099 96.6974339 507.174811 90.0371288"></polygon>
            <polygon id="Fill-81" points="536.590533 76.7718 532.85538 87.3658678 508.116973 87.3658678 511.850296 76.7718"></polygon>
            <path d="M541.27938,63.5023525 C540.944397,64.4267593 540.597516,65.3987593 540.235075,66.4247593 L537.531414,74.0964203 L512.792092,74.0964203 L516.525414,63.5023525 L541.27938,63.5023525 Z" id="Fill-83"></path>
            <path d="M547.456889,50.2374814 C546.895838,50.8278203 546.408007,51.4739898 545.990651,52.1741593 C545.122075,53.6541254 543.87916,56.5380915 542.264651,60.8288034 L517.467668,60.8288034 L521.20099,50.2374814 L547.456889,50.2374814 Z" id="Fill-85"></path>
            <path d="M565.310204,36.9684915 L562.264238,45.6112373 C557.720916,45.6112373 554.172475,46.1814407 551.628068,47.3456441 C551.47156,47.4161186 551.320543,47.4884237 551.169526,47.5625593 L522.144068,47.5625593 L525.876475,36.9684915 L565.310204,36.9684915 Z" id="Fill-87"></path>
            <path d="M554.849123,23.7013322 L552.010919,30.1584508 C554.217597,27.5691966 556.472784,25.4183492 558.781055,23.7013322 L569.986512,23.7013322 L566.25136,34.2963153 L526.818546,34.2963153 L530.553699,23.7013322 L554.849123,23.7013322 Z" id="Fill-89"></path>
            <polygon id="Fill-91" points="556.447706 20.0680475 556.025773 21.0281492 531.494214 21.0281492 531.831943 20.0680475"></polygon>
            <path d="M480.417262,21.0279661 C484.774787,19.4445763 489.630211,18.6483051 494.97255,18.6483051 C500.518075,18.6483051 505.013804,19.4372542 508.462482,20.9931864 L508.534787,21.0279661 L480.417262,21.0279661 Z" id="Fill-93"></path>
            <path d="M463.506475,34.2964983 C464.04556,33.4572102 464.594712,32.668261 465.153018,31.9342271 C467.641594,28.661278 470.824848,25.9173458 474.689051,23.7015153 L512.824035,23.7015153 C513.994645,24.7119559 514.900746,25.8386339 515.545085,27.0852102 C516.734916,29.4200237 517.316102,31.8234814 517.273085,34.2964983 L493.397763,34.2964983 C493.414238,34.0978881 493.416984,33.9258203 493.405085,33.7848712 C493.305323,32.7616169 492.523696,32.2463288 491.038238,32.2463288 C489.551865,32.2463288 488.387662,32.7616169 487.523662,33.7848712 C487.407424,33.9258203 487.283865,34.0978881 487.153899,34.2964983 L463.506475,34.2964983 Z" id="Fill-95"></path>
            <path d="M457.201106,47.5622847 C458.683818,43.4994712 460.252563,39.9693356 461.912835,36.9682169 L485.804631,36.9682169 C485.310394,38.1150305 484.768563,39.524522 484.17914,41.1957763 L481.934936,47.5622847 L457.201106,47.5622847 Z" id="Fill-97"></path>
            <polygon id="Fill-99" points="452.52077 60.8289864 456.254092 50.2376644 480.993414 50.2376644 477.259177 60.8289864"></polygon>
            <path d="M447.98294,74.0966034 C448.511957,72.3329085 449.148973,70.3998915 449.889414,68.2966373 L451.578973,63.5025356 L476.318296,63.5025356 L472.584058,74.0966034 L447.98294,74.0966034 Z" id="Fill-101"></path>
            <path d="M493.085112,90.0371288 C489.721553,92.7838068 485.942468,94.8019424 481.734129,96.1254 C477.479112,97.4479424 472.911079,98.1179085 468.013553,98.1179085 C462.52935,98.1179085 458.08396,97.5440441 454.691112,96.4210271 C451.285451,95.2797051 448.937824,93.5636034 447.651892,91.2763831 C447.424909,90.8782475 447.224468,90.4663831 447.045994,90.0371288 L493.085112,90.0371288 Z" id="Fill-103"></path>
            <path d="M503.20517,76.7718 C502.464729,78.3890542 501.759068,79.7765797 501.090933,80.9298 C499.786696,83.1794949 498.109035,85.3221051 496.055204,87.3658678 L446.260797,87.3658678 C446.011848,86.002139 445.948696,84.5294949 446.068594,82.9406136 C446.192153,81.3013932 446.580221,79.2420712 447.229136,76.7718 L471.648119,76.7718 C470.607475,79.8452237 470.138865,81.8780034 470.22856,82.8619017 C470.342051,83.9656983 471.109035,84.5166814 472.555136,84.5166814 C474.040594,84.5166814 475.176424,84.0242746 476.012967,83.0202407 C476.830289,82.0363424 477.791306,79.9587153 478.926221,76.7718 L503.20517,76.7718 Z" id="Fill-105"></path>
            <path d="M508.342309,63.5023525 L507.548784,65.753878 C506.431258,68.9252339 505.371394,71.704861 504.371021,74.0964203 L479.869665,74.0964203 L483.602072,63.5023525 L508.342309,63.5023525 Z" id="Fill-107"></path>
            <polygon id="Fill-109" points="513.017794 50.2374814 509.284472 60.8288034 484.54515 60.8288034 488.277557 50.2374814"></polygon>
            <path d="M514.168085,46.9714881 L513.960323,47.5627424 L489.220085,47.5627424 L491.462458,41.1953186 C492.050967,39.5249797 492.506763,38.1154881 492.828933,36.9686746 L517.001712,36.9686746 C516.569712,39.497522 515.627001,42.8281322 514.168085,46.9714881" id="Fill-111"></path>
            <path d="M433.517163,21.0279661 C433.775265,20.9071525 434.031536,20.7909153 434.289638,20.6792542 C437.428045,19.3173559 440.571943,18.6483051 443.713096,18.6483051 C447.192892,18.6483051 449.967943,19.4372542 452.031841,21.0279661 L433.517163,21.0279661 Z" id="Fill-113"></path>
            <path d="M392.770868,47.5622847 L396.506021,36.9682169 L421.417411,36.9682169 C420.811512,38.3621492 420.121411,40.1587932 419.345275,42.3590644 L417.511106,47.5622847 L392.770868,47.5622847 Z" id="Fill-115"></path>
            <polygon id="Fill-117" points="388.096299 60.8289864 391.830536 50.2376644 416.568943 50.2376644 412.836536 60.8289864"></polygon>
            <polygon id="Fill-119" points="383.420357 74.0966034 387.154594 63.5025356 411.893001 63.5025356 408.160594 74.0966034"></polygon>
            <polygon id="Fill-121" points="397.867828 103.306119 396.361319 107.57761 371.621082 107.57761 373.126675 103.306119"></polygon>
            <polygon id="Fill-123" points="402.542855 90.0371288 398.810448 100.631197 374.069296 100.631197 377.803533 90.0371288"></polygon>
            <path d="M432.904401,90.0371288 C431.132468,92.2456373 428.886435,94.0724847 426.175451,95.4957051 C422.837519,97.2484169 419.245146,98.1179085 415.394672,98.1179085 C412.338638,98.1179085 409.728333,97.4479424 407.590299,96.0878746 C405.454096,94.7278068 403.77735,92.7179085 402.544502,90.0371288 L432.904401,90.0371288 Z" id="Fill-125"></path>
            <path d="M439.458262,76.7718 C437.737584,81.365461 436.159685,84.8891898 434.720906,87.3658678 L378.744872,87.3658678 L382.479109,76.7718 L407.250465,76.7718 C406.24094,79.8653593 405.770499,81.8761729 405.832736,82.7822746 C405.925177,83.9455627 406.792838,84.5166814 408.443957,84.5166814 C410.055719,84.5166814 411.227245,83.9858339 411.999719,82.9223085 C412.662363,82.0152915 413.575787,79.9587153 414.743651,76.7718 L439.458262,76.7718 Z" id="Fill-127"></path>
            <polygon id="Fill-129" points="444.169533 63.5023525 440.625668 73.5591661 440.433465 74.0964203 415.695058 74.0964203 419.429296 63.5023525"></polygon>
            <polygon id="Fill-131" points="448.84456 50.2374814 445.110323 60.8288034 420.370085 60.8288034 424.104323 50.2374814"></polygon>
            <path d="M453.451218,36.9684915 C453.032946,38.2837119 452.554268,39.7124237 452.009692,41.2537119 L449.785624,47.5625593 L425.045387,47.5625593 L426.881387,42.359339 C427.657523,40.1572373 428.247862,38.3624237 428.657896,36.9684915 L453.451218,36.9684915 Z" id="Fill-133"></path>
            <path d="M426.123648,23.7013322 L424.812089,26.8479763 C426.173987,25.6700441 427.526733,24.6229932 428.876733,23.7013322 L454.440699,23.7013322 C455.293716,25.1108237 455.659818,26.6457051 455.52619,28.3059763 C455.410868,29.7401797 454.989851,31.7345186 454.260394,34.2963153 L429.307818,34.2963153 C429.339851,34.0729932 429.35358,33.8908576 429.349919,33.7453322 C429.348089,32.7403831 428.496902,32.2461458 426.801851,32.2461458 C425.148902,32.2461458 423.900496,32.8200102 423.009038,33.9823831 C422.937648,34.0766542 422.863512,34.180078 422.786631,34.2963153 L397.447818,34.2963153 L401.18114,23.7013322 L426.123648,23.7013322 Z" id="Fill-135"></path>
            <polygon id="Fill-137" points="427.63995 20.0680475 427.239984 21.0281492 402.123577 21.0281492 402.462221 20.0680475"></polygon>
            <path d="M346.791424,7.74607119 C348.943187,6.30729153 351.368611,5.08085085 354.079594,4.06400339 C359.07139,2.19139322 364.610509,1.26515593 370.741797,1.26515593 C377.439628,1.26515593 382.773729,2.29024068 386.787119,4.31935932 C388.762238,5.33437627 390.30078,6.47478305 391.404577,7.74607119 L346.791424,7.74607119 Z" id="Fill-139"></path>
            <path d="M317.974279,74.0966034 C318.413601,72.6084 318.927058,71.0305017 319.515567,69.361078 L321.57855,63.5025356 L345.565533,63.5025356 L341.832211,74.0966034 L317.974279,74.0966034 Z" id="Fill-141"></path>
            <path d="M366.186943,90.0371288 C363.638875,92.1284847 360.373248,93.9480102 356.372672,95.4957051 C350.885723,97.6438068 345.006129,98.7082475 338.705519,98.7082475 C331.799011,98.7082475 326.354163,97.4671627 322.326129,95.0023831 C320.000468,93.5745864 318.324638,91.9188915 317.291316,90.0371288 L366.186943,90.0371288 Z" id="Fill-143"></path>
            <path d="M374.940435,76.7718 C373.061418,81.3352576 371.056096,84.8635627 368.929045,87.3658678 L316.285451,87.3658678 C316.159146,86.7938339 316.082265,86.2044102 316.052062,85.6003424 C315.955045,83.2563763 316.35135,80.3120034 317.241892,76.7718 L340.94057,76.7718 C340.251384,79.0553593 340.031723,80.5838339 340.276096,81.3627153 C340.591858,82.3694949 341.611451,82.8619017 343.327553,82.8619017 C345.04457,82.8619017 346.542841,82.2312915 347.831519,80.9508508 C348.850197,79.9477322 349.743485,78.5492237 350.507723,76.7718 L374.940435,76.7718 Z" id="Fill-145"></path>
            <path d="M379.081868,63.5023525 C378.542784,66.2499458 377.659563,69.3590644 376.437699,72.8297085 C376.286682,73.2589627 376.132919,73.6808949 375.980987,74.0964203 L351.488784,74.0964203 C353.074919,69.2803525 353.411733,66.081539 352.487326,64.5329288 C352.296953,64.2272339 352.042512,63.8840136 351.724004,63.5023525 L379.081868,63.5023525 Z" id="Fill-147"></path>
            <path d="M377.551655,50.2374814 C378.186841,51.1811085 378.660028,52.0780576 378.97396,52.9228373 C379.730875,54.9482949 379.90935,57.5860576 379.511214,60.8288034 L349.102807,60.8288034 C347.632909,59.4733119 345.737418,57.8688712 343.410841,56.0163966 C340.563485,53.7364983 338.300062,51.8080576 336.610502,50.2374814 L377.551655,50.2374814 Z" id="Fill-149"></path>
            <path d="M362.797665,36.9684915 L362.923055,37.0572712 C368.518004,40.9855424 372.692479,44.4918814 375.443733,47.5625593 L333.990038,47.5625593 C333.910411,47.4682881 333.833529,47.3767627 333.76214,47.2852373 C332.328851,45.4739492 331.474004,42.9707288 331.238784,39.7774068 C331.174716,38.907 331.182953,37.9706949 331.265326,36.9684915 L362.797665,36.9684915 Z" id="Fill-151"></path>
            <path d="M358.972177,23.7013322 C358.898041,23.8981119 358.823906,24.0994678 358.750685,24.3054 C357.654211,27.4181797 357.288109,29.7639763 357.63316,31.3400441 C357.818957,32.2159424 358.452312,33.2007559 359.54055,34.2963153 L331.628957,34.2963153 C332.006957,32.2635356 332.629329,30.0110949 333.500651,27.538078 C333.975668,26.191739 334.459838,24.9112983 334.955906,23.7013322 L358.972177,23.7013322 Z" id="Fill-153"></path>
            <path d="M368.389685,21.0279661 C368.673414,19.7951186 368.73016,18.9274576 368.565414,18.4313898 C368.271618,17.5454237 367.419516,17.110678 365.996296,17.110678 C364.447685,17.110678 363.067482,17.7019322 361.846533,18.9054915 C361.265346,19.4720339 360.727177,20.1795254 360.228363,21.0279661 L336.11599,21.0279661 C337.927279,17.1061017 339.869448,14.0381695 341.945245,11.8278305 C342.402872,11.3427458 342.878804,10.8732203 343.374872,10.4192542 L393.015516,10.4192542 C393.206804,10.9427797 393.343177,11.4855254 393.420973,12.0447458 C393.711109,14.0912542 393.335855,17.0850508 392.292465,21.0279661 L368.389685,21.0279661 Z" id="Fill-155"></path>
            <path d="M388.853397,31.5386542 L364.866414,31.5386542 L367.304651,24.6193322 C367.416312,24.3035695 367.522482,23.9960441 367.620414,23.7013322 L391.524109,23.7013322 C391.129635,24.9945864 390.674753,26.3711288 390.159465,27.8337051 L388.853397,31.5386542 Z" id="Fill-157"></path>
            <text id="MR" font-family="ArialMT, Arial" font-size="20" font-weight="normal">
                <tspan x="617.642245" y="32.9426327">MR</tspan>
            </text>
        </g>
    </g>
</svg>