<svg xmlns="http://www.w3.org/2000/svg" width="32" height="46" fill="none" viewBox="0 0 32 46">
    <path fill="#283A78" d="M16.032.082C7.204.082.064 7.222.064 16.049c0 11.976 15.968 29.655 15.968 29.655S32 28.025 32 16.05C32 7.221 24.86.082 16.032.082z"/>
    <path fill="#fff" d="M15.968 31.935c8.818 0 15.967-7.149 15.967-15.967C31.935 7.149 24.786 0 15.968 0 7.149 0 0 7.149 0 15.968c0 8.818 7.149 15.967 15.968 15.967z"/>
    <path fill="#283A78" d="M30.323 22.187c-.186-.026-.309-.123-.602.09-.37.271-2.733 3.999-3.44 4.915-.71.914-1.657.54-2.17.503-.505-.034-3.374.17-3.953.136-.573-.034-2.159-.547-2.937-.613-.777-.06-1.348-.539-1.143-.88.196-.334 1.214-.298 1.992-.033.777.275 2.672.102 3.348.034.672-.06 2.227-.639 2.664-.843.443-.204.17-.777-.104-.54-.265.231-.673.506-1.417.744-.743.238-1.214-.238-1.314-.641-.102-.409 1.862-1.594 2.568-1.963.71-.375.985-1.118 1.728-1.665.743-.54 1.613-.948 2.296-1.348.515-.32 1.903-1.914 2.49-2.615l1.601-1.859C31.734 6.955 24.666 0 15.968 0c-2.914 0-5.644.785-7.997 2.15.07.428.152 1.038.24 1.436.375 1.754.718 3.704.948 4.529.23.824.573 1.225.995 1.667.424.443 1.259 1.691 2.065 3.068.804 1.374 1.398 2.853 2.555 4.484 1.16 1.628 2.827 2.236 3.79 2.474.958.238.956.913.014 1.225-.94.311-2.726.225-4.068.042-1.343-.178-2.817-2.236-3.707-3.128-.9-.9-3.625-1.165-5.458-1.526-1.835-.362-1.649-1.835-1.207-2.998.45-1.165.273-3.047.048-5.018-.1-.848-.482-1.589-.88-2.162C1.233 8.937 0 12.308 0 15.968c0 8.819 7.149 15.967 15.968 15.967 6.512 0 12.109-3.9 14.596-9.491l-.241-.257zm-15.088 3.544c-.812-.136-4.157-1.492-4.696-1.526-.54-.034-.576.783-.411 1.322.17.547.34 2.032.34 2.032l-.843.133s-1.589-2.029-2.366-3.08c-.778-1.048-1.854-1.726-2.435-3.286-.573-1.552.17-3.115.17-3.115s6.524 3.421 7.702 4.13c1.185.718 3.005 1.896 3.782 1.828.78-.063 2.4-1.757 2.4-1.757l4.697.38s-3.176 2.494-4.492 2.905c-1.314.404-3.04.173-3.848.035z"/>
</svg>
