<svg width="95" height="55" xmlns="http://www.w3.org/2000/svg">
    <g fill="none" fill-rule="evenodd">
        <g transform="translate(11)" fill="#E8181D">
            <ellipse cx="22.611" cy="35.652" rx="4.405" ry="4.348"/>
            <ellipse cx="57.262" cy="35.652" rx="4.405" ry="4.348"/>
            <path d="M23.62 0c15.557.187 24.343.285 26.356.294h.254c1.396 0 1.894.492 1.495 1.474l-2.99 15.618-7.175 5.894-2.392 1.768c-.798.59.199.786 2.99.59-2.392 2.357-11.661.294-8.372.294 2.192 0 4.584-1.08 7.176-3.241h-5.083c-.997.982-1.993 1.473-2.99 1.473-.957 0-4.363-1.569-7.71-3.317l-.627-.33a94.028 94.028 0 0 1-4.52-2.541c-.598 2.947 1.495 6.385 6.28 10.314.597.196.796.196.597 0-.299-.295-1.495-4.42-.598-4.126.598.197 2.492.884 5.68 2.063.2-.393.5-.196.898.59 2.093 2.062 7.176 1.473 9.568 1.473 1.594 0 3.388-2.26 5.381-6.778l-1.196 7.957h1.196l5.083-25.933h1.794L56.51 5.01h2.99c4.784.196 8.67 2.848 11.66 7.956 4.485 7.662 2.094 12.082 1.197 16.503 2.192 0 2.192 1.964 0 5.893h-9.27c-1.394-3.929-3.587-5.893-6.577-5.893-2.99 0-5.182 1.964-6.578 5.893H28.404c-.399-3.929-2.392-5.893-5.98-5.893-5.382 0-5.98 3.83-6.578 5.893-1.395 0-2.092-.982-2.092-2.947l1.045-5.304H1.473a1.473 1.473 0 1 1 0-2.947h13.908l.591-2.995h-4.75a1.473 1.473 0 0 1-.369-2.9l-6.39.002a1.473 1.473 0 0 1 0-2.947l12.662-.001 1.047-5.304H7.453a1.473 1.473 0 0 1 0-2.947H18.26c.167 0 .328.028.478.08L20.032.589c-.199 4.715-.1 8.252.3 10.61-1.496 2.946 0 4.125 0 4.42v.048c.01.248.175.28 2.99.835 2.99.59 2.99.295 5.381 2.947 2.392 2.652 3.887 1.179 5.68 1.768 1.197.393 1.795.099 1.795-.884-.598 0-1.794-.687-3.588-2.062-1.794-1.376-3.987-4.617-6.578-9.725L24.96 5.507l-.293-1.449-.449-1.406zm30.451 10.835-.85 4.194 11.709 2.613a2 2 0 0 0 2.22-2.857l-.326-.64a8.623 8.623 0 0 0-7.19-4.707l-3.487-.202a2 2 0 0 0-2.076 1.599z"/>
        </g>
        <path d="M6.16 54c.99 0 1.98-.16 2.97-.497v-3.676c-.953.39-1.778.586-2.474.586-1.705 0-2.731-1.136-2.731-2.628 0-1.758 1.393-3.214 3.372-3.214.862 0 1.742.266 2.548.692L11 41.801c-1.026-.515-2.328-.8-3.574-.8C3.265 40.914-.09 44.306.002 48.07.002 51.407 2.44 54 6.16 54z" fill="#243B7A" fill-rule="nonzero"/>
        <path d="M14.566 44.832c2.862 0 4.266.964 4.266 2.819 0 .26-.037.556-.092.908l-.72 3.709-.185 1.465h-3.066v-.575c-.61.575-1.44.89-2.327.89-1.644 0-2.826-1.113-2.826-2.726 0-1.854 1.551-3.282 3.62-3.282.702 0 1.404.148 2.087.464.018-.056.018-.149.018-.26 0-.723-.498-1.02-1.773-1.02-.72 0-1.422.093-2.327.297l.794-2.448a14.467 14.467 0 0 1 2.53-.241zm-.002 5.76c-.536 0-.916.404-.916.938 0 .46.346.79.812.79.536 0 .916-.404.916-.938 0-.46-.346-.79-.812-.79zM22.551 54 25 41l-3.621.361L19 54zM30.7 55l.968-3.121h-2.81L33 46h-7.81l-.967 3.121h2.865L23 55z" fill="#243B7A" fill-rule="nonzero"/>
        <path fill="#243B7A" fill-rule="nonzero" d="m38.7 51 .968-3.121h-2.81L41 42h-7.81l-.967 3.121h2.865L31 51zM45.094 44.832c2.862 0 4.266.964 4.266 2.819 0 .26-.037.556-.092.908l-.72 3.709-.185 1.465h-3.066v-.575c-.61.575-1.44.89-2.327.89-1.644 0-2.826-1.113-2.826-2.726 0-1.854 1.551-3.282 3.62-3.282.702 0 1.404.148 2.087.464.018-.056.018-.149.018-.26 0-.723-.498-1.02-1.773-1.02-.72 0-1.422.093-2.327.297l.794-2.448a14.467 14.467 0 0 1 2.53-.241zm-.578 5.76c-.536 0-.916.404-.916.938 0 .46.346.79.812.79.536 0 .916-.404.916-.938 0-.46-.346-.79-.812-.79z"/>
        <path d="m52.578 54 .886-4.705c.144-.766.596-1.214 1.12-1.214.362 0 .56.224.56.616 0 .056-.017.168-.036.318L54.168 54h3.579l.886-4.705c.144-.747.56-1.214 1.12-1.214.361 0 .56.224.56.653 0 .038-.018.131-.036.28L59.337 54h3.579l.976-5.266c.072-.373.108-.728.108-1.083C64 45.99 63.133 45 61.343 45c-1.102 0-2.15.392-2.945 1.083-.38-.69-1.085-1.083-2.079-1.083-.994 0-1.789.373-2.421 1.139l.18-1.064-3.451.354L49 54h3.578zM73.006 44 75 42h-2.709L71 44zM70.251 44.833c2.731 0 4.698 1.78 4.698 4.222.057 2.734-2.464 5.047-5.5 4.992-2.731 0-4.698-1.78-4.698-4.222-.057-2.734 2.464-5.047 5.5-4.992zm.347 3.455c-.907 0-1.648.72-1.648 1.58 0 .756.556 1.3 1.352 1.3.907 0 1.648-.72 1.648-1.58 0-.756-.556-1.3-1.352-1.3zM80.148 54 85 45h-4.074l-1.945 4.557-.24-4.557H75l1.444 9zM87.846 44c1.18 0 2.154-.973 2.154-2.144 0-1.1-.786-1.856-1.846-1.856-1.18 0-2.154.973-2.154 2.144 0 1.1.786 1.856 1.846 1.856zM87.43 54 89 45l-3.497.375L84 54zM92.551 54 95 41l-3.621.361L89 54z" fill="#E8181D" fill-rule="nonzero"/>
    </g>
</svg>
