<svg xmlns="http://www.w3.org/2000/svg" width="32" height="46" fill="none" viewBox="0 0 32 46">
    <g clip-path="url(#clip0)">
        <path fill="#000" d="M32 15.993c0 12.002-15.992 29.705-15.992 29.705S0 27.995 0 15.993C0 7.149 7.15 0 15.992 0 24.835 0 32 7.15 32 15.993z"/>
        <path fill="#fff" d="M15.046 13.82H11.3l.814-2.355c.217-.711.326-1.095.326-1.259 0-.164-.163-.274-.434-.274-.326 0-.543.11-.706.329-.163.219-.326.657-.597 1.314l-2.225 6.297c-.217.657-.326 1.095-.326 1.314 0 .218.163.328.434.328.272 0 .489-.11.652-.328.162-.22.38-.657.597-1.424l.597-1.697h3.745l-.163.547c-.489 1.424-.923 2.41-1.357 3.012-.434.602-1.031 1.095-1.9 1.533-.868.438-1.845.657-2.876.657-1.086 0-1.9-.165-2.497-.548s-.868-.876-.868-1.533c0-.657.217-1.643.705-3.011l1.411-3.943c.326-.985.652-1.697.869-2.19.217-.492.597-.985 1.14-1.423.488-.438 1.14-.821 1.845-1.095.705-.274 1.465-.383 2.28-.383 1.085 0 1.953.219 2.496.602.597.383.868.876.868 1.478s-.217 1.533-.65 2.792l-.435 1.26z"/>
        <g clip-path="url(#clip1)">
            <path fill="#fff" fill-rule="evenodd" d="M20.71 8.703c.32-.213.639-.372 1.011-.532.692-.266 1.49-.372 2.34-.372.959 0 1.703.16 2.288.425.266.16.48.32.639.48H20.71zM16.666 18.067c.054-.213.16-.426.213-.692l.266-.851h3.405l-.532 1.49h-3.352v.053zM23.423 20.3c-.372.319-.798.531-1.383.744-.798.32-1.596.479-2.5.479-.958 0-1.756-.16-2.288-.532-.32-.213-.585-.426-.691-.692h6.862zM24.7 18.438c-.266.638-.532 1.117-.851 1.49H16.4c0-.107-.053-.16-.053-.266 0-.32.053-.745.16-1.224h3.35c-.106.32-.106.532-.106.638.053.16.213.213.426.213.266 0 .479-.106.638-.266.16-.16.266-.319.373-.585h3.51zM25.232 16.577c-.054.372-.213.85-.373 1.33 0 .053-.053.106-.053.16h-3.458c.213-.692.266-1.118.16-1.33-.053-.054-.053-.107-.107-.16h3.83zM25.019 14.715c.106.16.16.266.213.372.106.266.106.639.053 1.117h-4.31c-.212-.212-.478-.425-.797-.691-.426-.32-.745-.585-.958-.798h5.799zM22.944 12.8c.798.586 1.383 1.065 1.809 1.49H18.9l-.053-.053c-.213-.266-.32-.585-.372-1.064v-.372h4.468zM22.412 10.936c0 .053 0 .053-.053.106-.16.426-.213.745-.16 1.011 0 .107.107.266.266.426H18.53c.053-.266.16-.585.266-.958.053-.213.16-.372.213-.532h3.404v-.053zM23.742 10.565c.053-.16.053-.32 0-.373-.053-.106-.16-.212-.372-.212-.213 0-.426.106-.586.266-.106.106-.16.16-.212.319h-3.405c.266-.532.532-1.011.798-1.277.053-.053.106-.16.213-.213H27.2c.053.053.053.16.053.213.053.266 0 .692-.16 1.277h-3.351zM26.614 12.055h-3.351l.319-.958c0-.053.053-.106.053-.106h3.351c-.053.16-.106.372-.212.585l-.16.479z" clip-rule="evenodd"/>
        </g>
    </g>
    <defs>
        <clipPath id="clip0">
            <path fill="#fff" d="M0 0H32V45.714H0z"/>
        </clipPath>
        <clipPath id="clip1">
            <path fill="#fff" d="M0 0H11.301V14.126H0z" transform="translate(16.131 7.688)"/>
        </clipPath>
    </defs>
</svg>
