<svg xmlns="http://www.w3.org/2000/svg" width="41" height="41" viewBox="0 0 41 41">
    <g fill="none" fill-rule="evenodd">
        <g>
            <g>
                <g>
                    <g transform="translate(-530.000000, -210.000000) translate(40.000000, 190.000000) translate(477.000000, 20.000000) translate(13.000000, 0.000000)">
                        <circle cx="20.5" cy="20.5" r="19.5" stroke="#243B7A" stroke-width="2"/>
                        <g fill="#243B7A" fill-rule="nonzero">
                            <path d="M23.98 26.058L22.13 11.394c-.085-.67-.335-1.307-.777-1.819-.443-.51-1.128-.878-1.883-.878h-2.596V4.852c0-2.676-2.198-4.852-4.88-4.852-2.68 0-4.87 2.176-4.87 4.852v3.845H4.52c-.755 0-1.438.366-1.881.878-.442.512-.688 1.149-.772 1.82L.021 26.057C-.185 27.688 1.163 29 2.674 29h18.652c1.51 0 2.859-1.311 2.653-2.942zM9.056 4.852c0-1.633 1.288-2.919 2.938-2.919 1.651 0 2.946 1.286 2.946 2.92v3.844H9.057V4.852zm12.269 22.212H2.674c-.368 0-.794-.357-.744-.763l1.856-14.664c.044-.348.174-.632.313-.793.139-.16.236-.213.42-.213h2.605v4.589c-.012.534.411.976.945.988.533.011.975-.411.987-.946v-4.631h5.884v4.589c0 .534.433.967.967.967s.967-.434.967-.967V10.63h2.596c.184 0 .29.054.428.213.139.16.27.445.314.793l1.848 14.664c.051.406-.366.763-.734.763z" transform="translate(9.000000, 4.000000)"/>
                        </g>
                    </g>
                </g>
            </g>
        </g>
    </g>
</svg>
