<svg width="41" height="41" xmlns="http://www.w3.org/2000/svg">
    <g fill="none" fill-rule="evenodd">
        <circle stroke="#243B7A" stroke-width="2" cx="20.5" cy="20.5" r="19.5"/>
        <path d="M32.98 30.058 31.13 15.394c-.085-.67-.335-1.307-.777-1.819-.443-.51-1.128-.878-1.883-.878h-2.596V8.852c0-2.676-2.198-4.852-4.88-4.852-2.68 0-4.87 2.176-4.87 4.852v3.845H13.52c-.755 0-1.438.366-1.881.878-.442.512-.688 1.149-.772 1.82L9.021 30.057C8.815 31.688 10.163 33 11.674 33h18.652c1.51 0 2.859-1.311 2.653-2.942zM18.056 8.852c0-1.633 1.288-2.919 2.938-2.919 1.651 0 2.946 1.286 2.946 2.92v3.844h-5.884V8.852zm12.269 22.212H11.674c-.368 0-.794-.357-.744-.763l1.856-14.664c.044-.348.174-.632.313-.793.139-.16.236-.213.42-.213h2.605v4.589a.967.967 0 1 0 1.932.042v-4.631h5.884v4.589a.967.967 0 1 0 1.934 0V14.63h2.596c.184 0 .29.054.428.213.139.16.27.445.314.793l1.848 14.664c.051.406-.366.763-.734.763z" fill="#243B7A" fill-rule="nonzero"/>
    </g>
</svg>
