<?xml version="1.0" encoding="UTF-8"?>
<svg width="264px" height="108px" viewBox="0 0 264 108" version="1.1" xmlns="http://www.w3.org/2000/svg" xmlns:xlink="http://www.w3.org/1999/xlink">
    <!-- Generator: Sketch 64 (93537) - https://sketch.com -->
    <title>credivalev</title>
    <desc>Created with Sketch.</desc>
    <g id="Page-1" stroke="none" stroke-width="1" fill="none" fill-rule="evenodd">
        <g id="credivalev">
            <path d="M43.2015139,107.178309 L25.7073696,107.120412 C18.0679469,107.094804 10.7551222,104.302392 5.75260669,98.3898557 C0.104689161,91.7146392 -1.11300156,82.8742268 0.920812872,74.5482062 L11.7356582,30.2726598 C15.6466685,14.2604536 31.147452,0.982762887 47.6981737,0.0593814433 L47.7386273,4.21930532e-14 L51.080318,0.0107628866 L76.2205654,0.0616082474 L76.2098026,0.0942680412 L77.7422149,0.0990927835 L77.7485242,0.0797938144 L81.1109984,0.089443299 C133.178504,0.237525773 185.24638,0.399340206 237.314256,0.536659794 C251.608483,0.574515464 262.543947,10.4032577 263.008236,24.8348041 L263.008236,24.9082887 L263.008236,26.4967423 L263.008236,26.5479588 C262.958132,28.7599175 262.618545,30.954433 262.114916,33.106268 L262.109349,33.1292784 L261.238297,36.6851134 L259.051947,45.6461443 L257.653514,51.8362887 L257.656854,51.8362887 L254.620236,65.2746804 L254.524112,65.2746804 L251.278545,77.5109691 C247.86671,91.3976907 235.831205,103.009732 222.070297,106.567052 C219.481266,107.236206 216.844359,107.641856 214.168112,107.68899 L214.127658,107.689732 L214.087205,107.689732 L213.436607,107.689732 L209.44506,107.689361 L209.387535,107.728701 L195.466297,107.68268 C146.808401,107.521608 98.1501325,107.360907 49.4922356,107.20132 L43.2007716,107.180907 L43.2015139,107.178309 Z" id="Fill-200" fill="#FEFEFE"></path>
            <path d="M207.963493,103.119402 L195.481514,103.078206 C146.829184,103.031814 98.1497613,102.756062 49.507452,102.596474 L49.5081943,102.593876 L31.2183386,102.533381 L31.2183386,102.533381 L25.7225861,102.515196 C10.8831634,102.474742 1.77553452,90.4808041 5.39409122,75.6410103 L16.2093077,31.3654639 C19.8274933,16.5256701 34.7489366,4.5725567 49.5887304,4.61290793 L50.1695551,4.61412371 L50.1702974,4.61290793 L51.0714108,4.61597938 L69.8359469,4.65346392 L69.8277819,4.67795876 L81.0909572,4.71507216 L81.0976376,4.69465979 C133.166256,4.84237113 185.234132,5.01235052 237.30238,5.14187629 C249.662256,5.1823299 258.037266,13.5580825 258.403205,24.9819588 L258.403205,26.4457113 C258.36238,28.2754021 258.078091,30.1455464 257.630875,32.0565155 L256.764277,35.5937938 L254.569019,44.5930515 L251.891658,56.441134 L251.89537,56.441134 L250.939699,60.6694639 L250.936359,60.6694639 L250.678421,61.810701 L246.816401,76.3728866 C243.807617,88.6919381 232.992401,99.0187423 220.917555,102.108433 C218.681473,102.718577 216.404565,103.044062 214.087205,103.084515 L213.436978,103.084515 L209.167452,103.084515 L208.013968,103.084515 L207.963493,103.119402 Z" id="Fill-202" fill="#FEFEFE"></path>
            <path d="M68.4127222,67.3875835 C68.4531758,65.4357897 67.7216706,63.8094804 66.3391964,62.5086557 C65.7294232,61.8988825 64.6316087,61.1670062 63.1678562,60.3538515 L58.2484747,75.5595835 C60.6471139,75.2344701 62.6801861,74.5430474 64.4285984,73.4860577 C67.0306191,71.9002021 68.3722685,69.8270474 68.4127222,67.3875835" id="Fill-204" fill="#E40040"></path>
            <path d="M38.8550149,100.279336 L38.6924582,100.279336 L42.5953036,88.0820165 L42.7174067,87.9602845 C37.0253242,87.6348 32.1875923,85.8863876 28.2843758,82.7558722 C24.4624376,79.6253567 22.5922933,75.8442433 22.6735716,71.5346351 C22.7143964,69.7049443 23.2020665,67.6722433 24.0152211,65.3140577 L43.3680046,65.2324082 C42.798685,66.4523258 42.4735716,67.3875835 42.4735716,68.1599134 C42.3922933,70.3959959 43.449283,72.2665113 45.6853654,73.6486144 C46.1734067,73.9737278 46.7019015,74.2587588 47.27085,74.5430474 L53.4917984,55.4749237 C51.8654892,54.6617691 50.076252,53.7677072 48.1656541,52.7916247 C45.481984,51.3686969 43.2462727,49.9457691 41.4570356,48.4411918 C37.309984,45.107666 35.277283,40.7976866 35.277283,35.512367 C35.3990149,29.0475835 38.4077984,23.8030887 44.1811593,19.6155835 C49.9953448,15.4277072 57.4354685,13.3953773 66.5831799,13.4358309 L66.9086644,13.4358309 L69.8357984,4.6536866 L49.5885819,4.61275948 C34.7487881,4.57240825 19.8273448,16.5255216 16.2091593,31.3653155 L5.3943139,75.6408619 C1.7757572,90.4810268 10.8830149,102.474594 25.7228087,102.515047 L38.1231386,102.556243 L38.8550149,100.279336 Z" id="Fill-206" fill="#1B3767"></path>
            <path d="M55.1992376,33.8452701 C55.1584129,35.8375175 56.3375057,37.7076619 58.736516,39.4560742 L62.9240211,26.6081567 C61.2164335,26.974466 59.7935057,27.5842392 58.5331345,28.4786722 C56.3783304,29.8611464 55.2396912,31.5683629 55.1992376,33.8452701" id="Fill-208" fill="#1B3767"></path>
            <path d="M237.302269,5.14180206 C185.234021,5.01227629 133.166145,4.84229691 81.0978974,4.69458557 L78.0482892,14.1674103 C83.7811964,15.1843175 88.2129077,17.0949155 91.4247015,20.0625031 C94.5960417,23.0712866 96.1410727,26.8524 96.0594232,31.2837402 C96.0189696,32.2193691 95.8972376,33.6419258 95.5312995,35.4716165 L76.0564129,35.4307918 C76.178516,34.7801938 76.178516,34.129967 76.2189696,33.4793691 C76.2597943,30.9994515 75.4058149,29.1293072 73.616949,27.9502144 L68.2095263,44.7009773 L68.7380211,44.985266 L77.8048252,49.5390804 C84.959918,53.1168124 88.3754644,58.1582969 88.2533613,64.9481938 C88.1724541,69.6641938 86.4648665,73.9738021 83.1714232,78.0804 C79.8375263,82.0648948 75.6091964,84.7478227 70.283052,86.2115753 C64.7538974,87.7974309 59.3869283,88.6514103 54.1012376,88.6514103 L54.0199593,88.6514103 L49.5073407,102.5964 C102.711258,102.771204 155.959341,103.084441 209.167341,103.084441 L213.436866,103.084441 L214.087093,103.084441 C216.404454,103.043988 218.681361,102.718503 220.917444,102.108359 C232.99266,99.018668 243.807506,88.6918639 246.816289,76.3728124 L250.678681,61.8106268 L254.682475,44.090833 L257.630763,32.0568124 C258.07798,30.1454722 258.36264,28.2753278 258.403093,26.4456371 L258.403093,24.9818845 C258.037526,13.5580082 249.662145,5.18225567 237.302269,5.14180206" id="Fill-210" fill="#D90E26"></path>
            <path d="M248.848916,16.1192784 L248.848916,16.1192784 L248.848916,16.4443918 C248.808462,16.8103299 248.726813,17.176268 248.645906,17.5013814 C248.523803,17.8264948 248.361246,18.1523505 248.198318,18.4774639 C247.344339,19.981299 245.718401,20.9978351 243.88871,20.9978351 L243.563596,20.9978351 C242.34405,20.9165567 241.245864,20.3880619 240.43271,19.5752784 C239.66038,18.721299 239.131885,17.6234845 239.09106,16.403567 L239.09106,16.1192784 L239.09106,15.7937938 C239.131885,15.4278557 239.213535,15.0619175 239.294442,14.736433 C239.416545,14.370866 239.579102,14.0453814 239.741658,13.7610928 C240.595638,12.2565155 242.221947,11.2403505 244.051266,11.2403505 L244.376751,11.2403505 C245.596297,11.3216289 246.694112,11.8501237 247.507266,12.6632784 C248.279596,13.476433 248.808462,14.614701 248.848916,15.8342474 L248.848916,16.1192784 Z M249.418236,15.7937938 C249.377411,14.4113196 248.808462,13.1914021 247.913658,12.2565155 C247.019596,11.3624536 245.799679,10.7523093 244.417205,10.6710309 C244.295473,10.6302062 244.17337,10.6302062 244.092091,10.6302062 C242.018565,10.6302062 240.189246,11.7688454 239.213535,13.476433 C239.050607,13.8015464 238.88805,14.1674845 238.766318,14.5738763 C238.643844,14.9398144 238.562565,15.3465773 238.521741,15.7533402 C238.521741,15.8754433 238.521741,15.9971753 238.481287,16.1192784 C238.481287,16.2005567 238.481287,16.3222887 238.521741,16.4443918 C238.562565,17.8264948 239.131885,19.0464124 240.026689,19.981299 C240.920751,20.8753608 242.140669,21.4855052 243.522772,21.5671546 L243.848256,21.5671546 C245.921782,21.6076082 247.751102,20.4285155 248.726813,18.7617526 C248.88937,18.3958144 249.052297,18.0298763 249.174029,17.6639381 C249.296504,17.2983711 249.377411,16.8916082 249.418236,16.4848454 C249.418236,16.3631134 249.418236,16.2410103 249.45906,16.1192784 C249.45906,16.0376289 249.45906,15.9155258 249.418236,15.7937938 L249.418236,15.7937938 Z" id="Fill-212" fill="#FEFEFE"></path>
            <path d="M244.823893,14.8993237 L244.823893,14.8993237 C244.742615,14.9806021 244.620512,15.0618804 244.49878,15.1030763 C244.295398,15.1435299 244.132842,15.1843546 244.010739,15.1843546 L243.970285,15.1843546 L243.116306,15.1843546 L243.156759,13.8827876 L244.010739,13.8827876 C244.376677,13.8827876 244.620512,13.9236124 244.742615,14.0453443 C244.864347,14.1674474 244.945996,14.3303753 244.945996,14.5333856 C244.945996,14.6554887 244.905172,14.7775918 244.823893,14.8993237 M246.165543,16.7290144 C246.043811,16.5660866 245.921708,16.4443546 245.880883,16.4035299 C245.759151,16.3222515 245.596594,16.2409732 245.352388,16.1596948 C245.637048,16.1192412 245.880883,16.0375918 246.043811,15.9154887 C246.328471,15.7533031 246.531481,15.5499216 246.694409,15.3064577 C246.856965,15.0214268 246.938244,14.736767 246.938244,14.3708289 C246.938244,13.964066 246.856965,13.598499 246.653584,13.3138392 C246.450203,13.0291794 246.206368,12.8257979 245.880883,12.7445196 C245.55577,12.6224165 245.108553,12.5819629 244.49878,12.5819629 L244.010739,12.5819629 L241.164883,12.5819629 L241.04278,19.0055505 L243.035027,19.0055505 L243.075852,16.4035299 L243.278862,16.4035299 C243.441419,16.4035299 243.603976,16.4443546 243.766904,16.525633 C243.848182,16.6069113 243.92946,16.7290144 244.010739,16.8915711 C244.051192,16.9323959 244.092017,16.9732206 244.092017,17.0541278 L245.108553,19.0055505 L247.385089,19.0055505 L246.450203,17.1354062 C246.409378,17.0541278 246.328471,16.9323959 246.165543,16.7290144" id="Fill-214" fill="#FEFEFE"></path>
            <path d="M251.895184,56.4409485 L104.824792,56.4409485 C102.489617,56.4409485 100.596091,58.3344742 100.596091,60.6696495 L250.939514,60.6696495 L251.895184,56.4409485 Z" id="Fill-216" fill="#FEFEFE"></path>
            <path d="M135.810326,43.8437691 C132.252264,47.8594392 127.652058,50.1727175 121.958491,50.1727175 C111.918945,50.1727175 104.726368,43.2844701 104.726368,33.3718515 C104.726368,21.8589031 113.291398,13.3191093 124.601708,13.3191093 C128.566532,13.3191093 135.429172,14.2844289 139.34278,21.0962227 L133.446574,25.0105732 C131.489213,21.8076866 128.312306,20.1049237 124.194945,20.1049237 C117.612141,20.1049237 112.147563,25.5691299 112.147563,32.838532 C112.147563,39.2688 116.672058,43.3605526 122.263192,43.3605526 C123.872429,43.3605526 125.392594,43.0224495 126.792141,42.3859546 C129.803151,41.016099 133.348965,41.6332948 135.810326,43.8437691" id="Fill-218" fill="#FEFEFE"></path>
            <path d="M143.236829,49.5369278 L136.578314,49.5369278 L141.81353,24.9084742 L148.21819,24.9084742 L147.634025,27.5012165 C149.692706,25.0105361 152.183386,24.2474845 154.648829,24.2474845 C155.843139,24.2474845 157.164747,24.5269485 158.308582,24.9849278 L156.173819,31.3639794 C155.207386,30.8558969 153.835304,30.5760619 152.590149,30.5760619 C149.488953,30.5760619 146.92219,32.431732 146.007345,36.4221649 L143.236829,49.5369278 Z" id="Fill-220" fill="#FEFEFE"></path>
            <path d="M163.180941,34.8970639 L163.180941,34.8970639 L174.084487,34.8970639 C174.109724,34.744899 174.109724,34.5919918 174.109724,34.4398268 C174.109724,31.4915381 172.33125,29.9665485 169.611209,29.9665485 C166.053518,29.9665485 164.121765,32.3555381 163.180941,34.8970639 L163.180941,34.8970639 Z M177.566838,46.7158268 C174.898013,49.0795794 171.721477,50.1981773 167.502054,50.1981773 C160.080487,50.1981773 155.835456,45.622466 155.835456,39.3955794 C155.835456,33.1690639 159.92758,24.2477443 169.992735,24.2477443 C176.194013,24.2477443 180.489518,28.1617237 180.489518,34.2869196 C180.489518,34.3036206 180.489518,34.3203216 180.489518,34.3373938 C180.475044,37.1650639 178.107951,39.4211876 175.280281,39.4211876 L162.419003,39.4211876 C162.520322,42.6997856 164.604611,44.5554557 168.060611,44.5554557 C170.297807,44.5554557 172.280405,43.8940948 174.161312,42.3947134 L177.566838,46.7158268 Z" id="Fill-222" fill="#FEFEFE"></path>
            <path d="M200.706598,37.2862392 L200.706598,37.2862392 C201.215423,33.1688784 198.74998,30.4239711 195.216784,30.4239711 C191.201114,30.4239711 188.176743,33.9567959 188.176743,38.1754763 C188.176743,41.7090433 190.489279,43.9959711 193.74264,43.9959711 C197.402763,43.9959711 200.24899,41.1237649 200.706598,37.2862392 M202.486186,27.3996 L204.190433,19.449167 C205.004702,15.6509814 208.361238,12.9379918 212.245897,12.9379918 L204.468413,49.5370021 L197.936825,49.5370021 L198.368825,47.529167 C196.716908,49.1046309 194.632248,50.1979918 191.709568,50.1979918 C185.762516,50.1979918 181.314475,45.2414969 181.314475,38.8620742 C181.314475,31.846899 186.524825,24.2475588 195.064248,24.2475588 C198.470145,24.2475588 200.986062,25.3913938 202.486186,27.3996" id="Fill-224" fill="#FEFEFE"></path>
            <path d="M223.531897,16.8521196 L223.531897,16.8521196 C223.531897,19.2411093 221.676598,21.0704289 219.287609,21.0704289 C216.898619,21.0704289 215.068186,19.2411093 215.068186,16.8521196 C215.068186,14.4631299 216.898619,12.5818515 219.287609,12.5818515 C221.676598,12.5818515 223.531897,14.4631299 223.531897,16.8521196 L223.531897,16.8521196 Z M215.703939,49.5367794 L209.019815,49.5367794 L212.864763,31.4469649 C213.67532,27.6346763 217.042248,24.9083258 220.939897,24.9083258 L215.703939,49.5367794 Z" id="Fill-226" fill="#FEFEFE"></path>
            <path d="M148.451003,51.8159134 L116.870095,95.7997485 L109.60626,95.7997485 L104.726219,65.5337691 L113.013642,65.5337691 L116.382054,84.0659753 L137.816528,54.9980165 C139.291786,52.9968619 141.630673,51.8159134 144.116899,51.8159134 L148.451003,51.8159134 Z" id="Fill-228" fill="#FEFEFE"></path>
            <path d="M150.11205,85.7424247 L150.11205,85.7424247 L148.203308,76.0098062 L141.312462,85.7424247 L150.11205,85.7424247 Z M151.367225,91.655332 L136.701493,91.655332 L133.542401,95.7997856 L125.347761,95.7997856 L146.17506,68.5689402 C147.638071,66.6557443 149.908669,65.5338062 152.316957,65.5338062 L153.990401,65.5338062 L160.360545,95.7997856 L152.306194,95.7997856 L151.367225,91.655332 Z" id="Fill-230" fill="#FEFEFE"></path>
            <path d="M191.635044,88.5356907 L191.216776,90.0966804 C190.31492,93.4610103 187.266425,95.7995258 183.784075,95.7995258 L163.474879,95.7995258 L171.584528,65.5335464 L178.847992,65.5335464 L172.685312,88.5356907 L191.635044,88.5356907 Z" id="Fill-232" fill="#FEFEFE"></path>
            <path d="M206.280883,72.0525155 L204.83346,77.4536289 L217.079027,77.4536289 L215.344718,83.9258351 L203.099522,83.9258351 L201.652099,89.3269485 L217.156594,89.3269485 L216.95878,90.0658763 C216.052471,93.4480206 212.987275,95.7995258 209.486368,95.7995258 L192.654326,95.7995258 L200.764347,65.5339175 L223.531935,65.5339175 L221.785007,72.0525155 L206.280883,72.0525155 Z" id="Fill-234" fill="#FEFEFE"></path>
        </g>
    </g>
</svg>