<?xml version="1.0" encoding="UTF-8"?>
<svg width="709px" height="291px" viewBox="0 0 709 291" version="1.1" xmlns="http://www.w3.org/2000/svg" xmlns:xlink="http://www.w3.org/1999/xlink">
    <!-- Generator: Sketch 64 (93537) - https://sketch.com -->
    <title>Group 8</title>
    <desc>Created with Sketch.</desc>
    <g id="Page-1" stroke="none" stroke-width="1" fill="none" fill-rule="evenodd">
        <g id="Group-8" transform="translate(0.240021, 0.700200)">
            <path d="M116.404079,288.786 L69.2670791,288.63 C48.6830791,288.561 28.9790791,281.037 15.5000791,265.106 C0.282079127,247.12 -2.99892087,223.3 2.48107913,200.866 L31.6210791,81.568 C42.1590791,38.424 83.9250791,2.648 128.520079,0.16 L128.629079,1.13686838e-13 L137.633079,0.029 L205.372079,0.166 L205.343079,0.254 L209.472079,0.267 L209.489079,0.215 L218.549079,0.241 C358.842079,0.64 499.136079,1.076 639.430079,1.446 C677.945079,1.548 707.410079,28.031 708.661079,66.916 L708.661079,67.114 L708.661079,71.394 L708.661079,71.532 C708.526079,77.492 707.611079,83.405 706.254079,89.203 L706.239079,89.265 L703.892079,98.846 L698.001079,122.991 L694.233079,139.67 L694.242079,139.67 L686.060079,175.879 L685.801079,175.879 L677.056079,208.849 C667.863079,246.266 635.434079,277.554 598.356079,287.139 C591.380079,288.942 584.275079,290.035 577.064079,290.162 L576.955079,290.164 L576.846079,290.164 L575.093079,290.164 L564.338079,290.163 L564.183079,290.269 L526.673079,290.145 C395.567079,289.711 264.460079,289.278 133.354079,288.848 L116.402079,288.793 L116.404079,288.786 Z" id="Fill-200" fill="#FEFEFE"></path>
            <path d="M560.346079,277.8495 L526.714079,277.7385 C395.623079,277.6135 264.459079,276.8705 133.395079,276.4405 L133.397079,276.4335 L84.1160791,276.2705 L84.1160791,276.2705 L69.3080791,276.2215 C29.3240791,276.1125 4.78407913,243.7955 14.5340791,203.8105 L43.6750791,84.5125 C53.4240791,44.5275 93.6290791,12.3205 133.614079,12.4292241 L135.179079,12.4325 L135.181079,12.4292241 L137.609079,12.4375 L188.169079,12.5385 L188.147079,12.6045 L218.495079,12.7045 L218.513079,12.6495 C358.809079,13.0475 499.103079,13.5055 639.398079,13.8545 C672.701079,13.9635 695.267079,36.5315 696.253079,67.3125 L696.253079,71.2565 C696.143079,76.1865 695.377079,81.2255 694.172079,86.3745 L691.837079,95.9055 L685.922079,120.1535 L678.708079,152.0775 L678.718079,152.0775 L676.143079,163.4705 L676.134079,163.4705 L675.439079,166.5455 L665.033079,205.7825 C656.926079,238.9755 627.785079,266.8005 595.250079,275.1255 C589.225079,276.7695 583.090079,277.6465 576.846079,277.7555 L575.094079,277.7555 L563.590079,277.7555 L560.482079,277.7555 L560.346079,277.8495 Z" id="Fill-202" fill="#FEFEFE"></path>
            <path d="M184.334279,181.5721 C184.443279,176.3131 182.472279,171.9311 178.747279,168.4261 C177.104279,166.7831 174.146279,164.8111 170.202279,162.6201 L156.947279,203.5911 C163.410279,202.7151 168.888279,200.8521 173.599279,198.0041 C180.610279,193.7311 184.225279,188.1451 184.334279,181.5721" id="Fill-204" fill="#E40040"></path>
            <path d="M104.692679,270.1971 L104.254679,270.1971 L114.770679,237.3321 L115.099679,237.0041 C99.7626791,236.1271 86.7276791,231.4161 76.2106791,222.9811 C65.9126791,214.5461 60.8736791,204.3581 61.0926791,192.7461 C61.2026791,187.8161 62.5166791,182.3391 64.7076791,175.9851 L116.852679,175.7651 C115.318679,179.0521 114.442679,181.5721 114.442679,183.6531 C114.223679,189.6781 117.071679,194.7181 123.096679,198.4421 C124.411679,199.3181 125.835679,200.0861 127.368679,200.8521 L144.130679,149.4741 C139.748679,147.2831 134.927679,144.8741 129.779679,142.2441 C122.548679,138.4101 116.524679,134.5761 111.703679,130.5221 C100.529679,121.5401 95.0526791,109.9271 95.0526791,95.6861 C95.3806791,78.2671 103.487679,64.1361 119.043679,52.8531 C134.709679,41.5691 154.756679,36.0931 179.404679,36.2021 L180.281679,36.2021 L188.168679,12.5391 L133.613679,12.4288241 C93.6286791,12.3201 53.4236791,44.5271 43.6746791,84.5121 L14.5346791,203.8101 C4.78467913,243.7961 29.3236791,276.1121 69.3086791,276.2211 L102.720679,276.3321 L104.692679,270.1971 Z" id="Fill-206" fill="#1B3767"></path>
            <path d="M148.731279,91.1942 C148.621279,96.5622 151.798279,101.6012 158.262279,106.3122 L169.545279,71.6942 C164.944279,72.6812 161.110279,74.3242 157.714279,76.7342 C151.908279,80.4592 148.840279,85.0592 148.731279,91.1942" id="Fill-208" fill="#1B3767"></path>
            <path d="M639.397779,13.8543 C499.102779,13.5053 358.808779,13.0473 218.513779,12.6493 L210.296779,38.1733 C225.743779,40.9133 237.684779,46.0613 246.338779,54.0573 C254.883779,62.1643 259.046779,72.3523 258.826779,84.2923 C258.717779,86.8133 258.389779,90.6463 257.403779,95.5763 L204.929779,95.4663 C205.258779,93.7133 205.258779,91.9613 205.367779,90.2083 C205.477779,83.5263 203.176779,78.4873 198.356779,75.3103 L183.786779,120.4443 L185.210779,121.2103 L209.640779,133.4803 C228.919779,143.1203 238.122779,156.7043 237.793779,174.9993 C237.575779,187.7063 232.974779,199.3183 224.100779,210.3833 C215.117779,221.1193 203.724779,228.3483 189.373779,232.2923 C174.475779,236.5653 160.014779,238.8663 145.772779,238.8663 L145.553779,238.8663 L133.394779,276.4403 C276.749779,276.9113 420.223779,277.7553 563.589779,277.7553 L575.093779,277.7553 L576.845779,277.7553 C583.089779,277.6463 589.224779,276.7693 595.249779,275.1253 C627.785779,266.8003 656.925779,238.9753 665.032779,205.7823 L675.439779,166.5453 L686.227779,118.8003 L694.171779,86.3753 C695.376779,81.2253 696.143779,76.1863 696.252779,71.2563 L696.252779,67.3123 C695.267779,36.5313 672.700779,13.9633 639.397779,13.8543" id="Fill-210" fill="#D90E26"></path>
            <path d="M670.509579,43.4325 L670.509579,43.4325 L670.509579,44.3085 C670.400579,45.2945 670.180579,46.2805 669.962579,47.1565 C669.633579,48.0325 669.195579,48.9105 668.756579,49.7865 C666.455579,53.8385 662.074579,56.5775 657.144579,56.5775 L656.268579,56.5775 C652.982579,56.3585 650.023579,54.9345 647.832579,52.7445 C645.751579,50.4435 644.327579,47.4855 644.217579,44.1985 L644.217579,43.4325 L644.217579,42.5555 C644.327579,41.5695 644.547579,40.5835 644.765579,39.7065 C645.094579,38.7215 645.532579,37.8445 645.970579,37.0785 C648.271579,33.0245 652.653579,30.2865 657.582579,30.2865 L658.459579,30.2865 C661.745579,30.5055 664.703579,31.9295 666.894579,34.1205 C668.975579,36.3115 670.400579,39.3785 670.509579,42.6645 L670.509579,43.4325 Z M672.043579,42.5555 C671.933579,38.8305 670.400579,35.5435 667.989579,33.0245 C665.580579,30.6155 662.293579,28.9715 658.568579,28.7525 C658.240579,28.6425 657.911579,28.6425 657.692579,28.6425 C652.105579,28.6425 647.176579,31.7105 644.547579,36.3115 C644.108579,37.1875 643.670579,38.1735 643.342579,39.2685 C643.012579,40.2545 642.793579,41.3505 642.683579,42.4465 C642.683579,42.7755 642.683579,43.1035 642.574579,43.4325 C642.574579,43.6515 642.574579,43.9795 642.683579,44.3085 C642.793579,48.0325 644.327579,51.3195 646.738579,53.8385 C649.147579,56.2475 652.434579,57.8915 656.158579,58.1115 L657.035579,58.1115 C662.622579,58.2205 667.551579,55.0435 670.180579,50.5525 C670.618579,49.5665 671.057579,48.5805 671.385579,47.5945 C671.715579,46.6095 671.933579,45.5135 672.043579,44.4175 C672.043579,44.0895 672.043579,43.7605 672.153579,43.4325 C672.153579,43.2125 672.153579,42.8835 672.043579,42.5555 L672.043579,42.5555 Z" id="Fill-212" fill="#FEFEFE"></path>
            <path d="M659.664379,40.1454 L659.664379,40.1454 C659.445379,40.3644 659.116379,40.5834 658.788379,40.6944 C658.240379,40.8034 657.802379,40.9134 657.473379,40.9134 L657.364379,40.9134 L655.063379,40.9134 L655.172379,37.4064 L657.473379,37.4064 C658.459379,37.4064 659.116379,37.5164 659.445379,37.8444 C659.773379,38.1734 659.993379,38.6124 659.993379,39.1594 C659.993379,39.4884 659.883379,39.8174 659.664379,40.1454 M663.279379,45.0754 C662.951379,44.6364 662.622379,44.3084 662.512379,44.1984 C662.184379,43.9794 661.746379,43.7604 661.088379,43.5414 C661.855379,43.4324 662.512379,43.2124 662.951379,42.8834 C663.718379,42.4464 664.265379,41.8984 664.704379,41.2424 C665.142379,40.4744 665.361379,39.7074 665.361379,38.7214 C665.361379,37.6254 665.142379,36.6404 664.594379,35.8734 C664.046379,35.1064 663.389379,34.5584 662.512379,34.3394 C661.636379,34.0104 660.431379,33.9014 658.788379,33.9014 L657.473379,33.9014 L649.805379,33.9014 L649.476379,51.2094 L654.844379,51.2094 L654.954379,44.1984 L655.501379,44.1984 C655.939379,44.1984 656.377379,44.3084 656.816379,44.5274 C657.035379,44.7464 657.254379,45.0754 657.473379,45.5134 C657.582379,45.6234 657.692379,45.7334 657.692379,45.9514 L660.431379,51.2094 L666.565379,51.2094 L664.046379,46.1704 C663.936379,45.9514 663.718379,45.6234 663.279379,45.0754" id="Fill-214" fill="#FEFEFE"></path>
            <path d="M678.717579,152.077 L282.444579,152.077 C276.152579,152.077 271.050579,157.179 271.050579,163.471 L676.142579,163.471 L678.717579,152.077 Z" id="Fill-216" fill="#FEFEFE"></path>
            <path d="M365.933379,118.1346 C356.346379,128.9546 343.951379,135.1876 328.610379,135.1876 C301.559379,135.1876 282.179379,116.6276 282.179379,89.9186 C282.179379,58.8976 305.257379,35.8876 335.732379,35.8876 C346.415379,35.8876 364.906379,38.4886 375.451379,56.8426 L359.564379,67.3896 C354.290379,58.7596 345.730379,54.1716 334.636379,54.1716 C316.899379,54.1716 302.175379,68.8946 302.175379,88.4816 C302.175379,105.8076 314.366379,116.8326 329.431379,116.8326 C333.767379,116.8326 337.863379,115.9216 341.634379,114.2066 C349.747379,110.5156 359.301379,112.1786 365.933379,118.1346" id="Fill-218" fill="#FEFEFE"></path>
            <path d="M385.943679,133.4745 L368.002679,133.4745 L382.108679,67.1145 L399.365679,67.1145 L397.791679,74.1005 C403.338679,67.3895 410.049679,65.3335 416.692679,65.3335 C419.910679,65.3335 423.471679,66.0865 426.553679,67.3205 L420.801679,84.5085 C418.197679,83.1395 414.500679,82.3855 411.145679,82.3855 C402.789679,82.3855 395.873679,87.3855 393.408679,98.1375 L385.943679,133.4745 Z" id="Fill-220" fill="#FEFEFE"></path>
            <path d="M439.681979,94.0282 L439.681979,94.0282 L469.060979,94.0282 C469.128979,93.6182 469.128979,93.2062 469.128979,92.7962 C469.128979,84.8522 464.336979,80.7432 457.007979,80.7432 C447.421979,80.7432 442.216979,87.1802 439.681979,94.0282 L439.681979,94.0282 Z M478.443979,125.8732 C471.252979,132.2422 462.693979,135.2562 451.324979,135.2562 C431.327979,135.2562 419.889979,122.9272 419.889979,106.1492 C419.889979,89.3722 430.915979,65.3342 458.035979,65.3342 C474.744979,65.3342 486.318979,75.8802 486.318979,92.3842 C486.318979,92.4292 486.318979,92.4742 486.318979,92.5202 C486.279979,100.1392 479.901979,106.2182 472.282979,106.2182 L437.628979,106.2182 C437.901979,115.0522 443.517979,120.0522 452.829979,120.0522 C458.857979,120.0522 464.199979,118.2702 469.267979,114.2302 L478.443979,125.8732 Z" id="Fill-222" fill="#FEFEFE"></path>
            <path d="M540.792779,100.4657 L540.792779,100.4657 C542.163779,89.3717 535.520779,81.9757 526.000779,81.9757 C515.180779,81.9757 507.031779,91.4947 507.031779,102.8617 C507.031779,112.3827 513.262779,118.5447 522.028779,118.5447 C531.890779,118.5447 539.559779,110.8057 540.792779,100.4657 M545.587779,73.8267 L550.179779,52.4047 C552.373779,42.1707 561.417779,34.8607 571.884779,34.8607 L550.928779,133.4747 L533.329779,133.4747 L534.493779,128.0647 C530.042779,132.3097 524.425779,135.2557 516.550779,135.2557 C500.526779,135.2557 488.541779,121.9007 488.541779,104.7117 C488.541779,85.8097 502.580779,65.3337 525.589779,65.3337 C534.766779,65.3337 541.545779,68.4157 545.587779,73.8267" id="Fill-224" fill="#FEFEFE"></path>
            <path d="M602.294279,45.4071 L602.294279,45.4071 C602.294279,51.8441 597.295279,56.7731 590.858279,56.7731 C584.421279,56.7731 579.489279,51.8441 579.489279,45.4071 C579.489279,38.9701 584.421279,33.9011 590.858279,33.9011 C597.295279,33.9011 602.294279,38.9701 602.294279,45.4071 L602.294279,45.4071 Z M581.202279,133.4741 L563.192279,133.4741 L573.552279,84.7321 C575.736279,74.4601 584.808279,67.1141 595.310279,67.1141 L581.202279,133.4741 Z" id="Fill-226" fill="#FEFEFE"></path>
            <path d="M399.992979,139.6151 L314.899979,258.1271 L295.327979,258.1271 L282.178979,176.5771 L304.508979,176.5771 L313.584979,226.5111 L371.338979,148.1891 C375.313979,142.7971 381.615979,139.6151 388.314979,139.6151 L399.992979,139.6151 Z" id="Fill-228" fill="#FEFEFE"></path>
            <path d="M404.468579,231.0282 L404.468579,231.0282 L399.325579,204.8042 L380.758579,231.0282 L404.468579,231.0282 Z M407.850579,246.9602 L368.334579,246.9602 L359.822579,258.1272 L337.742579,258.1272 L393.860579,184.7552 C397.802579,179.6002 403.920579,176.5772 410.409579,176.5772 L414.918579,176.5772 L432.082579,258.1272 L410.380579,258.1272 L407.850579,246.9602 Z" id="Fill-230" fill="#FEFEFE"></path>
            <path d="M516.349979,238.5545 L515.222979,242.7605 C512.792979,251.8255 504.578979,258.1265 495.195979,258.1265 L440.473979,258.1265 L462.324979,176.5765 L481.895979,176.5765 L465.290979,238.5545 L516.349979,238.5545 Z" id="Fill-232" fill="#FEFEFE"></path>
            <path d="M555.812379,194.1415 L551.912379,208.6945 L584.907379,208.6945 L580.234379,226.1335 L547.240379,226.1335 L543.340379,240.6865 L585.116379,240.6865 L584.583379,242.6775 C582.141379,251.7905 573.882379,258.1265 564.449379,258.1265 L519.096379,258.1265 L540.948379,176.5775 L602.294379,176.5775 L597.587379,194.1415 L555.812379,194.1415 Z" id="Fill-234" fill="#FEFEFE"></path>
        </g>
    </g>
</svg>