<?xml version="1.0" encoding="UTF-8"?>
<svg width="663px" height="253px" viewBox="0 0 663 253" version="1.1" xmlns="http://www.w3.org/2000/svg" xmlns:xlink="http://www.w3.org/1999/xlink">
    <!-- Generator: Sketch 58 (84663) - https://sketch.com -->
    <title>benefit4</title>
    <desc>Created with Sketch.</desc>
    <g id="benefit4" stroke="none" stroke-width="1" fill="none" fill-rule="evenodd">
        <g id="apple" fill="#FFFFFF">
            <path d="M593,0 C631.659932,-7.10171439e-15 663,31.3400675 663,70 L663,183 C663,221.659932 631.659932,253 593,253 L70,253 C31.3400675,253 4.73447626e-15,221.659932 0,183 L0,70 C-4.73447626e-15,31.3400675 31.3400675,7.10171439e-15 70,0 L593,0 Z M181,96 L101,96 L101,156.447739 L101.003793,156.698545 C101.132453,160.94664 104.517731,164.381797 108.690449,164.512348 L108.936792,164.516197 L117.418191,164.516197 L117.418191,185.194541 L117.422032,185.458507 C117.55746,190.106963 121.257315,193.861259 125.800895,193.996242 L126.054167,194 L126.425267,194 L126.684206,193.996096 C131.244311,193.858421 134.937102,190.096982 135.069878,185.453408 L135.073575,185.194541 L135.073575,164.516197 L146.926425,164.516197 L146.926425,185.194541 L146.930278,185.458507 C147.066131,190.106963 150.777452,193.861259 155.321449,193.996242 L155.574733,194 L155.939811,194 L156.198728,193.996096 C160.75836,193.858421 164.445546,190.096982 164.578118,185.453408 L164.581809,185.194541 L164.581809,164.516197 L173.06923,164.516197 L173.315224,164.512348 C177.482107,164.381797 180.867538,160.94664 180.996206,156.698545 L181,156.447739 L181,96 Z M370.473253,135.616 C361.769253,135.616 355.689253,142.784 355.689253,151.168 C355.689253,160 362.025253,166.656 370.473253,166.656 C375.081253,166.656 377.833253,164.8 378.985253,163.072 L378.985253,164.544 C378.985253,170.304 375.977253,172.672 371.113253,172.672 C367.465253,172.672 364.905253,170.432 364.265253,167.36 L355.689253,169.792 C356.585253,175.488 362.409253,181.12 371.561253,181.12 C383.465253,181.12 388.585253,173.184 388.585253,164.032 L388.585253,136.192 L379.305253,136.192 L379.305253,139.584 C378.409253,137.92 375.657253,135.616 370.473253,135.616 Z M559.001509,136.192 L548.121509,136.192 L561.497509,163.712 L554.265509,180.224 L564.505509,180.224 L584.089509,136.192 L573.785509,136.192 L566.745509,153.216 L559.001509,136.192 Z M255.92,121.664 C243.12,121.664 232.304,131.072 232.304,145.344 C232.304,159.68 242.672,168.96 255.28,168.96 C261.744,168.96 266.032,166.272 268.016,163.392 L268.656,168 L276.848,168 L276.848,143.744 L253.744,143.744 L253.744,152.32 L267.376,152.32 L267.307208,152.592752 C266.578549,155.209665 263.405793,159.744 256.176,159.744 C248.816,159.744 242.544,154.816 242.544,145.344 C242.544,135.232 249.776,131.136 255.92,131.136 C263.472,131.136 266.48,136.256 267.184,139.072 L276.912,135.68 L276.763389,135.225265 C274.637569,128.982639 268.602667,121.664 255.92,121.664 Z M298.541751,135.232 C289.069751,135.232 281.645751,142.208 281.645751,152.064 C281.645751,161.92 289.069751,168.96 298.541751,168.96 C308.077751,168.96 315.437751,161.92 315.437751,152.064 C315.437751,142.208 308.077751,135.232 298.541751,135.232 Z M335.531502,135.232 C326.059502,135.232 318.635502,142.208 318.635502,152.064 C318.635502,161.92 326.059502,168.96 335.531502,168.96 C345.067502,168.96 352.427502,161.92 352.427502,152.064 C352.427502,142.208 345.067502,135.232 335.531502,135.232 Z M427.108754,135.232 C418.852754,135.232 411.236754,141.76 411.236754,152 C411.236754,162.688 419.044754,168.96 427.812754,168.96 C435.876754,168.96 440.932754,164.352 442.468754,158.848 L434.340754,156.544 C433.444754,159.04 431.460754,160.704 427.940754,160.704 C424.164754,160.704 420.900754,158.144 420.708754,154.56 L442.852754,154.56 C442.916754,154.368 443.044754,152.896 443.044754,151.552 C443.044754,141.312 436.964754,135.232 427.108754,135.232 Z M531.483758,135.232 C522.139758,135.232 517.915758,141.248 517.531758,145.792 L525.979758,147.52 C526.171758,145.152 528.027758,142.848 531.419758,142.848 C534.491758,142.848 536.091758,144.448 536.091758,146.304 C536.091758,147.392 535.515758,148.224 533.787758,148.48 L526.299758,149.632 C521.051758,150.4 516.891758,153.6 516.891758,159.232 C516.891758,164.288 520.923758,168.896 527.899758,168.896 C532.123758,168.896 535.195758,167.104 536.859758,164.416 L536.86527,164.960508 C536.902828,166.785573 537.121323,167.766261 537.179758,168 L545.947758,168 L545.889523,167.646802 C545.776213,166.884609 545.563758,165.105778 545.563758,163.072 L545.563758,147.52 C545.563758,140.992 541.787758,135.232 531.483758,135.232 Z M405.735003,121.664 L396.007003,121.664 L396.007003,168 L405.735003,168 L405.735003,121.664 Z M481.248256,122.624 L464.160256,122.624 L464.160256,168 L474.272256,168 L474.272256,151.68 L481.248256,151.68 C490.464256,151.68 496.800256,145.728 496.800256,137.152 C496.800256,128.704 490.464256,122.624 481.248256,122.624 Z M511.326007,121.664 L501.598007,121.664 L501.598007,168 L511.326007,168 L511.326007,121.664 Z M536.091758,154.112 L536.091758,155.52 C536.091758,160.448 533.147758,161.856 530.267758,161.856 C527.579758,161.856 526.491758,160.256 526.491758,158.592 C526.491758,156.352 528.027758,155.392 530.075758,155.072 L536.091758,154.112 Z M298.541751,144.192 C302.253751,144.192 305.709751,146.688 305.709751,152.064 C305.709751,157.44 302.253751,160 298.541751,160 C294.893751,160 291.373751,157.376 291.373751,152.064 C291.373751,146.688 294.893751,144.192 298.541751,144.192 Z M335.531502,144.192 C339.243502,144.192 342.699502,146.688 342.699502,152.064 C342.699502,157.44 339.243502,160 335.531502,160 C331.883502,160 328.363502,157.376 328.363502,152.064 C328.363502,146.688 331.883502,144.192 335.531502,144.192 Z M372.265253,144.128 C375.913253,144.128 379.049253,146.816 379.049253,151.168 C379.049253,155.52 376.233253,158.208 372.265253,158.208 C368.361253,158.208 365.417253,155.52 365.417253,151.168 C365.417253,146.816 368.617253,144.128 372.265253,144.128 Z M88.1860193,96 L87.8075461,96 L87.5438141,96.0038493 C82.8993037,96.1395798 79.1389685,99.8476882 79.0037644,104.401404 L79,104.655241 L79,142.338723 L79.0037669,142.593615 C79.1390601,147.165776 82.9018656,150.863353 87.5485074,150.996299 L87.8075461,151 L88.1924539,151 L88.4514926,150.996287 C93.0981344,150.862917 96.8609399,147.153787 96.9962331,142.592961 L97,142.338723 L97,104.654954 L96.9957446,104.396448 C96.8492014,99.7592665 92.9434869,96 88.1860193,96 Z M195.186019,96 L194.820123,96 L194.561072,96.0037133 C189.914005,96.1370812 186.139497,99.846109 186.003779,104.401321 L186,104.655241 L186,142.338723 L186.003785,142.593615 C186.139719,147.165776 189.920105,150.863353 194.561405,150.996299 L194.820123,151 L195.192454,151 L195.45181,150.996287 C200.103957,150.862917 203.861152,147.153787 203.996239,142.592961 L204,142.338723 L204,104.654954 L203.996227,104.401048 C203.858207,99.7617532 199.951093,96 195.186019,96 Z M427.236754,142.912 C431.844754,142.912 433.508754,145.856 433.636754,148.288 L420.900754,148.288 C421.092754,145.92 423.140754,142.912 427.236754,142.912 Z M480.224256,131.392 C484.064256,131.392 486.688256,133.568 486.688256,137.216 C486.688256,140.736 484.064256,142.976 480.224256,142.976 L474.336256,142.976 L474.336256,131.392 L480.224256,131.392 Z M303.794,85.336 C300.518,85.336 298.124,86.932 297.032,88.948 L297.032,85.798 L293.21,85.798 L293.21,113.98 L297.116,113.98 L297.116,103.27 C298.208,105.076 300.56,106.546 303.668,106.546 C309.59,106.546 313.076,101.884 313.076,95.878 C313.076,89.998 309.842,85.336 303.794,85.336 Z M419.966,85.168 C414.884,85.168 410.306,89.494 410.306,95.836 C410.306,102.682 415.052,106.63 420.47,106.63 C425.174,106.63 428.408,103.816 429.542,100.246 L426.14,99.07 C425.384,101.338 423.746,103.144 420.47,103.144 C417.068,103.144 414.464,100.624 414.38,97.012 L429.584,97.012 L429.614844,96.7796875 C429.644375,96.508 429.668,96.13 429.668,95.752 C429.668,89.452 426.182,85.168 419.966,85.168 Z M326.768,85.168 C320.72,85.168 316.436,89.746 316.436,95.878 C316.436,102.052 320.72,106.63 326.768,106.63 C332.816,106.63 337.1,102.052 337.1,95.878 C337.1,89.746 332.816,85.168 326.768,85.168 Z M280.148,85.168 C276.2,85.168 272.966,88.108 272.966,91.552 C272.966,94.408 274.856,96.55 278.006,97.222 L281.45,97.978 C283.13,98.356 284.054,99.322 284.054,100.582 C284.054,102.01 282.836,103.27 280.61,103.27 C277.754,103.27 276.158,101.59 275.906,99.49 L272.336,100.75 C272.672,103.06 275.024,106.63 280.568,106.63 C285.566,106.63 287.96,103.228 287.96,100.372 C287.96,97.39 286.028,95.164 282.374,94.366 L279.098,93.652 C277.544,93.316 276.788,92.434 276.788,91.216 C276.788,89.83 278.132,88.528 280.148,88.528 C283.34,88.528 284.18,90.838 284.348,91.888 L287.834,90.586 L287.777189,90.360958 C287.270125,88.4968192 285.47024,85.168 280.148,85.168 Z M453.23,85.168 C448.148,85.168 443.57,89.494 443.57,95.836 C443.57,102.682 448.316,106.63 453.734,106.63 C458.438,106.63 461.672,103.816 462.806,100.246 L459.404,99.07 C458.648,101.338 457.01,103.144 453.734,103.144 C450.332,103.144 447.728,100.624 447.644,97.012 L462.848,97.012 L462.878844,96.7796875 C462.908375,96.508 462.932,96.13 462.932,95.752 C462.932,89.452 459.446,85.168 453.23,85.168 Z M380.276,75.592 L376.37,75.592 L376.37,106 L380.276,106 L380.276,103.06 C381.536,105.244 383.846,106.546 386.828,106.546 C392.834,106.546 396.236,101.8 396.236,95.794 C396.236,89.914 393.086,85.21 386.954,85.21 C383.594,85.21 381.242,86.848 380.276,88.654 L380.276,75.592 Z M478.052,85.21 C475.7,85.21 473.306,86.176 471.836,88.696 L471.836,85.798 L467.972,85.798 L467.972,106 L471.92,106 L471.92,94.324 C471.92,91.258 473.516,88.78 476.624,88.78 C480.152,88.78 481.328,91.048 481.328,93.862 L481.328,106 L485.276,106 L485.276,93.19 C485.276,88.696 482.882,85.21 478.052,85.21 Z M405.224,75.592 L401.276,75.592 L401.276,106 L405.224,106 L405.224,75.592 Z M369.65,85.798 L365.744,85.798 L365.744,106 L369.65,106 L369.65,85.798 Z M352.22,85.21 C349.868,85.21 347.474,86.176 346.004,88.696 L346.004,85.798 L342.14,85.798 L342.14,106 L346.088,106 L346.088,94.324 C346.088,91.258 347.684,88.78 350.792,88.78 C354.32,88.78 355.496,91.048 355.496,93.862 L355.496,106 L359.444,106 L359.444,93.19 C359.444,88.696 357.05,85.21 352.22,85.21 Z M267.506,85.798 L263.6,85.798 L263.6,106 L267.506,106 L267.506,85.798 Z M244.196,76.222 L233.78,76.222 L233.78,106 L244.112,106 C251.672,106 258.35,100.918 258.35,91.174 C258.35,81.388 251.756,76.222 244.196,76.222 Z M326.768,88.696 C330.128,88.696 333.068,91.216 333.068,95.878 C333.068,100.582 330.128,103.102 326.768,103.102 C323.408,103.102 320.468,100.582 320.468,95.878 C320.468,91.216 323.408,88.696 326.768,88.696 Z M303.08,88.822 C306.776,88.822 309.044,91.846 309.044,95.878 C309.044,100.036 306.734,103.018 303.08,103.018 C299.468,103.018 297.074,100.036 297.074,95.878 C297.074,91.846 299.468,88.822 303.08,88.822 Z M386.24,88.696 C389.894,88.696 392.204,91.426 392.204,95.794 C392.204,100.162 389.852,103.018 386.24,103.018 C382.754,103.018 380.234,100.162 380.234,95.794 C380.234,91.426 382.754,88.696 386.24,88.696 Z M244.07,79.876 C249.572,79.876 254.108,83.656 254.108,91.174 C254.108,98.65 249.488,102.346 243.986,102.346 L237.896,102.346 L237.896,79.876 L244.07,79.876 Z M165.974047,48.5537429 L165.893502,48.6700359 L158.869874,59.6613911 L158.259168,59.412612 C153.147437,57.3752418 147.476315,56.2358224 141.500144,56.2358224 C135.51815,56.2358224 129.85827,57.3752418 124.736387,59.412612 L124.124358,59.6613911 L117.113131,48.6700359 L117.032569,48.5537429 C116.577938,47.961758 115.736334,47.823774 115.109841,48.2401916 C114.485796,48.6489392 114.277212,49.4800319 114.612416,50.1344768 L114.686745,50.262833 L121.467821,60.887341 L121.047861,61.0993551 C109.054616,67.2379556 101,78.5968682 101,91.6046511 C101,92.2113995 101.028066,92.8110609 101.070935,93.4062309 L101.118248,94 L181.888097,94 L181.934418,93.4062309 C181.975503,92.8110609 182,92.2113995 182,91.6046511 C182,78.5968682 173.939465,67.2379556 161.952214,61.0993551 L161.532467,60.887341 L168.307487,50.262833 L168.381816,50.1344801 C168.71702,49.4800662 168.508436,48.6492139 167.884391,48.2401916 C167.26387,47.823774 166.428238,47.961758 165.974047,48.5537429 Z M453.272,88.654 C456.842,88.654 458.732,90.922 458.816,93.82 L447.77,93.82 C447.938,91.216 449.954,88.654 453.272,88.654 Z M420.008,88.654 C423.578,88.654 425.468,90.922 425.552,93.82 L414.506,93.82 C414.674,91.216 416.69,88.654 420.008,88.654 Z M367.676,75.298 C366.122,75.298 364.862,76.558 364.862,78.154 C364.862,79.708 366.122,80.968 367.676,80.968 C369.272,80.968 370.532,79.708 370.532,78.154 C370.532,76.558 369.272,75.298 367.676,75.298 Z M265.532,75.298 C263.978,75.298 262.718,76.558 262.718,78.154 C262.718,79.708 263.978,80.968 265.532,80.968 C267.128,80.968 268.388,79.708 268.388,78.154 C268.388,76.558 267.128,75.298 265.532,75.298 Z M122.774314,72.0301819 C124.933057,72.0301819 126.662647,73.7809109 126.662647,75.9679304 C126.662647,78.1549499 124.920655,79.9118322 122.774314,79.9118322 C120.627974,79.9118322 118.885982,78.1546569 118.885982,75.9679304 C118.885982,73.7812039 120.627974,72.0301819 122.774314,72.0301819 Z M160.219917,72.0301819 C162.372315,72.0301819 164.101905,73.7809109 164.101905,75.9679304 C164.101905,78.1546569 162.372315,79.9118322 160.219917,79.9118322 C158.073576,79.9118322 156.331585,78.1546569 156.331585,75.9679304 C156.331585,73.7812039 158.073576,72.0301819 160.219917,72.0301819 Z" id="Rectangle-2"></path>
        </g>
        <g id="android-logo" transform="translate(79.000000, 48.000000)"></g>
    </g>
</svg>