<?xml version="1.0" encoding="UTF-8"?>
<svg width="663px" height="253px" viewBox="0 0 663 253" version="1.1" xmlns="http://www.w3.org/2000/svg" xmlns:xlink="http://www.w3.org/1999/xlink">
    <!-- Generator: Sketch 58 (84663) - https://sketch.com -->
    <title>benefit4</title>
    <desc>Created with Sketch.</desc>
    <g id="benefit4" stroke="none" stroke-width="1" fill="none" fill-rule="evenodd">
        <g id="apple" fill="#FFFFFF">
            <path d="M593,0 C631.659932,-7.10171439e-15 663,31.3400675 663,70 L663,183 C663,221.659932 631.659932,253 593,253 L70,253 C31.3400675,253 4.73447626e-15,221.659932 0,183 L0,70 C-4.73447626e-15,31.3400675 31.3400675,7.10171439e-15 70,0 L593,0 Z M163.861782,81 C157.680819,81 151.759764,83.3311415 147.002846,85.204186 C143.71921,86.4971635 140.882955,87.6138044 138.926786,87.6138044 C136.7287,87.6138044 133.876349,86.4834537 130.573302,85.1748754 C126.1563,83.4242737 121.14989,81.4406051 115.849961,81.4406051 C115.723558,81.4406051 115.599049,81.4420234 115.476433,81.4443871 C103.153328,81.6254513 91.5091059,88.6656782 85.0895398,99.8150679 C72.8824224,120.968369 80.6427121,153.069666 94.1417908,172.533823 C100.879968,182.264956 107.701941,191 117.045818,191 C117.22193,191 117.398515,190.996691 117.579362,190.989599 C121.969379,190.814681 125.141762,189.464973 128.209046,188.16065 C131.652698,186.695118 135.214232,185.179947 140.80058,185.179947 C146.115185,185.179947 149.506761,186.645952 152.78661,188.063263 C156.019117,189.459773 159.348676,190.904504 164.268449,190.812317 C174.793508,190.616598 181.255682,181.190863 186.957071,172.875623 C192.802155,164.345845 195.785337,156.059736 196.8431,152.716874 L196.89793,152.542548 L196.938644,152.414432 L196.972717,152.291104 C197.090271,151.754549 196.820323,151.198952 196.309943,150.964973 C196.294793,150.957882 196.23893,150.934717 196.223307,150.928099 C194.36987,150.171222 178.111704,142.968841 177.940799,123.338276 C177.783928,107.562861 189.870387,99.1282745 192.531106,97.4653818 L192.615378,97.4130136 L192.730893,97.3411552 L192.840825,97.2611898 C193.050229,97.0895931 193.195385,96.8501682 193.24976,96.5819151 C193.313199,96.2694258 193.24692,95.9441723 193.06702,95.681322 C184.538845,83.2186264 171.467737,81.3403816 166.205208,81.1144061 C165.441582,81.0382929 164.653339,81 163.861782,81 Z M340.219502,135.424 C335.675502,135.424 332.219502,137.408 330.875502,139.456 L330.875502,136.192 L321.467502,136.192 L321.467502,180.16 L331.195502,180.16 L331.195502,165.504 C332.667502,167.296 335.739502,168.704 339.835502,168.704 C348.731502,168.704 355.003502,161.728 355.003502,152 C355.003502,142.464 349.435502,135.424 340.219502,135.424 Z M301.181751,135.424 C296.637751,135.424 293.181751,137.408 291.837751,139.456 L291.837751,136.192 L282.429751,136.192 L282.429751,180.16 L292.157751,180.16 L292.157751,165.504 C293.629751,167.296 296.701751,168.704 300.797751,168.704 C309.693751,168.704 315.965751,161.728 315.965751,152 C315.965751,142.464 310.397751,135.424 301.181751,135.424 Z M443.314505,121.664 C434.610505,121.664 427.058505,127.68 427.058505,136.256 C427.058505,142.976 431.730505,148.096 439.410505,149.568 L445.618505,150.72 C448.626505,151.296 450.482505,152.96 450.482505,155.264 C450.482505,158.08 448.050505,160 444.082505,160 C437.874505,160 435.058505,156.352 434.674505,152.192 L425.394505,154.432 C426.034505,160.832 431.410505,168.96 443.954505,168.96 C454.770505,168.96 460.722505,161.728 460.722505,154.624 C460.722505,148.16 456.242505,142.592 447.602505,140.992 L441.522505,139.84 C438.386505,139.264 437.042505,137.664 437.042505,135.488 C437.042505,132.992 439.474505,130.624 443.250505,130.624 C448.754505,130.624 450.482505,134.208 450.802505,136.32 L459.890505,133.76 L459.811135,133.353861 C458.708879,128.108854 454.35572,121.664 443.314505,121.664 Z M566.185509,135.232 C557.929509,135.232 550.313509,141.76 550.313509,152 C550.313509,162.688 558.121509,168.96 566.889509,168.96 C574.953509,168.96 580.009509,164.352 581.545509,158.848 L581.545509,158.848 L573.417509,156.544 C572.521509,159.04 570.537509,160.704 567.017509,160.704 C563.241509,160.704 559.977509,158.144 559.785509,154.56 L559.785509,154.56 L581.929509,154.56 C581.986772,154.388211 582.09527,153.191712 582.117478,151.979034 L582.117478,151.979034 L582.121509,151.552 C582.121509,141.312 576.041509,135.232 566.185509,135.232 Z M391.607003,135.232 C383.351003,135.232 375.735003,141.76 375.735003,152 C375.735003,162.688 383.543003,168.96 392.311003,168.96 C400.375003,168.96 405.431003,164.352 406.967003,158.848 L398.839003,156.544 C397.943003,159.04 395.959003,160.704 392.439003,160.704 C388.663003,160.704 385.399003,158.144 385.207003,154.56 L407.351003,154.56 L407.373117,154.458462 C407.440533,154.059524 407.543003,152.754526 407.543003,151.552 C407.543003,141.312 401.463003,135.232 391.607003,135.232 Z M505.262007,135.232 C495.790007,135.232 488.366007,142.208 488.366007,152.064 C488.366007,161.92 495.790007,168.96 505.262007,168.96 C514.798007,168.96 522.158007,161.92 522.158007,152.064 C522.158007,142.208 514.798007,135.232 505.262007,135.232 Z M478.704256,126.912 L470.000256,126.912 L470.000256,131.008 C470.000256,133.952 468.400256,136.192 465.072256,136.192 L463.472256,136.192 L463.472256,144.704 L469.104256,144.704 L469.104256,158.336 C469.104256,164.672 473.136256,168.576 479.728256,168.576 C482.800256,168.576 484.400256,167.872 484.784256,167.68 L484.784256,159.616 L484.433915,159.690627 C483.857049,159.807471 483.062074,159.936 482.224256,159.936 C480.112256,159.936 478.704256,159.232 478.704256,156.608 L478.704256,144.704 L484.912256,144.704 L484.912256,136.192 L478.704256,136.192 L478.704256,126.912 Z M261.44,122.624 L249.728,122.624 L232.64,168 L243.264,168 L246.528,158.784 L264.064,158.784 L267.328,168 L278.336,168 L261.44,122.624 Z M370.233253,121.664 L360.505253,121.664 L360.505253,168 L370.233253,168 L370.233253,121.664 Z M545.323758,135.872 C542.763758,135.872 538.731758,136.896 537.067758,140.48 L537.067758,136.192 L527.659758,136.192 L527.659758,168 L537.387758,168 L537.387758,154.112 C537.387758,147.776 540.907758,145.472 544.811758,145.472 C545.771758,145.472 546.795758,145.536 547.883758,145.792 L547.883758,136.192 C547.243758,136 546.283758,135.872 545.323758,135.872 Z M505.262007,144.192 C508.974007,144.192 512.430007,146.688 512.430007,152.064 C512.430007,157.44 508.974007,160 505.262007,160 C501.614007,160 498.094007,157.376 498.094007,152.064 C498.094007,146.688 501.614007,144.192 505.262007,144.192 Z M299.197751,144.192 C303.037751,144.192 306.429751,146.752 306.429751,152.064 C306.429751,157.376 303.037751,160 299.197751,160 C295.421751,160 292.029751,157.312 292.029751,152.064 C292.029751,146.752 295.421751,144.192 299.197751,144.192 Z M338.235502,144.192 C342.075502,144.192 345.467502,146.752 345.467502,152.064 C345.467502,157.376 342.075502,160 338.235502,160 C334.459502,160 331.067502,157.312 331.067502,152.064 C331.067502,146.752 334.459502,144.192 338.235502,144.192 Z M255.424,133.888 L260.864,149.568 L249.856,149.568 L255.424,133.888 Z M391.735003,142.912 C396.343003,142.912 398.007003,145.856 398.135003,148.288 L385.399003,148.288 C385.591003,145.92 387.639003,142.912 391.735003,142.912 Z M566.313509,142.912 C570.921509,142.912 572.585509,145.856 572.713509,148.288 L559.977509,148.288 C560.169509,145.92 562.217509,142.912 566.313509,142.912 Z M305.794,85.336 C302.518,85.336 300.124,86.932 299.032,88.948 L299.032,85.798 L295.21,85.798 L295.21,113.98 L299.116,113.98 L299.116,103.27 C300.208,105.076 302.56,106.546 305.668,106.546 C311.59,106.546 315.076,101.884 315.076,95.878 C315.076,89.998 311.842,85.336 305.794,85.336 Z M421.966,85.168 C416.884,85.168 412.306,89.494 412.306,95.836 C412.306,102.682 417.052,106.63 422.47,106.63 C427.174,106.63 430.408,103.816 431.542,100.246 L428.14,99.07 C427.384,101.338 425.746,103.144 422.47,103.144 C419.068,103.144 416.464,100.624 416.38,97.012 L431.584,97.012 L431.614844,96.7796875 C431.644375,96.508 431.668,96.13 431.668,95.752 C431.668,89.452 428.182,85.168 421.966,85.168 Z M282.148,85.168 C278.2,85.168 274.966,88.108 274.966,91.552 C274.966,94.408 276.856,96.55 280.006,97.222 L283.45,97.978 C285.13,98.356 286.054,99.322 286.054,100.582 C286.054,102.01 284.836,103.27 282.61,103.27 C279.754,103.27 278.158,101.59 277.906,99.49 L274.336,100.75 C274.672,103.06 277.024,106.63 282.568,106.63 C287.566,106.63 289.96,103.228 289.96,100.372 C289.96,97.39 288.028,95.164 284.374,94.366 L281.098,93.652 C279.544,93.316 278.788,92.434 278.788,91.216 C278.788,89.83 280.132,88.528 282.148,88.528 C285.34,88.528 286.18,90.838 286.348,91.888 L289.834,90.586 L289.777189,90.360958 C289.270125,88.4968192 287.47024,85.168 282.148,85.168 Z M328.768,85.168 C322.72,85.168 318.436,89.746 318.436,95.878 C318.436,102.052 322.72,106.63 328.768,106.63 C334.816,106.63 339.1,102.052 339.1,95.878 C339.1,89.746 334.816,85.168 328.768,85.168 Z M455.23,85.168 C450.148,85.168 445.57,89.494 445.57,95.836 C445.57,102.682 450.316,106.63 455.734,106.63 C460.438,106.63 463.672,103.816 464.806,100.246 L461.404,99.07 C460.648,101.338 459.01,103.144 455.734,103.144 C452.332,103.144 449.728,100.624 449.644,97.012 L464.848,97.012 L464.878844,96.7796875 C464.908375,96.508 464.932,96.13 464.932,95.752 C464.932,89.452 461.446,85.168 455.23,85.168 Z M382.276,75.592 L378.37,75.592 L378.37,106 L382.276,106 L382.276,103.06 C383.536,105.244 385.846,106.546 388.828,106.546 C394.834,106.546 398.236,101.8 398.236,95.794 C398.236,89.914 395.086,85.21 388.954,85.21 C385.594,85.21 383.242,86.848 382.276,88.654 L382.276,75.592 Z M480.052,85.21 C477.7,85.21 475.306,86.176 473.836,88.696 L473.836,85.798 L469.972,85.798 L469.972,106 L473.92,106 L473.92,94.324 C473.92,91.258 475.516,88.78 478.624,88.78 C482.152,88.78 483.328,91.048 483.328,93.862 L483.328,106 L487.276,106 L487.276,93.19 C487.276,88.696 484.882,85.21 480.052,85.21 Z M407.224,75.592 L403.276,75.592 L403.276,106 L407.224,106 L407.224,75.592 Z M371.65,85.798 L367.744,85.798 L367.744,106 L371.65,106 L371.65,85.798 Z M354.22,85.21 C351.868,85.21 349.474,86.176 348.004,88.696 L348.004,85.798 L344.14,85.798 L344.14,106 L348.088,106 L348.088,94.324 C348.088,91.258 349.684,88.78 352.792,88.78 C356.32,88.78 357.496,91.048 357.496,93.862 L357.496,106 L361.444,106 L361.444,93.19 C361.444,88.696 359.05,85.21 354.22,85.21 Z M269.506,85.798 L265.6,85.798 L265.6,106 L269.506,106 L269.506,85.798 Z M246.196,76.222 L235.78,76.222 L235.78,106 L246.112,106 C253.672,106 260.35,100.918 260.35,91.174 C260.35,81.388 253.756,76.222 246.196,76.222 Z M328.768,88.696 C332.128,88.696 335.068,91.216 335.068,95.878 C335.068,100.582 332.128,103.102 328.768,103.102 C325.408,103.102 322.468,100.582 322.468,95.878 C322.468,91.216 325.408,88.696 328.768,88.696 Z M388.24,88.696 C391.894,88.696 394.204,91.426 394.204,95.794 C394.204,100.162 391.852,103.018 388.24,103.018 C384.754,103.018 382.234,100.162 382.234,95.794 C382.234,91.426 384.754,88.696 388.24,88.696 Z M305.08,88.822 C308.776,88.822 311.044,91.846 311.044,95.878 C311.044,100.036 308.734,103.018 305.08,103.018 C301.468,103.018 299.074,100.036 299.074,95.878 C299.074,91.846 301.468,88.822 305.08,88.822 Z M246.07,79.876 C251.572,79.876 256.108,83.656 256.108,91.174 C256.108,98.65 251.488,102.346 245.986,102.346 L239.896,102.346 L239.896,79.876 L246.07,79.876 Z M455.272,88.654 C458.842,88.654 460.732,90.922 460.816,93.82 L449.77,93.82 C449.938,91.216 451.954,88.654 455.272,88.654 Z M422.008,88.654 C425.578,88.654 427.468,90.922 427.552,93.82 L416.506,93.82 C416.674,91.216 418.69,88.654 422.008,88.654 Z M166.629699,47.0009057 C159.203301,47.303516 150.294732,51.8770791 144.970038,58.1168843 C140.444848,63.3616578 136.02425,72.1062464 137.188879,80.9205957 C137.261904,81.4720818 137.710419,81.8977158 138.264937,81.9406092 C138.766218,81.9797317 139.277863,81.9995286 139.787624,82 C147.049128,82 154.882581,77.980751 160.232245,71.5090389 C165.862702,64.6753258 168.709731,55.9052839 167.848508,48.0496718 C167.780666,47.4340815 167.239339,46.9768665 166.629699,47.0009057 Z M369.676,75.298 C368.122,75.298 366.862,76.558 366.862,78.154 C366.862,79.708 368.122,80.968 369.676,80.968 C371.272,80.968 372.532,79.708 372.532,78.154 C372.532,76.558 371.272,75.298 369.676,75.298 Z M267.532,75.298 C265.978,75.298 264.718,76.558 264.718,78.154 C264.718,79.708 265.978,80.968 267.532,80.968 C269.128,80.968 270.388,79.708 270.388,78.154 C270.388,76.558 269.128,75.298 267.532,75.298 Z" id="Rectangle-2"></path>
        </g>
    </g>
</svg>