<svg xmlns="http://www.w3.org/2000/svg" width="52" height="41" viewBox="0 0 52 41">
    <g fill="none" fill-rule="evenodd">
        <g>
            <g>
                <g>
                    <g stroke="#57AA64" stroke-width="2">
                        <g transform="translate(-391.000000, -275.000000) translate(372.000000, 275.000000) translate(19.000000, 0.000000)">
                            <circle cx="20.5" cy="20.5" r="19.5"/>
                            <g>
                                <path d="M0 11L13.5 0 27 11" transform="translate(7.000000, 7.000000)"/>
                                <path d="M3 8L3 24 23 24 23 8" transform="translate(7.000000, 7.000000)"/>
                                <path d="M8 17H14V24H8zM20.5 0L20.5 6M14 10H20V14H14z" transform="translate(7.000000, 7.000000)"/>
                            </g>
                        </g>
                    </g>
                    <g fill="#57AA64" fill-rule="nonzero">
                        <path d="M11.92 1.323L10.643.07C10.595.024 10.528 0 10.46 0c-.065.003-.13.034-.175.086l-6.01 7.025-2.37-2.158c-.05-.045-.114-.068-.184-.063-.065.005-.128.039-.17.091L.058 6.846c-.087.108-.075.27.028.364l4.045 3.725c.047.041.105.065.167.065h.018c.067-.005.127-.04.172-.092l7.452-9.224c.088-.107.078-.264-.02-.361z" transform="translate(-391.000000, -275.000000) translate(372.000000, 275.000000) translate(19.000000, 0.000000) translate(40.000000, 0.000000)"/>
                    </g>
                </g>
            </g>
        </g>
    </g>
</svg>
