<svg xmlns="http://www.w3.org/2000/svg" width="55" height="41" viewBox="0 0 55 41">
    <g fill="none" fill-rule="evenodd">
        <g>
            <g>
                <g transform="translate(-649.000000, -556.000000) translate(649.000000, 556.000000)">
                    <circle cx="20.5" cy="20.5" r="19.5" stroke="#57AA64" stroke-width="2"/>
                    <g fill="#57AA64" fill-rule="nonzero">
                        <g>
                            <path d="M18 0c-3.19 0-6.19 1.316-8.463 3.684-.41.428-.41 1.119 0 1.546l1.768 1.842c.221.23.474.33.758.33.284 0 .537-.1.758-.33.41-.427.41-1.118 0-1.546l-.979-1.02c1.484-1.25 3.253-2.006 5.147-2.203V3.75c0 .592.474 1.086 1.043 1.086.568 0 1.042-.494 1.042-1.086V2.303c1.926.23 3.694 1.02 5.147 2.236l-1.01.987c-.411.428-.411 1.119 0 1.546.22.23.473.33.757.33.285 0 .537-.1.758-.33l.98-1.02c1.168 1.48 1.926 3.323 2.147 5.362h-1.39c-.568 0-1.042.494-1.042 1.086 0 .592.474 1.086 1.042 1.086h1.39c-.221 2.006-.98 3.848-2.148 5.328l-.979-1.02c-.41-.427-1.073-.427-1.484 0-.41.428-.41 1.12 0 1.547l.98 1.02C22.767 21.71 21 22.5 19.073 22.73v-1.448c0-.592-.474-1.086-1.042-1.086-.569 0-1.043.494-1.043 1.086v1.447c-1.894-.197-3.663-.987-5.147-2.204l.98-1.02c.41-.427.41-1.118 0-1.545-.411-.428-1.075-.428-1.485 0l-1.769 1.842c-.094.098-.19.23-.22.361-.159.395-.064.856.22 1.185C11.811 23.684 14.811 25 18 25c6.6 0 12-5.592 12-12.5S24.632 0 18 0z" transform="translate(4.000000, 8.000000)"/>
                            <path d="M18 6.283c-.568 0-1.042.493-1.042 1.085V12.5c0 .592.474 1.086 1.042 1.086h4.2c.568 0 1.042-.494 1.042-1.086 0-.592-.474-1.086-1.042-1.086h-3.126V7.368c0-.592-.474-1.085-1.074-1.085zM8.053 11.414h-7.01C.472 11.414 0 11.908 0 12.5c0 .592.474 1.086 1.042 1.086h7.01c.57 0 1.043-.494 1.043-1.086 0-.592-.474-1.086-1.042-1.086zM8.053 7.204h-4.61c-.57 0-1.043.493-1.043 1.085 0 .593.474 1.086 1.042 1.086h4.61c.57 0 1.043-.493 1.043-1.086 0-.592-.474-1.085-1.042-1.085zM8.053 15.592h-4.61c-.57 0-1.043.494-1.043 1.086 0 .592.474 1.085 1.042 1.085h4.61c.57 0 1.043-.493 1.043-1.085s-.474-1.086-1.042-1.086z" transform="translate(4.000000, 8.000000)"/>
                        </g>
                    </g>
                </g>
                <g fill="#57AA64" fill-rule="nonzero">
                    <path d="M11.92 1.323L10.643.07C10.595.024 10.528 0 10.46 0c-.065.003-.13.034-.175.086l-6.01 7.025-2.37-2.158c-.05-.045-.114-.068-.184-.063-.065.005-.128.039-.17.091L.058 6.846c-.087.108-.075.27.028.364l4.045 3.725c.047.041.105.065.167.065h.018c.067-.005.127-.04.172-.092l7.452-9.224c.088-.107.078-.264-.02-.361z" transform="translate(-649.000000, -556.000000) translate(649.000000, 556.000000) translate(43.000000, 0.000000)"/>
                </g>
            </g>
        </g>
    </g>
</svg>
