<svg xmlns="http://www.w3.org/2000/svg" width="96" height="96" fill="none" viewBox="0 0 96 96">
    <path fill="#92CBF9" d="M48 96c26.51 0 48-21.49 48-48S74.51 0 48 0 0 21.49 0 48s21.49 48 48 48z"/>
    <path fill="#fff" d="M56.398 53.217h-1.669l-.59-.57c1.319-1.532 2.283-3.337 2.824-5.285.54-1.948.643-3.992.3-5.984-.992-5.867-5.89-10.552-11.803-11.27-2.079-.262-4.19-.046-6.172.632-1.983.678-3.783 1.8-5.265 3.28-1.481 1.481-2.604 3.281-3.283 5.262-.678 1.981-.894 4.091-.631 6.169.718 5.909 5.405 10.805 11.275 11.796 1.994.342 4.039.24 5.988-.3 1.95-.54 3.755-1.504 5.288-2.823l.57.591v1.667l8.975 8.97c.865.864 2.28.864 3.146 0 .865-.866.865-2.28 0-3.145l-8.953-8.99zm-12.67 0c-5.258 0-9.502-4.242-9.502-9.497s4.244-9.496 9.502-9.496c5.258 0 9.502 4.242 9.502 9.496 0 5.255-4.244 9.497-9.502 9.497z"/>
</svg>
