<svg xmlns="http://www.w3.org/2000/svg" width="96" height="96" fill="none" viewBox="0 0 96 96">
    <path fill="#92CBF9" d="M48 96c26.51 0 48-21.49 48-48S74.51 0 48 0 0 21.49 0 48s21.49 48 48 48z"/>
    <path fill="#fff" d="M48 28.75c-10.63 0-19.25 8.62-19.25 19.25S37.37 67.25 48 67.25 67.25 58.63 67.25 48 58.63 28.75 48 28.75zm0 35.234c-8.826 0-15.984-7.158-15.984-15.984S39.174 32.016 48 32.016 63.984 39.174 63.984 48 56.826 63.984 48 63.984z"/>
    <path fill="#fff" d="M52.795 39.608c-1.289-1.13-2.99-1.749-4.795-1.749-1.805 0-3.506.623-4.795 1.75-1.34 1.172-2.08 2.75-2.08 4.438v.326c0 .19.155.344.344.344h2.062c.19 0 .344-.154.344-.344v-.326c0-1.895 1.852-3.438 4.125-3.438 2.273 0 4.125 1.543 4.125 3.438 0 1.336-.945 2.56-2.41 3.124-.912.348-1.685.958-2.24 1.757-.562.817-.854 1.796-.854 2.789v.924c0 .189.154.343.343.343h2.063c.189 0 .344-.154.344-.343v-.976c.002-.417.13-.824.367-1.167.236-.343.571-.607.96-.758 2.536-.975 4.173-3.21 4.173-5.693.004-1.689-.735-3.266-2.076-4.439zm-6.514 17.845c0 .456.181.893.504 1.215.322.323.76.504 1.215.504.456 0 .893-.181 1.215-.503.323-.323.504-.76.504-1.216 0-.456-.181-.893-.504-1.215-.322-.322-.76-.504-1.215-.504-.456 0-.893.181-1.215.504-.323.322-.504.76-.504 1.215z"/>
</svg>
