<?xml version="1.0" encoding="utf-8"?>
<!-- Generator: Adobe Illustrator 25.0.0, SVG Export Plug-In . SVG Version: 6.00 Build 0)  -->
<svg version="1.1" id="Capa_1" xmlns="http://www.w3.org/2000/svg" xmlns:xlink="http://www.w3.org/1999/xlink" x="0px" y="0px"
	 viewBox="0 0 210.4 188.4" style="enable-background:new 0 0 210.4 188.4;" xml:space="preserve">
<style type="text/css">
	.st0{fill:#A0191E;}
	.st1{fill:#E12632;}
	.st2{fill:#FFFFFF;}
	.st3{fill:#9C1B22;}
</style>
<g id="Grupo_6" transform="translate(-898.004 -657.973)">
	<path id="Trazado_1" class="st0" d="M1026,704.7c-26.9,4.2-61.4,9.7-68.9,10.9c-12.6,2.1-16.8,9.1-16.8,9.1s-34.2,39.1-38.8,44.7
		c-2.9,3.5-1.4,15.2,0.1,23.3c1.1,7.7,3.2,16.9,6.6,19c6.1,3.9,50.6,30.7,50.6,30.7s6.1,5.4,18.8,3.5s102.1-15.8,102.1-15.8
		s33.6-1.4,28-40.1l-5.6-34.3l-0.8-5.1l-0.6-2.7c-1.6-8.2-2.2-7.5-5.2-6.8c-11.4,2.6,4.7-11.8,5.7-11.6c0.5,0.1,0.9-2,0.6-1.6
		c-1.8,2.2-6.2,7.3-11.2,10.4c-1.3,0.8-9.1,4.4-11.5,0.4c-2.8-6.3,5.1-9.4,8.9-10.6c7-2.2,11.5-3.9,14.7-8.3s4.1-16.5-3.9-29.1
		c-4.7-7.6-7.1-16.3-7.2-25.2c0-0.3-0.3-0.6-0.6-0.6c-0.1,0-0.2,0-0.3,0.1c-3.1,1.8-3.3,7.1-3.3,12.6c0,6,1.8,14.1,0,23.2
		c-1.3,6.6-18.3,19-22.9,10.3c-4.8-9-7.8-5.8-4.8-9c0.4-0.4,1.1-11.6,0.5-11.5c-9.1,1.7-5.9,8-7.3,13.3c-1.5,5.5-4.7,13.3-9,17.6
		s-9.4,1.6-9.4-6.6c0-5.8-3.1-13.3-5.7-13.8c-10.7-1.8,3.4,2.5,2.8,2.6c-2.8,0.5,0,0-3.3,0.6L1026,704.7z M941.7,796.7
		c-6.3,1.7-12.7-2.1-14.4-8.4c-1.7-6.3,2.1-12.7,8.4-14.4c6.3-1.7,12.7,2.1,14.4,8.4c0.2,0.8,0.3,1.6,0.4,2.4
		C950.7,790.2,947.1,795.2,941.7,796.7"/>
	<g id="Grupo_1" transform="translate(898.004 657.973)">
		<path id="Trazado_2" class="st1" d="M127.2,40.6c-26.9,4.2-61.4,9.7-68.9,10.9c-12.6,2.1-16.8,9.1-16.8,9.1S7.3,99.8,2.6,105.3
			c-2.9,3.5-1.4,15.2,0.1,23.3c1.1,7.7,3.2,16.9,6.6,19c6.1,3.9,50.6,30.7,50.6,30.7s6.1,5.4,18.8,3.5s102.1-15.8,102.1-15.8
			s33.6-1.4,28-40.1l-5.6-34.3l-0.8-5.1l-0.6-2.7c-1.6-8.2-0.2-9.6,1.3-12.2c1.3-2.3,1.1-5.7,0.8-7.4c0-0.3-0.3-0.5-0.7-0.5
			c-0.1,0-0.3,0.1-0.4,0.2c-1.8,2.2-6.2,7.3-11.2,10.4c-1.3,0.8-9.1,4.4-11.5,0.4c-2.8-6.3,5.1-9.4,8.9-10.6
			c7-2.2,11.5-3.9,14.7-8.3s4.1-16.5-3.9-29.2c-4.7-7.6-7.1-16.3-7.2-25.2c0-0.3-0.3-0.6-0.6-0.6c-0.1,0-0.2,0-0.3,0.1
			c-3.1,1.8-3.3,7.1-3.3,12.6c0,6,1.8,14.1,0,23.2c-1.3,6.6-18.3,19-22.9,10.3c-4.8-9,2.4-18.1,5.4-21.2c0.2-0.2,0.2-0.6,0-0.8
			c-0.1-0.1-0.3-0.2-0.5-0.1c-9.1,1.7-15,9.7-16.3,14.9c-1.5,5.5-4.7,13.3-9,17.6s-9.4,1.6-9.4-6.6c0.1-4.5,1.9-8.7,5-11.9
			c0.2-0.2,0.2-0.6,0-0.8c-0.1-0.1-0.3-0.2-0.5-0.2c-2.8,0.5-7.4,1.7-10.7,2.3L127.2,40.6z M42.9,132.6c-6.3,1.7-12.7-2.1-14.4-8.4
			c-1.7-6.3,2.1-12.7,8.4-14.4c6.3-1.7,12.7,2.1,14.4,8.4c0.2,0.8,0.3,1.6,0.4,2.4C51.9,126.1,48.3,131.2,42.9,132.6"/>
		<path id="Trazado_3" class="st2" d="M73.6,183.3c-8.9,0-13.6-3.6-14.2-4.1c-1.9-1.2-44.6-26.9-50.6-30.7c-3-1.9-5.4-8.5-7-19.7
			c-2.4-12.9-2.4-21,0.1-24c4.5-5.4,37.3-43,38.8-44.7c0.5-0.8,5.1-7.4,17.4-9.5c7.5-1.3,41.6-6.6,68.9-10.9h0l2.4-0.4
			c1.6-0.3,3.5-0.7,5.3-1.2c2-0.5,3.8-0.9,5.3-1.1c0.6-0.1,1.3,0.2,1.6,0.8c0.3,0.6,0.2,1.3-0.2,1.8c-2.9,3-4.6,7.1-4.7,11.3
			c0,3.8,1.2,6.6,3.1,7.4c1.4,0.6,3.1,0,4.6-1.6c4.3-4.3,7.4-11.9,8.8-17.2c1.3-5.1,7.1-13.8,17.1-15.6c0.7-0.1,1.3,0.2,1.6,0.8
			c0.3,0.6,0.2,1.3-0.2,1.8c-3.1,3.3-9.7,11.7-5.2,20.1c1,1.9,2.9,2.7,5.5,2.4c6.4-0.9,14.7-8.2,15.6-12.4
			c1.2-6.1,0.8-11.8,0.3-16.8c-0.2-2.2-0.4-4.3-0.4-6.1c0-6.1,0.3-11.4,3.8-13.4c0.5-0.3,1.1-0.3,1.6,0c0.5,0.3,0.8,0.8,0.8,1.3
			c0,8.7,2.5,17.3,7,24.7c8.3,13.2,7.3,25.6,3.9,30.2c-3.5,4.7-8.3,6.5-15.2,8.7c-4.5,1.4-7.5,3.3-8.4,5.5c-0.5,1.2-0.5,2.6,0.1,3.8
			c0.4,0.6,1.1,1.1,1.8,1.2c2.9,0.7,7.3-1.4,8.3-2c4.8-3,9.2-8.1,10.9-10.2c0.4-0.5,1-0.7,1.6-0.5c0.6,0.2,1,0.6,1.1,1.2
			c0.1,0.5,0.8,4.9-0.9,8.1c-0.1,0.3-0.3,0.5-0.4,0.7c-1.3,2.2-2.2,3.7-0.8,10.9l0.6,2.7l0.8,5.2l5.6,34.3
			c1.8,12.7-0.3,22.8-6.3,30.1c-8.4,10.2-21.4,11-22.5,11.1c-2.6,0.4-89.7,14-102.1,15.8C77.1,183.2,75.4,183.3,73.6,183.3z
			 M127.3,41.6c-27.3,4.3-61.4,9.7-68.9,10.9c-12,2-16.1,8.6-16.2,8.7l-0.1,0.1C41.9,61.7,7.9,100.5,3.4,106
			c-2,2.4-1.9,10.6,0.3,22.5c2.1,13.9,4.8,17.5,6.2,18.4c6,3.8,50.2,30.4,50.6,30.7l0.1,0.1c0.1,0,6,5,18,3.3
			c12.5-1.8,101.2-15.6,102.1-15.8l0.1,0c0.1,0,13.1-0.7,21.2-10.4c5.7-6.8,7.6-16.4,5.9-28.6l-5.6-34.3l-0.8-5.1l-0.6-2.6
			c-1.5-7.8-0.4-9.9,1-12.2c0.1-0.2,0.3-0.5,0.4-0.7c0.8-1.9,1.1-4,0.8-6c-3.1,3.8-6.8,7.1-10.8,9.9c-0.9,0.5-6,3.1-9.8,2.2
			c-1.3-0.2-2.4-1-3-2.1l-0.1-0.1c-0.8-1.7-0.9-3.7-0.1-5.4c1.5-3.4,6.1-5.4,9.6-6.5c6.6-2.1,11.1-3.7,14.2-8c3-4.1,3.8-15.8-4-28.1
			c-4.6-7.5-7.2-16.2-7.3-25c-2.1,1.8-2.3,6.4-2.3,11.4c0,1.8,0.2,3.8,0.4,6c0.4,5.1,0.9,11-0.4,17.4c-1.1,5.4-10.4,13-17.2,14
			c-3.5,0.5-6.1-0.7-7.5-3.3c-4.7-8.8,1.2-17.4,4.7-21.5c-8,2-13.2,9.2-14.5,14c-1.5,5.8-4.8,13.5-9.3,18.1c-2.1,2.1-4.6,2.9-6.7,2
			c-2.7-1.1-4.3-4.6-4.3-9.2c0.1-4.3,1.7-8.5,4.5-11.8c-1.2,0.2-2.6,0.6-4.1,0.9c-1.9,0.4-3.8,0.9-5.5,1.2L127.3,41.6z M39.9,133.9
			c-7,0-12.7-5.7-12.7-12.7c0-7,5.7-12.7,12.7-12.7c7,0,12.7,5.7,12.7,12.7c0,5.8-3.9,10.8-9.5,12.3l0,0
			C42,133.8,41,133.9,39.9,133.9z M39.9,110.4c-0.9,0-1.9,0.1-2.8,0.4c-5.8,1.6-9.2,7.5-7.7,13.3c1.5,5.7,7.4,9.2,13.2,7.7l0,0
			c5.8-1.5,9.2-7.4,7.7-13.2C49.1,113.7,44.8,110.4,39.9,110.4L39.9,110.4z"/>
	</g>
	<path id="Trazado_4" class="st2" d="M1098.3,665.8h0.7l1,3l1-3h0.7v3.5h-0.5v-2.1c0-0.1,0-0.2,0-0.4s0-0.3,0-0.5l-1,3h-0.5l-1-3
		v0.1c0,0.1,0,0.2,0,0.4s0,0.3,0,0.4v2.1h-0.5L1098.3,665.8z"/>
	<path id="Trazado_5" class="st2" d="M1104.1,667.5c0.2,0,0.4,0,0.5-0.1c0.1-0.1,0.2-0.3,0.2-0.5c0-0.2-0.1-0.4-0.3-0.5
		c-0.1-0.1-0.3-0.1-0.4-0.1h-1.1v1.2L1104.1,667.5z M1102.5,665.8h1.6c0.2,0,0.4,0,0.7,0.1c0.3,0.1,0.5,0.5,0.5,0.8
		c0,0.2,0,0.4-0.1,0.5c-0.1,0.1-0.2,0.2-0.4,0.3c0.1,0,0.2,0.1,0.3,0.2c0.1,0.1,0.1,0.3,0.1,0.4l0,0.5c0,0.1,0,0.2,0,0.3
		c0,0.1,0.1,0.2,0.2,0.2v0.1h-0.6c0,0,0-0.1,0-0.1c0-0.1,0-0.2,0-0.3l0-0.6c0-0.2-0.1-0.4-0.3-0.5c-0.1-0.1-0.3-0.1-0.4-0.1h-1.1
		v1.5h-0.5L1102.5,665.8z"/>
	<path id="Trazado_6" class="st2" d="M1101.9,662.1c-3,0-5.5,2.5-5.5,5.5c0,3,2.5,5.5,5.5,5.5c3,0,5.5-2.5,5.5-5.5
		C1107.4,664.6,1104.9,662.1,1101.9,662.1 M1101.9,673.8c-3.4,0-6.2-2.8-6.2-6.2c0-3.4,2.8-6.2,6.2-6.2c3.4,0,6.2,2.8,6.2,6.2
		c0,0,0,0,0,0C1108.1,671.1,1105.3,673.8,1101.9,673.8"/>
	<g id="Grupo_4" transform="translate(966.238 723.425)">
		<g id="Grupo_2" transform="translate(1.465 1.352)">
			<path id="Trazado_7" class="st3" d="M1.8,14.2L9.3,13l1.9,12.3l11.1-1.7l-1.9-12.3l7.5-1.2l4.8,30.6l-7.5,1.2l-1.9-12l-11.1,1.7
				l1.9,12l-7.5,1.2L1.8,14.2z"/>
			<path id="Trazado_8" class="st3" d="M49,6.3c9.3-1.4,17.1,4.4,18.5,13.1c1.4,8.9-4.7,17.1-13.5,18.5s-17.1-4.7-18.5-13.5
				C34,15.7,39.7,7.7,49,6.3z M52.8,31.1c4.6-0.7,7.7-5.2,6.8-10.5c-0.8-5-5.1-8.2-9.6-7.5s-7.7,5.1-6.9,10.1
				C43.9,28.5,48.2,31.8,52.8,31.1L52.8,31.1z"/>
			<path id="Trazado_9" class="st3" d="M77,9l-9.3,1.5l-1-6.4L92.8,0l1,6.4l-9.3,1.5l3.8,24.2l-7.5,1.2L77,9z"/>
			<path id="Trazado_10" class="st3" d="M5.3,73.3c0,0,4,2.6,7.8,2c1.5-0.2,3.1-1.1,2.8-2.9C15.4,68.7,1.6,71,0.1,61.6
				c-0.9-5.7,3.3-10.1,9.4-11.1c6.6-1,10.4,1.9,10.4,1.9L17.7,59c-2.2-1.3-4.7-1.9-7.2-1.6c-1.5,0.2-3.1,1.2-2.9,2.9
				c0.6,3.9,14.3,1,15.8,10.7c0.8,5.1-2.4,10.1-9.3,11.2C9.9,82.9,5.7,82,2.2,79.6L5.3,73.3z"/>
			<path id="Trazado_11" class="st3" d="M46.5,70L37,71.5l-0.8,6.7l-7.7,1.2l5.6-32.3l7.9-1.2l15.2,29l-7.7,1.2L46.5,70z M39.1,53.6
				c0,0-0.2,3.4-0.4,5.5l-0.8,6.2l6-0.9l-2.6-5.7C40.3,56.8,39.1,53.5,39.1,53.6L39.1,53.6z"/>
			<path id="Trazado_12" class="st3" d="M57,43.6l7.5-1.2l3.8,24.2l12.5-2l1,6.4l-20,3.1L57,43.6z"/>
			<path id="Trazado_13" class="st3" d="M82.3,39.7l19.2-3l1,6.4l-11.7,1.8l0.9,5.6L101,49l1,6.4l-9.3,1.5l0.9,5.8l12.3-1.9l1,6.4
				L87,70.3L82.3,39.7z"/>
		</g>
		<g id="Grupo_3">
			<path id="Trazado_14" class="st2" d="M1.8,14.2L9.3,13l1.9,12.3l11.1-1.7l-1.9-12.3l7.5-1.2l4.8,30.6l-7.5,1.2l-1.9-12l-11.1,1.7
				l1.9,12l-7.5,1.2L1.8,14.2z"/>
			<path id="Trazado_15" class="st2" d="M49,6.3c9.3-1.4,17.1,4.4,18.5,13.1C68.8,28.3,62.8,36.6,54,38c-8.8,1.4-17.2-4.6-18.6-13.4
				c0,0,0-0.1,0-0.1C34,15.7,39.7,7.7,49,6.3z M52.8,31.1c4.6-0.7,7.7-5.2,6.8-10.5c-0.8-5-5.1-8.2-9.6-7.5s-7.7,5.1-6.9,10.1
				C43.9,28.5,48.2,31.8,52.8,31.1L52.8,31.1z"/>
			<path id="Trazado_16" class="st2" d="M77,9l-9.3,1.5l-1-6.4L92.8,0l1,6.4l-9.3,1.5l3.8,24.2l-7.5,1.2L77,9z"/>
			<path id="Trazado_17" class="st2" d="M5.3,73.3c0,0,4,2.6,7.8,2c1.5-0.2,3.1-1.1,2.8-2.9C15.4,68.7,1.6,71,0.1,61.6
				c-0.9-5.7,3.3-10.1,9.4-11.1c6.6-1,10.4,1.9,10.4,1.9L17.7,59c-2.2-1.3-4.7-1.9-7.2-1.6c-1.5,0.2-3.1,1.2-2.9,2.9
				c0.6,3.9,14.3,1,15.8,10.7c0.8,5.1-2.4,10.1-9.3,11.2C9.9,82.9,5.7,82,2.2,79.6L5.3,73.3z"/>
			<path id="Trazado_18" class="st2" d="M46.5,70L37,71.5l-0.8,6.7l-7.7,1.2l5.6-32.3l7.9-1.2l15.2,29l-7.7,1.2L46.5,70z M39.1,53.6
				c0,0-0.2,3.4-0.4,5.5l-0.8,6.2l6-0.9l-2.6-5.7C40.3,56.8,39.1,53.5,39.1,53.6L39.1,53.6z"/>
			<path id="Trazado_19" class="st2" d="M57,43.6l7.5-1.2l3.8,24.2l12.5-2l1,6.4l-20,3.1L57,43.6z"/>
			<path id="Trazado_20" class="st2" d="M82.2,39.7l19.2-3l1,6.4l-11.7,1.8l0.9,5.6L101,49l1,6.4l-9.3,1.5l0.9,5.8l12.3-1.9l1,6.4
				L87,70.3L82.2,39.7z"/>
		</g>
	</g>
	<g id="Grupo_5" transform="translate(1019.05 797.091)">
		<path id="Trazado_21" class="st2" d="M0,13.7c-0.1-0.5,0.2-0.9,0.7-1c0,0,0,0,0.1,0c0.5-0.1,1,0.2,1.1,0.7s-0.2,1-0.7,1.1
			C0.6,14.6,0.1,14.2,0,13.7C0,13.7,0,13.7,0,13.7z"/>
		<path id="Trazado_22" class="st2" d="M8.5,13c-0.6,0.4-1.3,0.6-2,0.7c-1.8,0.4-3.6-0.8-4-2.7c0-0.1,0-0.3-0.1-0.4
			c-0.4-2,0.9-3.9,2.9-4.3c0.1,0,0.3,0,0.4-0.1c0.6-0.1,1.2-0.1,1.8,0.1l-0.1,1c-0.5-0.2-1-0.2-1.5-0.1c-1.5,0.3-2.4,1.8-2,3.2
			c0.3,1.3,1.5,2.2,2.8,2.1c0.5-0.1,1.1-0.3,1.5-0.6L8.5,13z"/>
		<path id="Trazado_23" class="st2" d="M15.8,8.5c0.4,1.9-0.7,3.8-2.6,4.2c-0.1,0-0.2,0.1-0.4,0.1c-1.9,0.3-3.6-1-3.9-2.8
			c0-0.1,0-0.2,0-0.3c-0.4-1.9,0.7-3.8,2.6-4.2c0.1,0,0.2-0.1,0.4-0.1c1.8-0.3,3.6,0.9,3.9,2.8C15.8,8.2,15.8,8.4,15.8,8.5z
			 M10.2,9.4c0.2,1.6,1.3,2.6,2.5,2.4c1.2-0.2,2-1.5,1.8-3.1c-0.2-1.2-1-2.6-2.5-2.4S10,8,10.2,9.4z"/>
		<path id="Trazado_24" class="st2" d="M17.2,6.7C17.1,6,17,5.4,16.9,4.8L18,4.6l0.2,1.1l0,0c0.3-0.9,1.1-1.5,2-1.6
			c0.9-0.1,1.8,0.3,2.2,1.1h0c0.1-0.4,0.4-0.7,0.7-1c0.4-0.4,0.9-0.7,1.5-0.7c0.9-0.1,2.4,0.3,2.8,2.7l0.6,4.2l-1.3,0.2l-0.6-4
			c-0.2-1.4-0.8-2.1-1.9-2C23.7,4.7,23.1,5.3,23,6c0,0.2,0,0.4,0,0.7l0.6,4.4l-1.3,0.2L21.8,7C21.6,5.8,21,5.1,20,5.2
			c-0.7,0.2-1.3,0.8-1.4,1.5c0,0.2,0,0.4,0,0.6l0.6,4.3L18,11.8L17.2,6.7z"/>
		<path id="Trazado_25" class="st2" d="M29.7,9.4c-0.1-0.5,0.2-0.9,0.7-1c0,0,0,0,0.1,0c0.5-0.1,1,0.2,1.1,0.7
			c0.1,0.5-0.2,1-0.7,1.1C30.3,10.2,29.9,9.9,29.7,9.4C29.7,9.4,29.7,9.4,29.7,9.4z"/>
		<path id="Trazado_26" class="st2" d="M32.4,4.5c-0.1-0.7-0.2-1.3-0.3-1.9l1.1-0.2l0.2,1.1l0,0c0.3-0.9,1.1-1.5,2-1.6
			c0.9-0.1,1.8,0.3,2.2,1.1h0c0.1-0.4,0.4-0.7,0.7-1c0.4-0.4,0.9-0.7,1.5-0.7c0.9-0.1,2.4,0.3,2.8,2.7l0.6,4.2L42,8.3l-0.6-4
			c-0.2-1.4-0.8-2.1-1.9-2c-0.7,0.1-1.2,0.7-1.4,1.4c0,0.2,0,0.4,0,0.7l0.6,4.4L37.6,9L37,4.7c-0.2-1.1-0.8-1.9-1.8-1.7
			c-0.7,0.2-1.3,0.8-1.4,1.5c0,0.2,0,0.4,0,0.6l0.6,4.3l-1.3,0.2L32.4,4.5z"/>
		<path id="Trazado_27" class="st2" d="M45,0.7l1.2,1.4c0.3,0.4,0.6,0.7,0.9,1.1l0,0c0.2-0.5,0.4-0.9,0.5-1.3l0.8-1.7L49.8,0
			l-1.9,3.8l3,3.3l-1.5,0.2l-1.3-1.4c-0.3-0.4-0.6-0.7-0.9-1.1h0C47,5.2,46.9,5.6,46.7,6l-0.8,1.7L44.4,8l2-4l-2.9-3.1L45,0.7z"/>
	</g>
</g>
</svg>
