<svg xmlns="http://www.w3.org/2000/svg" width="54" height="52" viewBox="0 0 54 52">
    <g fill="#FFF" fill-rule="evenodd">
        <g fill="#FFF" fill-rule="nonzero">
            <g>
                <g>
                    <path d="M47.456 17.586c-.749.257-1.147 1.071-.89 1.819.811 2.355 1.222 4.814 1.222 7.31 0 12.364-10.075 22.423-22.46 22.423-12.385 0-22.46-10.059-22.46-22.422 0-12.364 10.075-22.422 22.46-22.422 3.924 0 7.781 1.025 11.154 2.966.685.395 1.563.16 1.958-.525.396-.685.16-1.56-.526-1.954-3.807-2.192-8.16-3.35-12.586-3.35C11.362 1.431 0 12.774 0 26.716S11.362 52 25.328 52s25.327-11.342 25.327-25.284c0-2.814-.463-5.587-1.377-8.241-.258-.748-1.074-1.147-1.822-.889z" transform="translate(-486.000000, -81.000000) translate(262.000000, 81.000000) translate(224.000000, 0.000000)"/>
                    <path d="M53.695 4.818L48.81.258C48.629.086 48.37 0 48.113 0c-.248.01-.497.124-.669.315l-22.976 25.59-9.061-7.862c-.191-.163-.44-.249-.707-.23-.249.02-.488.144-.65.335L8.344 24.94c-.335.391-.287.983.105 1.326l15.464 13.568c.182.153.402.238.64.238h.067c.259-.019.488-.143.66-.334L53.77 6.135c.335-.391.297-.964-.076-1.317z" transform="translate(-486.000000, -81.000000) translate(262.000000, 81.000000) translate(224.000000, 0.000000)"/>
                </g>
            </g>
        </g>
    </g>
</svg>
