<svg width="110" height="70" xmlns="http://www.w3.org/2000/svg">
    <g fill="none" fill-rule="evenodd">
        <path d="M81.5 50H4a2 2 0 0 1-2-2V4a2 2 0 0 1 2-2h92a2 2 0 0 1 2 2v30.5" stroke="#FFF" stroke-width="4"/>
        <path fill="#FFF" d="M39 57h23v9H39z"/>
        <path fill="#FFF" d="M27 65h47v5H27z"/>
        <g transform="translate(28 16)" fill="#FFF">
            <circle cx="3.5" cy="3.5" r="3.5"/>
            <circle cx="40.5" cy="3.5" r="3.5"/>
        </g>
        <path d="M32.395 35.875c13.754-6.456 25.824-6.456 36.21 0" stroke="#FFF" stroke-width="4"/>
        <path d="M94.5 32c8.56 0 15.5 6.94 15.5 15.5 0 8.56-6.94 15.5-15.5 15.5C85.94 63 79 56.06 79 47.5 79 38.94 85.94 32 94.5 32zm4.243 7.722L94.5 43.964l-4.243-4.242-3.535 3.535 4.242 4.242-4.242 4.244 3.535 3.535 4.242-4.243 4.244 4.243 3.535-3.535-4.242-4.243 4.242-4.243-3.535-3.535z" fill="#FFF"/>
    </g>
</svg>
