<svg width="71" height="70" xmlns="http://www.w3.org/2000/svg">
    <path d="M69.944 22.215 59.04 11.502V3.48c0-1.922-1.56-3.48-3.486-3.48H15.423a3.483 3.483 0 0 0-3.486 3.48v8.051L1.057 22.215A3.541 3.541 0 0 0 0 24.737v7.86c0 2.223.885 4.355 2.46 5.927a8.406 8.406 0 0 0 5.939 2.456h.354a8.39 8.39 0 0 0 6.552-3.156 8.39 8.39 0 0 0 6.552 3.156h.347a8.39 8.39 0 0 0 6.552-3.156 8.39 8.39 0 0 0 6.552 3.156h.355a8.39 8.39 0 0 0 6.551-3.156 8.39 8.39 0 0 0 6.582 3.156h.354a8.39 8.39 0 0 0 6.552-3.156 8.39 8.39 0 0 0 6.552 3.156h.355C67.244 40.975 71 37.223 71 32.596v-7.86c0-.947-.38-1.855-1.056-2.52zM15.623 3.687h39.725v6.775H15.623V3.687zm-2.165 28.91a4.708 4.708 0 0 1-4.705 4.696H8.4a4.708 4.708 0 0 1-4.706-4.697v-6.724h9.765v6.724zm13.459 0a4.708 4.708 0 0 1-4.713 4.696h-.354a4.708 4.708 0 0 1-4.706-4.697v-6.724h9.78l-.007 6.724zm13.458 0a4.708 4.708 0 0 1-4.705 4.696h-.355a4.708 4.708 0 0 1-4.705-4.697v-6.724h9.773l-.008 6.724zm13.459 0a4.708 4.708 0 0 1-4.706 4.696h-.332a4.708 4.708 0 0 1-4.705-4.697v-6.724h9.757l-.014 6.724zm1.846-10.411H6.352l8.185-8.044h41.926l8.185 8.044H55.68zm11.627 10.41c0 1.246-.496 2.44-1.378 3.321a4.71 4.71 0 0 1-3.328 1.376h-.354a4.701 4.701 0 0 1-4.705-4.697v-6.724h9.765v6.724zM54.705 61.174c1.02 0 1.847-.825 1.847-1.843v-11.06a1.845 1.845 0 0 0-1.847-1.843H39.843c-1.02 0-1.846.826-1.846 1.844v11.06c0 1.017.826 1.842 1.846 1.842h14.862zm-13.052-11.06h11.235v7.374H41.69l-.037-7.373zm27.47 16.222h-4.741v-21.22a1.845 1.845 0 0 0-1.847-1.843c-1.02 0-1.847.825-1.847 1.843v21.197h-27.33V48.272a1.845 1.845 0 0 0-1.847-1.844H17.425a1.848 1.848 0 0 0-1.869 1.844v18.041h-5.244V45.116a1.845 1.845 0 0 0-1.847-1.843c-1.02 0-1.847.825-1.847 1.843v21.197H1.847C.827 66.313 0 67.14 0 68.157 0 69.175.827 70 1.847 70h67.306c1.02 0 1.847-.825 1.847-1.843a1.845 1.845 0 0 0-1.847-1.844l-.03.023zm-39.451 0H19.249V50.115h10.453l-.03 16.22z" fill="#FFF" fill-rule="nonzero"/>
</svg>
