<svg width="24" height="24" xmlns="http://www.w3.org/2000/svg">
    <g fill="#243B7A" fill-rule="nonzero">
        <path d="m12.578 16.79-2.821-2.462c.576-.86.914-1.9.914-3.021A5.26 5.26 0 0 0 9.3 7.745c-.199.44-.477.96-.775 1.56.377.56.576 1.261.576 2.002 0 2.08-1.67 3.782-3.756 3.782-2.066 0-3.755-1.701-3.755-3.782 0-.72.218-1.421.556-2.001-.298-.6-.556-1.101-.775-1.581A5.335 5.335 0 0 0 0 11.287c0 2.961 2.385 5.363 5.325 5.363 1.093 0 2.147-.34 2.981-.94l2.444 2.841c.04.06.08.1.12.14.536.46 1.33.4 1.788-.14a1.21 1.21 0 0 0-.08-1.761z"/>
        <path d="M6.12 10.846c1.113-1.94 3.04-5.523 3.04-7.024C9.16 1.701 7.453 0 5.366 0A3.826 3.826 0 0 0 1.55 3.822c0 1.501 1.927 5.083 3.04 7.024.338.6 1.193.6 1.53 0zM3.577 3.822c0-.98.795-1.78 1.768-1.78.974 0 1.769.8 1.769 1.78s-.795 1.781-1.769 1.781c-.973 0-1.768-.78-1.768-1.78z"/>
    </g>
</svg>
