<svg xmlns="http://www.w3.org/2000/svg" width="15" height="15" viewBox="0 0 15 15">
    <g fill="none" fill-rule="evenodd">
        <g fill="#353B48" fill-rule="nonzero">
            <path d="M59.5 157c-4.142 0-7.5-3.358-7.5-7.5 0-4.142 3.358-7.5 7.5-7.5 4.142 0 7.5 3.358 7.5 7.5 0 4.142-3.358 7.5-7.5 7.5zm0-1.364c3.389 0 6.136-2.747 6.136-6.136 0-3.389-2.747-6.136-6.136-6.136-3.389 0-6.136 2.747-6.136 6.136 0 3.389 2.747 6.136 6.136 6.136zm0-2.046c-.376 0-.682-.305-.682-.682 0-.377.306-.682.682-.682.377 0 .682.305.682.682 0 .377-.305.682-.682.682zm-.68-8.182h1.364v5.455H58.82v-5.455z" transform="translate(-52.000000, -142.000000)"/>
        </g>
    </g>
</svg>
