<svg width="34" height="32" viewBox="0 0 34 32" fill="none" xmlns="http://www.w3.org/2000/svg">
<g clip-path="url(#clip0)">
<path d="M31.5493 27.5468C31.5493 27.5468 34.2308 18.5026 33.3384 5.83732C33.3384 5.83732 30.88 -4.14645 22.9449 2.0017C22.9449 2.0017 6.18228 13.3627 2.15788 14.667C-1.86652 15.9713 0.482474 21.1112 3.16398 22.4541C5.84548 23.797 15.7928 29.2715 21.6041 31.2837C27.4155 33.2959 30.8071 30.7732 31.5493 27.5468Z" fill="#DDDFE5"/>
<path d="M18.6026 29.2395L30.8432 23.7177L31.5897 8.93939L18.6026 3.71582L4.42285 8.93939L5.16938 24.1639L18.6026 29.2395Z" fill="#B2D8F7"/>
<path d="M24.5963 6.12682L23.734 5.7793L12.0448 10.3357L4.64381 8.84908L4.42285 8.93918L17.352 13.8967L17.1225 28.1945L18.7957 29.1513L18.8772 13.7509L31.5897 8.93918L30.1009 8.34067L18.3688 12.8799L13.1367 10.8441L24.5963 6.12682Z" fill="#505A78"/>
<path opacity="0.67" d="M9.86328 11.0264V13.5684L12.8258 14.6067V12.1633L9.86328 11.0264Z" fill="#DDDFE5"/>
<path d="M23.7344 11.9528V14.4649L27.1903 12.9375V10.6035L23.7344 11.9528Z" fill="#DDDFE5"/>
</g>
<defs>
<clipPath id="clip0">
<rect width="33.521" height="32" fill="white"/>
</clipPath>
</defs>
</svg>
