<svg width="31" height="32" viewBox="0 0 31 32" fill="none" xmlns="http://www.w3.org/2000/svg">
<g clip-path="url(#clip0)">
<path d="M6.53121 11.2662C6.53121 11.2662 -1.69327 13.1416 0.316247 19.6384C0.316247 19.6384 1.56651 24.1348 7.73374 24.7441C7.73374 24.7441 12.8644 25.6306 18.7361 30.5203C24.6078 35.41 30.3545 26.7513 30.2635 25.3101C30.2635 25.3101 32.5277 4.70116 20.8138 0.00697517C20.8138 0.00697517 17.4017 -0.290815 15.5036 3.30995C15.5013 3.30995 13.1985 11.8459 6.53121 11.2662Z" fill="#D6D7DD"/>
<path d="M27.1379 28.0769H4.87629C3.37597 28.0769 2.14844 26.8493 2.14844 25.349V8.07258C2.14844 6.57226 3.37597 5.34473 4.87629 5.34473H27.1379C28.6382 5.34473 29.8657 6.57226 29.8657 8.07258V25.349C29.8657 26.8493 28.6382 28.0769 27.1379 28.0769Z" fill="#B2D8F7"/>
<path d="M9.95549 17.2512C11.4399 17.2512 12.6424 15.8418 12.6424 14.1051C12.6424 11.6955 11.4399 10.959 9.95549 10.959C8.47108 10.959 7.26855 11.6955 7.26855 14.1051C7.26855 15.8441 8.47108 17.2512 9.95549 17.2512Z" fill="#9BAAB4"/>
<path d="M15.8896 21.882L14.5325 18.8268C14.4712 18.6881 14.3621 18.5722 14.2257 18.4994L12.1207 17.4037C12.0752 17.3787 12.0184 17.3833 11.9775 17.4151C11.3819 17.8652 10.6817 18.1039 9.95429 18.1039C9.22459 18.1039 8.52672 17.8652 7.93113 17.4151C7.89022 17.3833 7.83339 17.3787 7.78565 17.4037L5.68066 18.4994C5.54426 18.5699 5.43515 18.6858 5.37377 18.8268L4.01666 21.882C3.92346 22.0934 3.94165 22.3343 4.06895 22.5276C4.19397 22.7208 4.40766 22.8367 4.63725 22.8367H15.2691C15.4987 22.8367 15.7123 22.7208 15.8374 22.5276C15.9624 22.3343 15.9828 22.0934 15.8896 21.882Z" fill="#505A78"/>
<path d="M23.3025 12.3144H17.9081C17.5967 12.3144 17.3398 12.0598 17.3398 11.746V11.6142C17.3398 11.3028 17.5944 11.0459 17.9081 11.0459H23.3025C23.6139 11.0459 23.8708 11.3005 23.8708 11.6142V11.746C23.8708 12.0598 23.6139 12.3144 23.3025 12.3144Z" fill="white"/>
<path d="M26.2486 14.8534H17.9081C17.5967 14.8534 17.3398 14.5988 17.3398 14.2851V14.1533C17.3398 13.8396 17.5944 13.585 17.9081 13.585H26.2486C26.5623 13.585 26.8169 13.8396 26.8169 14.1533V14.2851C26.8169 14.5988 26.56 14.8534 26.2486 14.8534Z" fill="white"/>
<path d="M26.2486 17.3925H17.9081C17.5967 17.3925 17.3398 17.1379 17.3398 16.8242V16.6923C17.3398 16.3786 17.5944 16.124 17.9081 16.124H26.2486C26.5623 16.124 26.8169 16.3786 26.8169 16.6923V16.8242C26.8169 17.1379 26.56 17.3925 26.2486 17.3925Z" fill="white"/>
<path d="M26.2486 19.893H17.9081C17.5967 19.893 17.3398 19.6384 17.3398 19.3247V19.1928C17.3398 18.8791 17.5944 18.6245 17.9081 18.6245H26.2486C26.5623 18.6245 26.8169 18.8791 26.8169 19.1928V19.3247C26.8169 19.6384 26.56 19.893 26.2486 19.893Z" fill="white"/>
<path d="M26.2486 22.3935H17.9081C17.5967 22.3935 17.3398 22.1389 17.3398 21.8252V21.6933C17.3398 21.3796 17.5944 21.125 17.9081 21.125H26.2486C26.5623 21.125 26.8169 21.3796 26.8169 21.6933V21.8252C26.8169 22.1389 26.56 22.3935 26.2486 22.3935Z" fill="white"/>
</g>
<defs>
<clipPath id="clip0">
<rect width="30.4383" height="32" fill="white"/>
</clipPath>
</defs>
</svg>
