<?xml version="1.0" encoding="UTF-8"?>
<svg width="665px" height="109px" viewBox="0 0 665 109" version="1.1" xmlns="http://www.w3.org/2000/svg" xmlns:xlink="http://www.w3.org/1999/xlink">
    <!-- Generator: Sketch 64 (93537) - https://sketch.com -->
    <title>Group 6</title>
    <desc>Created with Sketch.</desc>
    <g id="Page-1" stroke="none" stroke-width="1" fill="none" fill-rule="evenodd">
        <g id="Group-6" transform="translate(0.473900, 0.280500)">
            <path d="M105.64,24.7667 C105.618,24.7717 105.593,24.7767 105.57,24.7817 C102.623,11.5127 90.815,1.5937 76.676,1.5937 L29.723,1.5937 C27.472,1.5937 25.272,1.8707 23.174,2.3517 C23.179,2.3757 23.185,2.4027 23.19,2.4267 C9.927,5.3817 -6.75726142e-12,17.1837 -6.75726142e-12,31.3157 L-6.75726142e-12,78.2687 C-6.75726142e-12,86.4707 3.344,93.8897 8.742,99.2497 C14.103,104.6477 21.521,107.9917 29.723,107.9917 L76.676,107.9917 C84.372,107.9917 91.379,105.0467 96.642,100.2237 C102.635,94.8077 106.398,86.9797 106.398,78.2687 L106.398,31.3157 C106.398,29.0647 106.12,26.8657 105.64,24.7667" id="Fill-276" fill="#FEFEFE"></path>
            <path d="M104.0594,76.6383 L104.0594,76.6383 C102.6944,77.6503 93.9204,91.4803 91.2904,94.8683 C88.6614,98.2573 85.1464,96.8663 83.2504,96.7403 C81.3794,96.6133 70.7344,97.3713 68.5844,97.2453 C66.4614,97.1193 60.5694,95.2223 57.6874,94.9703 C54.8054,94.7423 52.6814,92.9723 53.4394,91.7083 C54.1724,90.4693 57.9404,90.5963 60.8224,91.5813 C63.7054,92.5933 70.7344,91.9613 73.2374,91.7083 C75.7404,91.4803 81.5054,89.3313 83.1234,88.5733 C84.7674,87.8143 83.7554,85.6903 82.7444,86.5753 C81.7584,87.4353 80.2414,88.4463 77.4854,89.3313 C74.7294,90.2163 72.9844,88.4463 72.6054,86.9543 C72.2264,85.4373 79.5084,81.0373 82.1374,79.6723 C84.7674,78.2823 85.7784,75.5263 88.5344,73.5033 C91.2904,71.5053 94.5274,69.9883 97.0554,68.4963 C98.9774,67.3083 104.1104,61.3913 106.2844,58.7873 L106.2844,31.2523 C106.2844,14.8673 93.0354,1.5933 76.6764,1.5933 L29.7224,1.5933 C27.4724,1.5933 25.2724,1.8713 23.1734,2.3513 C23.4764,3.7423 23.8304,5.3863 24.2604,7.3073 C25.6514,13.8053 26.9154,21.0373 27.7754,24.0963 C28.6354,27.1563 29.8994,28.6483 31.4674,30.2913 C33.0344,31.9343 36.1444,36.5623 39.1284,41.6693 C42.1114,46.7773 44.3114,52.2633 48.6104,58.3063 C52.9084,64.3503 59.1034,66.6003 62.6684,67.4853 C66.2334,68.3703 66.2084,70.8733 62.7194,72.0363 C59.2294,73.2003 52.6044,72.8713 47.6234,72.1883 C42.6424,71.5313 37.1814,63.8943 33.8694,60.5823 C30.5314,57.2443 20.4174,56.2593 13.6164,54.9183 C6.8144,53.5783 7.4964,48.1173 9.1404,43.7933 C10.8094,39.4703 10.1514,32.4913 9.3174,25.1833 C8.8374,21.0873 6.5864,17.6493 4.7154,15.4243 C1.8084,20.0263 0.1134,25.4363 0.1134,31.2523 L0.1134,78.3073 C0.1134,94.6913 13.3634,107.9913 29.7224,107.9913 L76.6764,107.9913 C93.0354,107.9913 106.2844,94.6913 106.2844,78.3073 L106.2844,76.3093 C105.6014,76.2083 105.1464,75.8543 104.0594,76.6383 M32.8834,83.7943 C30.8854,83.6673 30.7594,86.7013 31.3664,88.6993 C31.9974,90.7213 32.6304,96.2343 32.6304,96.2343 L29.4954,96.7403 C29.4954,96.7403 23.6034,89.2043 20.7214,85.3113 C17.8384,81.4173 13.8434,78.9143 11.6944,73.1233 C9.5704,67.3593 12.3264,61.5683 12.3264,61.5683 C12.3264,61.5683 36.5234,74.2623 40.8984,76.8913 C45.2974,79.5463 52.0484,83.9203 54.9314,83.6673 C57.8134,83.4403 63.8314,77.1443 63.8314,77.1443 L81.2524,78.5603 C81.2524,78.5603 69.4704,87.8143 64.5904,89.3313 C59.7104,90.8233 53.3124,89.9633 50.3044,89.4573 C47.2954,88.9523 34.8804,83.9203 32.8834,83.7943" id="Fill-278" fill="#E41D28"></path>
            <polygon id="Fill-280" fill="#E41D28" points="115.8671 106.6765 428.0081 106.6765 428.0081 100.8615 115.8671 100.8615"></polygon>
            <polygon id="Fill-282" fill="#E41D28" points="461.0301 106.6765 664.1931 106.6765 664.1931 100.8615 461.0301 100.8615"></polygon>
            <path d="M175.5145,82.4288 C170.7355,83.6928 165.2235,84.2488 159.9385,84.2488 C136.2975,84.2488 116.8285,67.9408 116.8285,44.2738 C116.8285,20.2788 134.9575,2.9588 161.9105,2.9588 C166.6895,2.9588 170.2555,3.6408 173.7945,4.5518 L178.1945,28.7748 C173.3145,26.8528 170.1285,25.8158 164.4905,25.8158 C152.2265,25.8158 143.4025,32.1628 143.4025,43.6158 C143.4025,54.5898 153.0865,61.3918 163.9845,61.3918 C170.2555,61.3918 174.4015,60.2538 179.0545,57.7508 L175.5145,82.4288 Z" id="Fill-283" fill="#233873"></path>
            <path d="M219.5858,63.1871 L219.5858,63.1871 C219.5858,66.1451 217.5628,68.6231 213.9468,68.6231 C210.3568,68.6231 208.2328,66.2461 208.2328,63.1871 C208.2328,60.0261 210.8118,57.8771 213.9468,57.8771 C217.7908,57.8771 219.5858,60.5831 219.5858,63.1871 L219.5858,63.1871 Z M242.1898,82.4291 L242.1898,44.1731 C242.1898,28.0911 229.8258,22.2001 216.5518,22.2001 C209.4718,22.2001 202.1388,22.8831 195.8428,24.7031 L191.9238,40.8861 C197.0828,39.1911 202.0378,37.8261 207.8788,37.8261 C214.3008,37.8261 218.8018,39.1911 218.8018,45.5381 L218.8018,48.5981 C215.8688,46.2211 211.6968,44.0461 205.6278,44.0461 C193.9468,44.0461 184.8448,52.3141 184.8448,63.3131 C184.8448,76.1071 194.0478,84.2491 204.7438,84.2491 C211.2668,84.2491 217.1078,82.4291 220.6978,77.3461 L220.9258,77.3461 L220.9258,84.2491 L242.1898,82.4291 Z" id="Fill-284" fill="#233873"></path>
            <path d="M405.0243,63.1871 L405.0243,63.1871 C405.0243,66.1451 403.0013,68.6231 399.3853,68.6231 C395.7953,68.6231 393.6713,66.2461 393.6713,63.1871 C393.6713,60.0261 396.2503,57.8771 399.3853,57.8771 C403.2293,57.8771 405.0243,60.5831 405.0243,63.1871 L405.0243,63.1871 Z M427.6283,82.4291 L427.6283,44.1731 C427.6283,28.0911 415.2643,22.2001 401.9903,22.2001 C394.9103,22.2001 387.5783,22.8831 381.2823,24.7031 L377.3623,40.8861 C382.5213,39.1911 387.4763,37.8261 393.3173,37.8261 C399.7393,37.8261 404.2403,39.1911 404.2403,45.5381 L404.2403,48.5981 C401.3073,46.2211 397.1603,44.0461 391.0673,44.0461 C379.3853,44.0461 370.2833,52.3141 370.2833,63.3131 C370.2833,76.1071 379.4863,84.2491 390.1823,84.2491 C396.7053,84.2491 402.5463,82.4291 406.1623,77.3461 L406.3643,77.3461 L406.3643,84.2491 L427.6283,82.4291 Z" id="Fill-285" fill="#233873"></path>
            <path d="M536.7582,63.1871 L536.7582,63.1871 C536.7582,66.1451 534.7102,68.6231 531.1192,68.6231 C527.5292,68.6231 525.3802,66.2461 525.3802,63.1871 C525.3802,60.0261 527.9842,57.8771 531.1192,57.8771 C534.9372,57.8771 536.7582,60.5831 536.7582,63.1871 L536.7582,63.1871 Z M559.3372,82.4291 L559.3372,44.1731 C559.3372,28.0911 546.9732,22.2001 533.6982,22.2001 C526.6192,22.2001 519.3112,22.8831 513.0152,24.7031 L509.0712,40.8861 C514.2552,39.1911 519.2102,37.8261 525.0512,37.8261 C531.4732,37.8261 535.9492,39.1911 535.9492,45.5381 L535.9492,48.5981 C533.0412,46.2211 528.8692,44.0461 522.8002,44.0461 C511.1192,44.0461 501.9912,52.3141 501.9912,63.3131 C501.9912,76.1071 511.2202,84.2491 521.8902,84.2491 C528.4142,84.2491 534.2802,82.4291 537.8702,77.3461 L538.0982,77.3461 L538.0982,84.2491 L559.3372,82.4291 Z" id="Fill-286" fill="#233873"></path>
            <path d="M455.9476,53.2247 L455.9476,53.2247 C455.9476,48.2437 459.4626,43.9457 464.8226,43.9457 C470.0566,43.9457 473.5966,48.2437 473.5966,53.2247 C473.5966,58.2057 470.0566,62.5037 464.8226,62.5037 C459.4626,62.5037 455.9476,58.2057 455.9476,53.2247 L455.9476,53.2247 Z M433.8236,106.8787 L455.9476,106.8787 L455.9476,79.7237 C459.6896,83.3387 464.9486,84.2487 469.1466,84.2487 C485.9106,84.2487 497.3136,69.0787 497.3136,52.9967 C497.3136,37.9527 486.5936,22.2007 470.1826,22.2007 C463.6846,22.2007 459.3616,24.4757 455.0376,29.1027 L455.0376,22.2007 L433.8236,24.0207 L433.8236,106.8787 Z" id="Fill-287" fill="#233873"></path>
            <path d="M592.9662,83.9205 C590.8172,84.1485 588.9962,84.2495 586.5942,84.2495 C573.5982,84.2495 565.9622,78.7115 565.9622,65.4625 L565.7342,9.9625 L587.8582,0.0005 L587.8582,26.8525 L595.0392,26.8525 L595.0392,44.2985 L588.0862,44.2985 L588.0862,59.2175 C588.0862,63.1875 588.7692,64.2235 592.8652,64.2235 C594.5842,64.2235 595.5952,64.0975 596.5062,63.8695 L592.9662,83.9205 Z" id="Fill-288" fill="#233873"></path>
            <path d="M632.4105,43.7682 L632.4105,43.7682 C637.6445,43.7682 640.9815,47.4092 640.9815,52.9462 C640.9815,58.4582 637.6445,62.1002 632.4105,62.1002 C627.2015,62.1002 623.8645,58.4582 623.8645,52.9462 C623.8645,47.4092 627.2015,43.7682 632.4105,43.7682 M632.4105,22.6552 C614.5085,22.6552 600.7285,34.4892 600.7285,52.9462 C600.7285,71.3792 614.5085,83.2122 632.4105,83.2122 C650.3375,83.2122 664.1175,71.3792 664.1175,52.9462 C664.1175,34.4892 650.3375,22.6552 632.4105,22.6552" id="Fill-289" fill="#233873"></path>
            <polygon id="Fill-290" fill="#233873" points="275.5916 54.8175 279.9156 33.7555 322.4446 33.7555 305.3266 71.1265 323.4556 71.1265 319.0056 92.1885 272.8606 92.1885 290.1806 54.8175"></polygon>
            <polygon id="Fill-291" fill="#233873" points="319.3343 28.5719 323.6583 7.5099 366.1613 7.5099 349.0693 44.8809 367.1983 44.8809 362.7483 65.9429 316.6033 65.9429 333.8983 28.5719"></polygon>
            <polygon id="Fill-292" fill="#233873" points="247.5252 83.339 247.5252 1.821 269.6242 0 269.6242 81.544"></polygon>
            <path d="M645.2547,12.2379 L645.2547,12.2379 C645.2547,7.4339 648.7947,3.8429 653.4217,3.8429 C657.9987,3.8429 661.5387,7.4339 661.5387,12.2379 C661.5387,17.0929 657.9987,20.6829 653.4217,20.6829 C648.7947,20.6829 645.2547,17.0929 645.2547,12.2379 L645.2547,12.2379 Z M653.4217,22.5039 L653.4217,22.5039 C659.0097,22.5039 663.8897,18.3059 663.8897,12.2379 C663.8897,6.2199 659.0097,1.9979 653.4217,1.9979 C647.7837,1.9979 642.9037,6.2199 642.9037,12.2379 C642.9037,18.3059 647.7837,22.5039 653.4217,22.5039 L653.4217,22.5039 Z M651.3227,13.0469 L651.3227,13.0469 L653.1937,13.0469 L656.2537,18.1299 L658.3527,18.1299 L655.0657,12.9709 C656.8607,12.7689 658.1507,11.8839 658.1507,9.7599 C658.1507,7.3839 656.6837,6.3969 653.8517,6.3969 L649.3767,6.3969 L649.3767,18.1299 L651.3227,18.1299 L651.3227,13.0469 Z M651.3227,11.4799 L651.3227,7.9649 L653.6247,7.9649 C654.8127,7.9649 656.2037,8.1929 656.2037,9.6339 C656.2037,11.3019 654.9137,11.4799 653.4727,11.4799 L651.3227,11.4799 Z" id="Fill-293" fill="#233873"></path>
        </g>
    </g>
</svg>