<svg xmlns="http://www.w3.org/2000/svg" width="24" height="24" fill="none" viewBox="0 0 24 24">
    <path fill="#000" d="M19.71 11.286l-4-3.996c-.093-.093-.204-.167-.326-.218-.122-.05-.252-.076-.384-.076s-.262.026-.384.076-.233.125-.326.218-.167.203-.218.325c-.05.122-.076.252-.076.384s.026.262.076.384.125.232.218.325l2.3 2.288H5c-.265 0-.52.105-.707.293-.188.187-.293.441-.293.706 0 .265.105.52.293.706.187.188.442.293.707.293h11.59l-2.3 2.288c-.094.093-.168.203-.219.325-.05.122-.077.252-.077.384s.026.262.077.384c.05.122.125.233.219.325.093.094.204.168.325.219.122.05.253.077.385.077s.263-.026.385-.077c.121-.05.232-.125.325-.219l4-3.996c.091-.095.162-.207.21-.33.1-.243.1-.515 0-.759-.048-.122-.119-.234-.21-.33z"/>
</svg>
