<?xml version="1.0" encoding="UTF-8"?>
<svg width="709px" height="193px" viewBox="0 0 709 193" version="1.1" xmlns="http://www.w3.org/2000/svg" xmlns:xlink="http://www.w3.org/1999/xlink">
    <!-- Generator: Sketch 64 (93537) - https://sketch.com -->
    <title>Group 9</title>
    <desc>Created with Sketch.</desc>
    <g id="Page-1" stroke="none" stroke-width="1" fill="none" fill-rule="evenodd">
        <g id="Group-9" transform="translate(0.239900, 0.551600)">
            <path d="M648.997,-4.54747351e-13 C681.812,-4.54747351e-13 708.662,27.453 708.662,61.003 L708.662,131.428 C708.662,164.978 681.81,192.431 648.997,192.431 L59.664,192.431 C26.85,192.431 5.62749847e-12,164.979 5.62749847e-12,131.428 L5.62749847e-12,-4.54747351e-13 L648.997,-4.54747351e-13 Z" id="Fill-298" fill="#DB0D15"></path>
            <path d="M679.1689,60.7422 C678.5719,60.7422 651.5519,60.7492 650.9739,60.7602 C633.6509,61.0962 622.8149,66.5162 615.7989,79.7422 L614.8919,63.2922 L572.9669,63.2922 L572.9669,124.3202 C572.9669,146.0752 587.2899,168.2522 613.4069,168.2522 L618.9709,168.2522 L618.9709,135.1202 C618.9709,119.7452 625.7489,108.2872 637.3129,104.2152 C661.2689,95.7792 679.1689,90.6932 679.1689,60.7422" id="Fill-299" fill="#FEFEFE"></path>
            <path d="M327.9745,136.5776 C320.4965,134.4916 316.1905,130.5546 316.1905,120.3586 L316.1905,28.6656 L271.0945,28.6656 L271.0945,122.4446 C271.0945,151.1756 291.2635,169.7106 312.3385,169.7106 L327.9745,136.5776 Z" id="Fill-300" fill="#FEFEFE"></path>
            <path d="M277.1869,104.3901 L277.1869,104.3901 C263.9539,123.7331 252.5549,136.8091 223.6179,136.8091 C210.0209,136.8091 202.3149,131.9451 198.4619,125.9201 C220.3729,125.9201 257.1559,132.1341 257.1559,99.0421 C257.1559,75.6381 238.7999,55.4801 210.0209,55.4801 C177.1609,55.4801 154.7249,78.4211 154.7249,111.0911 C154.7249,146.5401 181.6939,168.7841 218.6299,168.7841 C252.5719,168.7841 265.6499,157.6331 281.3039,139.0221 L277.1869,104.3901 Z M219.3109,98.3471 C219.3109,99.0421 219.0849,99.5051 219.0849,100.1991 L195.2899,100.1991 C197.3299,92.7851 201.4089,87.4561 209.1139,87.4561 C215.2319,87.4561 219.3109,91.6251 219.3109,98.3471 L219.3109,98.3471 Z" id="Fill-301" fill="#FEFEFE"></path>
            <path d="M173.8403,168.2519 C161.7573,160.4169 152.9053,151.1629 146.7423,140.7329 L119.9113,94.5819 L156.3713,28.6839 L104.7263,28.6839 L77.7603,77.6699 L77.7603,28.6439 L29.4903,28.6439 L29.4903,130.8829 C29.4903,153.2489 45.7783,168.2519 74.1213,168.2519 L77.7603,168.2519 L77.7603,115.6649 L96.5933,148.7739 C103.8453,161.9029 118.8053,169.2499 140.5893,168.2519 L173.8403,168.2519 Z" id="Fill-302" fill="#FEFEFE"></path>
            <path d="M579.3432,104.3901 L579.3432,104.3901 C566.1082,123.7331 554.7132,136.8091 525.7742,136.8091 C512.1752,136.8091 504.4702,131.9451 500.6192,125.9201 C522.5292,125.9201 559.3132,132.1341 559.3132,99.0421 C559.3132,75.6381 540.9572,55.4801 512.1752,55.4801 C479.3182,55.4801 456.8822,78.4211 456.8822,111.0911 C456.8822,146.5401 483.8482,168.7841 520.7892,168.7841 C554.7292,168.7841 567.8042,157.6331 583.4602,139.0221 L579.3432,104.3901 Z M521.4672,98.3471 C521.4672,99.0421 521.2392,99.5051 521.2392,100.1991 L497.4482,100.1991 C499.4862,92.7851 503.5652,87.4561 511.2722,87.4561 C517.3872,87.4561 521.4672,91.6251 521.4672,98.3471 L521.4672,98.3471 Z" id="Fill-303" fill="#FEFEFE"></path>
            <path d="M400.663,124.6118 L400.663,124.6118 C397.243,126.9388 393.374,128.1048 389.273,128.1048 C380.619,128.1048 374.47,120.8848 374.47,112.2698 C374.47,103.6538 380.619,96.4348 389.273,96.4348 C394.284,96.4348 398.156,97.8308 400.663,99.9278 L400.663,124.6118 Z M444.846,169.2078 L444.846,28.7048 L400.663,28.7048 L400.663,58.2448 C397.702,56.6158 393.827,56.1488 387.908,56.1488 C355.34,56.1488 330.97,79.2008 330.97,115.7628 C330.97,147.4318 357.161,169.0898 384.49,169.0898 C394.966,169.0898 404.99,165.8278 409.087,159.0768 C415.727,167.5698 428.899,169.7308 444.846,169.2078 L444.846,169.2078 Z" id="Fill-304" fill="#FEFEFE"></path>
            <path d="M657.1484,153.9243 L657.1484,153.9243 L659.8674,153.9243 C661.6244,153.9243 662.7244,153.8473 663.1634,153.6963 C663.5974,153.5453 663.9464,153.2813 664.1924,152.9093 C664.4424,152.5353 664.5654,152.0683 664.5654,151.5113 C664.5654,150.8843 664.4004,150.3813 664.0724,149.9903 C663.7474,149.6063 663.2874,149.3633 662.6934,149.2643 C662.3924,149.2233 661.5004,149.1983 660.0164,149.1983 L657.1484,149.1983 L657.1484,153.9243 Z M655.0244,146.0593 L655.0244,146.0593 L661.2024,146.0593 C663.1434,146.0593 664.5554,146.2283 665.4384,146.5603 C666.3224,146.8943 667.0244,147.4873 667.5534,148.3383 C668.0834,149.1953 668.3494,150.1693 668.3494,151.2703 C668.3494,152.6643 667.9524,153.8183 667.1524,154.7263 C666.3494,155.6353 665.1554,156.2053 663.5654,156.4443 C664.3574,156.9163 665.0104,157.4363 665.5204,158.0023 C666.0364,158.5703 666.7314,159.5763 667.6034,161.0223 L668.9814,163.2743 C671.0214,161.2363 672.2884,158.3933 672.2884,155.2473 C672.2884,149.0543 667.3774,144.0313 661.3144,144.0313 C658.9764,144.0313 656.8054,144.7813 655.0244,146.0593 L655.0244,146.0593 Z M653.4664,163.0853 L653.4664,163.0853 L653.4664,147.4123 C651.5344,149.4333 650.3434,152.1993 650.3434,155.2473 C650.3434,158.2983 651.5344,161.0643 653.4664,163.0853 L653.4664,163.0853 Z M664.3904,163.0783 L664.3904,163.0783 L664.4064,163.0693 L662.7974,160.5913 C661.8564,159.1483 661.2084,158.2393 660.8574,157.8633 C660.5084,157.4913 660.1424,157.2333 659.7534,157.0923 C659.3584,156.9543 658.7384,156.8843 657.8944,156.8843 L657.1484,156.8843 L657.1484,164.6513 L657.1324,164.6513 L657.1324,165.6213 C658.4224,166.1653 659.8334,166.4663 661.3144,166.4663 C662.9674,166.4663 664.5304,166.0933 665.9354,165.4253 L664.3904,163.0783 Z M661.3144,140.7813 C669.1284,140.7813 675.4664,147.2573 675.4664,155.2473 C675.4664,163.2403 669.1284,169.7183 661.3144,169.7183 C653.5024,169.7183 647.1644,163.2403 647.1644,155.2473 C647.1644,147.2573 653.5024,140.7813 661.3144,140.7813 L661.3144,140.7813 Z" id="Fill-305" fill="#FEFEFE"></path>
        </g>
    </g>
</svg>