<svg xmlns="http://www.w3.org/2000/svg" width="24" height="24" fill="none" viewBox="0 0 24 24">
    <path stroke="#fff" stroke-width="1.8" d="M3 5.5v13c0 .552.448 1 1 1h12.501c.378 0 .724-.213.894-.55l3.372-6.702c.146-.29.142-.633-.01-.92L17.4 5.03c-.174-.326-.513-.53-.883-.53H4c-.552 0-1 .448-1 1z"/>
    <path fill="#fff" d="M7.926 14.547c-.187.203-.173.52.03.706.204.187.52.173.707-.03l-.737-.676zm6.03-5.093c.187-.204.174-.52-.03-.707-.203-.187-.52-.173-.706.03l.737.677zm-5.293 5.769l5.294-5.77-.737-.676-5.294 5.77.737.676z"/>
    <circle cx="8.9" cy="9.9" r=".9" fill="#fff"/>
    <circle cx="12.9" cy="14.9" r=".9" fill="#fff"/>
</svg>
