<svg xmlns="http://www.w3.org/2000/svg" width="32" height="32" fill="none" viewBox="0 0 32 32">
    <g clip-path="url(#prefix__clip0)">
        <path fill="#D8D9DF" d="M3.947 17.324s-6.352 5.44-1.916 10.564c0 0 2.955 3.615 8.553 1.403 0 0 4.808-1.472 11.936.423 7.11 1.894 8.514-8.715 7.848-10.026 0 0-6.646-19.66-18.749-18.738 0 0-3.017.757-3.156 4.952-.04-.003 1.497 8.97-4.516 11.422z"/>
        <path fill="#505A78" d="M25.415 8.947H14.037c-.232 0-.443-.197-.443-.46V8.03c0-.744-.591-1.356-1.309-1.356H6.164c-.718 0-1.309.612-1.309 1.356v4.087h21.89v-1.814c-.021-.765-.591-1.355-1.33-1.355z"/>
        <path fill="#B2D8F7" d="M21.784 27.067h2.386c.844 0 1.562-.612 1.71-1.464l2.575-13.334c.042-.262-.021-.546-.19-.743-.17-.219-.422-.328-.676-.328H3.947c-.253 0-.506.131-.675.328-.169.219-.232.48-.19.743l2.575 13.334c.169.852.887 1.464 1.71 1.464h14.417z"/>
        <path fill="#fff" d="M6.164 13.471h-.887c-.232 0-.443-.196-.443-.459 0-.262.19-.459.443-.459h.866c.232 0 .443.197.443.46 0 .262-.19.458-.422.458zM14.903 13.471H7.916c-.232 0-.443-.196-.443-.459 0-.262.19-.459.443-.459h7.008c.232 0 .443.197.443.46 0 .262-.21.458-.464.458z"/>
        <path fill="#9BAAB4" d="M26.491 11.198l.254-.7.823-2.338c.169-.481-.063-.984-.528-1.159L13.045 1.733c-.464-.175-.95.066-1.118.547l-1.541 4.393-1.584 4.525h17.69z"/>
        <path fill="#fff" d="M24.634 11.198l.802-2.273.19-.525L13.68 3.897c-.106-.044-.233-.044-.338.022-.106.044-.19.153-.232.262l-2.47 7.017h13.995z"/>
        <path fill="#DDDFE5" d="M10.977 11.198l4.39-2.426c.106-.066.232-.066.338-.022.105.044.211.131.253.24l.992 2.208h-5.973zM18.871 11.198l3.272-1.792c.106-.066.232-.066.338-.022.105.043.21.13.253.24l.718 1.596-4.58-.022z"/>
        <path fill="#B2D8F7" d="M18.534 9.537c.478 0 .865-.401.865-.896s-.387-.897-.865-.897-.866.402-.866.897.388.896.866.896z"/>
    </g>
    <defs>
        <clipPath id="prefix__clip0">
            <path fill="#fff" d="M0 0h32v32H0V0z"/>
        </clipPath>
    </defs>
</svg>
