<svg width="45" height="18" viewBox="0 0 45 18" fill="none" xmlns="http://www.w3.org/2000/svg">
<g clip-path="url(#clip0)">
<path fill-rule="evenodd" clip-rule="evenodd" d="M7.35824 17.9081L4.3778 17.8984C3.07737 17.8939 1.83107 17.4279 0.979327 16.4398C0.0173707 15.3244 -0.190021 13.8471 0.156284 12.456L1.99867 5.058C2.6652 2.38307 5.3052 0.164571 8.12454 0.00964286L8.13107 0L8.70041 0.00192857L12.9826 0.0102857L12.9813 0.0167143H13.2422L13.2435 0.0135L13.8161 0.0154286C22.685 0.0405 31.5545 0.0675 40.4235 0.0906429C42.858 0.0970714 44.7213 1.73893 44.7995 4.15029V4.437C44.7917 4.80664 44.7337 5.17307 44.6482 5.53243L44.6476 5.53629L44.4989 6.13029L44.1258 7.62686L43.8878 8.66121L43.3713 10.9067H43.355L42.8019 12.951C42.2215 15.2717 40.1711 17.2112 37.8271 17.8059C37.3856 17.9177 36.9369 17.9859 36.4811 17.9929H35.6763L35.6665 18L33.2952 17.9923L8.43041 17.9119L7.35824 17.9081Z" fill="white"/>
<path fill-rule="evenodd" clip-rule="evenodd" d="M35.4242 17.2296L33.2981 17.2232C25.011 17.2155 16.7186 17.1685 8.43337 17.1422V17.1415L5.31793 17.1319L4.38206 17.1287C1.85424 17.1222 0.303367 15.1172 0.919019 12.6383L2.76206 5.24031C3.37902 2.76081 5.91989 0.763455 8.44837 0.770527H8.5475L8.70076 0.771169L11.8971 0.777598L11.8958 0.781455L13.8145 0.787884L13.8158 0.784027C22.6853 0.809098 31.5549 0.837384 40.4231 0.859241C42.5284 0.865669 43.9553 2.26581 44.0179 4.17445V4.41874C44.0107 4.7241 43.9618 5.03717 43.8862 5.35603L43.7388 5.94745L43.3644 7.4511L42.9086 9.43045H42.9092L42.7468 10.137L42.7025 10.3279L42.0444 12.7611C41.5318 14.8189 39.6901 16.545 37.6331 17.0612C37.2523 17.1627 36.8649 17.2174 36.4703 17.2238H35.4353L35.4242 17.2296Z" fill="white"/>
<path fill-rule="evenodd" clip-rule="evenodd" d="M11.6529 11.2598C11.6601 10.9332 11.5355 10.6619 11.3001 10.444C11.1957 10.3424 11.0092 10.219 10.7601 10.084L9.92139 12.6246C10.3303 12.5699 10.6766 12.4542 10.974 12.2774C11.4175 12.0138 11.647 11.6673 11.6529 11.2598Z" fill="#DA123F"/>
<path fill-rule="evenodd" clip-rule="evenodd" d="M6.61829 16.7555H6.5909L7.25612 14.7176L7.27699 14.6971C6.30655 14.6431 5.48351 14.3506 4.81829 13.8279C4.16677 13.3046 3.84851 12.6734 3.8622 11.9527C3.86873 11.6467 3.9522 11.3073 4.09047 10.9132L7.3872 10.9004C7.29068 11.1041 7.23525 11.2604 7.23525 11.3889C7.2209 11.7631 7.4009 12.0749 7.78177 12.3063C7.8646 12.3609 7.95525 12.4079 8.05177 12.4554L9.1109 9.26943C8.83438 9.13378 8.52981 8.984 8.20438 8.82136C7.7472 8.5835 7.36568 8.34564 7.06112 8.09493C6.35481 7.53757 6.00851 6.81693 6.00851 5.93364C6.02938 4.85364 6.54199 3.97743 7.52481 3.278C8.51612 2.57857 9.78264 2.2385 11.3413 2.24557H11.3974L11.8957 0.778571L8.44699 0.7715C5.91916 0.765071 3.37764 2.76179 2.76068 5.24128L0.918292 12.6386C0.301987 15.1181 1.85286 17.1219 4.38068 17.129L6.49242 17.1354L6.61829 16.7549V16.7555Z" fill="#505A78"/>
<path fill-rule="evenodd" clip-rule="evenodd" d="M9.40299 5.65453C9.39646 5.98753 9.59668 6.29995 10.0056 6.59245L10.7184 4.44531C10.4276 4.50703 10.1849 4.6086 9.97038 4.75774C9.60386 4.98917 9.40951 5.2746 9.40299 5.65453Z" fill="#1B3767"/>
<path fill-rule="evenodd" clip-rule="evenodd" d="M40.4214 0.858417C31.5525 0.83656 22.6836 0.808275 13.8147 0.783203L13.2949 2.36592C14.2719 2.53563 15.0264 2.85513 15.5729 3.35077C16.1129 3.85349 16.3764 4.48478 16.3627 5.22599C16.3562 5.3822 16.3347 5.61942 16.2727 5.92542L12.9558 5.91899C12.9766 5.8097 12.9766 5.70042 12.9838 5.59242C12.9903 5.17777 12.8456 4.86599 12.5403 4.66863L11.6195 7.46699L11.7095 7.51456L13.2538 8.2757C14.4727 8.87356 15.0538 9.7157 15.0336 10.8503C15.0192 11.6385 14.7284 12.3585 14.1675 13.0444C13.6001 13.7104 12.8795 14.1585 11.9723 14.4028C11.0306 14.6676 10.1162 14.8103 9.2162 14.8103H9.20185L8.43359 17.1401C17.4956 17.169 26.566 17.2217 35.6292 17.2217H36.4673C36.8619 17.2153 37.2499 17.1606 37.6308 17.0591C39.6877 16.5422 41.5301 14.8168 42.0421 12.759L42.7001 10.3258L43.3823 7.36478L43.8845 5.35327C43.9608 5.03442 44.0084 4.72199 44.0156 4.41599V4.1717C43.9536 2.26499 42.5266 0.865489 40.4221 0.858417H40.4214Z" fill="#DA123F"/>
<path fill-rule="evenodd" clip-rule="evenodd" d="M42.4852 2.63844C42.4786 2.4083 42.3815 2.20387 42.2295 2.04765C42.0769 1.89851 41.8689 1.79694 41.6341 1.7828C41.6132 1.77637 41.5923 1.77637 41.578 1.77637C41.2245 1.77637 40.9128 1.96665 40.7471 2.25208C40.7191 2.30608 40.691 2.36715 40.6708 2.4353C40.65 2.49701 40.6363 2.56387 40.6291 2.63265C40.6291 2.65322 40.6291 2.67315 40.6226 2.69372C40.6226 2.70787 40.6226 2.7278 40.6291 2.74837C40.6356 2.97915 40.7334 3.18294 40.8854 3.3398C41.0373 3.48894 41.2454 3.59051 41.4808 3.60401H41.5363C41.8897 3.61108 42.2015 3.41372 42.3678 3.13537C42.3958 3.0743 42.4232 3.01322 42.4434 2.95215C42.4643 2.89044 42.4786 2.82294 42.4852 2.7548C42.4852 2.73422 42.4852 2.71365 42.4917 2.69308C42.4917 2.67894 42.4917 2.65837 42.4852 2.63844ZM42.3886 2.69244V2.74708C42.3821 2.8088 42.3678 2.86922 42.3541 2.92387C42.3332 2.97851 42.3052 3.03251 42.2771 3.08715C42.1317 3.33787 41.8552 3.50822 41.5434 3.50822H41.488C41.2793 3.49472 41.0934 3.40665 40.9539 3.27037C40.8228 3.1283 40.7321 2.94444 40.7256 2.7413V2.69308V2.63844C40.7321 2.57737 40.7465 2.5163 40.7602 2.4623C40.781 2.40058 40.8091 2.34658 40.8365 2.29901C40.9819 2.0483 41.2591 1.87794 41.5708 1.87794H41.6263C41.8343 1.89144 42.0208 1.97951 42.1597 2.1158C42.2915 2.2508 42.3815 2.44172 42.388 2.64487V2.69244H42.3886Z" fill="white"/>
<path fill-rule="evenodd" clip-rule="evenodd" d="M41.9316 2.79554C41.9108 2.76854 41.8899 2.74797 41.8827 2.74154C41.8619 2.7274 41.8338 2.7139 41.7927 2.7004C41.8416 2.69397 41.8827 2.67982 41.9101 2.65925C41.959 2.63225 41.9936 2.59818 42.021 2.55768C42.049 2.51011 42.0627 2.46254 42.0627 2.40147C42.0627 2.33332 42.049 2.2729 42.0145 2.22468C41.9792 2.17711 41.9375 2.14368 41.8827 2.12954C41.8273 2.10961 41.7516 2.10254 41.6479 2.10254H41.0799L41.059 3.17611H41.3982L41.4053 2.74154H41.4399C41.4679 2.74154 41.496 2.74797 41.5234 2.76147C41.5364 2.77561 41.5508 2.79554 41.5651 2.82318C41.5716 2.82961 41.5782 2.83668 41.5782 2.85018L41.7516 3.17675H42.1397L41.9799 2.86432C41.9734 2.84954 41.959 2.82961 41.9316 2.79554ZM41.7027 2.49018C41.6884 2.50368 41.6682 2.51718 41.6466 2.52425C41.6121 2.53068 41.5847 2.53775 41.5638 2.53775H41.4119L41.4184 2.32047H41.5638C41.6264 2.32047 41.6682 2.3269 41.6884 2.34747C41.7099 2.36804 41.7236 2.39504 41.7236 2.42847C41.7236 2.44904 41.7171 2.46961 41.7027 2.49018ZM42.9073 9.43111H17.8566C17.4588 9.43111 17.136 9.7474 17.136 10.1376H42.7449L42.9079 9.43047L42.9073 9.43111ZM23.134 7.32575C22.5275 7.9969 21.7449 8.38325 20.7745 8.38325C19.0645 8.38325 17.8397 7.23254 17.8397 5.5759C17.8397 3.65247 19.2986 2.22532 21.2245 2.22532C21.9001 2.22532 23.0688 2.38668 23.7353 3.52518L22.731 4.17961C22.3984 3.64411 21.8571 3.35932 21.1553 3.35932C20.0336 3.35932 19.1029 4.27218 19.1029 5.48718C19.1029 6.56204 19.8738 7.2454 20.8266 7.2454C21.1006 7.2454 21.3595 7.18883 21.5975 7.08211C22.1108 6.8539 22.7147 6.95675 23.134 7.3264V7.32575ZM24.3986 8.27718H23.2645L24.1566 4.16161H25.2477L25.1486 4.59554C25.4995 4.17897 25.9234 4.05168 26.3434 4.05168C26.5469 4.05168 26.7719 4.09797 26.9669 4.17511L26.6036 5.24097C26.4386 5.15611 26.2051 5.10918 25.9925 5.10918C25.4642 5.10918 25.0273 5.41968 24.8708 6.08633L24.3986 8.27718ZM30.2466 7.80597C29.7921 8.20068 29.2508 8.38775 28.5314 8.38775C27.2675 8.38775 26.5449 7.62275 26.5449 6.58261C26.5449 5.54183 27.2427 4.05104 28.9566 4.05104C30.0132 4.05104 30.7449 4.70547 30.7449 5.7289V5.73725C30.7423 6.20975 30.3386 6.58647 29.8573 6.58647H27.666C27.6836 7.13418 28.039 7.44404 28.6273 7.44404C29.0088 7.44404 29.346 7.33411 29.6669 7.0834L30.2466 7.80597ZM27.7958 5.83111H29.6532C29.6577 5.8054 29.6577 5.78032 29.6577 5.75525C29.6577 5.26282 29.3551 5.00761 28.8914 5.00761C28.2849 5.00761 27.9569 5.40618 27.7958 5.83111ZM34.491 4.57883L34.7812 3.25068C34.9201 2.61618 35.4921 2.16297 36.154 2.16297L34.8288 8.27783H33.7162L33.7899 7.94225C33.5082 8.20582 33.1527 8.3884 32.6551 8.3884C31.6429 8.3884 30.8845 7.55911 30.8845 6.49454C30.8845 5.32197 31.7721 4.05232 33.2271 4.05232C33.8075 4.05168 34.236 4.24325 34.491 4.57883ZM34.1877 6.23097C34.2745 5.54311 33.8551 5.08411 33.2532 5.08411C32.5684 5.08411 32.0532 5.67425 32.0532 6.37947C32.0532 6.96961 32.4477 7.35211 33.0021 7.35211C33.6256 7.35147 34.1101 6.8719 34.1877 6.23097ZM36.7429 8.27718H35.6042L36.259 5.25447C36.3966 4.61804 36.9706 4.16161 37.6351 4.16161L36.7429 8.27718ZM38.076 2.81611C38.076 3.21597 37.7597 3.52133 37.3527 3.52133C36.9458 3.52133 36.634 3.21597 36.634 2.81611C36.634 2.41754 36.9458 2.10254 37.3527 2.10254C37.7603 2.10254 38.076 2.41754 38.076 2.81611Z" fill="white"/>
<path fill-rule="evenodd" clip-rule="evenodd" d="M25.2868 8.65723L19.9076 16.007H18.6705L17.8396 10.9497H19.2509L19.8248 14.0463L23.4757 9.18951C23.7274 8.85523 24.1259 8.65787 24.5492 8.65787H25.2868V8.65723ZM25.7837 15.314H23.2853L22.7472 16.007H21.3516L24.8994 11.4569C25.1485 11.138 25.5353 10.9497 25.9455 10.9497H26.2305L27.315 16.007H25.9435L25.7837 15.314ZM25.5698 14.3266L25.245 12.7002L24.0711 14.3266H25.5698ZM32.6426 14.7927L32.5709 15.0537C32.4176 15.6155 31.8992 16.007 31.305 16.007H27.8459L29.2272 10.9497H30.4644L29.4144 14.7933H32.6426V14.7927ZM35.1372 12.0387L34.8907 12.9412H36.9763L36.6809 14.0225H34.5959L34.3494 14.9244H36.9907L36.9568 15.0479C36.8029 15.6136 36.2805 16.0057 35.6844 16.0057H32.8168L34.1981 10.949H38.0766L37.7785 12.038H35.1372V12.0387Z" fill="white"/>
</g>
<defs>
<clipPath id="clip0">
<rect width="45" height="18" fill="white"/>
</clipPath>
</defs>
</svg>
