<svg xmlns="http://www.w3.org/2000/svg" width="24" height="24" fill="none" viewBox="0 0 24 24">
    <path fill="#283A78" d="M13.453 15.595c-.035-.034-.082-.054-.132-.054s-.097.02-.133.054l-2.723 2.724c-1.26 1.26-3.389 1.395-4.781 0-1.395-1.395-1.261-3.52 0-4.781l2.723-2.724c.073-.072.073-.192 0-.265l-.933-.932c-.035-.035-.082-.055-.132-.055s-.097.02-.132.055L4.486 12.34c-1.983 1.983-1.983 5.191 0 7.172 1.983 1.98 5.192 1.983 7.172 0l2.723-2.724c.073-.072.073-.192 0-.264l-.928-.929zm6.061-11.109c-1.983-1.983-5.191-1.983-7.172 0L9.617 7.21c-.035.035-.055.082-.055.132s.02.097.055.132l.93.93c.073.074.192.074.265 0l2.723-2.723c1.261-1.26 3.39-1.394 4.782 0 1.394 1.395 1.26 3.52 0 4.782l-2.724 2.723c-.035.035-.054.083-.054.133s.02.097.054.132l.933.933c.073.072.192.072.265 0l2.723-2.724c1.98-1.982 1.98-5.191 0-7.174zM14.3 8.726c-.035-.035-.082-.054-.132-.054s-.097.02-.132.054l-5.309 5.306c-.035.036-.054.083-.054.133s.02.097.054.132l.928.928c.073.073.192.073.265 0l5.306-5.306c.073-.073.073-.192 0-.265l-.926-.928z"/>
</svg>
