<svg xmlns="http://www.w3.org/2000/svg" width="18" height="16" viewBox="0 0 18 16">
    <g fill="none" fill-rule="evenodd">
        <g>
            <g>
                <g transform="translate(-71 -380) translate(50 156) translate(21 224)">
                    <path fill="#DADBE1" d="M6.4 0c1.334 0 2.515.653 3.242 1.657.96.888 2.486 1.686 4.578 2.391C16.135 4.346 17.6 6.002 17.6 8c0 1.749-1.123 3.236-2.687 3.78-1.762 1.172-3.817 2.38-6.164 3.622l.538-.286C8.483 15.67 7.484 16 6.4 16c-2.651 0-4.8-1.97-4.8-4.4 0-.66.159-1.287.443-1.85.489-1.414.659-3.037.513-4.869l.019.291C2.46 4.802 2.4 4.408 2.4 4c0-2.21 1.79-4 4-4z"/>
                    <rect width="8.8" height="12.8" x="4.8" y="1.6" fill="#B3D9F7" rx="1"/>
                    <path fill="#505A78" fill-rule="nonzero" d="M8.58 6.435c-.008.52-.389.958-.902 1.037v.6h-.54v-.57c-.288-.016-.569-.105-.813-.26l-.061-.045.203-.57.109.072c.227.148.492.226.763.224.339 0 .566-.18.566-.448 0-.267-.166-.41-.57-.572-.525-.2-1.013-.468-1.013-1.062.009-.487.363-.9.844-.983v-.586h.549v.55c.238.014.47.083.678.203l.074.044-.213.559-.102-.058c-.198-.117-.424-.178-.654-.176-.363 0-.492.197-.492.38s.143.339.63.545c.665.265.943.6.943 1.116z"/>
                    <path fill="#FFF" d="M9.6 3.2H12.8V4.2H9.6zM10.4 4.8H12.8V5.8H10.4zM10.4 6.4H12.8V7.4H10.4zM8.8 8H12.8V9H8.8zM5.6 9.6H12.8V10.6H5.6zM5.6 11.2H12.8V12.2H5.6z"/>
                    <g fill="#505A78" fill-rule="nonzero">
                        <path d="M10.826 3.529c-.018-.294-.07-.584-.154-.866-.186-.608-.523-1.16-.98-1.604-.206-.201-.434-.378-.68-.526C7.755-.2 6.192-.175 4.961.601c-.232.15-.447.324-.641.522-1.237 1.285-1.425 3.249-.454 4.744.146.221.316.426.506.612.17.167.354.318.551.452l.03.018c.214.14.442.258.68.352 1.424.56 3.045.214 4.114-.876.056-.056.11-.113.16-.172.535-.622.854-1.4.906-2.218.015-.169.02-.338.012-.506zm-4.58 2.98c-.45-.13-.862-.368-1.196-.696-.051-.049-.1-.1-.144-.153-.946-1.073-.946-2.68 0-3.753l.097-.106C5.976.807 7.526.662 8.667 1.457c1.14.795 1.537 2.297.936 3.55-.6 1.252-2.021 1.887-3.358 1.5v.002zM.321 10.712c-.214-.215-.33-.51-.32-.813.01-.304.146-.59.375-.79l3.29-2.88c.15.224.323.432.514.623l.035.036c.181.173.377.33.585.47l-2.876 3.29c-.199.231-.484.369-.788.38-.303.013-.598-.102-.815-.316z" transform="translate(0 1.77)"/>
                    </g>
                </g>
            </g>
        </g>
    </g>
</svg>
