<svg xmlns="http://www.w3.org/2000/svg" width="24" height="24" fill="none" viewBox="0 0 24 24">
    <path fill="#283A78" stroke="#283A78" stroke-width=".2" d="M19.344 4.805h-1.34v-1.21c0-.208-.102-.402-.271-.533h0c-.17-.13-.392-.185-.608-.153 0 0 0 0 0 0L4.533 4.814h0c-.358.054-.633.339-.633.686v14.904c0 .393.348.696.756.696h14.688c.408 0 .756-.303.756-.696V5.5c0-.393-.348-.695-.756-.695zM5.412 6.09l11.08-1.676V17.91l-11.08 1.675V6.091zm13.176 13.618h-4.67l3.452-.522c.358-.054.633-.339.633-.686V6.196h.585v13.513z"/>
    <path fill="#283A78" d="M14.24 6.97l-6.777.953c-.358.05-.603.355-.547.68.05.294.329.504.647.504.033 0 .067-.002.101-.007l6.776-.953c.358-.05.603-.354.548-.68-.056-.324-.39-.547-.749-.497z"/>
</svg>
