<svg width="33" height="32" viewBox="0 0 33 32" fill="none" xmlns="http://www.w3.org/2000/svg">
<g clip-path="url(#clip0)">
<path d="M16.5707 4.21348C16.5707 4.21348 11.8097 -2.91481 6.39118 1.37194C6.39118 1.37194 2.58888 4.20534 4.24984 10.2894C4.24984 10.2894 5.2737 15.4901 2.77615 22.8586C0.278596 30.2271 10.5599 32.5191 11.8911 31.9064C11.8911 31.9064 32.2175 26.5144 32.4089 13.6643C32.4089 13.6643 31.4542 10.3139 27.3547 9.82738C27.3568 9.82534 18.4413 10.7596 16.5707 4.21348Z" fill="#DADBE1"/>
<path d="M26.4918 3.21387H21.6758V10.6455H26.4918V3.21387Z" fill="#BBD6F5"/>
<path d="M26.9742 2.25098H21.1934V3.21377H26.9742V2.25098Z" fill="#545A76"/>
<path d="M1.51044 22.478H4.24411C4.54536 22.478 4.79166 22.7223 4.79166 23.0256C4.79166 23.3268 4.5474 23.5731 4.24411 23.5731H1.51044C1.20919 23.5731 0.962891 23.3289 0.962891 23.0256C0.962891 22.7223 1.20919 22.478 1.51044 22.478Z" fill="#545A76"/>
<path d="M29.3824 24.6147H0V26.5424H29.3824V24.6147Z" fill="#545A76"/>
<path d="M3.37305 20.4238L4.33583 19.9414L5.29862 20.4238V25.6245L4.33583 26.1069L3.37305 25.6245V20.4238Z" fill="#545A76"/>
<path d="M0 20.4238L0.962789 19.9414L1.92761 20.4238V25.6245L0.962789 26.1069L0 25.6245V20.4238Z" fill="#545A76"/>
<path d="M26.4925 12.0908H6.74414V25.578H26.4925V12.0908Z" fill="#B2D8F7"/>
<path d="M6.74414 12.0908H26.4925V25.578" fill="#B2D8F7"/>
<path d="M15.7265 25.6774V15.3513C15.7265 14.8547 15.5616 14.6328 15.0711 14.6328H9.98437C9.49178 14.6328 9.16406 14.9096 9.16406 15.3513V25.6774H15.7265Z" fill="#545A76"/>
<path d="M15.7001 20.6477V15.3432C15.7001 14.8506 15.5353 14.6328 15.0447 14.6328H9.958C9.46541 14.6328 9.1377 14.9056 9.1377 15.3432" fill="#545A76"/>
<path d="M14.975 20.4465C14.975 20.7498 14.7389 21.0185 14.403 21.0185C14.0997 21.0185 13.8311 20.7823 13.8311 20.4465C13.8311 20.1432 14.0672 19.8745 14.403 19.8745C14.7063 19.8745 14.975 20.1106 14.975 20.4465Z" fill="#9DA7B1"/>
<path d="M21.5986 17.3889H24.9063V15.3493C24.9063 14.8526 24.3547 14.6328 23.858 14.6328H21.5986V17.3889Z" fill="white"/>
<path d="M21.167 17.3665V14.6328H18.706C18.2135 14.6328 17.8857 14.9056 17.8857 15.3432V17.3665H21.167Z" fill="white"/>
<path d="M21.167 17.9146H17.8857V20.0477C17.8857 20.5403 18.2135 20.6482 18.706 20.6482H21.167V17.9146Z" fill="white"/>
<path d="M21.6758 17.9673V20.5931H23.8293C24.3016 20.5931 24.8267 20.4872 24.8267 20.015V17.9673H21.6758Z" fill="white"/>
<path d="M29.8162 12.0909L16.618 1.7832L3.46875 12.0909H29.8162Z" fill="#505A78"/>
<path d="M29.8157 12.0909L16.6176 1.7832L9.92285 12.0909H29.8157Z" fill="#505A78"/>
</g>
<defs>
<clipPath id="clip0">
<rect width="32.4112" height="32" fill="white"/>
</clipPath>
</defs>
</svg>
