<svg width="285" height="181" xmlns="http://www.w3.org/2000/svg">
    <g transform="translate(1 1)" fill="none" fill-rule="evenodd">
        <rect stroke="#979797" fill="#E7E1DD" width="282.639" height="179" rx="6"/>
        <path stroke="#979797" fill="#FFF" d="M11.563 69.375h167.014v43.681H11.563z"/>
        <path d="M43.783 101.718c1.28-1.196 2.295-2.668 3.312-4.082 2.59-3.994 4.833-8.196 7.229-12.306.282-.476.558-.956.838-1.434-.385 2.021-.873 4.022-1.363 6.019-.683 2.827-1.585 5.602-2.159 8.454-.199 1.199-.185 2.415-.197 3.624.07.428.341.76.824.494 2.961-1.649 2.912-1.577 4.668-3.243l.13-.124c.367.413.795 1.3 1.023 1.69.549.848 1.008 1.142 2.022 1.1a26.747 26.747 0 0 1 3.493-.63c.657-.054.499-.043.87-.064-.228.182-.45.371-.692.537l4.597-1.852c1.202-.877 2.183-1.995 3.148-3.12.676 1.373.888 2.943 1.06 4.453.068.244.094.506.2.736.531 1.162 1.71.75 2.57.247 1.69-.989 3.355-2.022 5.031-3.033.113-.083.225-.164.338-.244.099.007.2.008.297.039.458.149.879.536 1.295.772.633.355.537.288 1.256.576 1.684.455 3.391-.04 5.088-.13 2.37.08 4.73.31 7.101.368 1.136-.014 2.298.093 3.39-.274L103 97.203c-.986.674-2.244.487-3.378.555-2.361.002-4.71-.228-7.062-.423-.837.004-.86-.025-1.674.092-1.09.156-2.177.433-3.281.178-.585-.218-1.136-.457-1.66-.802-.436-.286-.404-.353-.867-.597-.167-.09-.347-.154-.52-.232-2.37.153-.48-.05-5.324 2.696-.66.374-1.28.815-1.89 1.263-.308-.152-.416-.63-.495-.95-.275-1.917-.53-3.92-1.588-5.587-.17-.169-.283-.583-.508-.504-4.48 1.592-4.546 2.036-6.864 4.873-.43.49-.866.977-1.309 1.456l-.238.019c-1.167.111-2.33.26-3.458.6-.903.176-1.286.003-1.813-.763-.343-.57-.817-1.623-1.27-2.053-.1-.095-.227-.155-.341-.233-1.81-.079-3.549 1.675-4.949 3.064-.002-.993.02-1.99.174-2.972.462-2.798 1.194-5.536 1.854-8.289.562-2.294 1.167-4.583 1.66-6.894.023-.109.495-2.49.504-2.855.006-.286-.091-.563-.138-.845-1.057.577-2.163 1.068-3.17 1.73-.185.122-.228.382-.337.576-.2.359-.389.721-.585 1.08a214.8 214.8 0 0 1-2.923 5.182c-2.388 4.15-4.668 8.37-7.37 12.331-.919 1.212-1.824 2.417-2.913 3.486a8.852 8.852 0 0 1-.664.597c-.158.128-.68.439-.504.34.888-.489 1.757-1.01 2.635-1.517L40 104c.956-1.03 2.706-1.275 3.783-2.282zm40.075-4.426c-.278.166-.514.3-.764.444l.043-.029c.238-.146.958-.555.721-.415zm-4.923 1.838c.312-.25-.58.647-.921.784-.005.002-.007-.004-.014-.002.311-.263.62-.532.935-.782zm-4.153-5.788c-.218.134-.395.226-.596.34.022-.021.062-.066.077-.08.15-.122.684-.362.52-.26zm-20.48 7.338c-.028-.022-.04-.06-.048-.096.148-.082.292-.174.444-.248.218-.108-.371.362-.395.344zM209.642 91.42c.894-.828 1.603-1.847 2.313-2.826 1.81-2.765 3.375-5.674 5.05-8.52.196-.33.389-.661.584-.992-.268 1.399-.61 2.784-.951 4.167-.478 1.957-1.108 3.878-1.508 5.852-.14.83-.13 1.673-.138 2.51.049.296.238.525.575.341 2.069-1.141 2.034-1.091 3.26-2.245l.091-.086c.257.287.556.901.715 1.17.383.588.704.791 1.412.762a18.83 18.83 0 0 1 2.44-.437c.458-.036.348-.029.607-.043-.16.126-.314.257-.483.371l3.21-1.282c.84-.607 1.525-1.381 2.2-2.16.471.95.62 2.038.739 3.083.048.17.066.35.14.51.371.804 1.195.52 1.795.17 1.18-.684 2.343-1.4 3.514-2.1l.236-.168c.069.004.14.006.207.027.32.103.614.37.905.534.441.246.375.2.877.4 1.176.314 2.368-.029 3.554-.09 1.655.055 3.303.213 4.959.254.793-.01 1.605.064 2.368-.19L251 88.294c-.688.467-1.567.338-2.36.385-1.648.001-3.29-.159-4.931-.294-.585.003-.601-.017-1.17.065-.76.107-1.52.3-2.291.123-.408-.151-.793-.316-1.16-.556-.304-.197-.282-.244-.605-.413-.116-.062-.242-.107-.363-.16-1.655.106-.336-.035-3.719 1.866-.46.259-.893.564-1.32.875-.215-.106-.29-.437-.345-.658-.192-1.328-.37-2.714-1.11-3.868-.118-.117-.197-.404-.354-.35-3.129 1.103-3.175 1.41-4.794 3.374-.3.34-.605.677-.914 1.009l-.166.013c-.816.077-1.628.18-2.415.415-.631.122-.898.002-1.267-.529-.24-.394-.57-1.123-.886-1.42-.071-.066-.16-.108-.239-.162-1.264-.054-2.478 1.16-3.456 2.122-.001-.688.014-1.378.121-2.058.323-1.937.834-3.833 1.295-5.738.393-1.589.815-3.174 1.16-4.774.016-.075.345-1.724.351-1.976.004-.198-.063-.39-.096-.585-.738.4-1.51.74-2.214 1.198-.13.084-.16.264-.235.399-.14.248-.272.499-.409.747-.663 1.206-1.345 2.4-2.041 3.588-1.668 2.872-3.26 5.795-5.148 8.537-.641.839-1.273 1.673-2.034 2.413-.15.145-.301.285-.464.413-.11.089-.475.304-.352.236.62-.339 1.227-.7 1.84-1.05L207 93c.668-.713 1.89-.883 2.642-1.58zm26.394-2.44-.077.044.005-.003.072-.042zm-2.101.983c.312-.025-.58.065-.921.078H233c.311-.026.62-.053.935-.078zm-3.907-4.979c-.022.014-.04.023-.06.034l.008-.008c.015-.012.069-.036.052-.026zm-13.048 5.034c-.003-.002-.004-.006-.005-.01l.045-.024c.022-.011-.037.036-.04.034z" fill="#010101" fill-rule="nonzero"/>
        <g fill="#000" fill-rule="nonzero">
            <path d="M142.902 76.931c1.754-.95 3.805-1.431 6.097-1.431 2.277 0 4.329.482 6.1 1.433a.548.548 0 0 0 .264.067c.241 0 .473-.163.58-.44.145-.376.004-.821-.316-.992C153.69 74.528 151.46 74 149 74c-2.478 0-4.709.528-6.63 1.569-.317.173-.457.618-.31.995.147.375.522.54.843.367z"/>
            <path d="M141.083 81.815c2.335-2.332 5.243-3.565 8.414-3.565 3.183 0 6.095 1.233 8.418 3.564a.637.637 0 0 0 .895.006.619.619 0 0 0 .008-.884C156.25 78.361 153.027 77 149.497 77c-3.517 0-6.738 1.361-9.314 3.935a.621.621 0 0 0 .005.885c.25.243.65.239.895-.005z"/>
            <path d="M149.165 79c-.91 0-1.812.117-2.684.35a.67.67 0 0 0-.461.81c.086.357.436.57.775.481a9.246 9.246 0 0 1 2.37-.308c5.272 0 9.56 4.486 9.56 10 0 .368.286.667.638.667.351 0 .637-.299.637-.667C160 84.084 155.14 79 149.165 79zM139.204 90.379c.039-2.551.971-4.921 2.627-6.677a9.117 9.117 0 0 1 1.871-1.526.65.65 0 0 0 .216-.864.588.588 0 0 0-.824-.226 10.335 10.335 0 0 0-2.12 1.73c-1.874 1.988-2.93 4.666-2.974 7.544-.005.348.26.635.594.64h.01a.615.615 0 0 0 .6-.621z"/>
            <path d="M141.85 90.639c0-1.997.71-3.847 2.004-5.211 1.298-1.37 3.025-2.124 4.868-2.124 1.984 0 3.873.899 5.182 2.467a.608.608 0 0 0 .882.062.674.674 0 0 0 .06-.92C153.3 83.062 151.066 82 148.722 82c-2.18 0-4.223.892-5.755 2.51-1.527 1.61-2.367 3.787-2.367 6.163.004 1.403-.416 3.086-1.169 4.702l-.35.652a.668.668 0 0 0 .238.888.601.601 0 0 0 .306.085.62.62 0 0 0 .545-.333l.369-.686c.863-1.854 1.316-3.691 1.31-5.342zM158.234 95.924c-.415-1.787-.45-3.493-.472-4.513l-.007-.327a7.59 7.59 0 0 0-.485-2.673c-.12-.321-.49-.49-.835-.375-.34.113-.518.465-.397.788.272.725.41 1.485.41 2.276l.007.336c.023 1.065.06 2.847.515 4.8l.749 2.327a.65.65 0 0 0 .626.437.733.733 0 0 0 .191-.026c.345-.1.54-.443.436-.77l-.738-2.28z"/>
            <path d="M156.39 99.252c-1.032-3.312-1.225-7.035-1.259-8.466 0-3.19-2.526-5.786-5.63-5.786-3.103 0-5.628 2.636-5.628 5.898.003.676-.119 4.249-2.761 8.165a.654.654 0 0 0 .156.895c.283.202.675.13.871-.16 2.785-4.126 2.989-7.859 2.985-8.92 0-2.533 1.964-4.591 4.378-4.591s4.378 2.019 4.378 4.516c.045 1.866.277 5.497 1.318 8.839l.578 1.907a.628.628 0 0 0 .784.423.647.647 0 0 0 .412-.805l-.582-1.915z"/>
            <path d="M151.998 90.214c0-1.771-1.374-3.214-3.062-3.214-1.688 0-3.062 1.443-3.062 3.239.007.212.143 5.262-3.747 10.576a.664.664 0 0 0 .112.901c.27.218.653.162.859-.118 4.156-5.678 4.007-11.177 4-11.384 0-1.063.824-1.928 1.837-1.928s1.837.865 1.838 1.942c.017.72.021 7.216-4.761 13.737a.664.664 0 0 0 .111.901c.113.09.244.134.374.134a.599.599 0 0 0 .485-.25c5.048-6.882 5.033-13.786 5.016-14.536z"/>
            <path d="M148.361 93.992a.307.307 0 0 0 .069.008c.206 0 .389-.233.422-.56.175-1.694.147-2.758.145-2.802-.01-.367-.196-.66-.446-.637-.236.016-.42.327-.41.695 0 .01.024.986-.136 2.53-.037.364.123.707.356.766zM148.571 95.027c-.318-.101-.65.093-.744.43a22.571 22.571 0 0 1-3.696 7.505.67.67 0 0 0 .094.899c.11.094.242.139.373.139.176 0 .35-.082.468-.24a23.884 23.884 0 0 0 3.91-7.938c.093-.339-.088-.696-.405-.795zM154.167 100.248c-.32-.878-.617-1.805-.618-1.809a.656.656 0 0 0-.6-.438.659.659 0 0 0-.65.372c-.015.032-1.497 3.232-3.195 5.688-.197.285-.105.663.205.844.11.064.234.095.356.095.22 0 .435-.1.561-.284 1.028-1.487 1.962-3.196 2.571-4.385.035.097.07.196.107.294l.796 2.33c.11.32.48.502.834.399.35-.101.546-.444.435-.766l-.802-2.34z"/>
        </g>
        <path stroke="#000" d="M183.715 99.566h80.938M183.715 104.705h80.938M183.715 109.844h80.938"/>
        <path stroke="#979797" fill="#FFF" d="M11.563 25.694h215.833v35.972H11.563z"/>
        <path fill="#000" d="M12.847 25.694h3.854v35.972h-3.854zM222.257 25.694h-6v35.972h6zM17.986 25.694h1.285v35.972h-1.285zM20.986 25.694h3v17h-3zM40.986 25.694h3v17h-3zM60.986 25.694h3v17h-3zM80.986 25.694h3v17h-3zM100.986 25.694h3v17h-3zM120.986 25.694h3v17h-3zM140.986 25.694h3v17h-3zM160.986 25.694h3v17h-3zM180.986 25.694h3v17h-3zM25.986 25.694h3v9h-3zM45.986 25.694h3v9h-3zM65.986 25.694h3v9h-3zM85.986 25.694h3v9h-3zM105.986 25.694h3v9h-3zM125.986 25.694h3v9h-3zM145.986 25.694h3v9h-3zM165.986 25.694h3v9h-3zM185.986 25.694h3v9h-3zM200.986 25.694h3v9h-3zM35.986 25.694h3v9h-3zM55.986 25.694h3v9h-3zM75.986 25.694h3v9h-3zM95.986 25.694h3v9h-3zM115.986 25.694h3v9h-3zM135.986 25.694h3v9h-3zM155.986 25.694h3v9h-3zM175.986 25.694h3v9h-3zM195.986 25.694h3v9h-3zM210.986 25.694h3v9h-3zM30.986 25.694h3v21h-3zM50.986 25.694h3v21h-3zM70.986 25.694h3v21h-3zM90.986 25.694h3v21h-3zM110.986 25.694h3v21h-3zM130.986 25.694h3v21h-3zM150.986 25.694h3v21h-3zM170.986 25.694h3v21h-3zM190.986 25.694h3v21h-3zM205.986 25.694h3v21h-3zM20.986 44.694h3v4h-3zM40.986 44.694h3v4h-3zM60.986 44.694h3v4h-3zM80.986 44.694h3v4h-3zM100.986 44.694h3v4h-3zM120.986 44.694h3v4h-3zM140.986 44.694h3v4h-3zM160.986 44.694h3v4h-3zM180.986 44.694h3v4h-3zM25.986 36.694h3v4h-3zM45.986 36.694h3v4h-3zM65.986 36.694h3v4h-3zM85.986 36.694h3v4h-3zM105.986 36.694h3v4h-3zM125.986 36.694h3v4h-3zM145.986 36.694h3v4h-3zM165.986 36.694h3v4h-3zM185.986 36.694h3v4h-3zM200.986 36.694h3v4h-3zM35.986 36.694h3v4h-3zM55.986 36.694h3v4h-3zM75.986 36.694h3v4h-3zM95.986 36.694h3v4h-3zM115.986 36.694h3v4h-3zM135.986 36.694h3v4h-3zM155.986 36.694h3v4h-3zM175.986 36.694h3v4h-3zM195.986 36.694h3v4h-3zM210.986 36.694h3v4h-3zM30.986 49.694h3v4h-3zM50.986 49.694h3v4h-3zM70.986 49.694h3v4h-3zM90.986 49.694h3v4h-3zM110.986 49.694h3v4h-3zM130.986 49.694h3v4h-3zM150.986 49.694h3v4h-3zM170.986 49.694h3v4h-3zM190.986 49.694h3v4h-3zM205.986 49.694h3v4h-3zM20.986 50.694h3v11h-3zM40.986 50.694h3v11h-3zM60.986 50.694h3v11h-3zM80.986 50.694h3v11h-3zM100.986 50.694h3v11h-3zM120.986 50.694h3v11h-3zM140.986 50.694h3v11h-3zM160.986 50.694h3v11h-3zM180.986 50.694h3v11h-3zM25.986 42.694h3v19h-3zM45.986 42.694h3v19h-3zM65.986 42.694h3v19h-3zM85.986 42.694h3v19h-3zM105.986 42.694h3v19h-3zM125.986 42.694h3v19h-3zM145.986 42.694h3v19h-3zM165.986 42.694h3v19h-3zM185.986 42.694h3v19h-3zM200.986 42.694h3v19h-3zM35.986 42.694h3v19h-3zM55.986 42.694h3v19h-3zM75.986 42.694h3v19h-3zM95.986 42.694h3v19h-3zM115.986 42.694h3v19h-3zM135.986 42.694h3v19h-3zM155.986 42.694h3v19h-3zM175.986 42.694h3v19h-3zM195.986 42.694h3v19h-3zM210.986 42.694h3v19h-3zM30.986 55.694h3v6h-3zM50.986 55.694h3v6h-3zM70.986 55.694h3v6h-3zM90.986 55.694h3v6h-3zM110.986 55.694h3v6h-3zM130.986 55.694h3v6h-3zM150.986 55.694h3v6h-3zM170.986 55.694h3v6h-3zM190.986 55.694h3v6h-3zM205.986 55.694h3v6h-3zM224.826 25.694h-1.285v35.972h1.285z"/>
        <path fill="#FFF9F5" d="M65.521 8.993h78.368V21.84H65.521zM149.028 8.993h78.368V21.84h-78.368z"/>
        <circle fill="#F769FF" opacity=".452" cx="246.024" cy="89.288" r="18.628"/>
        <path stroke="#979797" fill="#FFF" d="M11.563 0h48.819v21.84H11.563z"/>
        <path stroke="#000" d="M71.944 12.205h16.059M151.597 12.205h16.059"/>
        <g fill="#000">
            <path d="M22 4h3v14h-3zM37 4h3v14h-3zM31 4h3v14h-3zM46 4h3v14h-3zM26 4h1v14h-1zM41 4h1v14h-1zM28 4h1v14h-1zM44 4h1v14h-1zM35 4h1v14h-1zM50 4h1v14h-1z"/>
        </g>
        <path stroke="#979797" fill="#FFF" d="M232.535 25.694h35.972v35.972h-35.972z"/>
        <path d="M15.883 132.049v-1.104H14.73v-6.168h1.152v-1.104h-3.648v1.104h1.14v6.168h-1.14v1.104h3.648zm5.988 0c.536 0 1.021-.088 1.457-.264a2.938 2.938 0 0 0 1.117-.786c.308-.348.546-.784.713-1.308.168-.524.252-1.134.252-1.83 0-.696-.084-1.306-.252-1.83-.168-.524-.405-.96-.713-1.308a2.938 2.938 0 0 0-1.117-.786 3.863 3.863 0 0 0-1.457-.264h-2.964v8.376h2.963zm0-1.2h-1.608v-5.976h1.607c.624 0 1.128.196 1.512.588.384.392.576.968.576 1.728v1.344c0 .76-.191 1.336-.575 1.728-.384.392-.889.588-1.512.588zm7.848 1.2v-6.408h.06l.66 1.356 1.836 3.348 1.836-3.348.66-1.356h.06v6.408h1.295v-8.376h-1.535l-2.245 4.26h-.071l-2.244-4.26h-1.608v8.376h1.296zm15.155 0v-1.2h-4.008V128.4h3.636v-1.2h-3.636v-2.328h4.008v-1.2H39.51v8.376h5.364zm3.792 0 2.005-3.336h.035l2.028 3.336h1.596l-2.747-4.296 2.64-4.08h-1.5l-1.932 3.12h-.024l-1.909-3.12h-1.595l2.616 4.092-2.712 4.284h1.5zm14.017 0v-1.128h-2.04v-7.248h-2.065l-2.136 2.316.828.744 1.944-2.076h.096v6.264h-2.352v1.128h5.724zm5.34.144c.487 0 .918-.062 1.29-.186.371-.124.683-.294.936-.51a2.16 2.16 0 0 0 .576-.768 2.33 2.33 0 0 0 .197-.96c0-.56-.154-1.01-.462-1.35-.308-.34-.713-.578-1.218-.714v-.096a2.237 2.237 0 0 0 1.038-.72c.26-.328.39-.732.39-1.212 0-.32-.061-.612-.185-.876a1.907 1.907 0 0 0-.534-.678 2.509 2.509 0 0 0-.865-.438 4.019 4.019 0 0 0-1.164-.156c-.431 0-.82.052-1.163.156-.344.104-.632.25-.864.438-.233.188-.41.414-.535.678a2.035 2.035 0 0 0-.185.876c0 .48.13.884.39 1.212.26.328.605.568 1.037.72v.096c-.504.136-.91.374-1.218.714-.307.34-.462.79-.462 1.35 0 .344.066.664.198.96.133.296.325.552.576.768.252.216.564.386.936.51.373.124.802.186 1.29.186zm0-5.016c-.465 0-.819-.1-1.063-.3-.243-.2-.365-.492-.365-.876v-.204c0-.384.121-.676.365-.876.245-.2.599-.3 1.063-.3.464 0 .818.1 1.062.3.244.2.366.492.366.876V126c0 .384-.122.676-.366.876-.244.2-.598.3-1.063.3zm0 3.924c-.504 0-.894-.116-1.17-.348-.276-.232-.414-.556-.414-.972v-.24c0-.416.138-.74.414-.972.276-.232.666-.348 1.17-.348.504 0 .894.116 1.17.348.276.232.413.556.413.972v.24c0 .416-.137.74-.413.972-.276.232-.666.348-1.17.348zm8.172 1.092c.448 0 .856-.058 1.224-.174.368-.116.681-.282.942-.498.26-.216.462-.474.605-.774.145-.3.217-.634.217-1.002 0-.304-.047-.574-.139-.81a1.902 1.902 0 0 0-.935-1.032 2.616 2.616 0 0 0-.678-.234v-.06c.216-.048.422-.124.618-.228a1.834 1.834 0 0 0 .864-.972c.084-.216.126-.456.126-.72 0-.336-.069-.638-.204-.906a2.022 2.022 0 0 0-.564-.684 2.496 2.496 0 0 0-.865-.426 3.961 3.961 0 0 0-1.092-.144c-.351 0-.663.038-.935.114a3.187 3.187 0 0 0-.733.3c-.216.124-.403.27-.564.438-.16.168-.303.344-.431.528l.9.78c.192-.32.427-.57.707-.75.28-.18.62-.27 1.02-.27.408 0 .732.102.972.306.24.204.36.498.36.882v.084c0 .344-.123.626-.371.846-.249.22-.633.33-1.153.33h-.852v1.152h.889c.527 0 .935.112 1.224.336.288.224.431.552.431.984v.084c0 .432-.136.77-.407 1.014-.272.244-.664.366-1.176.366a2.25 2.25 0 0 1-.642-.084 1.823 1.823 0 0 1-.9-.594 4.13 4.13 0 0 1-.33-.462l-.996.78c.127.192.278.378.45.558a2.983 2.983 0 0 0 1.385.816c.296.084.64.126 1.032.126zm8.892 0c.44 0 .841-.07 1.206-.21.363-.14.673-.334.93-.582.255-.248.454-.546.594-.894.14-.348.21-.734.21-1.158 0-.392-.063-.748-.186-1.068a2.435 2.435 0 0 0-.516-.822 2.212 2.212 0 0 0-.78-.522 2.61 2.61 0 0 0-.978-.18c-.264 0-.496.032-.696.096a1.902 1.902 0 0 0-.942.654 3.093 3.093 0 0 0-.306.474l-.085-.024c.105-.448.25-.86.439-1.236.188-.376.421-.732.701-1.068.28-.336.609-.664.984-.984.376-.32.8-.652 1.272-.996h-1.8a7.589 7.589 0 0 0-1.05.87 6.812 6.812 0 0 0-1.674 2.67 5.25 5.25 0 0 0-.275 1.716c0 .504.067.956.203 1.356.137.4.33.742.583 1.026.251.284.56.502.923.654.365.152.779.228 1.243.228zm0-1.104c-.489 0-.868-.13-1.14-.39-.273-.26-.409-.642-.409-1.146v-.168c0-.504.136-.886.409-1.146.272-.26.651-.39 1.14-.39.487 0 .867.13 1.14.39.272.26.407.642.407 1.146v.168c0 .504-.135.886-.407 1.146-.273.26-.653.39-1.14.39zm8.435 1.104c.472 0 .894-.07 1.266-.21.373-.14.687-.336.943-.588a2.47 2.47 0 0 0 .582-.906c.132-.352.197-.736.197-1.152 0-.408-.064-.774-.192-1.098a2.34 2.34 0 0 0-.534-.822 2.351 2.351 0 0 0-.803-.516 2.736 2.736 0 0 0-1.002-.18c-.24 0-.448.026-.624.078a1.582 1.582 0 0 0-.469.222c-.135.096-.255.21-.36.342a3.662 3.662 0 0 0-.3.45h-.084l.217-2.964h3.72v-1.176h-4.752l-.313 4.668 1.117.156c.151-.168.335-.32.552-.456.215-.136.503-.204.863-.204.496 0 .878.136 1.146.408.269.272.403.648.403 1.128v.144c0 .48-.135.856-.403 1.128-.267.272-.65.408-1.145.408a2.08 2.08 0 0 1-.618-.084 1.671 1.671 0 0 1-.487-.24 2.05 2.05 0 0 1-.383-.36 4.164 4.164 0 0 1-.325-.456l-.983.78a4.7 4.7 0 0 0 .438.558 2.826 2.826 0 0 0 1.338.816c.287.084.62.126.995.126zm8.46-.144 2.953-7.2v-1.176h-5.677v2.664h1.165v-1.548h3.168l-3.036 7.26h1.427zm8.52 0 2.953-7.2v-1.176h-5.677v2.664h1.164v-1.548h3.169l-3.037 7.26h1.428zm11.82 0v-1.128h-2.04v-7.248h-2.063l-2.136 2.316.828.744 1.944-2.076h.096v6.264h-2.352v1.128h5.724zm5.22 0 2.952-7.2v-1.176h-5.675v2.664h1.163v-1.548h3.168l-3.035 7.26h1.428zm8.64.144c1.04 0 1.806-.38 2.299-1.14.492-.76.738-1.824.738-3.192s-.246-2.432-.738-3.192c-.493-.76-1.258-1.14-2.298-1.14-.52 0-.972.098-1.356.294a2.5 2.5 0 0 0-.948.846c-.248.368-.433.822-.552 1.362-.12.54-.18 1.15-.18 1.83 0 .688.06 1.3.18 1.836s.304.988.552 1.356a2.5 2.5 0 0 0 .948.846c.383.196.835.294 1.356.294zm0-1.152a1.47 1.47 0 0 1-.737-.174 1.351 1.351 0 0 1-.499-.498 2.356 2.356 0 0 1-.275-.774 5.48 5.48 0 0 1-.084-1.002v-1.464c0-.368.028-.702.084-1.002.055-.3.148-.558.275-.774.129-.216.294-.382.499-.498a1.47 1.47 0 0 1 .738-.174c.287 0 .534.058.738.174.204.116.37.282.498.498.127.216.22.474.275.774.056.3.085.634.085 1.002v1.464c0 .368-.029.702-.084 1.002-.056.3-.148.558-.276.774a1.351 1.351 0 0 1-.499.498 1.47 1.47 0 0 1-.737.174zm10.969 1.104V130.8l-3.589-2.16v-.084l3.588-2.148v-1.344l-4.895 3.048v.984l4.895 3.048zm8.52 0V130.8l-3.588-2.16v-.084l3.588-2.148v-1.344l-4.897 3.048v.984l4.897 3.048zm6.072.048c1.04 0 1.805-.38 2.298-1.14.492-.76.738-1.824.738-3.192s-.246-2.432-.738-3.192c-.493-.76-1.258-1.14-2.298-1.14-.52 0-.972.098-1.356.294a2.5 2.5 0 0 0-.948.846c-.249.368-.433.822-.552 1.362-.12.54-.18 1.15-.18 1.83 0 .688.06 1.3.18 1.836s.303.988.552 1.356a2.5 2.5 0 0 0 .948.846c.383.196.835.294 1.356.294zm0-1.152a1.47 1.47 0 0 1-.738-.174 1.351 1.351 0 0 1-.499-.498 2.356 2.356 0 0 1-.275-.774 5.48 5.48 0 0 1-.084-1.002v-1.464c0-.368.028-.702.084-1.002.055-.3.148-.558.275-.774.129-.216.294-.382.499-.498a1.47 1.47 0 0 1 .738-.174c.287 0 .534.058.738.174.204.116.37.282.498.498.127.216.22.474.275.774.056.3.085.634.085 1.002v1.464c0 .368-.029.702-.084 1.002-.056.3-.148.558-.276.774a1.351 1.351 0 0 1-.499.498 1.47 1.47 0 0 1-.737.174zm8.4 1.008 2.952-7.2v-1.176h-5.677v2.664h1.165v-1.548h3.167l-3.036 7.26h1.429zm10.631 0v-1.632h1.14v-1.068h-1.14v-5.676H179l-3.397 5.58v1.164h3.888v1.632h1.284zm-1.284-2.7h-2.736l2.653-4.44h.083v4.44zm7.692 2.7 2.953-7.2v-1.176h-5.677v2.664h1.165v-1.548h3.168l-3.036 7.26h1.428zm11.82 0v-1.128h-2.04v-7.248H194.9l-2.137 2.316.828.744 1.945-2.076h.096v6.264h-2.352v1.128h5.724zm8.52 0v-1.128h-2.04v-7.248h-2.064l-2.136 2.316.828.744 1.944-2.076h.096v6.264h-2.352v1.128h5.725zm5.365.144c.44 0 .841-.07 1.206-.21.364-.14.674-.334.93-.582.256-.248.453-.546.594-.894.14-.348.21-.734.21-1.158 0-.392-.063-.748-.186-1.068a2.435 2.435 0 0 0-.516-.822 2.212 2.212 0 0 0-.78-.522 2.61 2.61 0 0 0-.978-.18c-.264 0-.496.032-.696.096a1.902 1.902 0 0 0-.942.654 3.093 3.093 0 0 0-.306.474l-.084-.024c.103-.448.25-.86.438-1.236s.422-.732.702-1.068c.28-.336.607-.664.983-.984.377-.32.8-.652 1.273-.996h-1.8a7.589 7.589 0 0 0-1.05.87 6.812 6.812 0 0 0-1.674 2.67 5.25 5.25 0 0 0-.276 1.716c0 .504.067.956.203 1.356.136.4.33.742.582 1.026.252.284.56.502.924.654.364.152.779.228 1.243.228zm0-1.104c-.488 0-.869-.13-1.14-.39-.273-.26-.409-.642-.409-1.146v-.168c0-.504.137-.886.409-1.146.271-.26.651-.39 1.14-.39.488 0 .868.13 1.14.39.272.26.408.642.408 1.146v.168c0 .504-.137.886-.409 1.146-.272.26-.651.39-1.14.39zm8.148 1.104c.447 0 .856-.058 1.224-.174.368-.116.681-.282.942-.498.26-.216.462-.474.606-.774.144-.3.216-.634.216-1.002 0-.304-.047-.574-.138-.81a1.902 1.902 0 0 0-.936-1.032 2.616 2.616 0 0 0-.679-.234v-.06c.216-.048.422-.124.618-.228a1.834 1.834 0 0 0 .864-.972c.084-.216.126-.456.126-.72 0-.336-.067-.638-.203-.906a2.022 2.022 0 0 0-.565-.684 2.496 2.496 0 0 0-.864-.426 3.961 3.961 0 0 0-1.091-.144c-.352 0-.665.038-.936.114a3.187 3.187 0 0 0-.732.3c-.216.124-.404.27-.564.438-.16.168-.304.344-.433.528l.9.78c.193-.32.429-.57.709-.75.28-.18.62-.27 1.02-.27.407 0 .732.102.971.306.24.204.36.498.36.882v.084c0 .344-.123.626-.371.846-.249.22-.633.33-1.153.33h-.851v1.152h.888c.528 0 .936.112 1.224.336.287.224.431.552.431.984v.084c0 .432-.136.77-.407 1.014-.273.244-.665.366-1.177.366a2.25 2.25 0 0 1-.641-.084 1.823 1.823 0 0 1-.9-.594 4.13 4.13 0 0 1-.33-.462l-.996.78c.127.192.278.378.45.558a2.983 2.983 0 0 0 1.386.816c.296.084.64.126 1.032.126zm8.748-.144 2.952-7.2v-1.176h-5.677v2.664h1.165v-1.548h3.167l-3.035 7.26h1.428zm8.58.144c.471 0 .893-.07 1.266-.21.371-.14.686-.336.942-.588a2.47 2.47 0 0 0 .582-.906c.132-.352.198-.736.198-1.152 0-.408-.065-.774-.192-1.098a2.34 2.34 0 0 0-.534-.822 2.351 2.351 0 0 0-.804-.516 2.736 2.736 0 0 0-1.002-.18c-.24 0-.448.026-.624.078a1.582 1.582 0 0 0-.469.222c-.136.096-.256.21-.36.342a3.662 3.662 0 0 0-.3.45h-.084l.216-2.964h3.72v-1.176h-4.751l-.313 4.668 1.116.156c.153-.168.337-.32.553-.456.215-.136.504-.204.864-.204.495 0 .877.136 1.145.408.268.272.403.648.403 1.128v.144c0 .48-.135.856-.403 1.128-.268.272-.65.408-1.145.408a2.08 2.08 0 0 1-.619-.084 1.671 1.671 0 0 1-.486-.24 2.05 2.05 0 0 1-.383-.36 4.164 4.164 0 0 1-.325-.456l-.984.78a4.7 4.7 0 0 0 .439.558 2.826 2.826 0 0 0 1.338.816c.288.084.62.126.996.126zm8.58 0c.487 0 .917-.062 1.29-.186.371-.124.684-.294.935-.51a2.16 2.16 0 0 0 .576-.768 2.33 2.33 0 0 0 .198-.96c0-.56-.154-1.01-.462-1.35-.307-.34-.713-.578-1.218-.714v-.096a2.237 2.237 0 0 0 1.038-.72c.26-.328.39-.732.39-1.212 0-.32-.061-.612-.185-.876a1.907 1.907 0 0 0-.535-.678 2.509 2.509 0 0 0-.863-.438 4.019 4.019 0 0 0-1.165-.156c-.431 0-.82.052-1.163.156-.344.104-.632.25-.864.438-.232.188-.41.414-.534.678a2.035 2.035 0 0 0-.186.876c0 .48.13.884.39 1.212.26.328.605.568 1.037.72v.096c-.504.136-.91.374-1.218.714-.308.34-.462.79-.462 1.35 0 .344.066.664.198.96.133.296.325.552.577.768.251.216.563.386.935.51.373.124.803.186 1.29.186zm0-5.016c-.465 0-.819-.1-1.063-.3-.243-.2-.365-.492-.365-.876v-.204c0-.384.122-.676.366-.876.244-.2.597-.3 1.061-.3.464 0 .819.1 1.063.3.244.2.365.492.365.876V126c0 .384-.121.676-.365.876-.244.2-.599.3-1.063.3zm0 3.924c-.505 0-.895-.116-1.17-.348-.276-.232-.415-.556-.415-.972v-.24c0-.416.138-.74.415-.972.275-.232.666-.348 1.17-.348.503 0 .893.116 1.17.348.275.232.413.556.413.972v.24c0 .416-.138.74-.413.972-.276.232-.667.348-1.17.348zm10.511.948v-1.632h1.14v-1.068h-1.14v-5.676h-1.775l-3.397 5.58v1.164h3.888v1.632h1.284zm-1.284-2.7h-2.736l2.653-4.44h.084v4.44zm10.704 2.7v-1.152h-4.224l1.969-1.692c.271-.24.53-.476.773-.708.245-.232.459-.476.642-.732.185-.256.329-.528.433-.816.103-.288.156-.6.156-.936 0-.36-.06-.692-.18-.996a2.2 2.2 0 0 0-.522-.786 2.392 2.392 0 0 0-.846-.516 3.276 3.276 0 0 0-1.14-.186c-.425 0-.795.056-1.11.168a2.68 2.68 0 0 0-1.399 1.11 3.577 3.577 0 0 0-.36.762l1.189.456a2.42 2.42 0 0 1 .197-.516c.084-.16.19-.3.319-.42.127-.12.277-.214.45-.282.171-.068.373-.102.606-.102.416 0 .745.116.99.348.243.232.365.552.365.96v.156c0 .384-.114.75-.341 1.098-.228.348-.555.714-.978 1.098l-2.676 2.388v1.296h5.688zM15.163 145.193c.488 0 .918-.062 1.29-.186s.684-.294.936-.51a2.16 2.16 0 0 0 .576-.768 2.33 2.33 0 0 0 .199-.96c0-.56-.154-1.01-.462-1.35-.309-.34-.715-.578-1.218-.714v-.096a2.237 2.237 0 0 0 1.037-.72c.26-.328.39-.732.39-1.212 0-.32-.061-.612-.186-.876a1.907 1.907 0 0 0-.534-.678 2.509 2.509 0 0 0-.864-.438 4.019 4.019 0 0 0-1.164-.156c-.432 0-.82.052-1.164.156-.343.104-.631.25-.864.438-.232.188-.41.414-.534.678a2.035 2.035 0 0 0-.185.876c0 .48.13.884.39 1.212.26.328.606.568 1.037.72v.096c-.504.136-.91.374-1.218.714-.308.34-.462.79-.462 1.35 0 .344.066.664.198.96.133.296.325.552.577.768.252.216.564.386.936.51.372.124.802.186 1.29.186zm0-5.016c-.464 0-.818-.1-1.062-.3-.243-.2-.365-.492-.365-.876v-.204c0-.384.122-.676.366-.876.243-.2.597-.3 1.061-.3.464 0 .818.1 1.062.3.244.2.366.492.366.876V139c0 .384-.122.676-.366.876-.244.2-.598.3-1.062.3zm0 3.924c-.504 0-.894-.116-1.17-.348-.276-.232-.414-.556-.414-.972v-.24c0-.416.139-.74.415-.972.275-.232.665-.348 1.17-.348.503 0 .893.116 1.17.348.276.232.414.556.414.972v.24c0 .416-.139.74-.415.972-.276.232-.666.348-1.17.348zm8.52 1.092c1.04 0 1.806-.38 2.299-1.14.491-.76.737-1.824.737-3.192s-.245-2.432-.738-3.192c-.492-.76-1.258-1.14-2.297-1.14-.52 0-.973.098-1.357.294a2.5 2.5 0 0 0-.948.846c-.247.368-.431.822-.552 1.362-.12.54-.18 1.15-.18 1.83 0 .688.06 1.3.18 1.836s.305.988.552 1.356a2.5 2.5 0 0 0 .948.846c.384.196.837.294 1.357.294zm0-1.152a1.47 1.47 0 0 1-.737-.174 1.351 1.351 0 0 1-.498-.498 2.356 2.356 0 0 1-.276-.774 5.48 5.48 0 0 1-.084-1.002v-1.464c0-.368.027-.702.084-1.002.056-.3.148-.558.276-.774.128-.216.294-.382.498-.498a1.47 1.47 0 0 1 .738-.174c.288 0 .534.058.738.174.204.116.37.282.498.498.128.216.22.474.276.774.055.3.084.634.084 1.002v1.464c0 .368-.029.702-.084 1.002-.056.3-.148.558-.276.774a1.351 1.351 0 0 1-.498.498 1.47 1.47 0 0 1-.738.174zm8.52 1.152c1.04 0 1.806-.38 2.299-1.14.492-.76.738-1.824.738-3.192s-.246-2.432-.738-3.192c-.492-.76-1.258-1.14-2.298-1.14-.52 0-.973.098-1.357.294a2.5 2.5 0 0 0-.948.846c-.247.368-.431.822-.552 1.362-.12.54-.18 1.15-.18 1.83 0 .688.06 1.3.18 1.836s.305.988.552 1.356a2.5 2.5 0 0 0 .948.846c.384.196.837.294 1.357.294zm0-1.152a1.47 1.47 0 0 1-.737-.174 1.351 1.351 0 0 1-.498-.498 2.356 2.356 0 0 1-.276-.774 5.48 5.48 0 0 1-.084-1.002v-1.464c0-.368.027-.702.084-1.002.056-.3.148-.558.276-.774.128-.216.294-.382.498-.498a1.47 1.47 0 0 1 .738-.174c.287 0 .533.058.737.174.205.116.37.282.498.498.128.216.22.474.276.774.056.3.084.634.084 1.002v1.464c0 .368-.028.702-.084 1.002-.056.3-.148.558-.276.774a1.351 1.351 0 0 1-.498.498 1.47 1.47 0 0 1-.737.174zm8.4 1.008 2.953-7.2v-1.176h-5.676v2.664h1.163v-1.548h3.169l-3.036 7.26h1.428zm8.64.144c1.04 0 1.806-.38 2.299-1.14.492-.76.738-1.824.738-3.192s-.247-2.432-.739-3.192c-.492-.76-1.258-1.14-2.297-1.14-.52 0-.973.098-1.357.294a2.5 2.5 0 0 0-.948.846c-.248.368-.431.822-.552 1.362-.12.54-.18 1.15-.18 1.83 0 .688.06 1.3.18 1.836s.304.988.552 1.356a2.5 2.5 0 0 0 .948.846c.384.196.836.294 1.356.294zm0-1.152a1.47 1.47 0 0 1-.737-.174 1.351 1.351 0 0 1-.498-.498 2.356 2.356 0 0 1-.276-.774 5.48 5.48 0 0 1-.084-1.002v-1.464c0-.368.028-.702.084-1.002.055-.3.148-.558.276-.774.128-.216.294-.382.498-.498a1.47 1.47 0 0 1 .737-.174c.289 0 .535.058.739.174.203.116.37.282.497.498.128.216.22.474.276.774.056.3.085.634.085 1.002v1.464c0 .368-.029.702-.084 1.002-.056.3-.149.558-.277.774a1.351 1.351 0 0 1-.498.498 1.47 1.47 0 0 1-.737.174zm8.46 1.152c.473 0 .895-.07 1.267-.21.371-.14.685-.336.941-.588a2.47 2.47 0 0 0 .583-.906c.131-.352.197-.736.197-1.152 0-.408-.063-.774-.191-1.098a2.34 2.34 0 0 0-.535-.822 2.351 2.351 0 0 0-.803-.516 2.736 2.736 0 0 0-1.003-.18c-.24 0-.447.026-.623.078a1.582 1.582 0 0 0-.468.222c-.136.096-.257.21-.36.342a3.662 3.662 0 0 0-.3.45h-.084l.215-2.964h3.72v-1.176h-4.752l-.312 4.668 1.116.156c.152-.168.337-.32.552-.456.216-.136.505-.204.864-.204.496 0 .879.136 1.147.408.268.272.402.648.402 1.128v.144c0 .48-.134.856-.402 1.128-.268.272-.65.408-1.146.408a2.08 2.08 0 0 1-.618-.084 1.671 1.671 0 0 1-.486-.24 2.05 2.05 0 0 1-.384-.36 4.164 4.164 0 0 1-.325-.456l-.983.78a4.7 4.7 0 0 0 .438.558 2.826 2.826 0 0 0 1.337.816c.288.084.62.126.996.126zm8.46-.144 2.953-7.2v-1.176h-5.676v2.664h1.164v-1.548h3.168l-3.037 7.26h1.428zm7.368 0v-6.408h.06l.66 1.356 1.837 3.348 1.835-3.348.66-1.356h.06v6.408h1.297v-8.376h-1.536l-2.245 4.26h-.072l-2.243-4.26h-1.609v8.376h1.297zm15.54 0v-1.128h-2.04v-7.248h-2.064l-2.135 2.316.828.744 1.944-2.076h.096v6.264h-2.352v1.128h5.724zm5.34.144c.489 0 .919-.062 1.29-.186.373-.124.684-.294.936-.51a2.16 2.16 0 0 0 .577-.768 2.33 2.33 0 0 0 .198-.96c0-.56-.154-1.01-.463-1.35-.307-.34-.713-.578-1.217-.714v-.096a2.237 2.237 0 0 0 1.038-.72c.26-.328.39-.732.39-1.212 0-.32-.063-.612-.187-.876a1.907 1.907 0 0 0-.533-.678 2.509 2.509 0 0 0-.864-.438 4.019 4.019 0 0 0-1.165-.156c-.431 0-.82.052-1.163.156-.344.104-.632.25-.865.438-.232.188-.41.414-.534.678a2.035 2.035 0 0 0-.186.876c0 .48.13.884.39 1.212.26.328.606.568 1.038.72v.096c-.504.136-.91.374-1.218.714-.308.34-.462.79-.462 1.35 0 .344.067.664.199.96.132.296.324.552.576.768.251.216.564.386.936.51.372.124.802.186 1.29.186zm0-5.016c-.463 0-.817-.1-1.061-.3-.245-.2-.367-.492-.367-.876v-.204c0-.384.123-.676.367-.876.243-.2.597-.3 1.061-.3.465 0 .819.1 1.063.3.243.2.365.492.365.876V139c0 .384-.121.676-.365.876-.245.2-.599.3-1.063.3zm0 3.924c-.504 0-.894-.116-1.17-.348-.275-.232-.413-.556-.413-.972v-.24c0-.416.138-.74.413-.972.276-.232.666-.348 1.17-.348.505 0 .895.116 1.17.348.276.232.415.556.415.972v.24c0 .416-.139.74-.415.972-.275.232-.665.348-1.17.348zm11.7.948v-1.128h-2.04v-7.248h-2.063l-2.136 2.316.828.744 1.944-2.076h.096v6.264h-2.353v1.128h5.725zm8.233 0v-1.152h-4.225l1.969-1.692c.272-.24.53-.476.773-.708.245-.232.459-.476.642-.732.184-.256.329-.528.433-.816.103-.288.156-.6.156-.936 0-.36-.06-.692-.18-.996a2.2 2.2 0 0 0-.523-.786 2.392 2.392 0 0 0-.846-.516 3.276 3.276 0 0 0-1.14-.186c-.424 0-.793.056-1.11.168a2.68 2.68 0 0 0-1.398 1.11 3.577 3.577 0 0 0-.36.762l1.188.456a2.42 2.42 0 0 1 .199-.516c.083-.16.19-.3.317-.42.129-.12.278-.214.45-.282.172-.068.374-.102.606-.102.416 0 .746.116.99.348.244.232.366.552.366.96v.156c0 .384-.114.75-.342 1.098-.228.348-.554.714-.978 1.098l-2.675 2.388v1.296h5.688zm5.28.144c.447 0 .855-.058 1.224-.174.368-.116.681-.282.942-.498.26-.216.462-.474.605-.774.144-.3.216-.634.216-1.002 0-.304-.046-.574-.138-.81a1.902 1.902 0 0 0-.935-1.032 2.616 2.616 0 0 0-.678-.234v-.06c.216-.048.422-.124.618-.228a1.834 1.834 0 0 0 .864-.972c.084-.216.126-.456.126-.72 0-.336-.069-.638-.204-.906a2.022 2.022 0 0 0-.565-.684 2.496 2.496 0 0 0-.863-.426 3.961 3.961 0 0 0-1.092-.144c-.352 0-.664.038-.936.114a3.187 3.187 0 0 0-.733.3c-.215.124-.403.27-.564.438-.16.168-.303.344-.431.528l.9.78c.192-.32.427-.57.707-.75.28-.18.62-.27 1.02-.27.409 0 .733.102.972.306.24.204.36.498.36.882v.084c0 .344-.123.626-.371.846-.249.22-.633.33-1.153.33h-.852v1.152h.888c.529 0 .937.112 1.225.336.287.224.431.552.431.984v.084c0 .432-.136.77-.407 1.014-.273.244-.665.366-1.177.366a2.25 2.25 0 0 1-.641-.084 1.823 1.823 0 0 1-.9-.594 4.13 4.13 0 0 1-.33-.462l-.997.78c.128.192.278.378.45.558a2.983 2.983 0 0 0 1.387.816c.296.084.64.126 1.032.126zm12.047-.144v-1.128h-2.04v-7.248h-2.063l-2.136 2.316.828.744 1.943-2.076h.096v6.264h-2.352v1.128h5.725zm5.28.144c.473 0 .895-.07 1.267-.21.371-.14.685-.336.941-.588a2.47 2.47 0 0 0 .583-.906c.131-.352.197-.736.197-1.152 0-.408-.063-.774-.191-1.098a2.34 2.34 0 0 0-.535-.822 2.351 2.351 0 0 0-.803-.516 2.736 2.736 0 0 0-1.002-.18c-.24 0-.449.026-.625.078a1.582 1.582 0 0 0-.468.222c-.135.096-.255.21-.36.342a3.662 3.662 0 0 0-.3.45h-.083l.215-2.964h3.72v-1.176h-4.751l-.313 4.668 1.117.156c.151-.168.335-.32.552-.456.216-.136.504-.204.864-.204.495 0 .877.136 1.145.408.268.272.403.648.403 1.128v.144c0 .48-.135.856-.403 1.128-.268.272-.65.408-1.145.408a2.08 2.08 0 0 1-.618-.084 1.671 1.671 0 0 1-.487-.24 2.05 2.05 0 0 1-.383-.36 4.164 4.164 0 0 1-.325-.456l-.983.78a4.7 4.7 0 0 0 .438.558 2.826 2.826 0 0 0 1.338.816c.287.084.62.126.995.126zm7.309-.144v-6.408h.06l.66 1.356 1.835 3.348 1.837-3.348.66-1.356h.06v6.408h1.296v-8.376h-1.536l-2.244 4.26h-.072l-2.244-4.26h-1.608v8.376h1.296zm15.156 0v-1.2h-4.008V141.4h3.635v-1.2h-3.636v-2.328h4.008v-1.2h-5.363v8.376h5.364zm3.792 0 2.004-3.336h.035l2.028 3.336h1.596l-2.748-4.296 2.64-4.08h-1.5l-1.931 3.12h-.024l-1.908-3.12h-1.596l2.615 4.092-2.712 4.284h1.5zm13.284.096V143.8l-3.589-2.16v-.084l3.589-2.148v-1.344l-4.897 3.048v.984l4.897 3.048zm6.071.048c1.04 0 1.806-.38 2.298-1.14.492-.76.738-1.824.738-3.192s-.246-2.432-.738-3.192c-.492-.76-1.258-1.14-2.298-1.14-.52 0-.972.098-1.356.294a2.5 2.5 0 0 0-.947.846c-.248.368-.432.822-.552 1.362-.12.54-.18 1.15-.18 1.83 0 .688.06 1.3.18 1.836s.304.988.552 1.356a2.5 2.5 0 0 0 .948.846c.383.196.835.294 1.356.294zm0-1.152a1.47 1.47 0 0 1-.738-.174 1.351 1.351 0 0 1-.498-.498 2.356 2.356 0 0 1-.275-.774 5.48 5.48 0 0 1-.084-1.002v-1.464c0-.368.027-.702.083-1.002.056-.3.148-.558.276-.774.129-.216.294-.382.499-.498a1.47 1.47 0 0 1 .738-.174c.288 0 .534.058.738.174.204.116.37.282.498.498.127.216.22.474.275.774.056.3.084.634.084 1.002v1.464c0 .368-.027.702-.083 1.002-.056.3-.148.558-.276.774a1.351 1.351 0 0 1-.499.498 1.47 1.47 0 0 1-.738.174zm11.412 1.008v-1.152h-4.224l1.969-1.692c.272-.24.53-.476.774-.708.244-.232.458-.476.642-.732s.328-.528.431-.816c.105-.288.156-.6.156-.936 0-.36-.06-.692-.18-.996a2.2 2.2 0 0 0-.522-.786 2.392 2.392 0 0 0-.846-.516 3.276 3.276 0 0 0-1.14-.186c-.423 0-.793.056-1.11.168a2.68 2.68 0 0 0-1.398 1.11 3.577 3.577 0 0 0-.36.762l1.189.456a2.42 2.42 0 0 1 .198-.516c.084-.16.19-.3.317-.42.129-.12.279-.214.45-.282.173-.068.375-.102.607-.102.416 0 .746.116.99.348.244.232.365.552.365.96v.156c0 .384-.114.75-.342 1.098-.227.348-.553.714-.977 1.098l-2.677 2.388v1.296h5.689zm8.077.096V143.8l-3.588-2.16v-.084l3.588-2.148v-1.344l-4.896 3.048v.984l4.895 3.048zm8.52 0V143.8l-3.589-2.16v-.084l3.589-2.148v-1.344l-4.897 3.048v.984l4.897 3.048zm9.251-.096v-1.128h-2.04v-7.248h-2.064l-2.135 2.316.828.744 1.944-2.076h.096v6.264h-2.352v1.128h5.724zm8.232 0v-1.152h-4.224l1.968-1.692c.273-.24.53-.476.774-.708.244-.232.458-.476.642-.732.185-.256.328-.528.433-.816.103-.288.156-.6.156-.936 0-.36-.06-.692-.18-.996a2.2 2.2 0 0 0-.522-.786 2.392 2.392 0 0 0-.846-.516 3.276 3.276 0 0 0-1.14-.186c-.425 0-.794.056-1.11.168a2.68 2.68 0 0 0-1.398 1.11 3.577 3.577 0 0 0-.36.762l1.188.456a2.42 2.42 0 0 1 .197-.516c.084-.16.19-.3.319-.42.127-.12.278-.214.45-.282.171-.068.373-.102.605-.102.417 0 .746.116.99.348.244.232.367.552.367.96v.156c0 .384-.114.75-.343 1.098-.228.348-.554.714-.978 1.098l-2.675 2.388v1.296h5.688zm5.28.144c.448 0 .856-.058 1.225-.174.368-.116.681-.282.941-.498.26-.216.463-.474.607-.774.143-.3.215-.634.215-1.002 0-.304-.046-.574-.137-.81a1.902 1.902 0 0 0-.936-1.032 2.616 2.616 0 0 0-.678-.234v-.06c.215-.048.422-.124.618-.228a1.834 1.834 0 0 0 .864-.972c.083-.216.125-.456.125-.72 0-.336-.067-.638-.203-.906a2.022 2.022 0 0 0-.564-.684 2.496 2.496 0 0 0-.864-.426 3.961 3.961 0 0 0-1.093-.144c-.352 0-.663.038-.936.114a3.187 3.187 0 0 0-.732.3c-.215.124-.404.27-.564.438-.16.168-.304.344-.431.528l.9.78c.191-.32.428-.57.708-.75.28-.18.62-.27 1.02-.27.407 0 .731.102.971.306.24.204.36.498.36.882v.084c0 .344-.124.626-.371.846-.248.22-.632.33-1.153.33h-.851v1.152h.887c.529 0 .936.112 1.225.336.287.224.431.552.431.984v.084c0 .432-.136.77-.407 1.014-.273.244-.665.366-1.177.366a2.25 2.25 0 0 1-.642-.084 1.823 1.823 0 0 1-.9-.594 4.13 4.13 0 0 1-.33-.462l-.995.78c.127.192.277.378.45.558a2.983 2.983 0 0 0 1.386.816c.296.084.64.126 1.031.126zm10.86-.144v-1.632h1.14v-1.068h-1.14v-5.676h-1.775l-3.397 5.58v1.164h3.889v1.632h1.284zm-1.283-2.7h-2.737l2.653-4.44h.084v4.44zm7.751 2.844c.472 0 .894-.07 1.267-.21.371-.14.685-.336.941-.588a2.47 2.47 0 0 0 .582-.906c.132-.352.198-.736.198-1.152 0-.408-.064-.774-.192-1.098a2.34 2.34 0 0 0-.534-.822 2.351 2.351 0 0 0-.804-.516 2.736 2.736 0 0 0-1.001-.18c-.24 0-.448.026-.625.078a1.582 1.582 0 0 0-.468.222c-.136.096-.256.21-.36.342a3.662 3.662 0 0 0-.3.45h-.084l.216-2.964h3.72v-1.176h-4.751l-.313 4.668 1.117.156c.152-.168.336-.32.552-.456.215-.136.504-.204.863-.204.496 0 .879.136 1.147.408.268.272.401.648.401 1.128v.144c0 .48-.133.856-.401 1.128-.268.272-.65.408-1.147.408a2.08 2.08 0 0 1-.618-.084 1.671 1.671 0 0 1-.486-.24 2.05 2.05 0 0 1-.383-.36 4.164 4.164 0 0 1-.325-.456l-.983.78a4.7 4.7 0 0 0 .438.558 2.826 2.826 0 0 0 1.338.816c.287.084.62.126.995.126zm11.028-.048V143.8l-3.587-2.16v-.084l3.587-2.148v-1.344l-4.895 3.048v.984l4.895 3.048zm5.952-.096 2.952-7.2v-1.176h-5.675v2.664h1.163v-1.548h3.168l-3.036 7.26h1.428zM15.678 158.193c.64 0 1.154-.134 1.543-.402.387-.268.625-.606.713-1.014h.049v1.272h1.188v-4.464h-3.037v1.164h1.729v.648c0 .264-.055.494-.162.69-.108.196-.253.36-.433.492s-.39.232-.63.3a2.76 2.76 0 0 1-.756.102c-.663 0-1.197-.212-1.601-.636-.405-.424-.607-1.024-.607-1.8v-1.368c0-.776.203-1.376.607-1.8.403-.424.938-.636 1.601-.636.513 0 .937.122 1.272.366.337.244.584.562.744.954l1.105-.648a3.332 3.332 0 0 0-1.212-1.386c-.52-.332-1.157-.498-1.909-.498-.551 0-1.051.094-1.5.282a3.094 3.094 0 0 0-1.152.834c-.32.368-.568.822-.744 1.362-.176.54-.264 1.158-.264 1.854 0 .704.087 1.326.258 1.866.172.54.412.992.72 1.356.309.364.675.64 1.099.828.424.188.883.282 1.38.282zm9.936 0c.544 0 1.038-.094 1.482-.282a3.082 3.082 0 0 0 1.14-.828c.316-.364.56-.816.732-1.356.172-.54.259-1.162.259-1.866 0-.704-.087-1.326-.259-1.866-.171-.54-.416-.992-.732-1.356a3.082 3.082 0 0 0-1.14-.828 3.765 3.765 0 0 0-1.482-.282c-.544 0-1.038.094-1.482.282a3.082 3.082 0 0 0-1.14.828c-.316.364-.56.816-.732 1.356-.172.54-.258 1.162-.258 1.866 0 .704.087 1.326.259 1.866.172.54.416.992.732 1.356.316.364.696.64 1.14.828.444.188.938.282 1.482.282zm0-1.212c-.328 0-.623-.056-.887-.168a1.871 1.871 0 0 1-.678-.486 2.246 2.246 0 0 1-.439-.774 3.178 3.178 0 0 1-.155-1.032v-1.32c0-.384.052-.728.155-1.032.105-.304.25-.562.439-.774.188-.212.413-.374.678-.486.264-.112.56-.168.887-.168.32 0 .614.056.883.168.268.112.495.274.683.486.189.212.335.47.439.774.104.304.155.648.155 1.032v1.32c0 .384-.052.728-.155 1.032-.104.304-.25.562-.439.774a1.86 1.86 0 0 1-.683.486 2.265 2.265 0 0 1-.883.168zm7.92 1.068v-6.408h.06l.66 1.356 1.837 3.348 1.835-3.348.66-1.356h.06v6.408h1.297v-8.376h-1.536l-2.244 4.26h-.072l-2.245-4.26H32.24v8.376h1.296zm15.157 0v-1.2h-4.009V154.4h3.636v-1.2h-3.636v-2.328h4.008v-1.2h-5.363v8.376h5.364zm8.688 0v-1.2h-4.68l4.547-5.964v-1.212h-5.832v1.2h4.308l-4.547 5.964v1.212h6.204zm7.812.096V156.8l-3.589-2.16v-.084l3.589-2.148v-1.344l-4.897 3.048v.984l4.897 3.048zm7.007-.096 2.785-8.376h-1.368l-1.332 4.14-.817 2.916h-.047l-.804-2.916-1.332-4.14h-1.404l2.747 8.376h1.572zm10.717 0v-1.2h-4.009V154.4h3.636v-1.2h-3.636v-2.328h4.008v-1.2H77.55v8.376h5.365zm7.835 0v-1.2h-3.407v-7.176h-1.356v8.376h4.764zm3.54 0 .732-2.268h3.132l.757 2.268h1.415l-2.855-8.376h-1.705l-2.856 8.376h1.38zm3.528-3.432h-2.471l1.212-3.696h.06l1.2 3.696zm10.74 3.432v-1.2h-4.68l4.549-5.964v-1.212h-5.833v1.2h4.309l-4.549 5.964v1.212h6.204zm7.848 2.076v-1.128h-1.284v-.864c.888-.152 1.593-.59 2.112-1.314.52-.724.78-1.71.78-2.958 0-.704-.085-1.326-.257-1.866s-.416-.992-.733-1.356a3.082 3.082 0 0 0-1.14-.828 3.765 3.765 0 0 0-1.481-.282c-.544 0-1.038.094-1.483.282a3.082 3.082 0 0 0-1.14.828c-.316.364-.56.816-.731 1.356-.173.54-.259 1.162-.259 1.866 0 .64.072 1.214.216 1.722.144.508.349.942.612 1.302.264.36.585.648.96.864.376.216.8.352 1.272.408v.636c0 .408.11.732.33.972.22.24.566.36 1.038.36h1.188zm-2.004-3.144c-.328 0-.624-.056-.888-.168a1.871 1.871 0 0 1-.677-.486 2.246 2.246 0 0 1-.439-.774 3.178 3.178 0 0 1-.155-1.032v-1.32c0-.384.052-.728.156-1.032.103-.304.25-.562.438-.774.188-.212.413-.374.677-.486.264-.112.56-.168.889-.168.32 0 .613.056.881.168.268.112.496.274.684.486.188.212.334.47.438.774.104.304.156.648.156 1.032v1.32c0 .384-.052.728-.156 1.032-.104.304-.25.562-.438.774a1.86 1.86 0 0 1-.684.486 2.265 2.265 0 0 1-.882.168zm9.709 1.212c.575 0 1.061-.072 1.457-.216.397-.144.719-.362.966-.654.248-.292.428-.662.54-1.11.112-.448.169-.98.169-1.596v-4.944h-1.332v5.16c0 .712-.136 1.248-.409 1.608-.271.36-.736.54-1.391.54-.657 0-1.12-.18-1.392-.54-.272-.36-.408-.896-.408-1.608v-5.16h-1.333v4.944c0 .616.056 1.148.169 1.596.111.448.291.818.54 1.11.248.292.57.51.966.654.395.144.881.216 1.457.216zm11.831-.144v-1.2h-4.007V154.4h3.636v-1.2h-3.636v-2.328h4.007v-1.2h-5.364v8.376h5.364zm8.689 0v-1.2h-4.68l4.548-5.964v-1.212h-5.832v1.2h4.308l-4.548 5.964v1.212h6.204zm7.811.096V156.8l-3.588-2.16v-.084l3.588-2.148v-1.344l-4.895 3.048v.984l4.895 3.048zm4.8-.096v-6.408h.06l.66 1.356 1.837 3.348 1.835-3.348.66-1.356h.06v6.408h1.296v-8.376h-1.536l-2.244 4.26h-.072l-2.244-4.26h-1.608v8.376h1.297zm10.405 0 .732-2.268h3.132l.756 2.268h1.416l-2.856-8.376h-1.704l-2.856 8.376h1.38zm3.528-3.432h-2.473l1.213-3.696h.06l1.2 3.696zm6.48 3.432v-3.384h1.667l1.68 3.384h1.512l-1.812-3.528c.536-.16.942-.438 1.219-.834.275-.396.413-.894.413-1.494 0-.776-.215-1.39-.648-1.842-.431-.452-1.024-.678-1.775-.678h-3.613v8.376h1.357zm2.16-4.524h-2.16v-2.664h2.16c.344 0 .612.09.804.27.191.18.287.438.287.774v.576c0 .336-.096.594-.287.774-.192.18-.46.27-.804.27zm8.627 4.668c.64 0 1.154-.134 1.542-.402.388-.268.626-.606.714-1.014h.048v1.272h1.189v-4.464h-3.036v1.164h1.727v.648c0 .264-.054.494-.162.69-.107.196-.251.36-.431.492s-.39.232-.63.3a2.76 2.76 0 0 1-.756.102c-.665 0-1.198-.212-1.602-.636-.404-.424-.606-1.024-.606-1.8v-1.368c0-.776.202-1.376.606-1.8.404-.424.938-.636 1.602-.636.512 0 .936.122 1.272.366.335.244.583.562.743.954l1.105-.648a3.332 3.332 0 0 0-1.213-1.386c-.52-.332-1.155-.498-1.907-.498-.552 0-1.052.094-1.5.282a3.094 3.094 0 0 0-1.153.834c-.32.368-.567.822-.744 1.362-.175.54-.263 1.158-.263 1.854 0 .704.085 1.326.257 1.866.173.54.412.992.72 1.356.309.364.674.64 1.099.828.424.188.883.282 1.38.282zm7.308-.144.732-2.268h3.132l.756 2.268h1.416l-2.856-8.376h-1.704l-2.856 8.376h1.38zm3.529-3.432h-2.472l1.212-3.696h.06l1.2 3.696zm6.48 3.432v-3.384h1.668l1.68 3.384h1.512l-1.813-3.528c.536-.16.942-.438 1.218-.834.276-.396.415-.894.415-1.494 0-.776-.216-1.39-.648-1.842-.433-.452-1.024-.678-1.776-.678h-3.612v8.376h1.356zm2.16-4.524h-2.16v-2.664h2.16c.343 0 .611.09.803.27.192.18.288.438.288.774v.576c0 .336-.095.594-.287.774-.193.18-.46.27-.805.27zm8.951 4.524v-1.104h-1.151v-6.168h1.151v-1.104h-3.648v1.104h1.14v6.168h-1.14v1.104h3.648zm6.06 0v-7.176h2.496v-1.2h-6.347v1.2h2.495v7.176h1.356zm4.969 0 .732-2.268h3.131l.756 2.268h1.417l-2.857-8.376h-1.703l-2.857 8.376h1.38zm3.528-3.432h-2.472l1.212-3.696h.06l1.2 3.696zm10.14 3.528V156.8l-3.589-2.16v-.084l3.588-2.148v-1.344l-4.895 3.048v.984l4.895 3.048zm8.52 0V156.8l-3.588-2.16v-.084l3.588-2.148v-1.344l-4.897 3.048v.984l4.897 3.048zm8.52 0V156.8l-3.589-2.16v-.084l3.588-2.148v-1.344l-4.895 3.048v.984l4.895 3.048zm8.52 0V156.8l-3.589-2.16v-.084l3.589-2.148v-1.344l-4.897 3.048v.984l4.897 3.048z" fill="#000" fill-rule="nonzero"/>
        <path stroke="#000" fill="#FFF" d="M235 28h7v7h-7zM235 52h7v7h-7zM259 28h7v7h-7z"/>
        <path fill="#000" d="M237 30h3v3h-3zM237 54h3v3h-3zM261 30h3v3h-3zM235 46.535h3.474v3.474H235zM259 46.535h3.474v3.474H259zM259 56.535h3.474v3.474H259zM244.267 37.267h3.474v3.474h-3.474zM249.267 37.267h3.474v3.474h-3.474zM254.267 37.267h3.474v3.474h-3.474zM244 42h3.474v3.474H244zM249 42h3.474v3.474H249zM254 42h3.474v3.474H254zM244 47h3.474v3.474H244zM254 47h3.474v3.474H254zM244 52h3.474v3.474H244zM249 52h3.474v3.474H249zM254 52h3.474v3.474H254zM249 57h3.474v3.474H249zM254 57h3.474v3.474H254zM235 42h3.474v3.474H235zM249.263 32.634h3.474v3.474h-3.474zM239.634 37.267h3.474v3.474h-3.474zM263.634 37.267h3.474v3.474h-3.474zM239.632 46.535h3.474v3.474h-3.474zM263.632 46.535h3.474v3.474h-3.474zM263.632 51.535h3.474v3.474h-3.474zM263.632 56.535h3.474v3.474h-3.474zM235 37.267h3.474v3.474H235zM259 37.267h3.474v3.474H259zM244.263 28h3.474v3.474h-3.474zM249.263 28h3.474v3.474h-3.474zM254.263 28h3.474v3.474h-3.474z"/>
        <path stroke="red" stroke-width="4" d="M232 120h38v17h-38z"/>
    </g>
</svg>
