<?xml version="1.0" encoding="UTF-8"?>
<svg width="397px" height="108px" viewBox="0 0 397 108" version="1.1" xmlns="http://www.w3.org/2000/svg" xmlns:xlink="http://www.w3.org/1999/xlink">
    <!-- Generator: Sketch 64 (93537) - https://sketch.com -->
    <title>kelderv</title>
    <desc>Created with Sketch.</desc>
    <g id="Page-1" stroke="none" stroke-width="1" fill="none" fill-rule="evenodd">
        <g id="kelderv">
            <path d="M363.169306,-2.5447002e-13 C381.532104,-2.5447002e-13 396.556974,15.3623005 396.556974,34.1363938 L396.556974,73.5452021 C396.556974,92.3192953 381.530984,107.681596 363.169306,107.681596 L33.3871088,107.681596 C15.0248705,107.681596 3.1490665e-12,92.3198549 3.1490665e-12,73.5452021 L3.1490665e-12,-2.5447002e-13 L363.169306,-2.5447002e-13 Z" id="Fill-298" fill="#DB0D15"></path>
            <path d="M380.053063,33.9904539 C379.718991,33.9904539 364.598991,33.994371 364.27555,34.0005264 C354.581851,34.1885472 348.518182,37.2215005 344.592131,44.6225782 L344.084587,35.4173969 L320.623965,35.4173969 L320.623965,69.5677803 C320.623965,81.7415627 328.638908,94.1514902 343.253602,94.1514902 L346.367136,94.1514902 L346.367136,75.6113036 C346.367136,67.0076767 350.160006,60.5959461 356.631053,58.317314 C370.036483,53.5966508 380.053063,50.750599 380.053063,33.9904539" id="Fill-299" fill="#FEFEFE"></path>
            <path d="M183.529772,76.4268435 C179.345192,75.2595482 176.935617,73.0564601 176.935617,67.3509264 L176.935617,16.0408539 L151.700549,16.0408539 L151.700549,68.5182218 C151.700549,84.5956725 162.986829,94.9675896 174.780093,94.9675896 L183.529772,76.4268435 Z" id="Fill-300" fill="#FEFEFE"></path>
            <path d="M155.109768,58.4151855 L155.109768,58.4151855 C147.704773,69.2392477 141.326058,76.5563876 125.133333,76.5563876 C117.524649,76.5563876 113.212483,73.8345637 111.0564,70.4630611 C123.317478,70.4630611 143.900711,73.9403254 143.900711,55.4225223 C143.900711,42.3259834 133.62896,31.0458591 117.524649,31.0458591 C99.1366694,31.0458591 86.5818093,43.8833098 86.5818093,62.1649679 C86.5818093,82.001714 101.67327,94.4491337 122.34212,94.4491337 C141.335571,94.4491337 148.65383,88.2091959 157.413581,77.7947503 L155.109768,58.4151855 Z M122.723198,55.0336104 C122.723198,55.4225223 122.596732,55.6816104 122.596732,56.0699627 L109.281395,56.0699627 C110.422949,51.9211959 112.705498,48.9391648 117.017105,48.9391648 C120.440649,48.9391648 122.723198,51.2720767 122.723198,55.0336104 L122.723198,55.0336104 Z" id="Fill-301" fill="#FEFEFE"></path>
            <path d="M97.2785098,94.1513223 C90.5170383,89.7669699 85.5635876,84.5885658 82.1148622,78.7520891 L67.1006238,52.9266591 L87.5031109,16.0510943 L58.6033181,16.0510943 L43.5135358,43.4629492 L43.5135358,16.0287109 L16.502344,16.0287109 L16.502344,73.240172 C16.502344,85.7558611 25.6168725,94.1513223 41.4772041,94.1513223 L43.5135358,94.1513223 L43.5135358,64.7244 L54.0522093,83.2517161 C58.1103233,90.598514 66.4817223,94.7097886 78.6717326,94.1513223 L97.2785098,94.1513223 Z" id="Fill-302" fill="#FEFEFE"></path>
            <path d="M324.19205,58.4151855 L324.19205,58.4151855 C316.785936,69.2392477 310.409459,76.5563876 294.215615,76.5563876 C286.605811,76.5563876 282.294205,73.8345637 280.139241,70.4630611 C292.39976,70.4630611 312.983552,73.9403254 312.983552,55.4225223 C312.983552,42.3259834 302.711801,31.0458591 286.605811,31.0458591 C268.219511,31.0458591 255.664651,43.8833098 255.664651,62.1649679 C255.664651,82.001714 270.754433,94.4491337 291.426081,94.4491337 C310.418412,94.4491337 317.734993,88.2091959 326.495863,77.7947503 L324.19205,58.4151855 Z M291.80548,55.0336104 C291.80548,55.4225223 291.677894,55.6816104 291.677894,56.0699627 L278.364796,56.0699627 C279.505231,51.9211959 281.78778,48.9391648 286.100506,48.9391648 C289.522371,48.9391648 291.80548,51.2720767 291.80548,55.0336104 L291.80548,55.0336104 Z" id="Fill-303" fill="#FEFEFE"></path>
            <path d="M224.205202,69.7309554 L224.205202,69.7309554 C222.29142,71.0331109 220.126383,71.6855876 217.831523,71.6855876 C212.98887,71.6855876 209.547979,67.6453803 209.547979,62.8245513 C209.547979,58.0031627 212.98887,53.963515 217.831523,53.963515 C220.635606,53.963515 222.802321,54.7446964 224.205202,55.9181472 L224.205202,69.7309554 Z M248.929368,94.6862301 L248.929368,16.0627896 L224.205202,16.0627896 L224.205202,32.5929451 C222.548269,31.6813803 220.379876,31.4200539 217.067689,31.4200539 C198.843109,31.4200539 185.20601,44.3196187 185.20601,64.7791834 C185.20601,82.5006964 199.862114,94.620199 215.155026,94.620199 C221.017244,94.620199 226.626528,92.7948311 228.91915,89.0170694 C232.634798,93.769629 240.005658,94.9788933 248.929368,94.6862301 L248.929368,94.6862301 Z" id="Fill-304" fill="#FEFEFE"></path>
            <path d="M367.730711,86.1338052 L367.730711,86.1338052 L369.252224,86.1338052 C370.235416,86.1338052 370.85096,86.0907171 371.096618,86.0062197 C371.339478,85.9217223 371.534773,85.7739917 371.672431,85.5658259 C371.812327,85.3565409 371.881156,85.0952145 371.881156,84.7835254 C371.881156,84.4326653 371.788825,84.1511938 371.605281,83.9323959 C371.423416,83.717515 371.166006,83.5815358 370.833612,83.5261368 C370.665177,83.5031938 370.166027,83.4892041 369.335602,83.4892041 L367.730711,83.4892041 L367.730711,86.1338052 Z M366.542151,81.7326653 L366.542151,81.7326653 L369.99927,81.7326653 C371.085426,81.7326653 371.875561,81.8272352 372.369675,82.0130176 C372.864348,82.1999192 373.257177,82.5317534 373.553198,83.0079606 C373.849778,83.4875254 373.998628,84.0325617 373.998628,84.6486653 C373.998628,85.4287275 373.776473,86.0744891 373.328804,86.5825927 C372.879457,87.091256 372.211312,87.4102197 371.321571,87.5439606 C371.764763,87.808085 372.130172,88.0990694 372.415561,88.4157948 C372.704307,88.7336394 373.093219,89.2965824 373.581177,90.105743 L374.352286,91.3659295 C375.49384,90.2254943 376.202835,88.6345927 376.202835,86.8741368 C376.202835,83.4086238 373.454711,80.5978259 370.061944,80.5978259 C368.753633,80.5978259 367.538773,81.017515 366.542151,81.7326653 L366.542151,81.7326653 Z M365.670317,91.2601679 L365.670317,91.2601679 L365.670317,82.4897845 C364.589198,83.6207067 363.922732,85.1685202 363.922732,86.8741368 C363.922732,88.5814321 364.589198,90.1292456 365.670317,91.2601679 L365.670317,91.2601679 Z M371.783229,91.2562508 L371.783229,91.2562508 L371.792182,91.2512145 L370.891809,89.8645617 C370.365239,89.0570798 370.002628,88.5484166 369.806213,88.3380124 C369.610918,88.1298466 369.40611,87.9854736 369.188431,87.906572 C368.967395,87.8293492 368.620452,87.7901782 368.148162,87.7901782 L367.730711,87.7901782 L367.730711,92.1364788 L367.721758,92.1364788 L367.721758,92.6792767 C368.443623,92.9836912 369.233198,93.1521264 370.061944,93.1521264 C370.986939,93.1521264 371.861571,92.943401 372.647789,92.5695979 L371.783229,91.2562508 Z M370.061944,78.7791731 C374.434545,78.7791731 377.981198,82.4030487 377.981198,86.8741368 C377.981198,91.3469036 374.434545,94.9718984 370.061944,94.9718984 C365.690462,94.9718984 362.143809,91.3469036 362.143809,86.8741368 C362.143809,82.4030487 365.690462,78.7791731 370.061944,78.7791731 L370.061944,78.7791731 Z" id="Fill-305" fill="#FEFEFE"></path>
        </g>
    </g>
</svg>