<svg xmlns="http://www.w3.org/2000/svg" width="32" height="46" fill="none" viewBox="0 0 32 46">
    <path fill="#E3001B" d="M32 15.992c0 12.002-15.992 29.704-15.992 29.704S0 27.994 0 15.992C0 7.149 7.15 0 15.992 0 24.835 0 32 7.15 32 15.992z"/>
    <path fill="#fff" fill-rule="evenodd" d="M25.584 26.007c-1.596-1.042-2.785-2.264-3.6-3.648l-3.566-6.123 4.837-8.745H16.4l-3.583 6.498V7.475h-6.4V21.04c0 2.964 2.166 4.967 5.928 4.967h.489V19.02l2.508 4.397c.96 1.742 2.947 2.72 5.846 2.589h4.397z" clip-rule="evenodd"/>
</svg>
