<svg xmlns="http://www.w3.org/2000/svg" width="56" height="18" fill="none" viewBox="0 0 56 18">
    <g clip-path="url(#clip0)">
        <path fill="url(#paint0_linear)" d="M28.715 5.731c-.032 2.498 2.226 3.891 3.926 4.72 1.747.85 2.334 1.395 2.327 2.155-.013 1.164-1.394 1.678-2.686 1.697-2.253.035-3.564-.608-4.606-1.095l-.812 3.8c1.046.481 2.981.901 4.988.92 4.712 0 7.794-2.326 7.81-5.932.02-4.576-6.33-4.83-6.286-6.875.015-.62.607-1.282 1.904-1.45.642-.085 2.414-.15 4.423.775L40.49.77C39.411.376 38.022 0 36.293 0 31.86 0 28.74 2.357 28.715 5.73zM48.068.316c-.86 0-1.585.502-1.909 1.272l-6.73 16.07h4.708l.937-2.59h5.753l.544 2.59h4.15L51.898.316h-3.83zm.659 4.685l1.359 6.512h-3.721L48.727 5zM23.007.317l-3.711 17.34h4.486l3.71-17.34h-4.485zm-6.637 0L11.7 12.12 9.811 2.084C9.59.964 8.714.316 7.742.316H.11L.002.82c1.567.34 3.348.888 4.426 1.475.66.359.849.672 1.066 1.524L9.07 17.658h4.741L21.081.316H16.37"/>
    </g>
    <defs>
        <linearGradient id="paint0_linear" x1="25.526" x2="26.045" y1="18.287" y2="-.125" gradientUnits="userSpaceOnUse">
            <stop stop-color="#222357"/>
            <stop offset="1" stop-color="#254AA5"/>
        </linearGradient>
        <clipPath id="clip0">
            <path fill="#fff" d="M0 0H55.523V18H0z"/>
        </clipPath>
    </defs>
</svg>
