<svg width="72" height="36" viewBox="0 0 72 36" fill="none" xmlns="http://www.w3.org/2000/svg">
<path d="M36 3C31.032 3 27 7.032 27 12C27 16.968 31.032 21 36 21C40.968 21 45 16.968 45 12C45 7.032 40.968 3 36 3ZM31.563 17.652C31.95 16.842 34.308 16.05 36 16.05C37.692 16.05 40.059 16.842 40.437 17.652C39.213 18.624 37.674 19.2 36 19.2C34.326 19.2 32.787 18.624 31.563 17.652ZM41.724 16.347C40.437 14.781 37.314 14.25 36 14.25C34.686 14.25 31.563 14.781 30.276 16.347C29.3199 15.0995 28.8012 13.5718 28.8 12C28.8 8.031 32.031 4.8 36 4.8C39.969 4.8 43.2 8.031 43.2 12C43.2 13.638 42.642 15.141 41.724 16.347ZM36 6.6C34.254 6.6 32.85 8.004 32.85 9.75C32.85 11.496 34.254 12.9 36 12.9C37.746 12.9 39.15 11.496 39.15 9.75C39.15 8.004 37.746 6.6 36 6.6ZM36 11.1C35.253 11.1 34.65 10.497 34.65 9.75C34.65 9.003 35.253 8.4 36 8.4C36.747 8.4 37.35 9.003 37.35 9.75C37.35 10.497 36.747 11.1 36 11.1Z" fill="black" fill-opacity="0.54"/>
<path d="M32.3636 30.4V34H33.8036V30.4L36.8036 25.492H35.1836L33.1316 29.056L31.0916 25.492H29.3876L32.3636 30.4ZM39.2512 32.932C38.3992 32.932 37.6192 32.284 37.6192 31.072C37.6192 29.86 38.3992 29.236 39.2512 29.236C40.1152 29.236 40.8832 29.86 40.8832 31.072C40.8832 32.296 40.1152 32.932 39.2512 32.932ZM39.2512 27.976C37.5112 27.976 36.2272 29.284 36.2272 31.072C36.2272 32.872 37.5112 34.18 39.2512 34.18C41.0032 34.18 42.2872 32.872 42.2872 31.072C42.2872 29.284 41.0032 27.976 39.2512 27.976Z" fill="black" fill-opacity="0.54"/>
</svg>
