<svg xmlns="http://www.w3.org/2000/svg" width="24" height="24" fill="none" viewBox="0 0 24 24">
    <path fill="#000" d="M12 3c-4.968 0-9 4.032-9 9s4.032 9 9 9 9-4.032 9-9-4.032-9-9-9zM7.563 17.652c.387-.81 2.745-1.602 4.437-1.602 1.692 0 4.059.792 4.437 1.602-1.224.972-2.763 1.548-4.437 1.548-1.674 0-3.213-.576-4.437-1.548zm10.161-1.305c-1.287-1.566-4.41-2.097-5.724-2.097s-4.437.531-5.724 2.097C5.32 15.099 4.801 13.572 4.8 12c0-3.969 3.231-7.2 7.2-7.2 3.969 0 7.2 3.231 7.2 7.2 0 1.638-.558 3.141-1.476 4.347zM12 6.6c-1.746 0-3.15 1.404-3.15 3.15S10.254 12.9 12 12.9s3.15-1.404 3.15-3.15S13.746 6.6 12 6.6zm0 4.5c-.747 0-1.35-.603-1.35-1.35 0-.747.603-1.35 1.35-1.35.747 0 1.35.603 1.35 1.35 0 .747-.603 1.35-1.35 1.35z"/>
</svg>
