<svg xmlns="http://www.w3.org/2000/svg" width="16" height="16" viewBox="0 0 16 16">
    <g fill="none" fill-rule="evenodd">
        <g fill="#4CAF50" fill-rule="nonzero">
            <g>
                <g>
                    <g>
                        <path d="M13.755 2.245C12.307.797 10.383 0 8.335 0c-2.047 0-3.971.797-5.42 2.245C1.469 3.693.672 5.617.672 7.665c0 1.296.323 2.428.946 3.557L0 16l4.796-1.612c1.129.623 2.243.941 3.54.941 2.047 0 3.971-.797 5.42-2.245C15.202 11.636 16 9.712 16 7.664c0-2.047-.797-3.971-2.245-5.42zm-1.894 8.601l-.894.895c-.741.74-2.843-.16-4.695-2.013-1.853-1.852-2.754-3.954-2.013-4.695l.895-.894c.185-.185.485-.185.67 0l1.118 1.118c.185.185.185.485 0 .67l-.67.671c.65 1.374 1.756 2.48 3.13 3.13l.67-.67c.186-.186.486-.186.671 0l1.118 1.118c.185.185.185.485 0 .67z" transform="translate(-220 -1303) translate(16 1302) translate(204) translate(0 1)"/>
                    </g>
                </g>
            </g>
        </g>
    </g>
</svg>
