<?xml version="1.0" encoding="UTF-8"?>
<svg width="264px" height="108px" viewBox="0 0 264 108" version="1.1" xmlns="http://www.w3.org/2000/svg" xmlns:xlink="http://www.w3.org/1999/xlink">
    <!-- Generator: Sketch 64 (93537) - https://sketch.com -->
    <title>monederoazul</title>
    <desc>Created with Sketch.</desc>
    <g id="Page-1" stroke="none" stroke-width="1" fill="none" fill-rule="evenodd">
        <g id="monederoazul">
            <g id="credivalev">
                <path d="M43.2015139,107.178309 L25.7073696,107.120412 C18.0679469,107.094804 10.7551222,104.302392 5.75260669,98.3898557 C0.104689161,91.7146392 -1.11300156,82.8742268 0.920812872,74.5482062 L11.7356582,30.2726598 C15.6466685,14.2604536 31.147452,0.982762887 47.6981737,0.0593814433 L47.7386273,0 L51.080318,0.0107628866 L76.2205654,0.0616082474 L76.2098026,0.0942680412 L77.7422149,0.0990927835 L77.7485242,0.0797938144 L81.1109984,0.089443299 C133.178504,0.237525773 185.24638,0.399340206 237.314256,0.536659794 C251.608483,0.574515464 262.543947,10.4032577 263.008236,24.8348041 L263.008236,24.9082887 L263.008236,26.4967423 L263.008236,26.5479588 C262.958132,28.7599175 262.618545,30.954433 262.114916,33.106268 L262.109349,33.1292784 L261.238297,36.6851134 L259.051947,45.6461443 L257.653514,51.8362887 L257.656854,51.8362887 L254.620236,65.2746804 L254.524112,65.2746804 L251.278545,77.5109691 C247.86671,91.3976907 235.831205,103.009732 222.070297,106.567052 C219.481266,107.236206 216.844359,107.641856 214.168112,107.68899 L214.127658,107.689732 L214.087205,107.689732 L213.436607,107.689732 L209.44506,107.689361 L209.387535,107.728701 L195.466297,107.68268 C146.808401,107.521608 98.1501325,107.360907 49.4922356,107.20132 L43.2007716,107.180907 L43.2015139,107.178309 Z" id="Fill-200" fill="#FEFEFE"></path>
                <path d="M207.963493,103.119402 L195.481514,103.078206 C146.829184,103.031814 98.1497613,102.756062 49.507452,102.596474 L49.5081943,102.593876 L31.2183386,102.533381 L31.2183386,102.533381 L25.7225861,102.515196 C10.8831634,102.474742 1.77553452,90.4808041 5.39409122,75.6410103 L16.2093077,31.3654639 C19.8274933,16.5256701 34.7489366,4.5725567 49.5887304,4.61290793 L50.1695551,4.61412371 L50.1702974,4.61290793 L51.0714108,4.61597938 L69.8359469,4.65346392 L69.8277819,4.67795876 L81.0909572,4.71507216 L81.0976376,4.69465979 C133.166256,4.84237113 185.234132,5.01235052 237.30238,5.14187629 C249.662256,5.1823299 258.037266,13.5580825 258.403205,24.9819588 L258.403205,26.4457113 C258.36238,28.2754021 258.078091,30.1455464 257.630875,32.0565155 L256.764277,35.5937938 L254.569019,44.5930515 L251.891658,56.441134 L251.89537,56.441134 L250.939699,60.6694639 L250.936359,60.6694639 L250.678421,61.810701 L246.816401,76.3728866 C243.807617,88.6919381 232.992401,99.0187423 220.917555,102.108433 C218.681473,102.718577 216.404565,103.044062 214.087205,103.084515 L213.436978,103.084515 L209.167452,103.084515 L208.013968,103.084515 L207.963493,103.119402 Z" id="Fill-668" fill="#FEFEFE"></path>
                <path d="M68.4127222,67.3875835 C68.4531758,65.4357897 67.7216706,63.8094804 66.3391964,62.5086557 C65.7294232,61.8988825 64.6316087,61.1670062 63.1678562,60.3538515 L58.2484747,75.5595835 C60.6471139,75.2344701 62.6801861,74.5430474 64.4285984,73.4860577 C67.0306191,71.9002021 68.3722685,69.8270474 68.4127222,67.3875835" id="Fill-204" fill="#3091E5"></path>
                <path d="M38.8550149,100.279336 L38.6924582,100.279336 L42.5953036,88.0820165 L42.7174067,87.9602845 C37.0253242,87.6348 32.1875923,85.8863876 28.2843758,82.7558722 C24.4624376,79.6253567 22.5922933,75.8442433 22.6735716,71.5346351 C22.7143964,69.7049443 23.2020665,67.6722433 24.0152211,65.3140577 L43.3680046,65.2324082 C42.798685,66.4523258 42.4735716,67.3875835 42.4735716,68.1599134 C42.3922933,70.3959959 43.449283,72.2665113 45.6853654,73.6486144 C46.1734067,73.9737278 46.7019015,74.2587588 47.27085,74.5430474 L53.4917984,55.4749237 C51.8654892,54.6617691 50.076252,53.7677072 48.1656541,52.7916247 C45.481984,51.3686969 43.2462727,49.9457691 41.4570356,48.4411918 C37.309984,45.107666 35.277283,40.7976866 35.277283,35.512367 C35.3990149,29.0475835 38.4077984,23.8030887 44.1811593,19.6155835 C49.9953448,15.4277072 57.4354685,13.3953773 66.5831799,13.4358309 L66.9086644,13.4358309 L69.8357984,4.6536866 L49.5885819,4.61275948 C34.7487881,4.57240825 19.8273448,16.5255216 16.2091593,31.3653155 L5.3943139,75.6408619 C1.7757572,90.4810268 10.8830149,102.474594 25.7228087,102.515047 L38.1231386,102.556243 L38.8550149,100.279336 Z" id="Fill-206" fill="#3091E5"></path>
                <path d="M55.1992376,33.8452701 C55.1584129,35.8375175 56.3375057,37.7076619 58.736516,39.4560742 L62.9240211,26.6081567 C61.2164335,26.974466 59.7935057,27.5842392 58.5331345,28.4786722 C56.3783304,29.8611464 55.2396912,31.5683629 55.1992376,33.8452701" id="Fill-208" fill="#3091E5"></path>
                <path d="M237.302269,5.14180206 C185.234021,5.01227629 133.166145,4.84229691 81.0978974,4.69458557 L78.0482892,14.1674103 C83.7811964,15.1843175 88.2129077,17.0949155 91.4247015,20.0625031 C94.5960417,23.0712866 96.1410727,26.8524 96.0594232,31.2837402 C96.0189696,32.2193691 95.8972376,33.6419258 95.5312995,35.4716165 L76.0564129,35.4307918 C76.178516,34.7801938 76.178516,34.129967 76.2189696,33.4793691 C76.2597943,30.9994515 75.4058149,29.1293072 73.616949,27.9502144 L68.2095263,44.7009773 L68.7380211,44.985266 L77.8048252,49.5390804 C84.959918,53.1168124 88.3754644,58.1582969 88.2533613,64.9481938 C88.1724541,69.6641938 86.4648665,73.9738021 83.1714232,78.0804 C79.8375263,82.0648948 75.6091964,84.7478227 70.283052,86.2115753 C64.7538974,87.7974309 59.3869283,88.6514103 54.1012376,88.6514103 L54.0199593,88.6514103 L49.5073407,102.5964 C102.711258,102.771204 155.959341,103.084441 209.167341,103.084441 L213.436866,103.084441 L214.087093,103.084441 C216.404454,103.043988 218.681361,102.718503 220.917444,102.108359 C232.99266,99.018668 243.807506,88.6918639 246.816289,76.3728124 L250.678681,61.8106268 L254.682475,44.090833 L257.630763,32.0568124 C258.07798,30.1454722 258.36264,28.2753278 258.403093,26.4456371 L258.403093,24.9818845 C258.037526,13.5580082 249.662145,5.18225567 237.302269,5.14180206" id="Fill-667" fill="#3091E5"></path>
                <path d="M248.848916,16.1192784 L248.848916,16.1192784 L248.848916,16.4443918 C248.808462,16.8103299 248.726813,17.176268 248.645906,17.5013814 C248.523803,17.8264948 248.361246,18.1523505 248.198318,18.4774639 C247.344339,19.981299 245.718401,20.9978351 243.88871,20.9978351 L243.563596,20.9978351 C242.34405,20.9165567 241.245864,20.3880619 240.43271,19.5752784 C239.66038,18.721299 239.131885,17.6234845 239.09106,16.403567 L239.09106,16.1192784 L239.09106,15.7937938 C239.131885,15.4278557 239.213535,15.0619175 239.294442,14.736433 C239.416545,14.370866 239.579102,14.0453814 239.741658,13.7610928 C240.595638,12.2565155 242.221947,11.2403505 244.051266,11.2403505 L244.376751,11.2403505 C245.596297,11.3216289 246.694112,11.8501237 247.507266,12.6632784 C248.279596,13.476433 248.808462,14.614701 248.848916,15.8342474 L248.848916,16.1192784 Z M249.418236,15.7937938 C249.377411,14.4113196 248.808462,13.1914021 247.913658,12.2565155 C247.019596,11.3624536 245.799679,10.7523093 244.417205,10.6710309 C244.295473,10.6302062 244.17337,10.6302062 244.092091,10.6302062 C242.018565,10.6302062 240.189246,11.7688454 239.213535,13.476433 C239.050607,13.8015464 238.88805,14.1674845 238.766318,14.5738763 C238.643844,14.9398144 238.562565,15.3465773 238.521741,15.7533402 C238.521741,15.8754433 238.521741,15.9971753 238.481287,16.1192784 C238.481287,16.2005567 238.481287,16.3222887 238.521741,16.4443918 C238.562565,17.8264948 239.131885,19.0464124 240.026689,19.981299 C240.920751,20.8753608 242.140669,21.4855052 243.522772,21.5671546 L243.848256,21.5671546 C245.921782,21.6076082 247.751102,20.4285155 248.726813,18.7617526 C248.88937,18.3958144 249.052297,18.0298763 249.174029,17.6639381 C249.296504,17.2983711 249.377411,16.8916082 249.418236,16.4848454 C249.418236,16.3631134 249.418236,16.2410103 249.45906,16.1192784 C249.45906,16.0376289 249.45906,15.9155258 249.418236,15.7937938 L249.418236,15.7937938 Z" id="Fill-212" fill="#FEFEFE"></path>
                <path d="M244.823893,14.8993237 L244.823893,14.8993237 C244.742615,14.9806021 244.620512,15.0618804 244.49878,15.1030763 C244.295398,15.1435299 244.132842,15.1843546 244.010739,15.1843546 L243.970285,15.1843546 L243.116306,15.1843546 L243.156759,13.8827876 L244.010739,13.8827876 C244.376677,13.8827876 244.620512,13.9236124 244.742615,14.0453443 C244.864347,14.1674474 244.945996,14.3303753 244.945996,14.5333856 C244.945996,14.6554887 244.905172,14.7775918 244.823893,14.8993237 M246.165543,16.7290144 C246.043811,16.5660866 245.921708,16.4443546 245.880883,16.4035299 C245.759151,16.3222515 245.596594,16.2409732 245.352388,16.1596948 C245.637048,16.1192412 245.880883,16.0375918 246.043811,15.9154887 C246.328471,15.7533031 246.531481,15.5499216 246.694409,15.3064577 C246.856965,15.0214268 246.938244,14.736767 246.938244,14.3708289 C246.938244,13.964066 246.856965,13.598499 246.653584,13.3138392 C246.450203,13.0291794 246.206368,12.8257979 245.880883,12.7445196 C245.55577,12.6224165 245.108553,12.5819629 244.49878,12.5819629 L244.010739,12.5819629 L241.164883,12.5819629 L241.04278,19.0055505 L243.035027,19.0055505 L243.075852,16.4035299 L243.278862,16.4035299 C243.441419,16.4035299 243.603976,16.4443546 243.766904,16.525633 C243.848182,16.6069113 243.92946,16.7290144 244.010739,16.8915711 C244.051192,16.9323959 244.092017,16.9732206 244.092017,17.0541278 L245.108553,19.0055505 L247.385089,19.0055505 L246.450203,17.1354062 C246.409378,17.0541278 246.328471,16.9323959 246.165543,16.7290144" id="Fill-214" fill="#FEFEFE"></path>
            </g>
            <path d="M254.895184,47.4409485 L107.824792,47.4409485 C105.489617,47.4409485 103.596091,49.3344742 103.596091,51.6696495 L253.939514,51.6696495 L254.895184,47.4409485 Z" id="Fill-216" fill="#FEFEFE"></path>
            <path d="M107.835,40 L110.805,26.11 L113.535,40 L117.315,40 L125.715,25.93 L122.715,40 L127.365,40 L131.895,18.73 L124.995,18.73 L116.655,33.07 L113.745,18.73 L107.865,18.73 L103.365,40 L107.835,40 Z M139.1025,40.45 C144.0825,40.45 147.5325,36.34 147.5325,31.6 C147.5325,27.67 144.8325,24.64 140.6025,24.64 C136.0725,24.64 132.1725,28.15 132.1725,33.46 C132.1725,37.42 134.9625,40.45 139.1025,40.45 Z M139.4025,36.28 C137.8425,36.28 136.6725,35.17 136.6725,33.25 C136.6725,30.97 138.0825,28.81 140.2725,28.81 C141.8925,28.84 143.0025,29.83 143.0025,31.81 C143.0025,34.9 140.9625,36.28 139.4025,36.28 Z M153.51,40 L155.37,31.36 C155.7,29.86 156.6,28.75 158.01,28.75 C159.42,28.75 160.08,29.59 160.08,30.82 C160.08,31.06 160.05,31.48 159.9,32.11 L158.22,40 L162.78,40 L164.67,31.15 C164.79,30.58 164.85,30.04 164.85,29.5 C164.85,26.8 163.29,24.7 160.17,24.7 C158.76,24.7 157.11,25.24 156.18,26.5 C156.27,25.96 156.27,25.27 156.27,25.09 L151.83,25.09 C151.83,25.75 151.8,26.44 151.56,27.58 L148.95,40 L153.51,40 Z M173.9775,40.45 C177.6375,40.45 179.7375,38.56 180.6975,36.61 L177.1575,35.02 C176.6775,35.98 175.6575,36.7 174.3675,36.7 C172.2675,36.7 171.2475,35.32 171.2475,33.73 L181.2975,33.7 C181.5975,32.8 181.7175,31.72 181.7175,31.03 C181.7175,27.34 179.1975,24.64 174.9975,24.64 C171.0375,24.64 167.0775,28.03 167.0775,33.52 C167.0775,37.63 170.2275,40.45 173.9775,40.45 Z M177.5175,30.76 L171.6675,30.76 C172.1475,29.29 173.1675,28.27 174.9675,28.27 C176.8875,28.27 177.5175,29.59 177.5175,30.55 L177.5175,30.76 Z M189.435,40.24 C191.475,40.24 192.615,39.13 193.185,38.23 C193.155,38.53 193.095,38.89 193.095,39.34 C193.095,39.64 193.095,39.82 193.125,40 L197.265,40 C197.235,39.82 197.235,39.55 197.235,39.31 C197.235,38.53 197.355,37.63 197.505,37 L201.465,18.28 L196.905,18.28 L195.165,26.47 C194.745,25.84 193.635,24.73 191.115,24.73 C186.915,24.73 183.585,28.36 183.585,33.55 C183.585,37.33 185.835,40.24 189.435,40.24 Z M190.695,36.31 C189.195,36.31 188.085,35.26 188.085,33.34 C188.085,31.18 189.285,28.87 191.535,28.87 C193.035,28.87 194.085,29.86 194.085,31.72 C194.085,34.81 192.345,36.31 190.695,36.31 Z M208.3425,40.45 C212.0025,40.45 214.1025,38.56 215.0625,36.61 L211.5225,35.02 C211.0425,35.98 210.0225,36.7 208.7325,36.7 C206.6325,36.7 205.6125,35.32 205.6125,33.73 L215.6625,33.7 C215.9625,32.8 216.0825,31.72 216.0825,31.03 C216.0825,27.34 213.5625,24.64 209.3625,24.64 C205.4025,24.64 201.4425,28.03 201.4425,33.52 C201.4425,37.63 204.5925,40.45 208.3425,40.45 Z M211.8825,30.76 L206.0325,30.76 C206.5125,29.29 207.5325,28.27 209.3325,28.27 C211.2525,28.27 211.8825,29.59 211.8825,30.55 L211.8825,30.76 Z M222.21,40 L223.68,33.19 C224.31,30.28 225.87,29.41 227.4,29.41 C228.21,29.41 228.6,29.5 229.2,29.68 L230.16,25.24 C229.89,25.12 229.29,24.97 228.6,24.97 C227.19,24.97 225.84,25.39 224.88,26.71 C225,26.05 225,25.15 225,25.09 L220.56,25.09 C220.56,25.57 220.53,26.38 220.29,27.58 L217.65,40 L222.21,40 Z M237.5775,40.45 C242.5575,40.45 246.0075,36.34 246.0075,31.6 C246.0075,27.67 243.3075,24.64 239.0775,24.64 C234.5475,24.64 230.6475,28.15 230.6475,33.46 C230.6475,37.42 233.4375,40.45 237.5775,40.45 Z M237.8775,36.28 C236.3175,36.28 235.1475,35.17 235.1475,33.25 C235.1475,30.97 236.5575,28.81 238.7475,28.81 C240.3675,28.84 241.4775,29.83 241.4775,31.81 C241.4775,34.9 239.4375,36.28 237.8775,36.28 Z" id="Monedero" fill="#FFFFFF" fill-rule="nonzero"></path>
            <path d="M104.66,92 L109.4,83.36 L125.18,83.36 L126.32,92 L136.16,92 L129.74,49.46 L118.76,49.46 L94.04,92 L104.66,92 Z M124.04,74.72 L114.2,74.72 L122.18,60.08 L124.04,74.72 Z M160.475,92 L162.155,84.2 L148.595,84.2 L165.035,69.68 L166.655,62.18 L142.235,62.18 L140.555,69.92 L152.915,69.92 L137.135,83.96 L135.455,92 L160.475,92 Z M175.73,92.78 C178.49,92.78 181.55,91.46 182.93,89.12 C182.87,89.72 182.81,90.38 182.81,90.98 L182.810937,91.1646875 C182.81375,91.3925 182.825,91.73 182.87,92 L191.69,92 C191.69,89.6 191.99,87.86 192.23,86.78 L197.39,62.18 L188.27,62.18 L184.55,79.46 C183.89,82.46 182.21,84.68 179.39,84.68 C176.69,84.68 175.31,83.12 175.31,80.72 C175.31,80.18 175.37,79.64 175.49,79.04 L179.09,62.18 L169.97,62.18 L166.25,79.7 C166.01,80.78 165.89,81.86 165.89,82.88 C165.89,88.4 169.31,92.78 175.73,92.78 Z M205.505,92 L214.745,48.56 L205.625,48.56 L196.385,92 L205.505,92 Z" id="Azul" fill="#FFFFFF" fill-rule="nonzero"></path>
        </g>
    </g>
</svg>