<svg width="72" height="36" viewBox="0 0 72 36" fill="none" xmlns="http://www.w3.org/2000/svg">
<path opacity="0.3" d="M42.49 9.89001L42.75 7.10001L40.01 6.48001L38.58 4.07001L36 5.18001L33.42 4.07001L31.99 6.48001L29.25 7.10001L29.51 9.88001L27.66 12L29.51 14.11L29.25 16.91L31.99 17.53L33.42 19.94L36 18.82L38.58 19.93L40.01 17.52L42.75 16.9L42.49 14.11L44.34 12L42.49 9.89001ZM37 17H35V15H37V17ZM37 13H35V7.00001H37V13Z" fill="white"/>
<path d="M44.9 5.53999L41.29 4.71999L39.4 1.53999L36 2.99999L32.6 1.53999L30.71 4.71999L27.1 5.52999L27.44 9.20999L25 12L27.44 14.78L27.1 18.47L30.71 19.29L32.6 22.47L36 21L39.4 22.46L41.29 19.28L44.9 18.46L44.56 14.78L47 12L44.56 9.21999L44.9 5.53999ZM42.75 16.9L40.01 17.52L38.58 19.93L36 18.82L33.42 19.93L31.99 17.52L29.25 16.9L29.51 14.1L27.66 12L29.51 9.87999L29.25 7.09999L31.99 6.48999L33.42 4.07999L36 5.17999L38.58 4.06999L40.01 6.47999L42.75 7.09999L42.49 9.88999L44.34 12L42.49 14.11L42.75 16.9ZM35 15H37V17H35V15ZM35 6.99999H37V13H35V6.99999Z" fill="black" fill-opacity="0.54"/>
<path d="M26.3592 34V25.492H24.9192V31.528L21.0552 25.492H19.2192V34H20.6592V27.556L24.8592 34H26.3592ZM32.079 33.352C32.079 33.592 32.103 33.868 32.127 34H33.459C33.435 33.784 33.399 33.412 33.399 32.932V28.156H32.007V31.612C32.007 32.38 31.587 32.92 30.783 32.92C29.943 32.92 29.607 32.308 29.607 31.588V28.156H28.215V31.84C28.215 33.136 29.031 34.168 30.423 34.168C31.107 34.168 31.791 33.88 32.079 33.352ZM36.1376 30.436C36.1856 29.812 36.6896 29.14 37.5656 29.14C38.5256 29.14 38.9816 29.752 39.0056 30.436H36.1376ZM39.1616 31.96C38.9696 32.536 38.5376 32.98 37.6976 32.98C36.8336 32.98 36.1376 32.344 36.1016 31.456H40.3736C40.3856 31.432 40.4096 31.24 40.4096 31.012C40.4096 29.164 39.3536 27.976 37.5536 27.976C36.0776 27.976 34.7096 29.2 34.7096 31.048C34.7096 33.028 36.1136 34.18 37.6976 34.18C39.1016 34.18 40.0256 33.352 40.3376 32.332L39.1616 31.96ZM46.9027 28.156H45.4387L43.9267 32.332L42.3787 28.156H40.8427L43.2187 34H44.6107L46.9027 28.156ZM50.3196 32.932C49.4676 32.932 48.6876 32.284 48.6876 31.072C48.6876 29.86 49.4676 29.236 50.3196 29.236C51.1836 29.236 51.9516 29.86 51.9516 31.072C51.9516 32.296 51.1836 32.932 50.3196 32.932ZM50.3196 27.976C48.5796 27.976 47.2956 29.284 47.2956 31.072C47.2956 32.872 48.5796 34.18 50.3196 34.18C52.0716 34.18 53.3556 32.872 53.3556 31.072C53.3556 29.284 52.0716 27.976 50.3196 27.976Z" fill="black" fill-opacity="0.54"/>
</svg>
