<svg width="72" height="36" viewBox="0 0 72 36" fill="none" xmlns="http://www.w3.org/2000/svg">
<path d="M27 5.5V18.5C27 19.0523 27.4477 19.5 28 19.5H40.5014C40.8792 19.5 41.2248 19.287 41.3947 18.9495L44.7671 12.2484C44.9132 11.9583 44.9092 11.6153 44.7564 11.3286L41.3999 5.02973C41.2262 4.70369 40.8868 4.5 40.5174 4.5H28C27.4477 4.5 27 4.94772 27 5.5Z" stroke="black" stroke-opacity="0.54" stroke-width="1.8"/>
<path d="M31.7416 14.3776C31.4615 14.6828 31.4819 15.1572 31.7871 15.4373C32.0923 15.7174 32.5667 15.697 32.8468 15.3918L31.7416 14.3776ZM38.1409 9.62257C38.421 9.31738 38.4006 8.84294 38.0954 8.56288C37.7902 8.28283 37.3158 8.3032 37.0357 8.60839L38.1409 9.62257ZM32.8468 15.3918L38.1409 9.62257L37.0357 8.60839L31.7416 14.3776L32.8468 15.3918Z" fill="black" fill-opacity="0.54"/>
<circle cx="33" cy="10" r="1" fill="black" fill-opacity="0.54"/>
<circle cx="37" cy="14" r="1" fill="black" fill-opacity="0.54"/>
<path d="M17.2437 29.74C17.2437 27.688 18.6597 26.668 20.0877 26.668C21.5277 26.668 22.9437 27.688 22.9437 29.74C22.9437 31.792 21.5277 32.812 20.0877 32.812C18.6597 32.812 17.2437 31.792 17.2437 29.74ZM15.7677 29.74C15.7677 32.536 17.8557 34.18 20.0877 34.18C22.3197 34.18 24.4197 32.536 24.4197 29.74C24.4197 26.956 22.3197 25.312 20.0877 25.312C17.8557 25.312 15.7677 26.956 15.7677 29.74ZM28.5057 26.5C28.7697 26.5 28.9257 26.536 29.0097 26.56V25.372C28.9137 25.324 28.6257 25.252 28.2777 25.252C27.0777 25.252 26.2377 26.044 26.2377 27.352V28.156H25.2177V29.368H26.2377V34H27.6417V29.368H28.9977V28.156H27.6417V27.388C27.6417 26.668 28.1337 26.5 28.5057 26.5ZM30.9052 30.436C30.9532 29.812 31.4572 29.14 32.3332 29.14C33.2932 29.14 33.7492 29.752 33.7732 30.436H30.9052ZM33.9292 31.96C33.7372 32.536 33.3052 32.98 32.4652 32.98C31.6012 32.98 30.9052 32.344 30.8692 31.456H35.1412C35.1532 31.432 35.1772 31.24 35.1772 31.012C35.1772 29.164 34.1212 27.976 32.3212 27.976C30.8452 27.976 29.4772 29.2 29.4772 31.048C29.4772 33.028 30.8812 34.18 32.4652 34.18C33.8692 34.18 34.7932 33.352 35.1052 32.332L33.9292 31.96ZM39.9274 28.12C39.8674 28.108 39.7234 28.084 39.5554 28.084C38.7874 28.084 38.1394 28.456 37.8634 29.092V28.156H36.5074V34H37.8994V31.216C37.8994 30.124 38.3914 29.5 39.4714 29.5C39.6154 29.5 39.7714 29.512 39.9274 29.536V28.12ZM43.1113 26.368H41.8513V27.244C41.8513 27.76 41.5753 28.156 40.9513 28.156H40.6513V29.392H41.7313V32.332C41.7313 33.424 42.4033 34.072 43.4833 34.072C43.9873 34.072 44.2513 33.976 44.3353 33.94V32.788C44.2753 32.8 44.0473 32.836 43.8553 32.836C43.3393 32.836 43.1113 32.62 43.1113 32.104V29.392H44.3233V28.156H43.1113V26.368ZM45.4052 32.416C45.4052 33.34 46.1612 34.18 47.3852 34.18C48.3332 34.18 48.9092 33.7 49.1852 33.256C49.1852 33.724 49.2332 33.964 49.2452 34H50.5412C50.5292 33.94 50.4692 33.592 50.4692 33.064V30.16C50.4692 28.996 49.7852 27.976 47.9852 27.976C46.5452 27.976 45.6332 28.876 45.5252 29.884L46.7972 30.172C46.8572 29.584 47.2652 29.116 47.9972 29.116C48.7652 29.116 49.1012 29.512 49.1012 30.004C49.1012 30.208 49.0052 30.376 48.6692 30.424L47.1692 30.652C46.1732 30.796 45.4052 31.372 45.4052 32.416ZM47.6492 33.088C47.0972 33.088 46.7972 32.728 46.7972 32.332C46.7972 31.852 47.1452 31.612 47.5772 31.54L49.1012 31.312V31.576C49.1012 32.716 48.4292 33.088 47.6492 33.088ZM51.636 32.416C51.708 33.076 52.356 34.18 54.048 34.18C55.536 34.18 56.256 33.196 56.256 32.308C56.256 31.444 55.68 30.772 54.576 30.532L53.688 30.352C53.328 30.28 53.1 30.052 53.1 29.74C53.1 29.38 53.448 29.068 53.94 29.068C54.72 29.068 54.972 29.608 55.02 29.944L56.196 29.608C56.1 29.032 55.572 27.976 53.94 27.976C52.728 27.976 51.792 28.84 51.792 29.86C51.792 30.664 52.332 31.336 53.364 31.564L54.228 31.756C54.696 31.852 54.912 32.092 54.912 32.404C54.912 32.764 54.612 33.076 54.036 33.076C53.292 33.076 52.896 32.608 52.848 32.08L51.636 32.416Z" fill="black" fill-opacity="0.54"/>
</svg>
