<svg xmlns="http://www.w3.org/2000/svg" width="96" height="96" fill="none" viewBox="0 0 96 96">
    <path fill="#92CBF9" d="M48 96c26.51 0 48-21.49 48-48S74.51 0 48 0 0 21.49 0 48s21.49 48 48 48z"/>
    <path fill="#fff" d="M41.687 50.238c1.072 0 1.94-.868 1.94-1.94 0-1.071-.869-1.94-1.94-1.94s-1.94.869-1.94 1.94c0 1.072.869 1.94 1.94 1.94zM55.647 50.718c1.072 0 1.94-.869 1.94-1.94 0-1.072-.869-1.94-1.94-1.94s-1.94.868-1.94 1.94c0 1.071.869 1.94 1.94 1.94z"/>
    <path fill="#fff" d="M68.967 47.538l-17.72-17.72c-1.066-1.104-2.477-1.81-4-2l-15.78-.7c-.696-.01-1.384.155-2 .48l-1.18-1.16c-.127-.138-.282-.248-.454-.324-.172-.075-.358-.114-.546-.114-.188 0-.374.039-.546.114-.172.076-.327.186-.454.324-.215.28-.315.63-.28.98.005.36.148.704.4.96l1.28 1.26c-.206.501-.308 1.039-.3 1.58v15.6c.085.687.305 1.35.648 1.951.344.601.803 1.128 1.352 1.55l17.7 17.7c.943.949 2.222 1.488 3.56 1.5.634-.024 1.257-.172 1.833-.436.577-.264 1.096-.64 1.527-1.105l14.18-14.16c1.82-1.74 2.6-4.4.78-6.28zm-3.44 3.54l-14.18 14.16c-.09.117-.205.21-.337.275-.131.065-.276.099-.423.099-.147 0-.292-.034-.424-.099-.131-.064-.246-.159-.336-.275l-17.7-17.7c-.31-.292-.597-.606-.86-.94v-13.48l1.42 1.4c-.423.817-.567 1.75-.411 2.657.156.907.605 1.738 1.277 2.366.672.629 1.531 1.02 2.446 1.115.916.095 1.837-.112 2.624-.59.786-.476 1.396-1.198 1.735-2.053.339-.855.389-1.798.142-2.685-.246-.886-.775-1.668-1.507-2.226-.732-.558-1.626-.861-2.546-.864-.619-.006-1.23.138-1.78.42l-1.6-1.58 14 .62c.555.15 1.06.447 1.46.86l17.62 17.6c-.144.345-.355.657-.62.92zm-30.34-14c.126.141.28.254.452.331.172.077.359.117.548.117.189 0 .375-.04.548-.117.172-.077.326-.19.452-.33.129-.12.23-.267.3-.428.068-.162.102-.337.1-.513.007-.18-.026-.358-.095-.524-.069-.165-.173-.314-.305-.436l-.4-.38c.422.063.808.275 1.087.598.28.323.433.735.433 1.162.027.254 0 .51-.08.753-.078.243-.207.466-.377.656-.171.19-.38.34-.613.444-.233.104-.485.158-.74.158s-.507-.054-.74-.158c-.233-.103-.442-.255-.613-.444-.17-.19-.3-.413-.378-.656-.079-.243-.106-.5-.08-.753l.5.52z"/>
    <path fill="#fff" d="M46.606 57.938c-.178.03-.36.03-.54 0-.484-.157-.89-.492-1.135-.938-.245-.446-.311-.969-.184-1.462l4.4-15.08c-.01-.31.053-.617.184-.899.13-.281.324-.529.566-.722.243-.194.527-.329.83-.393.304-.065.618-.059.918.019.3.077.579.224.813.427.234.204.418.459.536.746.118.286.169.597.147.906-.023.31-.116.61-.274.877l-4.4 15.08c-.119.405-.362.763-.696 1.022-.335.259-.742.405-1.165.417z"/>
</svg>
