<svg xmlns="http://www.w3.org/2000/svg" width="49" height="31" viewBox="0 0 49 31">
    <g fill="none" fill-rule="evenodd">
        <g fill="#C6C7CB" fill-rule="nonzero">
            <g>
                <g>
                    <path d="M30.2 25.7c-.71 0-1.328-.439-1.42-1.04-.1-.653.456-1.249 1.241-1.332 4.53-.48 8.586-1.5 11.422-2.873 2.593-1.255 4.021-2.731 4.021-4.156 0-1.57-1.67-2.854-3.073-3.656-.652-.373-.817-1.114-.368-1.656.448-.542 1.34-.68 1.993-.306 2.823 1.613 4.315 3.556 4.315 5.619 0 2.34-1.882 4.49-5.445 6.214-3.206 1.552-7.53 2.651-12.503 3.177-.061.007-.122.01-.182.01zM23.752 24.607l-3.765-2.989c-.551-.438-1.445-.438-1.997 0-.55.438-.55 1.147 0 1.585l1.1.873c-4.218-.346-8.05-1.125-11.017-2.258-3.336-1.273-5.25-2.896-5.25-4.45 0-1.32 1.37-2.69 3.858-3.86.671-.316.892-1.004.495-1.536-.398-.533-1.264-.708-1.935-.393C.91 13.618 0 15.852 0 17.367c0 2.487 2.433 4.785 6.85 6.471 3.428 1.309 7.862 2.185 12.694 2.524l-1.554 1.233c-.55.438-.55 1.147 0 1.585.276.219.637.328.999.328.361 0 .722-.11.998-.328l3.765-2.988c.551-.438.551-1.148 0-1.585z" transform="translate(-676 -811) translate(664 801) translate(12.5 10.521)"/>
                    <path d="M15.487 14.583v-.295c0-1.038-.769-1.24-1.8-1.24-.637 0-.844-.464-.844-.93 0-.464.207-.93.844-.93.712 0 1.463-.077 1.463-1.332 0-.899-.62-1.116-1.388-1.116-.919 0-1.387.186-1.387.79 0 .527-.282.884-1.37.884-1.35 0-1.518-.233-1.518-.977 0-1.208 1.05-2.774 4.275-2.774 2.381 0 4.181.713 4.181 2.805 0 1.132-.506 2.186-1.443 2.542 1.106.341 1.912 1.023 1.912 2.278v.295c0 2.542-2.119 3.503-4.744 3.503-3.225 0-4.462-1.628-4.462-2.93 0-.697.356-.883 1.387-.883 1.2 0 1.5.217 1.5.806 0 .728.825.899 1.669.899 1.275 0 1.725-.388 1.725-1.395zM28.769 14.288v.14c0 2.666-2.007 3.658-4.594 3.658s-4.612-.992-4.612-3.658v-4.107c0-2.666 2.08-3.658 4.78-3.658 3.17 0 4.426 1.627 4.426 2.914 0 .744-.432.976-1.37.976-.805 0-1.518-.17-1.518-.883 0-.589-.75-.9-1.63-.9-1.107 0-1.764.481-1.764 1.55v1.395c.6-.542 1.444-.681 2.344-.681 2.137 0 3.938.775 3.938 3.254zm-6.282.31c0 1.07.638 1.535 1.688 1.535 1.05 0 1.669-.465 1.669-1.535v-.14c0-1.13-.619-1.565-1.688-1.565-1.012 0-1.669.404-1.669 1.426v.28zM29.92 14.428v-4.107c0-2.666 2.005-3.658 4.593-3.658 2.587 0 4.612.992 4.612 3.658v4.107c0 2.666-2.025 3.658-4.612 3.658-2.588 0-4.594-.992-4.594-3.658zm6.28-4.107c0-1.07-.637-1.55-1.687-1.55s-1.669.48-1.669 1.55v4.107c0 1.07.619 1.55 1.669 1.55s1.687-.48 1.687-1.55v-4.107zM42.577 7.615c-2.538 0-4.603-1.708-4.603-3.807 0-2.1 2.065-3.808 4.603-3.808s4.603 1.708 4.603 3.808c0 2.099-2.065 3.807-4.603 3.807zm0-5.077c-.846 0-1.534.57-1.534 1.27 0 .7.688 1.269 1.534 1.269.846 0 1.535-.57 1.535-1.27 0-.7-.689-1.269-1.535-1.269z" transform="translate(-676 -811) translate(664 801) translate(12.5 10.521)"/>
                </g>
            </g>
        </g>
    </g>
</svg>
