<svg xmlns="http://www.w3.org/2000/svg" width="27" height="39" viewBox="0 0 27 39">
    <g fill="none" fill-rule="evenodd">
        <g fill="#DF5D5D" fill-rule="nonzero">
            <path d="M481.5 497c-7.456 0-13.5 5.914-13.5 13.21 0 .156.005.315.012.475.05 1.388.318 2.72.773 3.968C471.665 523.916 481.5 536 481.5 536s9.834-12.083 12.715-21.346c.455-1.247.722-2.58.773-3.969.008-.16.012-.319.012-.476 0-7.295-6.044-13.209-13.5-13.209zm-.5 19c-3.313 0-6-2.687-6-6s2.687-6 6-6c3.314 0 6 2.687 6 6s-2.686 6-6 6z" transform="translate(-468.000000, -497.000000)"/>
        </g>
    </g>
</svg>
