<svg xmlns="http://www.w3.org/2000/svg" width="16" height="16" viewBox="0 0 16 16">
    <g fill="none" fill-rule="evenodd">
        <g fill="#006FB9" fill-rule="nonzero">
            <g>
                <g>
                    <path d="M15.812 14.908l-3.82-3.82c2.162-2.645 1.871-6.52-.662-8.812C8.797-.015 4.912.082 2.497 2.497s-2.512 6.3-.22 8.833c2.29 2.533 6.166 2.824 8.81.662l3.82 3.82c.252.243.65.24.898-.007.247-.247.25-.646.007-.897zM7.04 12.16c-2.828 0-5.12-2.292-5.12-5.12 0-2.828 2.292-5.12 5.12-5.12 2.828 0 5.12 2.292 5.12 5.12-.003 2.826-2.294 5.117-5.12 5.12z" transform="translate(-16 -1303) translate(16 1302) translate(0 1)"/>
                </g>
            </g>
        </g>
    </g>
</svg>
