<svg width="35" height="41" xmlns="http://www.w3.org/2000/svg">
    <g fill="#243B7A" fill-rule="nonzero">
        <path d="M33.746 8.166C24.238 6.86 18.783.876 18.549.622A1.406 1.406 0 0 0 17.38.16c-.35.042-.662.21-.896.463-.039.043-5.455 6.195-15.196 7.544-.74.084-1.325.885-1.286 1.686 1.48 22.251 16.287 29.88 16.91 30.174.196.084.39.126.585.126.195 0 .39-.042.585-.126.623-.295 15.43-7.923 16.91-30.174.079-.843-.467-1.602-1.246-1.686zm-16.21 28.7c-2.572-1.56-12.897-8.85-14.573-25.876 7.598-1.391 12.547-5.31 14.573-7.207 2.065 1.939 7.053 5.858 14.534 7.249-1.636 17.11-11.884 24.274-14.534 25.833z"/>
        <path d="M14.031 13.659v2.662h-.162c-1.016 0-1.869.86-1.869 1.885v6.062c0 1.024.853 1.884 1.869 1.884h9.262c1.016 0 1.869-.86 1.869-1.884v-6.062c0-1.025-.853-1.885-1.869-1.885h-.162V13.66c0-2.458-1.99-4.507-4.469-4.507-2.478 0-4.469 2.049-4.469 4.507zm7.231 5.653a.797.797 0 0 1 0 1.147l-2.68 2.703a.799.799 0 0 1-.57.246.799.799 0 0 1-.568-.246l-1.706-1.72a.797.797 0 0 1 0-1.147.78.78 0 0 1 1.137 0l1.137 1.147 2.154-2.171c.284-.287.771-.287 1.096.04zm-.69-5.653v2.662h-4.144V13.66c0-1.147.934-2.09 2.072-2.09 1.137 0 2.072.943 2.072 2.09z"/>
    </g>
</svg>
