<svg xmlns="http://www.w3.org/2000/svg" width="96" height="96" fill="none" viewBox="0 0 96 96">
    <path fill="#000" fill-opacity=".54" fill-rule="evenodd" d="M48.006 12c-19.852 0-36 16.148-36 36 0 6.992 1.977 13.693 5.743 19.52l-5.472 12.048c-.5 1.103-.313 2.413.478 3.33.604.707 1.478 1.102 2.393 1.102.27 0 .562-.042.833-.104l15.066-4.141C36.248 82.543 42.075 84 48.005 84c19.852 0 36-16.148 36-36s-16.148-36-36-36zm0 65.716c-5.265 0-10.425-1.395-14.962-4.037-.478-.292-1.04-.437-1.581-.437-.27 0-.562.041-.833.104l-9.842 2.705 3.433-7.554c.458-1.02.354-2.227-.312-3.142C20.247 60.277 18.31 54.264 18.31 48c0-16.377 13.318-29.716 29.716-29.716 16.377 0 29.715 13.318 29.715 29.716-.02 16.377-13.36 29.716-29.736 29.716z" clip-rule="evenodd"/>
    <path fill="#000" fill-opacity=".54" fill-rule="evenodd" d="M61.844 53.39c-1.498-.895-3.475-1.915-5.244-1.187-1.352.562-2.226 2.685-3.121 3.788-.458.562-.999.645-1.685.374-5.12-2.039-9.032-5.452-11.862-10.155-.478-.728-.395-1.31.188-1.977.853-.998 1.914-2.143 2.143-3.495.229-1.353-.395-2.935-.957-4.142-.708-1.54-1.52-3.724-3.06-4.598-1.414-.791-3.287-.354-4.557.665-2.184 1.77-3.225 4.558-3.204 7.305 0 .79.104 1.56.291 2.33.437 1.81 1.29 3.517 2.227 5.14.707 1.207 1.498 2.393 2.33 3.538 2.726 3.724 6.14 6.95 10.072 9.364 1.977 1.207 4.1 2.268 6.284 2.996 2.456.812 4.662 1.665 7.325 1.166 2.789-.52 5.535-2.248 6.638-4.932.333-.79.5-1.686.313-2.518-.375-1.79-2.726-2.83-4.12-3.662z" clip-rule="evenodd"/>
</svg>
