<svg xmlns="http://www.w3.org/2000/svg" width="96" height="96" fill="none" viewBox="0 0 96 96">
    <path fill="#92CBF9" d="M48 96c26.51 0 48-21.49 48-48S74.51 0 48 0 0 21.49 0 48s21.49 48 48 48z"/>
    <path fill="#fff" d="M48 28c-7.74 0-14 6.26-14 14 0 10.5 14 26 14 26s14-15.5 14-26c0-7.74-6.26-14-14-14zM38 42c0-5.52 4.48-10 10-10s10 4.48 10 10c0 5.76-5.76 14.38-10 19.76C43.84 56.42 38 47.7 38 42z"/>
    <path fill="#fff" d="M48 47c2.761 0 5-2.239 5-5s-2.239-5-5-5-5 2.239-5 5 2.239 5 5 5z"/>
</svg>
