<svg xmlns="http://www.w3.org/2000/svg" width="96" height="96" fill="none" viewBox="0 0 96 96">
    <path fill="#92CBF9" d="M48 96c26.51 0 48-21.49 48-48S74.51 0 48 0 0 21.49 0 48s21.49 48 48 48z"/>
    <path fill="#fff" d="M30 44c0-9.925 8.075-18 18-18s18 8.075 18 18v7.457c0 1.844-1.615 3.343-3.6 3.343 0 3.97-3.23 7.2-7.2 7.2h-9c-1.8 0-1.8-1.8-1.8-1.8v-1.8c0-1.8 1.8-1.8 1.8-1.8h4.5c.72 0 .9.6.9.9v.9h3.6c1.985 0 3.6-1.615 3.6-3.6V43.743c0-.478.19-.936.527-1.273.338-.338.796-.527 1.273-.527h1.634C61.234 34.977 55.24 29.6 48 29.6s-13.234 5.377-14.234 12.343H35.4c.477 0 .935.19 1.273.527.337.337.527.795.527 1.273V53c0 .477-.19.935-.527 1.273-.338.337-.796.527-1.273.527h-1.8c-1.985 0-3.6-1.5-3.6-3.343V44z"/>
    <mask id="naygukr36a" fill="#fff">
        <path d="M25.2 45c0-2.761 2.239-5 5-5h6c.552 0 1 .448 1 1v14c0 .552-.448 1-1 1h-6c-2.761 0-5-2.239-5-5v-6z"/>
    </mask>
    <path fill="#92CBF9" stroke="#fff" stroke-width="6" d="M25.2 45c0-2.761 2.239-5 5-5h6c.552 0 1 .448 1 1v14c0 .552-.448 1-1 1h-6c-2.761 0-5-2.239-5-5v-6z" mask="url(#naygukr36a)"/>
    <mask id="d7te33zusb" fill="#fff">
        <path d="M70.8 45c0-2.761-2.239-5-5-5h-6c-.552 0-1 .448-1 1v14c0 .552.448 1 1 1h6c2.761 0 5-2.239 5-5v-6z"/>
    </mask>
    <path fill="#92CBF9" stroke="#fff" stroke-width="6" d="M70.8 45c0-2.761-2.239-5-5-5h-6c-.552 0-1 .448-1 1v14c0 .552.448 1 1 1h6c2.761 0 5-2.239 5-5v-6z" mask="url(#d7te33zusb)"/>
</svg>
