<svg xmlns="http://www.w3.org/2000/svg" width="33" height="25" viewBox="0 0 33 25">
    <g fill="none" fill-rule="evenodd">
        <g fill="gray" fill-rule="nonzero">
            <g>
                <path d="M32.525 12.338l-4.733-7.363c-.097-.15-.264-.242-.443-.241h-6.311V1.84C21.037.825 20.213 0 19.198 0H1.84C.825.001 0 .825 0 1.84v19.198c0 .29.235.526.526.526h2.142c.261 1.811 1.813 3.155 3.643 3.155 1.83 0 3.382-1.344 3.644-3.155h12.699c.261 1.811 1.813 3.155 3.643 3.155 1.83 0 3.382-1.344 3.644-3.155h2.142c.29 0 .526-.236.526-.526v-8.415c0-.101-.03-.2-.084-.285zM6.311 23.668c-1.452 0-2.63-1.178-2.63-2.63s1.178-2.63 2.63-2.63c1.453 0 2.63 1.178 2.63 2.63-.001 1.452-1.178 2.628-2.63 2.63zm13.675-3.156H9.955C9.693 18.7 8.14 17.356 6.31 17.356s-3.382 1.345-3.643 3.156H1.052v-5.26h18.934v5.26zm0-6.311H1.052V1.84c0-.436.353-.789.789-.79h17.356c.436.001.789.354.789.79V14.2zm8.09-6.838l3.044 4.734h-7.452V7.363h4.408zm-1.779 16.305c-1.452 0-2.63-1.178-2.63-2.63s1.178-2.63 2.63-2.63c1.453 0 2.63 1.178 2.63 2.63-.001 1.452-1.178 2.628-2.63 2.63zm5.26-7.364h-1.052c-.29 0-.526-.235-.526-.526 0-.29.235-.526.526-.526h1.052v1.052zm0-2.103h-1.052c-.872 0-1.578.706-1.578 1.577 0 .872.706 1.578 1.578 1.578h1.052v3.156H29.94c-.262-1.811-1.814-3.156-3.644-3.156s-3.382 1.345-3.643 3.156h-1.616V5.785h6.024l.339.526h-4.26c-.29 0-.525.236-.525.526v5.786c0 .29.235.526.526.526h8.415V14.2z" transform="translate(-16 -1238) translate(16 1238)"/>
            </g>
        </g>
    </g>
</svg>
