<svg width="120" height="119" viewBox="0 0 120 119" fill="none" xmlns="http://www.w3.org/2000/svg">
<path d="M112.48 86.769C112.48 92.2418 108.04 96.6875 102.562 96.6875H18.274C12.7955 96.6875 8.35547 92.2475 8.35547 86.769V32.231C8.35547 26.7525 12.7955 22.3125 18.274 22.3125H102.568C108.046 22.3125 112.486 26.7525 112.486 32.231V86.769H112.48Z" fill="#AEDAF6"/>
<path d="M8.35547 34.707H112.48V49.582H8.35547V34.707Z" fill="#67828D"/>
<path d="M13.312 54.543H107.518V66.9369H13.312V54.543Z" fill="#EBF8FA"/>
<path d="M106.255 88.9699C106.255 98.4225 98.5876 106.09 89.1349 106.09C79.6823 106.09 72.0146 98.4225 72.0146 88.9699C72.0146 79.5173 79.6823 71.8496 89.1349 71.8496C98.5876 71.8496 106.255 79.5173 106.255 88.9699Z" fill="#FF6C62"/>
<path d="M93.9737 81.707L96.3929 84.1263L84.2909 96.2284L81.8716 93.8091L93.9737 81.707Z" fill="white"/>
<path d="M96.3929 93.815L93.9737 96.2343L81.8716 84.1322L84.2909 81.7129L96.3929 93.815Z" fill="white"/>
</svg>
