<svg xmlns="http://www.w3.org/2000/svg" width="32" height="46" fill="none" viewBox="0 0 32 46">
    <g clip-path="url(#clip0)">
        <path fill="#D8DA00" d="M32 16.122c0 12.002-15.992 29.704-15.992 29.704S0 28.124 0 16.122C0 7.28 7.15.13 15.992.13 24.835.13 32 7.28 32 16.122z"/>
        <path fill="#fff" fill-rule="evenodd" d="M11.97 19.363c-.13 1.14-.766 4.3.586 6.449-.456.13-2.15-.26-3.388-2.606-.732-1.238-.065-4.674.066-5.602.13-.896 2.345-16.122 2.475-17.001-2.085.586-3.99 1.58-5.651 2.898-.033.326-2.345 17.816-2.394 18.826-.049 1.01 1.091 6.074 4.592 6.579 3.502.505 7.67-2.231 8.81-8.012.766-5.944 2.623-19.33 2.77-20.422C18.613.162 17.326 0 15.991 0c-.44 0-.88.016-1.32.065-.244 1.352-2.572 18.19-2.703 19.298zM2.54 7.393C.945 9.917 0 12.913 0 16.122c0 1.612.244 3.16.668 4.641.814-5.602 1.726-12.246 1.872-13.37z" clip-rule="evenodd"/>
        <path fill="#fff" fill-rule="evenodd" d="M23.092 27.082c1.694-2.948 2.231-6.58 2.41-8.517.163-1.808 1.661-12.312 1.873-13.778-1.384-1.4-3.013-2.556-4.82-3.37-.033.944-2.036 18.792-3.208 22.294-1.173 3.534-4.674 7.54-6.824 8.093-.032.017-.081.017-.114.033 1.156.26 2.361.407 3.6.407.374 0 .732-.016 1.107-.049 1.498-.635 4.348-2.264 5.976-5.113zM29.916 8.175c-.212 1.465-1.466 11.79-2.183 14.477-.7 2.687-2.915 7.052-5.504 8.322 5.732-2.443 9.755-8.175 9.755-14.852.016-2.899-.75-5.602-2.069-7.947z" clip-rule="evenodd"/>
    </g>
    <defs>
        <clipPath id="clip0">
            <path fill="#fff" d="M0 0H32V45.826H0z"/>
        </clipPath>
    </defs>
</svg>
