<?xml version="1.0" encoding="UTF-8"?>
<svg width="576px" height="108px" viewBox="0 0 576 108" version="1.1" xmlns="http://www.w3.org/2000/svg" xmlns:xlink="http://www.w3.org/1999/xlink">
    <!-- Generator: Sketch 64 (93537) - https://sketch.com -->
    <title>urbannav</title>
    <desc>Created with Sketch.</desc>
    <g id="Page-1" stroke="none" stroke-width="1" fill="none" fill-rule="evenodd">
        <g id="urbannav">
            <polygon id="Fill-1" fill="#622D0D" points="129.74105 96.7727098 129.74105 80.5109955 131.605471 80.5109955 131.605471 95.0601383 138.675005 95.0601383 138.675005 96.7727098"></polygon>
            <polygon id="Fill-2" fill="#622D0D" points="157.10825 96.7730346 158.971859 96.7730346 158.971859 80.5113203 157.10825 80.5113203"></polygon>
            <polygon id="Fill-3" fill="#622D0D" points="180.946854 82.1914105 180.946854 88.1411549 187.590072 88.1411549 187.590072 89.8220571 180.946854 89.8220571 180.946854 96.7730346 179.084057 96.7730346 179.084057 80.5113203 188.018012 80.5113203 188.018012 82.1914105"></polygon>
            <polygon id="Fill-4" fill="#622D0D" points="215.319032 95.081982 215.319032 96.7726286 206.385077 96.7726286 206.385077 80.5109143 215.319032 80.5109143 215.319032 82.1910045 208.248686 82.1910045 208.248686 87.4302226 214.891904 87.4302226 214.891904 89.0989444 208.248686 89.0989444 208.248686 95.081982"></polygon>
            <path d="M238.783777,81.9689955 C237.797973,81.9689955 237.026544,82.1841835 236.471116,82.6137474 C235.916499,83.0433113 235.638785,83.6409654 235.638785,84.4050857 C235.638785,84.9694466 235.741101,85.4290556 235.945732,85.790409 C236.147928,86.1493263 236.494665,86.4798226 236.981071,86.7786496 C237.465853,87.0791008 238.210484,87.4120331 239.210905,87.7741985 C240.89262,88.3832211 242.04895,89.0352812 242.679898,89.732003 C243.312469,90.4295368 243.629161,91.3349504 243.629161,92.4458075 C243.629161,93.8774165 243.117582,94.9931459 242.094424,95.7929955 C241.07289,96.5960932 239.682695,96.995612 237.92871,96.995612 C236.029371,96.995612 234.567717,96.7471308 233.544559,96.2485444 L233.544559,94.4255368 C234.202304,94.7081233 234.918514,94.9298075 235.693191,95.0938376 C236.467056,95.2578677 237.234424,95.3382586 237.995296,95.3382586 C239.237702,95.3382586 240.172349,95.0987098 240.800048,94.6220481 C241.429371,94.1421383 241.744439,93.4770857 241.744439,92.6244541 C241.744439,92.0600932 241.632379,91.5996722 241.409071,91.2391308 C241.186574,90.8794015 240.813853,90.5472812 240.290905,90.243582 C239.76877,89.9406947 238.973792,89.596394 237.907597,89.2090556 C236.415898,88.6674316 235.351326,88.0275519 234.712259,87.2845444 C234.072379,86.5439729 233.753251,85.5760331 233.753251,84.3823489 C233.753251,83.1301985 234.21692,82.1314015 235.145071,81.3908301 C236.072409,80.6494466 237.300198,80.2775368 238.827627,80.2775368 C240.420018,80.2775368 241.886544,80.5755519 243.223958,81.1683338 L242.642544,82.8151308 C241.319747,82.2507699 240.033492,81.9689955 238.783777,81.9689955" id="Fill-5" fill="#622D0D"></path>
            <polygon id="Fill-7" fill="#622D0D" points="267.555383 82.1914105 267.555383 96.7730346 265.691774 96.7730346 265.691774 82.1914105 260.616586 82.1914105 260.616586 80.5113203 272.630571 80.5113203 272.630571 82.1914105"></polygon>
            <polygon id="Fill-9" fill="#622D0D" points="295.777814 90.4667278 295.777814 96.7729534 293.891468 96.7729534 293.891468 90.5560511 288.553994 80.5112391 290.592189 80.5112391 294.834235 88.6420962 299.109573 80.5112391 301.127468 80.5112391"></polygon>
            <polygon id="Fill-11" fill="#622D0D" points="319.045155 96.7727098 319.045155 80.5109955 320.909576 80.5109955 320.909576 95.0601383 327.97911 95.0601383 327.97911 96.7727098"></polygon>
            <polygon id="Fill-13" fill="#622D0D" points="355.345823 95.081982 355.345823 96.7726286 346.411868 96.7726286 346.411868 80.5109143 355.345823 80.5109143 355.345823 82.1910045 348.276289 82.1910045 348.276289 87.4302226 354.918695 87.4302226 354.918695 89.0989444 348.276289 89.0989444 348.276289 95.081982"></polygon>
            <polygon id="Fill-15" fill="#D7D900" points="395.996129 96.7727098 394.17637 96.7727098 400.149663 80.5109955 401.968611 80.5109955"></polygon>
            <path d="M445.863789,81.9689955 C444.877173,81.9689955 444.104932,82.1841835 443.550316,82.6137474 C442.995699,83.0433113 442.717173,83.6409654 442.717173,84.4050857 C442.717173,84.9694466 442.818677,85.4290556 443.025744,85.790409 C443.228752,86.1493263 443.573053,86.4798226 444.061083,86.7786496 C444.545865,87.0791008 445.290496,87.4120331 446.290917,87.7741985 C447.972632,88.3832211 449.128962,89.0352812 449.75991,89.732003 C450.393293,90.4295368 450.709173,91.3349504 450.709173,92.4458075 C450.709173,93.8774165 450.198406,94.9931459 449.172812,95.7929955 C448.149654,96.5960932 446.763519,96.995612 445.008722,96.995612 C443.108571,96.995612 441.646105,96.7471308 440.625383,96.2485444 L440.625383,94.4255368 C441.282316,94.7081233 441.998526,94.9298075 442.772391,95.0938376 C443.547068,95.2578677 444.314436,95.3382586 445.074496,95.3382586 C446.316902,95.3382586 447.252361,95.0987098 447.880872,94.6220481 C448.509383,94.1421383 448.823639,93.4770857 448.823639,92.6244541 C448.823639,92.0600932 448.712391,91.5996722 448.489083,91.2391308 C448.265774,90.8794015 447.894677,90.5472812 447.370105,90.243582 C446.847158,89.9406947 446.052992,89.596394 444.987609,89.2090556 C443.49591,88.6674316 442.430526,88.0275519 441.791459,87.2845444 C441.151579,86.5439729 440.832451,85.5760331 440.832451,84.3823489 C440.832451,83.1301985 441.29612,82.1314015 442.225083,81.3908301 C443.152421,80.6494466 444.380211,80.2775368 445.908451,80.2775368 C447.501654,80.2775368 448.965744,80.5755519 450.303158,81.1683338 L449.722556,82.8151308 C448.400571,82.2507699 447.113504,81.9689955 445.863789,81.9689955" id="Fill-17" fill="#622D0D"></path>
            <path d="M476.826009,87.9414767 L476.826009,87.9414767 C476.089498,88.4831008 474.894189,88.7535068 473.24252,88.7535068 L471.564054,88.7535068 L471.564054,82.1468301 L473.647723,82.1468301 C475.115874,82.1468301 476.199122,82.4107398 476.893408,82.9369353 C477.586881,83.4631308 477.935242,84.2646045 477.935242,85.3389203 C477.935242,86.5326045 477.565768,87.3998526 476.826009,87.9414767 M473.857227,80.5114015 L469.702881,80.5114015 L469.702881,96.7723038 L471.564054,96.7723038 L471.564054,90.3767549 L473.4504,90.3767549 C475.51052,90.3767549 477.095603,89.9341985 478.201588,89.0482737 C479.309197,88.1623489 479.862189,86.896394 479.862189,85.2512211 C479.862189,82.091612 477.862159,80.5114015 473.857227,80.5114015" id="Fill-19" fill="#622D0D"></path>
            <path d="M509.512168,93.6371368 L509.512168,93.6371368 C508.605131,94.7707308 507.265281,95.3383398 505.487747,95.3383398 C503.726454,95.3383398 502.383356,94.7699188 501.460078,93.6306406 C500.535176,92.4929865 500.072319,90.8218286 500.072319,88.620415 C500.072319,86.4474226 500.535176,84.7925053 501.460078,83.6532271 C502.383356,82.5155729 503.734574,81.9471519 505.509672,81.9471519 C507.278274,81.9471519 508.614063,82.5115128 509.516229,83.6426707 C510.419206,84.7730165 510.869883,86.431994 510.869883,88.620415 C510.869883,90.8291368 510.415958,92.5011068 509.512168,93.6371368 M510.903176,82.4806556 C509.607988,80.9970767 507.811777,80.2556932 505.509672,80.2556932 C503.14098,80.2556932 501.316349,80.9840842 500.030093,82.4408662 C498.74465,83.8992722 498.099898,85.9504602 498.099898,88.5984902 C498.099898,91.2676331 498.740589,93.3342496 500.024409,94.7991519 C501.305792,96.2632421 503.127176,96.9956932 505.487747,96.9956932 C507.797161,96.9956932 509.601492,96.2486256 510.899116,94.7609865 C512.195116,93.2700992 512.843928,91.2229714 512.843928,88.620415 C512.843928,86.0097383 512.19674,83.9642346 510.903176,82.4806556" id="Fill-21" fill="#622D0D"></path>
            <path d="M536.549441,88.3867128 L536.549441,88.3867128 L533.995606,88.3867128 L533.995606,82.1689985 L536.418704,82.1689985 C537.799155,82.1689985 538.802012,82.4061113 539.428087,82.8803368 C540.050914,83.3569985 540.364358,84.1308632 540.364358,85.2051789 C540.364358,86.2665023 540.059035,87.0614797 539.444328,87.5917353 C538.831245,88.121991 537.866553,88.3867128 536.549441,88.3867128 L536.549441,88.3867128 Z M539.070794,89.4650887 C541.220238,88.7090887 542.293741,87.2563669 542.293741,85.1044872 C542.293741,83.5713744 541.826012,82.4223519 540.884869,81.6574195 C539.946162,80.8941113 538.493441,80.5108331 536.528328,80.5108331 L532.131997,80.5108331 L532.131997,96.7725474 L533.995606,96.7725474 L533.995606,90.0091489 L537.339546,90.0091489 L541.220238,96.7725474 L543.423275,96.7725474 L539.070794,89.4650887 Z" id="Fill-23" fill="#622D0D"></path>
            <polygon id="Fill-25" fill="#622D0D" points="566.657242 82.1914105 566.657242 96.7730346 564.795257 96.7730346 564.795257 82.1914105 559.719257 82.1914105 559.719257 80.5113203 571.73243 80.5113203 571.73243 82.1914105"></polygon>
            <path d="M40.0136752,64.7399098 C39.5906075,68.5442707 37.4785173,79.110406 41.9860962,86.2960602 C40.4367429,86.7183158 34.8012541,85.4507368 30.6444722,77.5610526 C28.1791489,73.4058947 30.4325323,61.9213534 30.8556,58.8226466 C31.2656752,55.8140752 38.711991,4.94688722 39.1480511,1.96998496 C32.1840812,3.91642105 25.7958406,7.24574436 20.2845925,11.6493835 C20.1327429,12.8049023 12.3973444,71.2548271 12.2576752,74.6028271 C12.117194,77.9833083 15.9215549,94.8913985 27.614788,96.5812331 C39.3096451,98.2735038 53.2570737,89.1154286 57.0614346,69.8126617 C59.6298857,49.9439098 65.8272992,5.1921203 66.3266977,1.57858647 C62.2072692,0.552992481 57.9026977,1.84634263e-13 53.4690135,1.84634263e-13 C51.9789383,1.84634263e-13 50.5075398,0.0763308271 49.0475098,0.197323308 C48.2241113,4.76174436 40.4237504,61.0419248 40.0136752,64.7399098" id="Fill-27" fill="#D7D900"></path>
            <path d="M8.51657143,24.725585 C3.13524812,33.1341564 4.91588725e-12,43.1391789 4.91588725e-12,53.8912692 C4.91588725e-12,59.2790887 0.794977444,64.4768932 2.25419549,69.385615 C4.92658647,50.6610135 7.99768421,28.4747278 8.51657143,24.725585" id="Fill-29" fill="#D7D900"></path>
            <path d="M77.2100932,90.5230827 C82.8447699,80.6617895 84.6767098,68.5446767 85.2402586,62.0638647 C85.7648301,56.0369774 90.7799278,20.8939398 91.4807098,15.9990226 C86.8773113,11.3087368 81.4237173,7.47433083 75.3757173,4.73210526 C75.2514767,7.89171429 68.5782135,67.528015 64.6699128,79.2521053 C60.7250707,91.0866316 49.0302135,104.471323 41.8445594,106.304887 C41.7203188,106.334932 41.5879579,106.367414 41.4482887,106.398271 C45.3143639,107.293128 49.3339128,107.78197 53.469582,107.78197 C54.7054917,107.78197 55.9292211,107.724316 57.1456421,107.642301 C62.2248902,105.512346 71.7556872,100.066872 77.2100932,90.5230827" id="Fill-31" fill="#D7D900"></path>
            <path d="M99.9781985,27.3167729 C99.289597,32.1897654 95.0581083,66.7408331 92.7080932,75.730006 C90.3564541,84.720803 82.9791609,99.273194 74.3115519,103.533916 C93.485206,95.3454045 106.937296,76.2017955 106.937296,53.8912692 C106.937296,44.2240511 104.399702,35.1609835 99.9781985,27.3167729" id="Fill-33" fill="#D7D900"></path>
            <path d="M250.084069,62.9362286 L261.026174,62.9362286 C262.569844,57.1724391 271.682445,23.1638075 273.225302,17.399206 L262.284009,17.399206 C260.74034,23.1638075 251.62855,57.1732511 250.084069,62.9362286" id="Fill-35" fill="#622D0D"></path>
            <path d="M405.603663,32.9200241 C405.316205,30.7665203 405.050671,29.191994 402.717708,28.516385 C399.868295,27.6889263 396.367633,29.8310617 395.484956,33.1149113 C392.987964,42.4443248 390.050039,53.6032421 387.549798,62.9285955 L376.611753,62.9285955 C379.123362,53.5618286 382.036114,42.4857383 384.548535,33.1149113 C386.372355,26.3076632 392.236836,20.2807759 399.294189,18.1833023 C409.187964,15.2429414 415.732926,20.7347008 416.863272,29.2155429 L419.287994,47.3993323 C419.577077,49.5528361 419.842611,51.1314226 422.174761,51.8045955 C425.024986,52.6304301 428.52646,50.4891068 429.405889,47.2044451 C431.906129,37.8758436 434.84243,26.7169263 437.341047,17.3907609 L448.283152,17.3907609 C445.771543,26.7591519 442.857167,37.8344301 440.345558,47.2044451 C438.520926,54.0133173 432.655633,60.0385805 425.597468,62.1360541 C415.705317,65.0788511 409.160355,59.5854677 408.029197,51.1054376 L405.603663,32.9200241 Z" id="Fill-37" fill="#622D0D"></path>
            <path d="M194.517826,31.5184602 C196.57957,23.8244752 204.726668,17.3964451 212.421465,17.3964451 L241.309435,17.3964451 C249.034277,17.3964451 253.716442,23.792806 251.646577,31.5168361 L250.526788,35.6882346 C248.534878,43.1183098 240.955389,49.3205955 233.505014,49.7802045 L243.13569,62.9359038 L227.663269,62.9359038 L218.053705,49.8094376 L207.554968,49.8094376 L215.736983,38.8681444 L235.555389,38.8689564 C237.280953,38.8689564 239.124262,37.4162346 239.586307,35.6882346 L240.706908,31.5168361 C241.168141,29.7896481 240.105194,28.3361143 238.37963,28.3361143 L209.490848,28.3361143 C207.76366,28.3361143 205.921976,29.7896481 205.459931,31.5168361 L197.039179,62.9359038 L186.097886,62.9359038 L194.517826,31.5184602 Z" id="Fill-39" fill="#622D0D"></path>
            <path d="M141.4044,62.9362286 C133.678746,62.9362286 128.997392,56.5414917 131.067257,48.8182737 C132.611738,43.0536722 137.939468,23.1638075 139.483949,17.398394 L150.42443,17.398394 C148.881573,23.1621835 143.553032,43.0520481 142.00855,48.8182737 C141.544069,50.5438376 142.607829,51.9965594 144.334205,51.9965594 L167.967528,51.9965594 C169.695528,51.9965594 171.537212,50.5438376 171.999257,48.8182737 L180.421633,17.399206 L191.361302,17.399206 L182.94055,48.8182737 C180.975438,56.1541534 173.821453,62.9362286 166.170505,62.9362286 L141.4044,62.9362286 Z" id="Fill-41" fill="#622D0D"></path>
            <path d="M338.801522,17.3963639 C331.07668,17.3963639 322.966123,23.7927248 320.897883,31.5167549 C319.350965,37.2821684 314.02486,57.1720331 312.479567,62.9366346 L323.419236,62.9366346 C324.962905,57.168785 330.293071,37.2821684 331.83674,31.5167549 C332.298785,29.7895669 334.141281,28.3360331 335.868469,28.3360331 L364.755627,28.3360331 C366.484439,28.3360331 367.547386,29.7895669 367.083717,31.5167549 L364.526635,41.0548602 L339.458454,41.0540481 L331.277251,51.9953414 L361.59683,51.9953414 L358.666214,62.9366346 L369.605071,62.9366346 L378.023386,31.5167549 C380.094063,23.7927248 375.411086,17.3963639 367.687056,17.3963639 L338.801522,17.3963639 Z" id="Fill-43" fill="#622D0D"></path>
            <path d="M308.774598,31.3713203 L308.774598,31.3713203 C310.749456,23.7130647 306.078659,17.3954707 298.400914,17.3954707 L264.266418,17.3954707 L266.585576,28.3359519 L295.470298,28.3359519 C302.687621,28.3359519 306.43108,29.4094556 308.774598,31.3713203 L308.774598,31.3713203 Z M264.574177,45.6338165 L267.504794,34.6957714 L299.018869,34.6957714 C306.741275,34.6957714 311.423441,41.0913203 309.3552,48.8161624 C307.286959,56.5410045 299.176403,62.9365534 291.451561,62.9365534 L252.06323,62.9365534 L260.246869,51.9952602 L294.384614,51.9952602 C296.111802,51.9952602 297.951862,50.5433504 298.416343,48.8161624 C298.878388,47.0873504 297.814629,45.6338165 296.085817,45.6338165 L264.574177,45.6338165 Z" id="Fill-45" fill="#622D0D"></path>
            <path d="M471.971693,32.9200241 C471.684235,30.7665203 471.419513,29.191994 469.08655,28.516385 C466.236325,27.6889263 462.735663,29.8310617 461.854611,33.1149113 C459.355182,42.4443248 456.418069,53.6032421 453.917017,62.9285955 L442.980595,62.9285955 C445.491392,53.5618286 448.404956,42.4857383 450.915753,33.1149113 C452.741197,26.3076632 458.605678,20.2807759 465.664656,18.1833023 C475.555182,15.2429414 482.100956,20.7347008 483.232114,29.2155429 L485.656836,47.3993323 C485.945107,49.5528361 486.209829,51.1314226 488.544415,51.8045955 C491.393829,52.6304301 494.89449,50.4891068 495.773919,47.2044451 C498.274159,37.8758436 501.211272,26.7169263 503.709077,17.3907609 L514.651182,17.3907609 C512.141197,26.7591519 509.226009,37.8344301 506.716024,47.2044451 C504.888144,54.0133173 499.023663,60.0385805 491.967122,62.1360541 C482.071723,65.0788511 475.528385,59.5854677 474.397227,51.1054376 L471.971693,32.9200241 Z" id="Fill-47" fill="#622D0D"></path>
            <path d="M535.741389,17.3963639 C528.016547,17.3963639 519.906803,23.7927248 517.83775,31.5167549 C516.292457,37.2821684 510.966352,57.1720331 509.420247,62.9366346 L520.359104,62.9366346 C521.902773,57.168785 527.232938,37.2821684 528.778232,31.5167549 C529.240277,29.7895669 531.083585,28.3360331 532.809961,28.3360331 L561.697119,28.3360331 C563.425931,28.3360331 564.488878,29.7895669 564.025209,31.5167549 L561.468938,41.0548602 L536.399946,41.0540481 L528.217931,51.9953414 L558.536698,51.9953414 L555.606893,62.9366346 L566.546562,62.9366346 L574.963254,31.5167549 C577.034743,23.7927248 572.352577,17.3963639 564.627735,17.3963639 L535.741389,17.3963639 Z" id="Fill-49" fill="#622D0D"></path>
        </g>
    </g>
</svg>