<?xml version="1.0" encoding="UTF-8"?>
<svg width="369px" height="253px" viewBox="0 0 369 253" version="1.1" xmlns="http://www.w3.org/2000/svg" xmlns:xlink="http://www.w3.org/1999/xlink">
    <!-- Generator: Sketch 58 (84663) - https://sketch.com -->
    <title>benefit4</title>
    <desc>Created with Sketch.</desc>
    <g id="benefit4" stroke="none" stroke-width="1" fill="none" fill-rule="evenodd">
        <rect fill="#F2F9FC" x="0" y="0" width="369" height="253"></rect>
        <g id="footprint" transform="translate(119.000000, 47.000000)" fill="#C0D4DE" fill-rule="nonzero">
            <path d="M119.268031,106 C120.286414,106 121.245966,105.500476 121.818787,104.653714 C138.05872,80.6435422 134.623963,36.1208025 101.375897,33.1277059 C68.1538396,30.1371007 69.1397106,80.4280367 84.6656309,104.595478 C85.2316397,105.476808 86.2116277,106 87.2547808,106 L119.268031,106 L119.268031,106 Z" id="Path"></path>
            <path d="M84.4645035,123.83497 L83.2539062,138.843505 C83.7322353,150.112471 92.9983987,159 104.253906,159 C115.514031,159 124.775577,150.111237 125.253906,138.843505 L124.043309,123.83497 C123.914031,122.233574 122.57908,121 120.975108,121 L87.5323965,121 C85.9287322,121 84.5937817,122.233574 84.4645035,123.83497 L84.4645035,123.83497 Z" id="Path"></path>
            <path d="M30.1318664,0.127706449 C-3.11614504,3.12081579 -6.55089663,47.6437454 9.68901017,71.6540195 C10.26183,72.5010965 11.2213806,73 12.2397614,73 L44.2529591,73 C45.2961105,73 46.2760968,72.4768054 46.8421048,71.5954715 C62.3679994,47.4282391 63.3541784,-2.86291149 30.1318664,0.127706449 Z" id="Path"></path>
            <path d="M7.46450354,90.8349696 L6.25390625,105.843505 C6.73223531,117.111237 15.9937817,126 27.2539062,126 C38.5094138,126 47.7755772,117.112471 48.2539062,105.843505 L47.043309,90.8349696 C46.9140308,89.233574 45.5790803,88 43.9751082,88 L10.5327043,88 C8.92873219,88 7.59378166,89.2338824 7.46450354,90.8349696 Z" id="Path"></path>
        </g>
    </g>
</svg>